<?xml version="1.0" encoding="utf-8"?>
<!-- Generator: Adobe Illustrator 21.0.0, SVG Export Plug-In . SVG Version: 6.00 Build 0)  -->
<svg version="1.0" id="Слой_1" xmlns="http://www.w3.org/2000/svg" xmlns:xlink="http://www.w3.org/1999/xlink" x="0px" y="0px"
	 viewBox="0 0 525.9 203.4" enable-background="new 0 0 525.9 203.4" xml:space="preserve">
<title>Ala-Too 200person (150)</title>
<g id="Слой_2">
	<g id="Alo-Too_U_50_75_">
		<path fill="#F2F2F2" stroke="#666666" stroke-linejoin="round" d="M289.2,25.6V20c0-0.8,0.7-1.5,1.5-1.5h7.5
			c0.8,0,1.5,0.7,1.5,1.5v5.6c0,0.8-0.7,1.5-1.5,1.5h-7.5C289.9,27.1,289.2,26.4,289.2,25.6z"/>
		<path fill="#F2F2F2" stroke="#666666" stroke-linejoin="round" d="M289.2,15.7v-0.2c0-0.8,0.7-1.5,1.5-1.5h7.5
			c0.8,0,1.5,0.7,1.5,1.5v0.2c0,0.8-0.7,1.5-1.5,1.5h-7.5C289.9,17.2,289.2,16.5,289.2,15.7z"/>
		<path fill="#F2F2F2" stroke="#666666" stroke-linejoin="round" d="M302.4,25.6V20c0-0.8,0.7-1.5,1.5-1.5h7.5
			c0.8,0,1.5,0.7,1.5,1.5v5.6c0,0.8-0.7,1.5-1.5,1.5h-7.5C303.1,27.1,302.4,26.4,302.4,25.6z"/>
		<path fill="#F2F2F2" stroke="#666666" stroke-linejoin="round" d="M302.4,15.7v-0.2c0-0.8,0.7-1.5,1.5-1.5h7.5
			c0.8,0,1.5,0.7,1.5,1.5v0.2c0,0.8-0.7,1.5-1.5,1.5h-7.5C303.1,17.2,302.4,16.5,302.4,15.7z"/>
		<path fill="#F2F2F2" stroke="#666666" stroke-linejoin="round" d="M315.7,25.6V20c0-0.8,0.7-1.5,1.5-1.5h7.5
			c0.8,0,1.5,0.7,1.5,1.5v5.6c0,0.8-0.7,1.5-1.5,1.5h-7.5C316.3,27.1,315.7,26.4,315.7,25.6z"/>
		<path fill="#F2F2F2" stroke="#666666" stroke-linejoin="round" d="M315.7,15.7v-0.2c0-0.8,0.7-1.5,1.5-1.5h7.5
			c0.8,0,1.5,0.7,1.5,1.5v0.2c0,0.8-0.7,1.5-1.5,1.5h-7.5C316.3,17.2,315.7,16.5,315.7,15.7z"/>
		<path fill="#F2F2F2" stroke="#666666" stroke-linejoin="round" d="M328.9,25.6V20c0-0.8,0.7-1.5,1.5-1.5h7.5
			c0.8,0,1.5,0.7,1.5,1.5v5.6c0,0.8-0.7,1.5-1.5,1.5h-7.5C329.6,27.1,328.9,26.4,328.9,25.6z"/>
		<path fill="#F2F2F2" stroke="#666666" stroke-linejoin="round" d="M328.9,15.7v-0.2c0-0.8,0.7-1.5,1.5-1.5h7.5
			c0.8,0,1.5,0.7,1.5,1.5v0.2c0,0.8-0.7,1.5-1.5,1.5h-7.5C329.6,17.2,328.9,16.5,328.9,15.7z"/>
		<path fill="#F2F2F2" stroke="#666666" stroke-linejoin="round" d="M342.2,25.6V20c0-0.8,0.7-1.5,1.5-1.5h7.5
			c0.8,0,1.5,0.7,1.5,1.5v5.6c0,0.8-0.7,1.5-1.5,1.5h-7.5C342.8,27.1,342.2,26.4,342.2,25.6z"/>
		<path fill="#F2F2F2" stroke="#666666" stroke-linejoin="round" d="M342.2,15.7v-0.2c0-0.8,0.7-1.5,1.5-1.5h7.5
			c0.8,0,1.5,0.7,1.5,1.5v0.2c0,0.8-0.7,1.5-1.5,1.5h-7.5C342.8,17.2,342.2,16.5,342.2,15.7z"/>
		<path fill="#F2F2F2" stroke="#666666" stroke-linejoin="round" d="M355.4,25.6V20c0-0.8,0.7-1.5,1.5-1.5h7.5
			c0.8,0,1.5,0.7,1.5,1.5v5.6c0,0.8-0.7,1.5-1.5,1.5h-7.5C356.1,27.1,355.4,26.4,355.4,25.6z"/>
		<path fill="#F2F2F2" stroke="#666666" stroke-linejoin="round" d="M355.4,15.7v-0.2c0-0.8,0.7-1.5,1.5-1.5h7.5
			c0.8,0,1.5,0.7,1.5,1.5v0.2c0,0.8-0.7,1.5-1.5,1.5h-7.5C356.1,17.2,355.4,16.5,355.4,15.7z"/>
		<path fill="#F2F2F2" stroke="#666666" stroke-linejoin="round" d="M368.7,25.6V20c0-0.8,0.7-1.5,1.5-1.5h7.5
			c0.8,0,1.5,0.7,1.5,1.5v5.6c0,0.8-0.7,1.5-1.5,1.5h-7.5C369.3,27.1,368.7,26.4,368.7,25.6z"/>
		<path fill="#F2F2F2" stroke="#666666" stroke-linejoin="round" d="M368.7,15.7v-0.2c0-0.8,0.7-1.5,1.5-1.5h7.5
			c0.8,0,1.5,0.7,1.5,1.5v0.2c0,0.8-0.7,1.5-1.5,1.5h-7.5C369.3,17.2,368.7,16.5,368.7,15.7z"/>
		<path fill="#F2F2F2" stroke="#666666" stroke-linejoin="round" d="M381.9,25.6V20c0-0.8,0.7-1.5,1.5-1.5h7.5
			c0.8,0,1.5,0.7,1.5,1.5v5.6c0,0.8-0.7,1.5-1.5,1.5h-7.5C382.6,27.1,381.9,26.4,381.9,25.6z"/>
		<path fill="#F2F2F2" stroke="#666666" stroke-linejoin="round" d="M381.9,15.7v-0.2c0-0.8,0.7-1.5,1.5-1.5h7.5
			c0.8,0,1.5,0.7,1.5,1.5v0.2c0,0.8-0.7,1.5-1.5,1.5h-7.5C382.6,17.2,381.9,16.5,381.9,15.7z"/>
		<path fill="#F2F2F2" stroke="#666666" stroke-linejoin="round" d="M395.1,25.6V20c0-0.8,0.7-1.5,1.5-1.5h7.5
			c0.8,0,1.5,0.7,1.5,1.5v5.6c0,0.8-0.7,1.5-1.5,1.5h-7.5C395.8,27.1,395.1,26.4,395.1,25.6z"/>
		<path fill="#F2F2F2" stroke="#666666" stroke-linejoin="round" d="M395.1,15.7v-0.2c0-0.8,0.7-1.5,1.5-1.5h7.5
			c0.8,0,1.5,0.7,1.5,1.5v0.2c0,0.8-0.7,1.5-1.5,1.5h-7.5C395.8,17.2,395.1,16.5,395.1,15.7z"/>
		<path fill="#F2F2F2" stroke="#666666" stroke-linejoin="round" d="M408.4,25.6V20c0-0.8,0.7-1.5,1.5-1.5h7.5
			c0.8,0,1.5,0.7,1.5,1.5v5.6c0,0.8-0.7,1.5-1.5,1.5h-7.5C409.1,27.1,408.4,26.4,408.4,25.6z"/>
		<path fill="#F2F2F2" stroke="#666666" stroke-linejoin="round" d="M408.4,15.7v-0.2c0-0.8,0.7-1.5,1.5-1.5h7.5
			c0.8,0,1.5,0.7,1.5,1.5v0.2c0,0.8-0.7,1.5-1.5,1.5h-7.5C409.1,17.2,408.4,16.5,408.4,15.7z"/>
		<path fill="#F2F2F2" stroke="#666666" stroke-linejoin="round" d="M421.6,25.6V20c0-0.8,0.7-1.5,1.5-1.5h7.5
			c0.8,0,1.5,0.7,1.5,1.5v5.6c0,0.8-0.7,1.5-1.5,1.5h-7.5C422.3,27.1,421.6,26.4,421.6,25.6z"/>
		<path fill="#F2F2F2" stroke="#666666" stroke-linejoin="round" d="M421.6,15.7v-0.2c0-0.8,0.7-1.5,1.5-1.5h7.5
			c0.8,0,1.5,0.7,1.5,1.5v0.2c0,0.8-0.7,1.5-1.5,1.5h-7.5C422.3,17.2,421.6,16.5,421.6,15.7z"/>
		<path fill="#F2F2F2" stroke="#666666" stroke-linejoin="round" d="M434.9,25.6V20c0-0.8,0.7-1.5,1.5-1.5h7.5
			c0.8,0,1.5,0.7,1.5,1.5v5.6c0,0.8-0.7,1.5-1.5,1.5h-7.5C435.6,27.1,434.9,26.4,434.9,25.6z"/>
		<path fill="#F2F2F2" stroke="#666666" stroke-linejoin="round" d="M434.9,15.7v-0.2c0-0.8,0.7-1.5,1.5-1.5h7.5
			c0.8,0,1.5,0.7,1.5,1.5v0.2c0,0.8-0.7,1.5-1.5,1.5h-7.5C435.6,17.2,434.9,16.5,434.9,15.7z"/>
		<path fill="#F2F2F2" stroke="#666666" stroke-linejoin="round" d="M448.1,25.6V20c0-0.8,0.7-1.5,1.5-1.5h7.5
			c0.8,0,1.5,0.7,1.5,1.5v5.6c0,0.8-0.7,1.5-1.5,1.5h-7.5C448.8,27.1,448.1,26.4,448.1,25.6z"/>
		<path fill="#F2F2F2" stroke="#666666" stroke-linejoin="round" d="M448.1,15.7v-0.2c0-0.8,0.7-1.5,1.5-1.5h7.5
			c0.8,0,1.5,0.7,1.5,1.5v0.2c0,0.8-0.7,1.5-1.5,1.5h-7.5C448.8,17.2,448.1,16.5,448.1,15.7z"/>
		<path fill="#F2F2F2" stroke="#666666" stroke-linejoin="round" d="M461.4,25.6V20c0-0.8,0.7-1.5,1.5-1.5h7.5
			c0.8,0,1.5,0.7,1.5,1.5v5.6c0,0.8-0.7,1.5-1.5,1.5h-7.5C462,27.1,461.4,26.4,461.4,25.6z"/>
		<path fill="#F2F2F2" stroke="#666666" stroke-linejoin="round" d="M461.4,15.7v-0.2c0-0.8,0.7-1.5,1.5-1.5h7.5
			c0.8,0,1.5,0.7,1.5,1.5v0.2c0,0.8-0.7,1.5-1.5,1.5h-7.5C462,17.2,461.4,16.5,461.4,15.7z"/>
		<path fill="#F2F2F2" stroke="#666666" stroke-linejoin="round" d="M474.6,25.6V20c0-0.8,0.7-1.5,1.5-1.5h7.5
			c0.8,0,1.5,0.7,1.5,1.5v5.6c0,0.8-0.7,1.5-1.5,1.5h-7.5C475.3,27.1,474.6,26.4,474.6,25.6z"/>
		<path fill="#F2F2F2" stroke="#666666" stroke-linejoin="round" d="M474.6,15.7v-0.2c0-0.8,0.7-1.5,1.5-1.5h7.5
			c0.8,0,1.5,0.7,1.5,1.5v0.2c0,0.8-0.7,1.5-1.5,1.5h-7.5C475.3,17.2,474.6,16.5,474.6,15.7z"/>
		<path fill="#F2F2F2" stroke="#666666" stroke-linejoin="round" d="M237.4,25.6V20c0-0.8,0.7-1.5,1.5-1.5h7.5
			c0.8,0,1.5,0.7,1.5,1.5v5.6c0,0.8-0.7,1.5-1.5,1.5h-7.5C238,27.1,237.4,26.4,237.4,25.6z"/>
		<path fill="#F2F2F2" stroke="#666666" stroke-linejoin="round" d="M237.4,15.7v-0.2c0-0.8,0.7-1.5,1.5-1.5h7.5
			c0.8,0,1.5,0.7,1.5,1.5v0.2c0,0.8-0.7,1.5-1.5,1.5h-7.5C238,17.2,237.4,16.5,237.4,15.7z"/>
		<path fill="#F2F2F2" stroke="#666666" stroke-linejoin="round" d="M224.1,25.6V20c0-0.8,0.7-1.5,1.5-1.5h7.5
			c0.8,0,1.5,0.7,1.5,1.5v5.6c0,0.8-0.7,1.5-1.5,1.5h-7.5C224.8,27.1,224.1,26.4,224.1,25.6z"/>
		<path fill="#F2F2F2" stroke="#666666" stroke-linejoin="round" d="M224.1,15.7v-0.2c0-0.8,0.7-1.5,1.5-1.5h7.5
			c0.8,0,1.5,0.7,1.5,1.5v0.2c0,0.8-0.7,1.5-1.5,1.5h-7.5C224.8,17.2,224.1,16.5,224.1,15.7z"/>
		<path fill="#F2F2F2" stroke="#666666" stroke-linejoin="round" d="M250.6,25.6V20c0-0.8,0.7-1.5,1.5-1.5h7.5
			c0.8,0,1.5,0.7,1.5,1.5v5.6c0,0.8-0.7,1.5-1.5,1.5h-7.5C251.3,27.1,250.6,26.4,250.6,25.6z"/>
		<path fill="#F2F2F2" stroke="#666666" stroke-linejoin="round" d="M250.6,15.7v-0.2c0-0.8,0.7-1.5,1.5-1.5h7.5
			c0.8,0,1.5,0.7,1.5,1.5v0.2c0,0.8-0.7,1.5-1.5,1.5h-7.5C251.3,17.2,250.6,16.5,250.6,15.7z"/>
		<path fill="#F2F2F2" stroke="#666666" stroke-linejoin="round" d="M263.9,25.6V20c0-0.8,0.7-1.5,1.5-1.5h7.5
			c0.8,0,1.5,0.7,1.5,1.5v5.6c0,0.8-0.7,1.5-1.5,1.5h-7.5C264.5,27.1,263.9,26.4,263.9,25.6z"/>
		<path fill="#F2F2F2" stroke="#666666" stroke-linejoin="round" d="M263.9,15.7v-0.2c0-0.8,0.7-1.5,1.5-1.5h7.5
			c0.8,0,1.5,0.7,1.5,1.5v0.2c0,0.8-0.7,1.5-1.5,1.5h-7.5C264.5,17.2,263.9,16.5,263.9,15.7z"/>
		<path fill="#F2F2F2" stroke="#666666" stroke-linejoin="round" d="M277.1,25.6V20c0-0.8,0.7-1.5,1.5-1.5h7.5
			c0.8,0,1.5,0.7,1.5,1.5v5.6c0,0.8-0.7,1.5-1.5,1.5h-7.5C277.8,27.1,277.1,26.4,277.1,25.6z"/>
		<path fill="#F2F2F2" stroke="#666666" stroke-linejoin="round" d="M277.1,15.7v-0.2c0-0.8,0.7-1.5,1.5-1.5h7.5
			c0.8,0,1.5,0.7,1.5,1.5v0.2c0,0.8-0.7,1.5-1.5,1.5h-7.5C277.8,17.2,277.1,16.5,277.1,15.7z"/>
		<path fill="#F2F2F2" stroke="#666666" stroke-linejoin="round" d="M420.1,178.1v5.6c0,0.8-0.7,1.5-1.5,1.5h-7.5
			c-0.8,0-1.5-0.7-1.5-1.5v-5.6c0-0.8,0.7-1.5,1.5-1.5h7.5C419.4,176.6,420.1,177.2,420.1,178.1z"/>
		<path fill="#F2F2F2" stroke="#666666" stroke-linejoin="round" d="M420.1,187.9v0.2c0,0.8-0.7,1.5-1.5,1.5h-7.5
			c-0.8,0-1.5-0.7-1.5-1.5v-0.2c0-0.8,0.7-1.5,1.5-1.5h7.5C419.4,186.4,420.1,187.1,420.1,187.9z"/>
		<path fill="#F2F2F2" stroke="#666666" stroke-linejoin="round" d="M406.8,178.1v5.6c0,0.8-0.7,1.5-1.5,1.5h-7.5
			c-0.8,0-1.5-0.7-1.5-1.5v-5.6c0-0.8,0.7-1.5,1.5-1.5h7.5C406.2,176.6,406.8,177.2,406.8,178.1z"/>
		<path fill="#F2F2F2" stroke="#666666" stroke-linejoin="round" d="M406.8,187.9v0.2c0,0.8-0.7,1.5-1.5,1.5h-7.5
			c-0.8,0-1.5-0.7-1.5-1.5v-0.2c0-0.8,0.7-1.5,1.5-1.5h7.5C406.2,186.4,406.8,187.1,406.8,187.9z"/>
		<path fill="#F2F2F2" stroke="#666666" stroke-linejoin="round" d="M393.6,178.1v5.6c0,0.8-0.7,1.5-1.5,1.5h-7.5
			c-0.8,0-1.5-0.7-1.5-1.5v-5.6c0-0.8,0.7-1.5,1.5-1.5h7.5C392.9,176.6,393.6,177.2,393.6,178.1z"/>
		<path fill="#F2F2F2" stroke="#666666" stroke-linejoin="round" d="M393.6,187.9v0.2c0,0.8-0.7,1.5-1.5,1.5h-7.5
			c-0.8,0-1.5-0.7-1.5-1.5v-0.2c0-0.8,0.7-1.5,1.5-1.5h7.5C392.9,186.4,393.6,187.1,393.6,187.9z"/>
		<path fill="#F2F2F2" stroke="#666666" stroke-linejoin="round" d="M380.3,178.1v5.6c0,0.8-0.7,1.5-1.5,1.5h-7.5
			c-0.8,0-1.5-0.7-1.5-1.5v-5.6c0-0.8,0.7-1.5,1.5-1.5h7.5C379.7,176.6,380.3,177.2,380.3,178.1z"/>
		<path fill="#F2F2F2" stroke="#666666" stroke-linejoin="round" d="M380.3,187.9v0.2c0,0.8-0.7,1.5-1.5,1.5h-7.5
			c-0.8,0-1.5-0.7-1.5-1.5v-0.2c0-0.8,0.7-1.5,1.5-1.5h7.5C379.7,186.4,380.3,187.1,380.3,187.9z"/>
		<path fill="#F2F2F2" stroke="#666666" stroke-linejoin="round" d="M367.1,178.1v5.6c0,0.8-0.7,1.5-1.5,1.5h-7.5
			c-0.8,0-1.5-0.7-1.5-1.5v-5.6c0-0.8,0.7-1.5,1.5-1.5h7.5C366.4,176.6,367.1,177.2,367.1,178.1z"/>
		<path fill="#F2F2F2" stroke="#666666" stroke-linejoin="round" d="M367.1,187.9v0.2c0,0.8-0.7,1.5-1.5,1.5h-7.5
			c-0.8,0-1.5-0.7-1.5-1.5v-0.2c0-0.8,0.7-1.5,1.5-1.5h7.5C366.4,186.4,367.1,187.1,367.1,187.9z"/>
		<path fill="#F2F2F2" stroke="#666666" stroke-linejoin="round" d="M353.9,178.1v5.6c0,0.8-0.7,1.5-1.5,1.5h-7.5
			c-0.8,0-1.5-0.7-1.5-1.5v-5.6c0-0.8,0.7-1.5,1.5-1.5h7.5C353.2,176.6,353.9,177.2,353.9,178.1z"/>
		<path fill="#F2F2F2" stroke="#666666" stroke-linejoin="round" d="M353.9,187.9v0.2c0,0.8-0.7,1.5-1.5,1.5h-7.5
			c-0.8,0-1.5-0.7-1.5-1.5v-0.2c0-0.8,0.7-1.5,1.5-1.5h7.5C353.2,186.4,353.9,187.1,353.9,187.9z"/>
		<path fill="#F2F2F2" stroke="#666666" stroke-linejoin="round" d="M340.6,178.1v5.6c0,0.8-0.7,1.5-1.5,1.5h-7.5
			c-0.8,0-1.5-0.7-1.5-1.5v-5.6c0-0.8,0.7-1.5,1.5-1.5h7.5C339.9,176.6,340.6,177.2,340.6,178.1z"/>
		<path fill="#F2F2F2" stroke="#666666" stroke-linejoin="round" d="M340.6,187.9v0.2c0,0.8-0.7,1.5-1.5,1.5h-7.5
			c-0.8,0-1.5-0.7-1.5-1.5v-0.2c0-0.8,0.7-1.5,1.5-1.5h7.5C339.9,186.4,340.6,187.1,340.6,187.9z"/>
		<path fill="#F2F2F2" stroke="#666666" stroke-linejoin="round" d="M327.4,178.1v5.6c0,0.8-0.7,1.5-1.5,1.5h-7.5
			c-0.8,0-1.5-0.7-1.5-1.5v-5.6c0-0.8,0.7-1.5,1.5-1.5h7.5C326.7,176.6,327.4,177.2,327.4,178.1z"/>
		<path fill="#F2F2F2" stroke="#666666" stroke-linejoin="round" d="M327.4,187.9v0.2c0,0.8-0.7,1.5-1.5,1.5h-7.5
			c-0.8,0-1.5-0.7-1.5-1.5v-0.2c0-0.8,0.7-1.5,1.5-1.5h7.5C326.7,186.4,327.4,187.1,327.4,187.9z"/>
		<path fill="#F2F2F2" stroke="#666666" stroke-linejoin="round" d="M314.1,178.1v5.6c0,0.8-0.7,1.5-1.5,1.5h-7.5
			c-0.8,0-1.5-0.7-1.5-1.5v-5.6c0-0.8,0.7-1.5,1.5-1.5h7.5C313.4,176.6,314.1,177.2,314.1,178.1z"/>
		<path fill="#F2F2F2" stroke="#666666" stroke-linejoin="round" d="M314.1,187.9v0.2c0,0.8-0.7,1.5-1.5,1.5h-7.5
			c-0.8,0-1.5-0.7-1.5-1.5v-0.2c0-0.8,0.7-1.5,1.5-1.5h7.5C313.4,186.4,314.1,187.1,314.1,187.9z"/>
		<path fill="#F2F2F2" stroke="#666666" stroke-linejoin="round" d="M300.9,178.1v5.6c0,0.8-0.7,1.5-1.5,1.5h-7.5
			c-0.8,0-1.5-0.7-1.5-1.5v-5.6c0-0.8,0.7-1.5,1.5-1.5h7.5C300.2,176.6,300.9,177.2,300.9,178.1z"/>
		<path fill="#F2F2F2" stroke="#666666" stroke-linejoin="round" d="M300.9,187.9v0.2c0,0.8-0.7,1.5-1.5,1.5h-7.5
			c-0.8,0-1.5-0.7-1.5-1.5v-0.2c0-0.8,0.7-1.5,1.5-1.5h7.5C300.2,186.4,300.9,187.1,300.9,187.9z"/>
		<path fill="#F2F2F2" stroke="#666666" stroke-linejoin="round" d="M287.6,178.1v5.6c0,0.8-0.7,1.5-1.5,1.5h-7.5
			c-0.8,0-1.5-0.7-1.5-1.5v-5.6c0-0.8,0.7-1.5,1.5-1.5h7.5C287,176.6,287.6,177.2,287.6,178.1z"/>
		<path fill="#F2F2F2" stroke="#666666" stroke-linejoin="round" d="M287.6,187.9v0.2c0,0.8-0.7,1.5-1.5,1.5h-7.5
			c-0.8,0-1.5-0.7-1.5-1.5v-0.2c0-0.8,0.7-1.5,1.5-1.5h7.5C287,186.4,287.6,187.1,287.6,187.9z"/>
		<path fill="#F2F2F2" stroke="#666666" stroke-linejoin="round" d="M274.4,178.1v5.6c0,0.8-0.7,1.5-1.5,1.5h-7.5
			c-0.8,0-1.5-0.7-1.5-1.5v-5.6c0-0.8,0.7-1.5,1.5-1.5h7.5C273.7,176.6,274.4,177.2,274.4,178.1z"/>
		<path fill="#F2F2F2" stroke="#666666" stroke-linejoin="round" d="M274.4,187.9v0.2c0,0.8-0.7,1.5-1.5,1.5h-7.5
			c-0.8,0-1.5-0.7-1.5-1.5v-0.2c0-0.8,0.7-1.5,1.5-1.5h7.5C273.7,186.4,274.4,187.1,274.4,187.9z"/>
		<path fill="#F2F2F2" stroke="#666666" stroke-linejoin="round" d="M261.1,178.1v5.6c0,0.8-0.7,1.5-1.5,1.5h-7.5
			c-0.8,0-1.5-0.7-1.5-1.5v-5.6c0-0.8,0.7-1.5,1.5-1.5h7.5C260.5,176.6,261.1,177.2,261.1,178.1z"/>
		<path fill="#F2F2F2" stroke="#666666" stroke-linejoin="round" d="M261.1,187.9v0.2c0,0.8-0.7,1.5-1.5,1.5h-7.5
			c-0.8,0-1.5-0.7-1.5-1.5v-0.2c0-0.8,0.7-1.5,1.5-1.5h7.5C260.5,186.4,261.1,187.1,261.1,187.9z"/>
		<path fill="#F2F2F2" stroke="#666666" stroke-linejoin="round" d="M247.9,178.1v5.6c0,0.8-0.7,1.5-1.5,1.5h-7.5
			c-0.8,0-1.5-0.7-1.5-1.5v-5.6c0-0.8,0.7-1.5,1.5-1.5h7.5C247.2,176.6,247.9,177.2,247.9,178.1z"/>
		<path fill="#F2F2F2" stroke="#666666" stroke-linejoin="round" d="M247.9,187.9v0.2c0,0.8-0.7,1.5-1.5,1.5h-7.5
			c-0.8,0-1.5-0.7-1.5-1.5v-0.2c0-0.8,0.7-1.5,1.5-1.5h7.5C247.2,186.4,247.9,187.1,247.9,187.9z"/>
		<path fill="#F2F2F2" stroke="#666666" stroke-linejoin="round" d="M234.6,178.1v5.6c0,0.8-0.7,1.5-1.5,1.5h-7.5
			c-0.8,0-1.5-0.7-1.5-1.5v-5.6c0-0.8,0.7-1.5,1.5-1.5h7.5C234,176.6,234.6,177.2,234.6,178.1z"/>
		<path fill="#F2F2F2" stroke="#666666" stroke-linejoin="round" d="M234.6,187.9v0.2c0,0.8-0.7,1.5-1.5,1.5h-7.5
			c-0.8,0-1.5-0.7-1.5-1.5v-0.2c0-0.8,0.7-1.5,1.5-1.5h7.5C234,186.4,234.6,187.1,234.6,187.9z"/>
		<path fill="#F2F2F2" stroke="#666666" stroke-linejoin="round" d="M471.9,178.1v5.6c0,0.8-0.7,1.5-1.5,1.5h-7.5
			c-0.8,0-1.5-0.7-1.5-1.5v-5.6c0-0.8,0.7-1.5,1.5-1.5h7.5C471.2,176.6,471.9,177.2,471.9,178.1z"/>
		<path fill="#F2F2F2" stroke="#666666" stroke-linejoin="round" d="M471.9,187.9v0.2c0,0.8-0.7,1.5-1.5,1.5h-7.5
			c-0.8,0-1.5-0.7-1.5-1.5v-0.2c0-0.8,0.7-1.5,1.5-1.5h7.5C471.2,186.4,471.9,187.1,471.9,187.9z"/>
		<path fill="#F2F2F2" stroke="#666666" stroke-linejoin="round" d="M485.1,178.1v5.6c0,0.8-0.7,1.5-1.5,1.5h-7.5
			c-0.8,0-1.5-0.7-1.5-1.5v-5.6c0-0.8,0.7-1.5,1.5-1.5h7.5C484.5,176.6,485.1,177.2,485.1,178.1z"/>
		<path fill="#F2F2F2" stroke="#666666" stroke-linejoin="round" d="M485.1,187.9v0.2c0,0.8-0.7,1.5-1.5,1.5h-7.5
			c-0.8,0-1.5-0.7-1.5-1.5v-0.2c0-0.8,0.7-1.5,1.5-1.5h7.5C484.5,186.4,485.1,187.1,485.1,187.9z"/>
		<path fill="#F2F2F2" stroke="#666666" stroke-linejoin="round" d="M458.6,178.1v5.6c0,0.8-0.7,1.5-1.5,1.5h-7.5
			c-0.8,0-1.5-0.7-1.5-1.5v-5.6c0-0.8,0.7-1.5,1.5-1.5h7.5C458,176.6,458.6,177.2,458.6,178.1z"/>
		<path fill="#F2F2F2" stroke="#666666" stroke-linejoin="round" d="M458.6,187.9v0.2c0,0.8-0.7,1.5-1.5,1.5h-7.5
			c-0.8,0-1.5-0.7-1.5-1.5v-0.2c0-0.8,0.7-1.5,1.5-1.5h7.5C458,186.4,458.6,187.1,458.6,187.9z"/>
		<path fill="#F2F2F2" stroke="#666666" stroke-linejoin="round" d="M445.4,178.1v5.6c0,0.8-0.7,1.5-1.5,1.5h-7.5
			c-0.8,0-1.5-0.7-1.5-1.5v-5.6c0-0.8,0.7-1.5,1.5-1.5h7.5C444.7,176.6,445.4,177.2,445.4,178.1z"/>
		<path fill="#F2F2F2" stroke="#666666" stroke-linejoin="round" d="M445.4,187.9v0.2c0,0.8-0.7,1.5-1.5,1.5h-7.5
			c-0.8,0-1.5-0.7-1.5-1.5v-0.2c0-0.8,0.7-1.5,1.5-1.5h7.5C444.7,186.4,445.4,187.1,445.4,187.9z"/>
		<path fill="#F2F2F2" stroke="#666666" stroke-linejoin="round" d="M432.2,178.1v5.6c0,0.8-0.7,1.5-1.5,1.5h-7.5
			c-0.8,0-1.5-0.7-1.5-1.5v-5.6c0-0.8,0.7-1.5,1.5-1.5h7.5C431.5,176.6,432.2,177.2,432.2,178.1z"/>
		<path fill="#F2F2F2" stroke="#666666" stroke-linejoin="round" d="M432.2,187.9v0.2c0,0.8-0.7,1.5-1.5,1.5h-7.5
			c-0.8,0-1.5-0.7-1.5-1.5v-0.2c0-0.8,0.7-1.5,1.5-1.5h7.5C431.5,186.4,432.2,187.1,432.2,187.9z"/>
		<path fill="#F2F2F2" stroke="#666666" stroke-linejoin="round" d="M490.3,103h5.6c0.8,0,1.5,0.7,1.5,1.5v7.5
			c0,0.8-0.7,1.5-1.5,1.5h-5.6c-0.8,0-1.5-0.7-1.5-1.5v-7.5C488.8,103.7,489.5,103,490.3,103z"/>
		<path fill="#F2F2F2" stroke="#666666" stroke-linejoin="round" d="M500.2,103h0.2c0.8,0,1.5,0.7,1.5,1.5v7.5
			c0,0.8-0.7,1.5-1.5,1.5h-0.2c-0.8,0-1.5-0.7-1.5-1.5v-7.5C498.7,103.7,499.3,103,500.2,103z"/>
		<path fill="#F2F2F2" stroke="#666666" stroke-linejoin="round" d="M490.3,116.2h5.6c0.8,0,1.5,0.7,1.5,1.5v7.5
			c0,0.8-0.7,1.5-1.5,1.5h-5.6c-0.8,0-1.5-0.7-1.5-1.5v-7.5C488.8,116.9,489.5,116.2,490.3,116.2z"/>
		<path fill="#F2F2F2" stroke="#666666" stroke-linejoin="round" d="M500.2,116.2h0.2c0.8,0,1.5,0.7,1.5,1.5v7.5
			c0,0.8-0.7,1.5-1.5,1.5h-0.2c-0.8,0-1.5-0.7-1.5-1.5v-7.5C498.7,116.9,499.3,116.2,500.2,116.2z"/>
		<path fill="#F2F2F2" stroke="#666666" stroke-linejoin="round" d="M490.3,129.5h5.6c0.8,0,1.5,0.7,1.5,1.5v7.5
			c0,0.8-0.7,1.5-1.5,1.5h-5.6c-0.8,0-1.5-0.7-1.5-1.5V131C488.8,130.2,489.5,129.5,490.3,129.5z"/>
		<path fill="#F2F2F2" stroke="#666666" stroke-linejoin="round" d="M500.2,129.5h0.2c0.8,0,1.5,0.7,1.5,1.5v7.5
			c0,0.8-0.7,1.5-1.5,1.5h-0.2c-0.8,0-1.5-0.7-1.5-1.5V131C498.7,130.2,499.3,129.5,500.2,129.5z"/>
		<path fill="#F2F2F2" stroke="#666666" stroke-linejoin="round" d="M490.3,142.7h5.6c0.8,0,1.5,0.7,1.5,1.5v7.5
			c0,0.8-0.7,1.5-1.5,1.5h-5.6c-0.8,0-1.5-0.7-1.5-1.5v-7.5C488.8,143.4,489.5,142.7,490.3,142.7z"/>
		<path fill="#F2F2F2" stroke="#666666" stroke-linejoin="round" d="M500.2,142.7h0.2c0.8,0,1.5,0.7,1.5,1.5v7.5
			c0,0.8-0.7,1.5-1.5,1.5h-0.2c-0.8,0-1.5-0.7-1.5-1.5v-7.5C498.7,143.4,499.3,142.7,500.2,142.7z"/>
		<path fill="#F2F2F2" stroke="#666666" stroke-linejoin="round" d="M490.3,156h5.6c0.8,0,1.5,0.7,1.5,1.5v7.5
			c0,0.8-0.7,1.5-1.5,1.5h-5.6c-0.8,0-1.5-0.7-1.5-1.5v-7.5C488.8,156.6,489.5,156,490.3,156z"/>
		<path fill="#F2F2F2" stroke="#666666" stroke-linejoin="round" d="M500.2,156h0.2c0.8,0,1.5,0.7,1.5,1.5v7.5
			c0,0.8-0.7,1.5-1.5,1.5h-0.2c-0.8,0-1.5-0.7-1.5-1.5v-7.5C498.7,156.6,499.3,156,500.2,156z"/>
		<path fill="#F2F2F2" stroke="#666666" stroke-linejoin="round" d="M490.3,49.9h5.6c0.8,0,1.5,0.7,1.5,1.5v7.5
			c0,0.8-0.7,1.5-1.5,1.5h-5.6c-0.8,0-1.5-0.7-1.5-1.5v-7.5C488.8,50.6,489.5,49.9,490.3,49.9z"/>
		<path fill="#F2F2F2" stroke="#666666" stroke-linejoin="round" d="M500.2,49.9h0.2c0.8,0,1.5,0.7,1.5,1.5v7.5
			c0,0.8-0.7,1.5-1.5,1.5h-0.2c-0.8,0-1.5-0.7-1.5-1.5v-7.5C498.7,50.6,499.3,49.9,500.2,49.9z"/>
		<path fill="#F2F2F2" stroke="#666666" stroke-linejoin="round" d="M490.3,36.7h5.6c0.8,0,1.5,0.7,1.5,1.5v7.5
			c0,0.8-0.7,1.5-1.5,1.5h-5.6c-0.8,0-1.5-0.7-1.5-1.5v-7.5C488.8,37.3,489.5,36.7,490.3,36.7z"/>
		<path fill="#F2F2F2" stroke="#666666" stroke-linejoin="round" d="M500.2,36.6h0.2c0.8,0,1.5,0.7,1.5,1.5v7.5
			c0,0.8-0.7,1.5-1.5,1.5h-0.2c-0.8,0-1.5-0.7-1.5-1.5v-7.5C498.7,37.3,499.3,36.6,500.2,36.6z"/>
		<path fill="#F2F2F2" stroke="#666666" stroke-linejoin="round" d="M490.3,63.1h5.6c0.8,0,1.5,0.7,1.5,1.5v7.5
			c0,0.8-0.7,1.5-1.5,1.5h-5.6c-0.8,0-1.5-0.7-1.5-1.5v-7.5C488.8,63.8,489.5,63.1,490.3,63.1z"/>
		<path fill="#F2F2F2" stroke="#666666" stroke-linejoin="round" d="M500.2,63.1h0.2c0.8,0,1.5,0.7,1.5,1.5v7.5
			c0,0.8-0.7,1.5-1.5,1.5h-0.2c-0.8,0-1.5-0.7-1.5-1.5v-7.5C498.7,63.8,499.3,63.1,500.2,63.1z"/>
		<path fill="#F2F2F2" stroke="#666666" stroke-linejoin="round" d="M490.3,76.4h5.6c0.8,0,1.5,0.7,1.5,1.5v7.5
			c0,0.8-0.7,1.5-1.5,1.5h-5.6c-0.8,0-1.5-0.7-1.5-1.5v-7.5C488.8,77.1,489.5,76.4,490.3,76.4z"/>
		<path fill="#F2F2F2" stroke="#666666" stroke-linejoin="round" d="M500.2,76.4h0.2c0.8,0,1.5,0.7,1.5,1.5v7.5
			c0,0.8-0.7,1.5-1.5,1.5h-0.2c-0.8,0-1.5-0.7-1.5-1.5v-7.5C498.7,77.1,499.3,76.4,500.2,76.4z"/>
		<path fill="#F2F2F2" stroke="#666666" stroke-linejoin="round" d="M490.3,89.6h5.6c0.8,0,1.5,0.7,1.5,1.5v7.5
			c0,0.8-0.7,1.5-1.5,1.5h-5.6c-0.8,0-1.5-0.7-1.5-1.5v-7.5C488.8,90.3,489.5,89.6,490.3,89.6z"/>
		<path fill="#F2F2F2" stroke="#666666" stroke-linejoin="round" d="M500.2,89.6h0.2c0.8,0,1.5,0.7,1.5,1.5v7.5
			c0,0.8-0.7,1.5-1.5,1.5h-0.2c-0.8,0-1.5-0.7-1.5-1.5v-7.5C498.7,90.3,499.3,89.6,500.2,89.6z"/>
		<path fill="#F2F2F2" stroke="#666666" stroke-linejoin="round" d="M419.3,33.6v17.3c0,0.8-0.7,1.5-1.5,1.5h-28.5
			c-0.8,0-1.5-0.7-1.5-1.5V33.6c0-0.8,0.7-1.5,1.5-1.5h28.5C418.6,32,419.3,32.7,419.3,33.6z"/>
		<path fill="#F2F2F2" stroke="#666666" stroke-linejoin="round" d="M386.5,33.6v17.3c0,0.8-0.7,1.5-1.5,1.5h-28.5
			c-0.8,0-1.5-0.7-1.5-1.5V33.6c0-0.8,0.7-1.5,1.5-1.5H385C385.8,32,386.5,32.7,386.5,33.6z"/>
		<path fill="#F2F2F2" stroke="#666666" stroke-linejoin="round" d="M484.8,33.6v17.3c0,0.8-0.7,1.5-1.5,1.5h-28.5
			c-0.8,0-1.5-0.7-1.5-1.5V33.6c0-0.8,0.7-1.5,1.5-1.5h28.5C484.1,32,484.8,32.7,484.8,33.6z"/>
		<path fill="#F2F2F2" stroke="#666666" stroke-linejoin="round" d="M452,33.6v17.3c0,0.8-0.7,1.5-1.5,1.5h-28.5
			c-0.8,0-1.5-0.7-1.5-1.5V33.6c0-0.8,0.7-1.5,1.5-1.5h28.5C451.3,32,452,32.7,452,33.6z"/>
		<path fill="#F2F2F2" stroke="#666666" stroke-linejoin="round" d="M483.3,117.9H466c-0.8,0-1.5-0.7-1.5-1.5V88
			c0-0.8,0.7-1.5,1.5-1.5h17.3c0.8,0,1.5,0.7,1.5,1.5v28.5C484.8,117.3,484.1,117.9,483.3,117.9z"/>
		<path fill="#F2F2F2" stroke="#666666" stroke-linejoin="round" d="M483.3,150.7H466c-0.8,0-1.5-0.7-1.5-1.5v-28.5
			c0-0.8,0.7-1.5,1.5-1.5h17.3c0.8,0,1.5,0.7,1.5,1.5v28.5C484.8,150,484.1,150.7,483.3,150.7z"/>
		<path fill="#F2F2F2" stroke="#666666" stroke-linejoin="round" d="M483.3,85.2H466c-0.8,0-1.5-0.7-1.5-1.5V55.2
			c0-0.8,0.7-1.5,1.5-1.5h17.3c0.8,0,1.5,0.7,1.5,1.5v28.5C484.8,84.5,484.1,85.2,483.3,85.2z"/>
		<path fill="#F2F2F2" stroke="#666666" stroke-linejoin="round" d="M353.7,33.6v17.3c0,0.8-0.7,1.5-1.5,1.5h-28.5
			c-0.8,0-1.5-0.7-1.5-1.5V33.6c0-0.8,0.7-1.5,1.5-1.5h28.5C353.1,32,353.7,32.7,353.7,33.6z"/>
		<path fill="#F2F2F2" stroke="#666666" stroke-linejoin="round" d="M321,33.6v17.3c0,0.8-0.7,1.5-1.5,1.5H291
			c-0.8,0-1.5-0.7-1.5-1.5V33.6c0-0.8,0.7-1.5,1.5-1.5h28.5C320.3,32,321,32.7,321,33.6z"/>
		<path fill="#F2F2F2" stroke="#666666" stroke-linejoin="round" d="M288.4,33.6v17.3c0,0.8-0.7,1.5-1.5,1.5h-28.5
			c-0.8,0-1.5-0.7-1.5-1.5V33.6c0-0.8,0.7-1.5,1.5-1.5h28.5C287.8,32,288.4,32.7,288.4,33.6z"/>
		<path fill="#F2F2F2" stroke="#666666" stroke-linejoin="round" d="M255.7,33.6v17.3c0,0.8-0.7,1.5-1.5,1.5h-28.5
			c-0.8,0-1.5-0.7-1.5-1.5V33.6c0-0.8,0.7-1.5,1.5-1.5h28.5C255,32,255.7,32.7,255.7,33.6z"/>
		<path fill="#F2F2F2" stroke="#666666" stroke-linejoin="round" d="M288.4,153.6v17.3c0,0.8-0.7,1.5-1.5,1.5h-28.5
			c-0.8,0-1.5-0.7-1.5-1.5v-17.3c0-0.8,0.7-1.5,1.5-1.5h28.5C287.8,152.1,288.4,152.8,288.4,153.6z"/>
		<path fill="#F2F2F2" stroke="#666666" stroke-linejoin="round" d="M255.7,153.6v17.3c0,0.8-0.7,1.5-1.5,1.5h-28.5
			c-0.8,0-1.5-0.7-1.5-1.5v-17.3c0-0.8,0.7-1.5,1.5-1.5h28.5C255,152.1,255.7,152.8,255.7,153.6z"/>
		<path fill="#F2F2F2" stroke="#666666" stroke-linejoin="round" d="M419.3,153.6v17.3c0,0.8-0.7,1.5-1.5,1.5h-28.5
			c-0.8,0-1.5-0.7-1.5-1.5v-17.3c0-0.8,0.7-1.5,1.5-1.5h28.5C418.6,152.1,419.3,152.8,419.3,153.6z"/>
		<path fill="#F2F2F2" stroke="#666666" stroke-linejoin="round" d="M386.5,153.6v17.3c0,0.8-0.7,1.5-1.5,1.5h-28.5
			c-0.8,0-1.5-0.7-1.5-1.5v-17.3c0-0.8,0.7-1.5,1.5-1.5H385C385.8,152.1,386.5,152.8,386.5,153.6z"/>
		<path fill="#F2F2F2" stroke="#666666" stroke-linejoin="round" d="M484.8,153.6v17.3c0,0.8-0.7,1.5-1.5,1.5h-28.5
			c-0.8,0-1.5-0.7-1.5-1.5v-17.3c0-0.8,0.7-1.5,1.5-1.5h28.5C484.1,152.1,484.8,152.8,484.8,153.6z"/>
		<path fill="#F2F2F2" stroke="#666666" stroke-linejoin="round" d="M452,153.6v17.3c0,0.8-0.7,1.5-1.5,1.5h-28.5
			c-0.8,0-1.5-0.7-1.5-1.5v-17.3c0-0.8,0.7-1.5,1.5-1.5h28.5C451.3,152.1,452,152.8,452,153.6z"/>
		<path fill="#F2F2F2" stroke="#666666" stroke-linejoin="round" d="M353.7,153.6v17.3c0,0.8-0.7,1.5-1.5,1.5h-28.5
			c-0.8,0-1.5-0.7-1.5-1.5v-17.3c0-0.8,0.7-1.5,1.5-1.5h28.5C353.1,152.1,353.7,152.8,353.7,153.6z"/>
		<path fill="#F2F2F2" stroke="#666666" stroke-linejoin="round" d="M321,153.6v17.3c0,0.8-0.7,1.5-1.5,1.5H291
			c-0.8,0-1.5-0.7-1.5-1.5v-17.3c0-0.8,0.7-1.5,1.5-1.5h28.5C320.3,152.1,321,152.8,321,153.6z"/>
		<path fill="#F2F2F2" stroke="#666666" stroke-linejoin="round" d="M158.2,25.6V20c0-0.8,0.7-1.5,1.5-1.5h7.5
			c0.8,0,1.5,0.7,1.5,1.5v5.6c0,0.8-0.7,1.5-1.5,1.5h-7.5C158.9,27.1,158.2,26.4,158.2,25.6z"/>
		<path fill="#F2F2F2" stroke="#666666" stroke-linejoin="round" d="M158.2,15.7v-0.2c0-0.8,0.7-1.5,1.5-1.5h7.5
			c0.8,0,1.5,0.7,1.5,1.5v0.2c0,0.8-0.7,1.5-1.5,1.5h-7.5C158.9,17.2,158.2,16.5,158.2,15.7z"/>
		<path fill="#F2F2F2" stroke="#666666" stroke-linejoin="round" d="M171.4,25.6V20c0-0.8,0.7-1.5,1.5-1.5h7.5
			c0.8,0,1.5,0.7,1.5,1.5v5.6c0,0.8-0.7,1.5-1.5,1.5h-7.5C172.1,27.1,171.4,26.4,171.4,25.6z"/>
		<path fill="#F2F2F2" stroke="#666666" stroke-linejoin="round" d="M171.4,15.7v-0.2c0-0.8,0.7-1.5,1.5-1.5h7.5
			c0.8,0,1.5,0.7,1.5,1.5v0.2c0,0.8-0.7,1.5-1.5,1.5h-7.5C172.1,17.2,171.4,16.5,171.4,15.7z"/>
		<path fill="#F2F2F2" stroke="#666666" stroke-linejoin="round" d="M184.7,25.6V20c0-0.8,0.7-1.5,1.5-1.5h7.5
			c0.8,0,1.5,0.7,1.5,1.5v5.6c0,0.8-0.7,1.5-1.5,1.5h-7.5C185.3,27.1,184.7,26.4,184.7,25.6z"/>
		<path fill="#F2F2F2" stroke="#666666" stroke-linejoin="round" d="M184.7,15.7v-0.2c0-0.8,0.7-1.5,1.5-1.5h7.5
			c0.8,0,1.5,0.7,1.5,1.5v0.2c0,0.8-0.7,1.5-1.5,1.5h-7.5C185.3,17.2,184.7,16.5,184.7,15.7z"/>
		<path fill="#F2F2F2" stroke="#666666" stroke-linejoin="round" d="M197.9,25.6V20c0-0.8,0.7-1.5,1.5-1.5h7.5
			c0.8,0,1.5,0.7,1.5,1.5v5.6c0,0.8-0.7,1.5-1.5,1.5h-7.5C198.6,27.1,197.9,26.4,197.9,25.6z"/>
		<path fill="#F2F2F2" stroke="#666666" stroke-linejoin="round" d="M197.9,15.7v-0.2c0-0.8,0.7-1.5,1.5-1.5h7.5
			c0.8,0,1.5,0.7,1.5,1.5v0.2c0,0.8-0.7,1.5-1.5,1.5h-7.5C198.6,17.2,197.9,16.5,197.9,15.7z"/>
		<path fill="#F2F2F2" stroke="#666666" stroke-linejoin="round" d="M211.2,25.6V20c0-0.8,0.7-1.5,1.5-1.5h7.5
			c0.8,0,1.5,0.7,1.5,1.5v5.6c0,0.8-0.7,1.5-1.5,1.5h-7.5C211.8,27.1,211.2,26.4,211.2,25.6z"/>
		<path fill="#F2F2F2" stroke="#666666" stroke-linejoin="round" d="M211.2,15.7v-0.2c0-0.8,0.7-1.5,1.5-1.5h7.5
			c0.8,0,1.5,0.7,1.5,1.5v0.2c0,0.8-0.7,1.5-1.5,1.5h-7.5C211.8,17.2,211.2,16.5,211.2,15.7z"/>
		<path fill="#F2F2F2" stroke="#666666" stroke-linejoin="round" d="M106.4,25.6V20c0-0.8,0.7-1.5,1.5-1.5h7.5
			c0.8,0,1.5,0.7,1.5,1.5v5.6c0,0.8-0.7,1.5-1.5,1.5h-7.5C107,27.1,106.4,26.4,106.4,25.6z"/>
		<path fill="#F2F2F2" stroke="#666666" stroke-linejoin="round" d="M106.4,15.7v-0.2c0-0.8,0.7-1.5,1.5-1.5h7.5
			c0.8,0,1.5,0.7,1.5,1.5v0.2c0,0.8-0.7,1.5-1.5,1.5h-7.5C107,17.2,106.4,16.5,106.4,15.7z"/>
		<path fill="#F2F2F2" stroke="#666666" stroke-linejoin="round" d="M93.6,25.6V20c0-0.8,0.7-1.5,1.5-1.5h7.5c0.8,0,1.5,0.7,1.5,1.5
			v5.6c0,0.8-0.7,1.5-1.5,1.5h-7.5C94.3,27.1,93.6,26.4,93.6,25.6z"/>
		<path fill="#F2F2F2" stroke="#666666" stroke-linejoin="round" d="M93.6,15.7v-0.2c0-0.8,0.7-1.5,1.5-1.5h7.5
			c0.8,0,1.5,0.7,1.5,1.5v0.2c0,0.8-0.7,1.5-1.5,1.5h-7.5C94.3,17.2,93.6,16.5,93.6,15.7z"/>
		<path fill="#F2F2F2" stroke="#666666" stroke-linejoin="round" d="M81,25.6V20c0-0.8,0.7-1.5,1.5-1.5h7.5c0.8,0,1.5,0.7,1.5,1.5
			v5.6c0,0.8-0.7,1.5-1.5,1.5h-7.5C81.7,27.1,81,26.4,81,25.6z"/>
		<path fill="#F2F2F2" stroke="#666666" stroke-linejoin="round" d="M81,15.7v-0.2c0-0.8,0.7-1.5,1.5-1.5h7.5c0.8,0,1.5,0.7,1.5,1.5
			v0.2c0,0.8-0.7,1.5-1.5,1.5h-7.5C81.7,17.2,81,16.5,81,15.7z"/>
		<path fill="#F2F2F2" stroke="#666666" stroke-linejoin="round" d="M119.6,25.6V20c0-0.8,0.7-1.5,1.5-1.5h7.5
			c0.8,0,1.5,0.7,1.5,1.5v5.6c0,0.8-0.7,1.5-1.5,1.5h-7.5C120.3,27.1,119.6,26.4,119.6,25.6z"/>
		<path fill="#F2F2F2" stroke="#666666" stroke-linejoin="round" d="M119.6,15.7v-0.2c0-0.8,0.7-1.5,1.5-1.5h7.5
			c0.8,0,1.5,0.7,1.5,1.5v0.2c0,0.8-0.7,1.5-1.5,1.5h-7.5C120.3,17.2,119.6,16.5,119.6,15.7z"/>
		<path fill="#F2F2F2" stroke="#666666" stroke-linejoin="round" d="M132.9,25.6V20c0-0.8,0.7-1.5,1.5-1.5h7.5
			c0.8,0,1.5,0.7,1.5,1.5v5.6c0,0.8-0.7,1.5-1.5,1.5h-7.5C133.5,27.1,132.9,26.4,132.9,25.6z"/>
		<path fill="#F2F2F2" stroke="#666666" stroke-linejoin="round" d="M132.9,15.7v-0.2c0-0.8,0.7-1.5,1.5-1.5h7.5
			c0.8,0,1.5,0.7,1.5,1.5v0.2c0,0.8-0.7,1.5-1.5,1.5h-7.5C133.5,17.2,132.9,16.5,132.9,15.7z"/>
		<path fill="#F2F2F2" stroke="#666666" stroke-linejoin="round" d="M146.1,25.6V20c0-0.8,0.7-1.5,1.5-1.5h7.5
			c0.8,0,1.5,0.7,1.5,1.5v5.6c0,0.8-0.7,1.5-1.5,1.5h-7.5C146.8,27.1,146.1,26.4,146.1,25.6z"/>
		<path fill="#F2F2F2" stroke="#666666" stroke-linejoin="round" d="M146.1,15.7v-0.2c0-0.8,0.7-1.5,1.5-1.5h7.5
			c0.8,0,1.5,0.7,1.5,1.5v0.2c0,0.8-0.7,1.5-1.5,1.5h-7.5C146.8,17.2,146.1,16.5,146.1,15.7z"/>
		<path fill="#F2F2F2" stroke="#666666" stroke-linejoin="round" d="M221.9,178.1v5.6c0,0.8-0.7,1.5-1.5,1.5h-7.5
			c-0.8,0-1.5-0.7-1.5-1.5v-5.6c0-0.8,0.7-1.5,1.5-1.5h7.5C221.2,176.6,221.9,177.2,221.9,178.1z"/>
		<path fill="#F2F2F2" stroke="#666666" stroke-linejoin="round" d="M221.9,187.9v0.2c0,0.8-0.7,1.5-1.5,1.5h-7.5
			c-0.8,0-1.5-0.7-1.5-1.5v-0.2c0-0.8,0.7-1.5,1.5-1.5h7.5C221.2,186.4,221.9,187.1,221.9,187.9z"/>
		<path fill="#F2F2F2" stroke="#666666" stroke-linejoin="round" d="M208.6,178.1v5.6c0,0.8-0.7,1.5-1.5,1.5h-7.5
			c-0.8,0-1.5-0.7-1.5-1.5v-5.6c0-0.8,0.7-1.5,1.5-1.5h7.5C207.9,176.6,208.6,177.2,208.6,178.1z"/>
		<path fill="#F2F2F2" stroke="#666666" stroke-linejoin="round" d="M208.6,187.9v0.2c0,0.8-0.7,1.5-1.5,1.5h-7.5
			c-0.8,0-1.5-0.7-1.5-1.5v-0.2c0-0.8,0.7-1.5,1.5-1.5h7.5C207.9,186.4,208.6,187.1,208.6,187.9z"/>
		<path fill="#F2F2F2" stroke="#666666" stroke-linejoin="round" d="M195.4,178.1v5.6c0,0.8-0.7,1.5-1.5,1.5h-7.5
			c-0.8,0-1.5-0.7-1.5-1.5v-5.6c0-0.8,0.7-1.5,1.5-1.5h7.5C194.7,176.6,195.4,177.2,195.4,178.1z"/>
		<path fill="#F2F2F2" stroke="#666666" stroke-linejoin="round" d="M195.4,187.9v0.2c0,0.8-0.7,1.5-1.5,1.5h-7.5
			c-0.8,0-1.5-0.7-1.5-1.5v-0.2c0-0.8,0.7-1.5,1.5-1.5h7.5C194.7,186.4,195.4,187.1,195.4,187.9z"/>
		<path fill="#F2F2F2" stroke="#666666" stroke-linejoin="round" d="M182.1,178.1v5.6c0,0.8-0.7,1.5-1.5,1.5h-7.5
			c-0.8,0-1.5-0.7-1.5-1.5v-5.6c0-0.8,0.7-1.5,1.5-1.5h7.5C181.4,176.6,182.1,177.2,182.1,178.1z"/>
		<path fill="#F2F2F2" stroke="#666666" stroke-linejoin="round" d="M182.1,187.9v0.2c0,0.8-0.7,1.5-1.5,1.5h-7.5
			c-0.8,0-1.5-0.7-1.5-1.5v-0.2c0-0.8,0.7-1.5,1.5-1.5h7.5C181.4,186.4,182.1,187.1,182.1,187.9z"/>
		<path fill="#F2F2F2" stroke="#666666" stroke-linejoin="round" d="M168.9,178.1v5.6c0,0.8-0.7,1.5-1.5,1.5h-7.5
			c-0.8,0-1.5-0.7-1.5-1.5v-5.6c0-0.8,0.7-1.5,1.5-1.5h7.5C168.2,176.6,168.9,177.2,168.9,178.1z"/>
		<path fill="#F2F2F2" stroke="#666666" stroke-linejoin="round" d="M168.9,187.9v0.2c0,0.8-0.7,1.5-1.5,1.5h-7.5
			c-0.8,0-1.5-0.7-1.5-1.5v-0.2c0-0.8,0.7-1.5,1.5-1.5h7.5C168.2,186.4,168.9,187.1,168.9,187.9z"/>
		<path fill="#F2F2F2" stroke="#666666" stroke-linejoin="round" d="M155.6,178.1v5.6c0,0.8-0.7,1.5-1.5,1.5h-7.5
			c-0.8,0-1.5-0.7-1.5-1.5v-5.6c0-0.8,0.7-1.5,1.5-1.5h7.5C155,176.6,155.6,177.2,155.6,178.1z"/>
		<path fill="#F2F2F2" stroke="#666666" stroke-linejoin="round" d="M155.6,187.9v0.2c0,0.8-0.7,1.5-1.5,1.5h-7.5
			c-0.8,0-1.5-0.7-1.5-1.5v-0.2c0-0.8,0.7-1.5,1.5-1.5h7.5C155,186.4,155.6,187.1,155.6,187.9z"/>
		<path fill="#F2F2F2" stroke="#666666" stroke-linejoin="round" d="M142.4,178.1v5.6c0,0.8-0.7,1.5-1.5,1.5h-7.5
			c-0.8,0-1.5-0.7-1.5-1.5v-5.6c0-0.8,0.7-1.5,1.5-1.5h7.5C141.7,176.6,142.4,177.2,142.4,178.1z"/>
		<path fill="#F2F2F2" stroke="#666666" stroke-linejoin="round" d="M142.4,187.9v0.2c0,0.8-0.7,1.5-1.5,1.5h-7.5
			c-0.8,0-1.5-0.7-1.5-1.5v-0.2c0-0.8,0.7-1.5,1.5-1.5h7.5C141.7,186.4,142.4,187.1,142.4,187.9z"/>
		<path fill="#F2F2F2" stroke="#666666" stroke-linejoin="round" d="M129.1,178.1v5.6c0,0.8-0.7,1.5-1.5,1.5h-7.5
			c-0.8,0-1.5-0.7-1.5-1.5v-5.6c0-0.8,0.7-1.5,1.5-1.5h7.5C128.5,176.6,129.1,177.2,129.1,178.1z"/>
		<path fill="#F2F2F2" stroke="#666666" stroke-linejoin="round" d="M129.1,187.9v0.2c0,0.8-0.7,1.5-1.5,1.5h-7.5
			c-0.8,0-1.5-0.7-1.5-1.5v-0.2c0-0.8,0.7-1.5,1.5-1.5h7.5C128.5,186.4,129.1,187.1,129.1,187.9z"/>
		<path fill="#F2F2F2" stroke="#666666" stroke-linejoin="round" d="M115.9,178.1v5.6c0,0.8-0.7,1.5-1.5,1.5h-7.5
			c-0.8,0-1.5-0.7-1.5-1.5v-5.6c0-0.8,0.7-1.5,1.5-1.5h7.5C115.2,176.6,115.9,177.2,115.9,178.1z"/>
		<path fill="#F2F2F2" stroke="#666666" stroke-linejoin="round" d="M115.9,187.9v0.2c0,0.8-0.7,1.5-1.5,1.5h-7.5
			c-0.8,0-1.5-0.7-1.5-1.5v-0.2c0-0.8,0.7-1.5,1.5-1.5h7.5C115.2,186.4,115.9,187.1,115.9,187.9z"/>
		<path fill="#F2F2F2" stroke="#666666" stroke-linejoin="round" d="M102.6,178.1v5.6c0,0.8-0.7,1.5-1.5,1.5h-7.5
			c-0.8,0-1.5-0.7-1.5-1.5v-5.6c0-0.8,0.7-1.5,1.5-1.5h7.5C102,176.6,102.6,177.2,102.6,178.1z"/>
		<path fill="#F2F2F2" stroke="#666666" stroke-linejoin="round" d="M102.6,187.9v0.2c0,0.8-0.7,1.5-1.5,1.5h-7.5
			c-0.8,0-1.5-0.7-1.5-1.5v-0.2c0-0.8,0.7-1.5,1.5-1.5h7.5C102,186.4,102.6,187.1,102.6,187.9z"/>
		<path fill="#F2F2F2" stroke="#666666" stroke-linejoin="round" d="M222.7,33.6v17.3c0,0.8-0.7,1.5-1.5,1.5h-28.5
			c-0.8,0-1.5-0.7-1.5-1.5V33.6c0-0.8,0.7-1.5,1.5-1.5h28.5C222.1,32,222.7,32.7,222.7,33.6z"/>
		<path fill="#F2F2F2" stroke="#666666" stroke-linejoin="round" d="M190,33.6v17.3c0,0.8-0.7,1.5-1.5,1.5H160
			c-0.8,0-1.5-0.7-1.5-1.5V33.6c0-0.8,0.7-1.5,1.5-1.5h28.5C189.3,32,190,32.7,190,33.6z"/>
		<path fill="#F2F2F2" stroke="#666666" stroke-linejoin="round" d="M157.4,33.6v17.3c0,0.8-0.7,1.5-1.5,1.5h-28.5
			c-0.8,0-1.5-0.7-1.5-1.5V33.6c0-0.8,0.7-1.5,1.5-1.5h28.5C156.8,32,157.4,32.7,157.4,33.6z"/>
		<path fill="#F2F2F2" stroke="#666666" stroke-linejoin="round" d="M124.7,33.6v17.3c0,0.8-0.7,1.5-1.5,1.5H94.7
			c-0.8,0-1.5-0.7-1.5-1.5V33.6c0-0.8,0.7-1.5,1.5-1.5h28.5C124,32,124.7,32.7,124.7,33.6z"/>
		<path fill="#F2F2F2" stroke="#666666" stroke-linejoin="round" d="M157.4,153.6v17.3c0,0.8-0.7,1.5-1.5,1.5h-28.5
			c-0.8,0-1.5-0.7-1.5-1.5v-17.3c0-0.8,0.7-1.5,1.5-1.5h28.5C156.8,152.1,157.4,152.8,157.4,153.6z"/>
		<path fill="#F2F2F2" stroke="#666666" stroke-linejoin="round" d="M124.7,153.6v17.3c0,0.8-0.7,1.5-1.5,1.5H94.7
			c-0.8,0-1.5-0.7-1.5-1.5v-17.3c0-0.8,0.7-1.5,1.5-1.5h28.5C124,152.1,124.7,152.8,124.7,153.6z"/>
		<path fill="#F2F2F2" stroke="#666666" stroke-linejoin="round" d="M222.7,153.6v17.3c0,0.8-0.7,1.5-1.5,1.5h-28.5
			c-0.8,0-1.5-0.7-1.5-1.5v-17.3c0-0.8,0.7-1.5,1.5-1.5h28.5C222.1,152.1,222.7,152.8,222.7,153.6z"/>
		<path fill="#F2F2F2" stroke="#666666" stroke-linejoin="round" d="M190,153.6v17.3c0,0.8-0.7,1.5-1.5,1.5H160
			c-0.8,0-1.5-0.7-1.5-1.5v-17.3c0-0.8,0.7-1.5,1.5-1.5h28.5C189.3,152.1,190,152.8,190,153.6z"/>
		<path fill="#F2F2F2" stroke="#666666" stroke-linejoin="round" d="M89.9,178.1v5.6c0,0.8-0.7,1.5-1.5,1.5h-7.5
			c-0.8,0-1.5-0.7-1.5-1.5v-5.6c0-0.8,0.7-1.5,1.5-1.5h7.5C89.3,176.6,89.9,177.2,89.9,178.1z"/>
		<path fill="#F2F2F2" stroke="#666666" stroke-linejoin="round" d="M89.9,188v0.2c0,0.8-0.7,1.5-1.5,1.5h-7.5
			c-0.8,0-1.5-0.7-1.5-1.5V188c0-0.8,0.7-1.5,1.5-1.5h7.5C89.3,186.4,89.9,187.1,89.9,188z"/>
		<path fill="#F2F2F2" stroke="#666666" stroke-linejoin="round" d="M77.7,178.1v5.6c0,0.8-0.7,1.5-1.5,1.5h-7.5
			c-0.8,0-1.5-0.7-1.5-1.5v-5.6c0-0.8,0.7-1.5,1.5-1.5h7.5C77,176.6,77.7,177.2,77.7,178.1z"/>
		<path fill="#F2F2F2" stroke="#666666" stroke-linejoin="round" d="M77.7,188v0.2c0,0.8-0.7,1.5-1.5,1.5h-7.5
			c-0.8,0-1.5-0.7-1.5-1.5V188c0-0.8,0.7-1.5,1.5-1.5h7.5C77,186.4,77.7,187.1,77.7,188z"/>
		<path fill="#F2F2F2" stroke="#666666" stroke-linejoin="round" d="M65,178.1v5.6c0,0.8-0.7,1.5-1.5,1.5H56c-0.8,0-1.5-0.7-1.5-1.5
			v-5.6c0-0.8,0.7-1.5,1.5-1.5h7.5C64.4,176.6,65,177.2,65,178.1z"/>
		<path fill="#F2F2F2" stroke="#666666" stroke-linejoin="round" d="M65,188v0.2c0,0.8-0.7,1.5-1.5,1.5H56c-0.8,0-1.5-0.7-1.5-1.5
			V188c0-0.8,0.7-1.5,1.5-1.5h7.5C64.4,186.4,65,187.1,65,188z"/>
		<path fill="#F2F2F2" stroke="#666666" stroke-linejoin="round" d="M68.5,25.6V20c0-0.8,0.7-1.5,1.5-1.5h7.5c0.8,0,1.5,0.7,1.5,1.5
			v5.6c0,0.8-0.7,1.5-1.5,1.5H70C69.2,27.1,68.5,26.4,68.5,25.6z"/>
		<path fill="#F2F2F2" stroke="#666666" stroke-linejoin="round" d="M68.5,15.7v-0.2c0-0.8,0.7-1.5,1.5-1.5h7.5
			c0.8,0,1.5,0.7,1.5,1.5v0.2c0,0.8-0.7,1.5-1.5,1.5H70C69.2,17.2,68.5,16.5,68.5,15.7z"/>
		<path fill="#F2F2F2" stroke="#666666" stroke-linejoin="round" d="M55.7,25.6V20c0-0.8,0.7-1.5,1.5-1.5h7.5c0.8,0,1.5,0.7,1.5,1.5
			v5.6c0,0.8-0.7,1.5-1.5,1.5h-7.5C56.4,27.1,55.7,26.4,55.7,25.6z"/>
		<path fill="#F2F2F2" stroke="#666666" stroke-linejoin="round" d="M55.7,15.7v-0.2c0-0.8,0.7-1.5,1.5-1.5h7.5
			c0.8,0,1.5,0.7,1.5,1.5v0.2c0,0.8-0.7,1.5-1.5,1.5h-7.5C56.4,17.2,55.7,16.5,55.7,15.7z"/>
		<path fill="#F2F2F2" stroke="#666666" stroke-linejoin="round" d="M54.5,101.3h-5.6c-0.8,0-1.5-0.7-1.5-1.5v-7.5
			c0-0.8,0.7-1.5,1.5-1.5h5.6c0.8,0,1.5,0.7,1.5,1.5v7.5C56,100.6,55.3,101.3,54.5,101.3z"/>
		<path fill="#F2F2F2" stroke="#666666" stroke-linejoin="round" d="M44.6,101.3h-0.2c-0.8,0-1.5-0.7-1.5-1.5v-7.5
			c0-0.8,0.7-1.5,1.5-1.5h0.2c0.8,0,1.5,0.7,1.5,1.5v7.5C46.1,100.6,45.4,101.3,44.6,101.3z"/>
		<path fill="#F2F2F2" stroke="#666666" stroke-linejoin="round" d="M54.5,88h-5.6c-0.8,0-1.5-0.7-1.5-1.5V79c0-0.8,0.7-1.5,1.5-1.5
			h5.6c0.8,0,1.5,0.7,1.5,1.5v7.5C56,87.4,55.3,88,54.5,88z"/>
		<path fill="#F2F2F2" stroke="#666666" stroke-linejoin="round" d="M44.6,88h-0.2c-0.8,0-1.5-0.7-1.5-1.5V79c0-0.8,0.7-1.5,1.5-1.5
			h0.2c0.8,0,1.5,0.7,1.5,1.5v7.5C46.1,87.4,45.4,88,44.6,88z"/>
		<path fill="#F2F2F2" stroke="#666666" stroke-linejoin="round" d="M54.5,74.8h-5.6c-0.8,0-1.5-0.7-1.5-1.5v-7.5
			c0-0.8,0.7-1.5,1.5-1.5h5.6c0.8,0,1.5,0.7,1.5,1.5v7.5C56,74.1,55.3,74.8,54.5,74.8z"/>
		<path fill="#F2F2F2" stroke="#666666" stroke-linejoin="round" d="M44.6,74.8h-0.2c-0.8,0-1.5-0.7-1.5-1.5v-7.5
			c0-0.8,0.7-1.5,1.5-1.5h0.2c0.8,0,1.5,0.7,1.5,1.5v7.5C46.1,74.1,45.4,74.8,44.6,74.8z"/>
		<path fill="#F2F2F2" stroke="#666666" stroke-linejoin="round" d="M54.5,61.5h-5.6c-0.8,0-1.5-0.7-1.5-1.5v-7.5
			c0-0.8,0.7-1.5,1.5-1.5h5.6c0.8,0,1.5,0.7,1.5,1.5V60C56,60.9,55.3,61.5,54.5,61.5z"/>
		<path fill="#F2F2F2" stroke="#666666" stroke-linejoin="round" d="M44.6,61.6h-0.2c-0.8,0-1.5-0.7-1.5-1.5v-7.5
			c0-0.8,0.7-1.5,1.5-1.5h0.2c0.8,0,1.5,0.7,1.5,1.5V60C46.1,60.9,45.4,61.6,44.6,61.6z"/>
		<path fill="#F2F2F2" stroke="#666666" stroke-linejoin="round" d="M54.5,48.3h-5.6c-0.8,0-1.5-0.7-1.5-1.5v-7.5
			c0-0.8,0.7-1.5,1.5-1.5h5.6c0.8,0,1.5,0.7,1.5,1.5v7.5C56,47.6,55.3,48.3,54.5,48.3z"/>
		<path fill="#F2F2F2" stroke="#666666" stroke-linejoin="round" d="M44.6,48.3h-0.2c-0.8,0-1.5-0.7-1.5-1.5v-7.5
			c0-0.8,0.7-1.5,1.5-1.5h0.2c0.8,0,1.5,0.7,1.5,1.5v7.5C46.1,47.6,45.4,48.3,44.6,48.3z"/>
		<path fill="#F2F2F2" stroke="#666666" stroke-linejoin="round" d="M54.5,154.4h-5.6c-0.8,0-1.5-0.7-1.5-1.5v-7.5
			c0-0.8,0.7-1.5,1.5-1.5h5.6c0.8,0,1.5,0.7,1.5,1.5v7.5C56,153.7,55.3,154.4,54.5,154.4z"/>
		<path fill="#F2F2F2" stroke="#666666" stroke-linejoin="round" d="M44.6,154.4h-0.2c-0.8,0-1.5-0.7-1.5-1.5v-7.5
			c0-0.8,0.7-1.5,1.5-1.5h0.2c0.8,0,1.5,0.7,1.5,1.5v7.5C46.1,153.7,45.4,154.4,44.6,154.4z"/>
		<path fill="#F2F2F2" stroke="#666666" stroke-linejoin="round" d="M54.5,167.6h-5.6c-0.8,0-1.5-0.7-1.5-1.5v-7.5
			c0-0.8,0.7-1.5,1.5-1.5h5.6c0.8,0,1.5,0.7,1.5,1.5v7.5C56,166.9,55.3,167.6,54.5,167.6z"/>
		<path fill="#F2F2F2" stroke="#666666" stroke-linejoin="round" d="M44.6,167.6h-0.2c-0.8,0-1.5-0.7-1.5-1.5v-7.5
			c0-0.8,0.7-1.5,1.5-1.5h0.2c0.8,0,1.5,0.7,1.5,1.5v7.5C46.1,166.9,45.4,167.6,44.6,167.6z"/>
		<path fill="#F2F2F2" stroke="#666666" stroke-linejoin="round" d="M54.5,141.1h-5.6c-0.8,0-1.5-0.7-1.5-1.5v-7.5
			c0-0.8,0.7-1.5,1.5-1.5h5.6c0.8,0,1.5,0.7,1.5,1.5v7.5C56,140.5,55.3,141.1,54.5,141.1z"/>
		<path fill="#F2F2F2" stroke="#666666" stroke-linejoin="round" d="M44.6,141.1h-0.2c-0.8,0-1.5-0.7-1.5-1.5v-7.5
			c0-0.8,0.7-1.5,1.5-1.5h0.2c0.8,0,1.5,0.7,1.5,1.5v7.5C46.1,140.5,45.4,141.1,44.6,141.1z"/>
		<path fill="#F2F2F2" stroke="#666666" stroke-linejoin="round" d="M54.5,127.9h-5.6c-0.8,0-1.5-0.7-1.5-1.5v-7.5
			c0-0.8,0.7-1.5,1.5-1.5h5.6c0.8,0,1.5,0.7,1.5,1.5v7.5C56,127.2,55.3,127.9,54.5,127.9z"/>
		<path fill="#F2F2F2" stroke="#666666" stroke-linejoin="round" d="M44.6,127.9h-0.2c-0.8,0-1.5-0.7-1.5-1.5v-7.5
			c0-0.8,0.7-1.5,1.5-1.5h0.2c0.8,0,1.5,0.7,1.5,1.5v7.5C46.1,127.2,45.4,127.9,44.6,127.9z"/>
		<path fill="#F2F2F2" stroke="#666666" stroke-linejoin="round" d="M54.5,114.6h-5.6c-0.8,0-1.5-0.7-1.5-1.5v-7.5
			c0-0.8,0.7-1.5,1.5-1.5h5.6c0.8,0,1.5,0.7,1.5,1.5v7.5C56,114,55.3,114.6,54.5,114.6z"/>
		<path fill="#F2F2F2" stroke="#666666" stroke-linejoin="round" d="M44.6,114.6h-0.2c-0.8,0-1.5-0.7-1.5-1.5v-7.5
			c0-0.8,0.7-1.5,1.5-1.5h0.2c0.8,0,1.5,0.7,1.5,1.5v7.5C46.1,114,45.4,114.6,44.6,114.6z"/>
		<path fill="#F2F2F2" stroke="#666666" stroke-linejoin="round" d="M60,170.7v-17.3c0-0.8,0.7-1.5,1.5-1.5H90
			c0.8,0,1.5,0.7,1.5,1.5v17.3c0,0.8-0.7,1.5-1.5,1.5H61.5C60.7,172.2,60,171.5,60,170.7z"/>
		<path fill="#F2F2F2" stroke="#666666" stroke-linejoin="round" d="M61.5,86.3h17.3c0.8,0,1.5,0.7,1.5,1.5v28.5
			c0,0.8-0.7,1.5-1.5,1.5H61.5c-0.8,0-1.5-0.7-1.5-1.5V87.8C60,87,60.7,86.3,61.5,86.3z"/>
		<path fill="#F2F2F2" stroke="#666666" stroke-linejoin="round" d="M61.5,53.6h17.3c0.8,0,1.5,0.7,1.5,1.5v28.5
			c0,0.8-0.7,1.5-1.5,1.5H61.5c-0.8,0-1.5-0.7-1.5-1.5V55.1C60,54.2,60.7,53.6,61.5,53.6z"/>
		<path fill="#F2F2F2" stroke="#666666" stroke-linejoin="round" d="M61.5,119.1h17.3c0.8,0,1.5,0.7,1.5,1.5V149
			c0,0.8-0.7,1.5-1.5,1.5H61.5c-0.8,0-1.5-0.7-1.5-1.5v-28.5C60,119.8,60.7,119.1,61.5,119.1z"/>
		<path fill="#F2F2F2" stroke="#666666" stroke-linejoin="round" d="M60,50.7V33.4c0-0.8,0.7-1.5,1.5-1.5H90c0.8,0,1.5,0.7,1.5,1.5
			v17.3c0,0.8-0.7,1.5-1.5,1.5H61.5C60.7,52.2,60,51.5,60,50.7z"/>
	</g>
</g>
</svg>
