<?xml version="1.0" encoding="utf-8"?>
<!-- Generator: Adobe Illustrator 21.0.0, SVG Export Plug-In . SVG Version: 6.00 Build 0)  -->
<svg version="1.0" id="Слой_1" xmlns="http://www.w3.org/2000/svg" xmlns:xlink="http://www.w3.org/1999/xlink" x="0px" y="0px"
	 viewBox="0 0 525.9 203.4" enable-background="new 0 0 525.9 203.4" xml:space="preserve">
<title>Ala-Too 200person (150)</title>
<g id="Слой_2">
	<g id="Ala-Too_T_46_75_">
		<path fill="#F2F2F2" stroke="#666666" stroke-linejoin="round" d="M96.6,111.2V91.4c0-1,0.8-1.7,1.7-1.7H131c1,0,1.7,0.8,1.7,1.7
			v19.9c0,1-0.8,1.7-1.7,1.7H98.3C97.4,113,96.6,112.2,96.6,111.2z"/>
		<path fill="#F2F2F2" stroke="#666666" stroke-linejoin="round" d="M134.2,111.2V91.4c0-1,0.8-1.7,1.7-1.7h32.7
			c1,0,1.7,0.8,1.7,1.7v19.9c0,1-0.8,1.7-1.7,1.7H136C135,113,134.2,112.2,134.2,111.2z"/>
		<path fill="#F2F2F2" stroke="#666666" stroke-linejoin="round" d="M59,111.2V91.4c0-1,0.8-1.7,1.7-1.7h32.7c1,0,1.7,0.8,1.7,1.7
			v19.9c0,1-0.8,1.7-1.7,1.7H60.7C59.7,113,59,112.2,59,111.2z"/>
		<path fill="#F2F2F2" stroke="#666666" stroke-linejoin="round" d="M171.9,111.2V91.4c0-1,0.8-1.7,1.7-1.7h32.7
			c1,0,1.7,0.8,1.7,1.7v19.9c0,1-0.8,1.7-1.7,1.7h-32.7C172.7,113,171.9,112.2,171.9,111.2z"/>
		<path fill="#F2F2F2" stroke="#666666" stroke-linejoin="round" d="M209.5,111.2V91.4c0-1,0.8-1.7,1.7-1.7h32.7
			c1,0,1.7,0.8,1.7,1.7v19.9c0,1-0.8,1.7-1.7,1.7h-32.7C210.3,113,209.5,112.2,209.5,111.2z"/>
		<path fill="#F2F2F2" stroke="#666666" stroke-linejoin="round" d="M246.9,111.2V91.4c0-1,0.8-1.7,1.7-1.7h32.7
			c1,0,1.7,0.8,1.7,1.7v19.9c0,1-0.8,1.7-1.7,1.7h-32.7C247.7,113,246.9,112.2,246.9,111.2z"/>
		<path fill="#F2F2F2" stroke="#666666" stroke-linejoin="round" d="M284.6,111.2V91.4c0-1,0.8-1.7,1.7-1.7H319c1,0,1.7,0.8,1.7,1.7
			v19.9c0,1-0.8,1.7-1.7,1.7h-32.7C285.3,113,284.6,112.2,284.6,111.2z"/>
		<path fill="#F2F2F2" stroke="#666666" stroke-linejoin="round" d="M322.7,111.2V91.4c0-1,0.8-1.7,1.7-1.7h32.7
			c1,0,1.7,0.8,1.7,1.7v19.9c0,1-0.8,1.7-1.7,1.7h-32.7C323.5,113,322.7,112.2,322.7,111.2z"/>
		<path fill="#F2F2F2" stroke="#666666" stroke-linejoin="round" d="M360.2,111.2V91.4c0-1,0.8-1.7,1.7-1.7h32.7
			c1,0,1.7,0.8,1.7,1.7v19.9c0,1-0.8,1.7-1.7,1.7h-32.7C361,113,360.2,112.2,360.2,111.2z"/>
		<path fill="#F2F2F2" stroke="#666666" stroke-linejoin="round" d="M397.7,111.2V91.4c0-1,0.8-1.7,1.7-1.7h32.7
			c1,0,1.7,0.8,1.7,1.7v19.9c0,1-0.8,1.7-1.7,1.7h-32.7C398.5,113,397.7,112.2,397.7,111.2z"/>
		<path fill="#F2F2F2" stroke="#666666" stroke-linejoin="round" d="M435.2,111.2V91.4c0-1,0.8-1.7,1.7-1.7h32.7
			c1,0,1.7,0.8,1.7,1.7v19.9c0,1-0.8,1.7-1.7,1.7h-32.7C436,113,435.2,112.2,435.2,111.2z"/>
		<path fill="#F2F2F2" stroke="#666666" stroke-linejoin="round" d="M241.7,120.2v6.5c0,1-0.8,1.7-1.7,1.7h-8.6
			c-1,0-1.7-0.8-1.7-1.7v-6.5c0-1,0.8-1.7,1.7-1.7h8.6C240.9,118.5,241.7,119.3,241.7,120.2z"/>
		<path fill="#F2F2F2" stroke="#666666" stroke-linejoin="round" d="M241.7,131.6v0.2c0,1-0.8,1.7-1.7,1.7h-8.6
			c-1,0-1.7-0.8-1.7-1.7v-0.2c0-1,0.8-1.7,1.7-1.7h8.6C240.9,129.8,241.7,130.6,241.7,131.6z"/>
		<path fill="#F2F2F2" stroke="#666666" stroke-linejoin="round" d="M226.5,120.2v6.5c0,1-0.8,1.7-1.7,1.7h-8.6
			c-1,0-1.7-0.8-1.7-1.7v-6.5c0-1,0.8-1.7,1.7-1.7h8.6C225.7,118.5,226.5,119.3,226.5,120.2z"/>
		<path fill="#F2F2F2" stroke="#666666" stroke-linejoin="round" d="M226.5,131.6v0.2c0,1-0.8,1.7-1.7,1.7h-8.6
			c-1,0-1.7-0.8-1.7-1.7v-0.2c0-1,0.8-1.7,1.7-1.7h8.6C225.7,129.8,226.5,130.6,226.5,131.6z"/>
		<path fill="#F2F2F2" stroke="#666666" stroke-linejoin="round" d="M211.3,120.2v6.5c0,1-0.8,1.7-1.7,1.7h-8.6
			c-1,0-1.7-0.8-1.7-1.7v-6.5c0-1,0.8-1.7,1.7-1.7h8.6C210.5,118.5,211.3,119.3,211.3,120.2z"/>
		<path fill="#F2F2F2" stroke="#666666" stroke-linejoin="round" d="M211.3,131.6v0.2c0,1-0.8,1.7-1.7,1.7h-8.6
			c-1,0-1.7-0.8-1.7-1.7v-0.2c0-1,0.8-1.7,1.7-1.7h8.6C210.5,129.8,211.3,130.6,211.3,131.6z"/>
		<path fill="#F2F2F2" stroke="#666666" stroke-linejoin="round" d="M196,120.2v6.5c0,1-0.8,1.7-1.7,1.7h-8.6c-1,0-1.7-0.8-1.7-1.7
			v-6.5c0-1,0.8-1.7,1.7-1.7h8.6C195.3,118.5,196,119.3,196,120.2z"/>
		<path fill="#F2F2F2" stroke="#666666" stroke-linejoin="round" d="M196,131.6v0.2c0,1-0.8,1.7-1.7,1.7h-8.6c-1,0-1.7-0.8-1.7-1.7
			v-0.2c0-1,0.8-1.7,1.7-1.7h8.6C195.3,129.8,196,130.6,196,131.6z"/>
		<path fill="#F2F2F2" stroke="#666666" stroke-linejoin="round" d="M180.8,120.2v6.5c0,1-0.8,1.7-1.7,1.7h-8.6
			c-1,0-1.7-0.8-1.7-1.7v-6.5c0-1,0.8-1.7,1.7-1.7h8.6C180,118.5,180.8,119.3,180.8,120.2z"/>
		<path fill="#F2F2F2" stroke="#666666" stroke-linejoin="round" d="M180.8,131.6v0.2c0,1-0.8,1.7-1.7,1.7h-8.6
			c-1,0-1.7-0.8-1.7-1.7v-0.2c0-1,0.8-1.7,1.7-1.7h8.6C180,129.8,180.8,130.6,180.8,131.6z"/>
		<path fill="#F2F2F2" stroke="#666666" stroke-linejoin="round" d="M165.6,120.2v6.5c0,1-0.8,1.7-1.7,1.7h-8.6
			c-1,0-1.7-0.8-1.7-1.7v-6.5c0-1,0.8-1.7,1.7-1.7h8.6C164.8,118.5,165.6,119.3,165.6,120.2z"/>
		<path fill="#F2F2F2" stroke="#666666" stroke-linejoin="round" d="M165.6,131.6v0.2c0,1-0.8,1.7-1.7,1.7h-8.6
			c-1,0-1.7-0.8-1.7-1.7v-0.2c0-1,0.8-1.7,1.7-1.7h8.6C164.8,129.8,165.6,130.6,165.6,131.6z"/>
		<path fill="#F2F2F2" stroke="#666666" stroke-linejoin="round" d="M150.4,120.2v6.5c0,1-0.8,1.7-1.7,1.7H140c-1,0-1.7-0.8-1.7-1.7
			v-6.5c0-1,0.8-1.7,1.7-1.7h8.6C149.6,118.5,150.4,119.3,150.4,120.2z"/>
		<path fill="#F2F2F2" stroke="#666666" stroke-linejoin="round" d="M150.4,131.6v0.2c0,1-0.8,1.7-1.7,1.7H140c-1,0-1.7-0.8-1.7-1.7
			v-0.2c0-1,0.8-1.7,1.7-1.7h8.6C149.6,129.8,150.4,130.6,150.4,131.6z"/>
		<path fill="#F2F2F2" stroke="#666666" stroke-linejoin="round" d="M135.2,120.2v6.5c0,1-0.8,1.7-1.7,1.7h-8.6
			c-1,0-1.7-0.8-1.7-1.7v-6.5c0-1,0.8-1.7,1.7-1.7h8.6C134.4,118.5,135.2,119.3,135.2,120.2z"/>
		<path fill="#F2F2F2" stroke="#666666" stroke-linejoin="round" d="M135.2,131.6v0.2c0,1-0.8,1.7-1.7,1.7h-8.6
			c-1,0-1.7-0.8-1.7-1.7v-0.2c0-1,0.8-1.7,1.7-1.7h8.6C134.4,129.8,135.2,130.6,135.2,131.6z"/>
		<path fill="#F2F2F2" stroke="#666666" stroke-linejoin="round" d="M119.9,120.2v6.5c0,1-0.8,1.7-1.7,1.7h-8.6
			c-1,0-1.7-0.8-1.7-1.7v-6.5c0-1,0.8-1.7,1.7-1.7h8.6C119.2,118.5,119.9,119.3,119.9,120.2z"/>
		<path fill="#F2F2F2" stroke="#666666" stroke-linejoin="round" d="M119.9,131.6v0.2c0,1-0.8,1.7-1.7,1.7h-8.6
			c-1,0-1.7-0.8-1.7-1.7v-0.2c0-1,0.8-1.7,1.7-1.7h8.6C119.2,129.8,119.9,130.6,119.9,131.6z"/>
		<path fill="#F2F2F2" stroke="#666666" stroke-linejoin="round" d="M104.7,120.2v6.5c0,1-0.8,1.7-1.7,1.7h-8.6
			c-1,0-1.7-0.8-1.7-1.7v-6.5c0-1,0.8-1.7,1.7-1.7h8.6C103.9,118.5,104.7,119.3,104.7,120.2z"/>
		<path fill="#F2F2F2" stroke="#666666" stroke-linejoin="round" d="M104.7,131.6v0.2c0,1-0.8,1.7-1.7,1.7h-8.6
			c-1,0-1.7-0.8-1.7-1.7v-0.2c0-1,0.8-1.7,1.7-1.7h8.6C103.9,129.8,104.7,130.6,104.7,131.6z"/>
		<path fill="#F2F2F2" stroke="#666666" stroke-linejoin="round" d="M89.5,120.2v6.5c0,1-0.8,1.7-1.7,1.7h-8.6c-1,0-1.7-0.8-1.7-1.7
			v-6.5c0-1,0.8-1.7,1.7-1.7h8.6C88.7,118.5,89.5,119.3,89.5,120.2z"/>
		<path fill="#F2F2F2" stroke="#666666" stroke-linejoin="round" d="M89.5,131.6v0.2c0,1-0.8,1.7-1.7,1.7h-8.6c-1,0-1.7-0.8-1.7-1.7
			v-0.2c0-1,0.8-1.7,1.7-1.7h8.6C88.7,129.8,89.5,130.6,89.5,131.6z"/>
		<path fill="#F2F2F2" stroke="#666666" stroke-linejoin="round" d="M74.3,120.2v6.5c0,1-0.8,1.7-1.7,1.7h-8.6c-1,0-1.7-0.8-1.7-1.7
			v-6.5c0-1,0.8-1.7,1.7-1.7h8.6C73.5,118.5,74.3,119.3,74.3,120.2z"/>
		<path fill="#F2F2F2" stroke="#666666" stroke-linejoin="round" d="M74.3,131.6v0.2c0,1-0.8,1.7-1.7,1.7h-8.6c-1,0-1.7-0.8-1.7-1.7
			v-0.2c0-1,0.8-1.7,1.7-1.7h8.6C73.5,129.8,74.3,130.6,74.3,131.6z"/>
		<path fill="#F2F2F2" stroke="#666666" stroke-linejoin="round" d="M301.2,120.2v6.5c0,1-0.8,1.7-1.7,1.7h-8.6
			c-1,0-1.7-0.8-1.7-1.7v-6.5c0-1,0.8-1.7,1.7-1.7h8.6C300.5,118.5,301.2,119.3,301.2,120.2z"/>
		<path fill="#F2F2F2" stroke="#666666" stroke-linejoin="round" d="M301.2,131.6v0.2c0,1-0.8,1.7-1.7,1.7h-8.6
			c-1,0-1.7-0.8-1.7-1.7v-0.2c0-1,0.8-1.7,1.7-1.7h8.6C300.5,129.8,301.2,130.6,301.2,131.6z"/>
		<path fill="#F2F2F2" stroke="#666666" stroke-linejoin="round" d="M316.5,120.2v6.5c0,1-0.8,1.7-1.7,1.7h-8.6
			c-1,0-1.7-0.8-1.7-1.7v-6.5c0-1,0.8-1.7,1.7-1.7h8.6C315.7,118.5,316.5,119.3,316.5,120.2z"/>
		<path fill="#F2F2F2" stroke="#666666" stroke-linejoin="round" d="M316.5,131.6v0.2c0,1-0.8,1.7-1.7,1.7h-8.6
			c-1,0-1.7-0.8-1.7-1.7v-0.2c0-1,0.8-1.7,1.7-1.7h8.6C315.7,129.8,316.5,130.6,316.5,131.6z"/>
		<path fill="#F2F2F2" stroke="#666666" stroke-linejoin="round" d="M286,120.2v6.5c0,1-0.8,1.7-1.7,1.7h-8.6c-1,0-1.7-0.8-1.7-1.7
			v-6.5c0-1,0.8-1.7,1.7-1.7h8.6C285.2,118.5,286,119.3,286,120.2z"/>
		<path fill="#F2F2F2" stroke="#666666" stroke-linejoin="round" d="M286,131.6v0.2c0,1-0.8,1.7-1.7,1.7h-8.6c-1,0-1.7-0.8-1.7-1.7
			v-0.2c0-1,0.8-1.7,1.7-1.7h8.6C285.2,129.8,286,130.6,286,131.6z"/>
		<path fill="#F2F2F2" stroke="#666666" stroke-linejoin="round" d="M270.8,120.2v6.5c0,1-0.8,1.7-1.7,1.7h-8.6
			c-1,0-1.7-0.8-1.7-1.7v-6.5c0-1,0.8-1.7,1.7-1.7h8.6C270,118.5,270.8,119.3,270.8,120.2z"/>
		<path fill="#F2F2F2" stroke="#666666" stroke-linejoin="round" d="M270.8,131.6v0.2c0,1-0.8,1.7-1.7,1.7h-8.6
			c-1,0-1.7-0.8-1.7-1.7v-0.2c0-1,0.8-1.7,1.7-1.7h8.6C270,129.8,270.8,130.6,270.8,131.6z"/>
		<path fill="#F2F2F2" stroke="#666666" stroke-linejoin="round" d="M255.6,120.2v6.5c0,1-0.8,1.7-1.7,1.7h-8.6
			c-1,0-1.7-0.8-1.7-1.7v-6.5c0-1,0.8-1.7,1.7-1.7h8.6C254.8,118.5,255.6,119.3,255.6,120.2z"/>
		<path fill="#F2F2F2" stroke="#666666" stroke-linejoin="round" d="M255.6,131.6v0.2c0,1-0.8,1.7-1.7,1.7h-8.6
			c-1,0-1.7-0.8-1.7-1.7v-0.2c0-1,0.8-1.7,1.7-1.7h8.6C254.8,129.8,255.6,130.6,255.6,131.6z"/>
		<path fill="#F2F2F2" stroke="#666666" stroke-linejoin="round" d="M91.3,82.4v-6.5c0-1,0.8-1.7,1.7-1.7h8.6c1,0,1.7,0.8,1.7,1.7
			v6.5c0,1-0.8,1.7-1.7,1.7H93C92.1,84.1,91.3,83.3,91.3,82.4z"/>
		<path fill="#F2F2F2" stroke="#666666" stroke-linejoin="round" d="M91.3,71v-0.2c0-1,0.8-1.7,1.7-1.7h8.6c1,0,1.7,0.8,1.7,1.7V71
			c0,1-0.8,1.7-1.7,1.7H93C92.1,72.7,91.3,72,91.3,71z"/>
		<path fill="#F2F2F2" stroke="#666666" stroke-linejoin="round" d="M106.5,82.4v-6.5c0-1,0.8-1.7,1.7-1.7h8.6c1,0,1.7,0.8,1.7,1.7
			v6.5c0,1-0.8,1.7-1.7,1.7h-8.6C107.3,84.1,106.5,83.3,106.5,82.4z"/>
		<path fill="#F2F2F2" stroke="#666666" stroke-linejoin="round" d="M106.5,71v-0.2c0-1,0.8-1.7,1.7-1.7h8.6c1,0,1.7,0.8,1.7,1.7V71
			c0,1-0.8,1.7-1.7,1.7h-8.6C107.3,72.7,106.5,72,106.5,71z"/>
		<path fill="#F2F2F2" stroke="#666666" stroke-linejoin="round" d="M121.7,82.4v-6.5c0-1,0.8-1.7,1.7-1.7h8.6c1,0,1.7,0.8,1.7,1.7
			v6.5c0,1-0.8,1.7-1.7,1.7h-8.6C122.5,84.1,121.7,83.3,121.7,82.4z"/>
		<path fill="#F2F2F2" stroke="#666666" stroke-linejoin="round" d="M121.7,71v-0.2c0-1,0.8-1.7,1.7-1.7h8.6c1,0,1.7,0.8,1.7,1.7V71
			c0,1-0.8,1.7-1.7,1.7h-8.6C122.5,72.7,121.7,72,121.7,71z"/>
		<path fill="#F2F2F2" stroke="#666666" stroke-linejoin="round" d="M136.9,82.4v-6.5c0-1,0.8-1.7,1.7-1.7h8.6c1,0,1.7,0.8,1.7,1.7
			v6.5c0,1-0.8,1.7-1.7,1.7h-8.6C137.7,84.1,136.9,83.3,136.9,82.4z"/>
		<path fill="#F2F2F2" stroke="#666666" stroke-linejoin="round" d="M136.9,71v-0.2c0-1,0.8-1.7,1.7-1.7h8.6c1,0,1.7,0.8,1.7,1.7V71
			c0,1-0.8,1.7-1.7,1.7h-8.6C137.7,72.7,136.9,72,136.9,71z"/>
		<path fill="#F2F2F2" stroke="#666666" stroke-linejoin="round" d="M152.2,82.4v-6.5c0-1,0.8-1.7,1.7-1.7h8.6c1,0,1.7,0.8,1.7,1.7
			v6.5c0,1-0.8,1.7-1.7,1.7h-8.6C152.9,84.1,152.2,83.3,152.2,82.4z"/>
		<path fill="#F2F2F2" stroke="#666666" stroke-linejoin="round" d="M152.2,71v-0.2c0-1,0.8-1.7,1.7-1.7h8.6c1,0,1.7,0.8,1.7,1.7V71
			c0,1-0.8,1.7-1.7,1.7h-8.6C152.9,72.7,152.2,72,152.2,71z"/>
		<path fill="#F2F2F2" stroke="#666666" stroke-linejoin="round" d="M167.4,82.4v-6.5c0-1,0.8-1.7,1.7-1.7h8.6c1,0,1.7,0.8,1.7,1.7
			v6.5c0,1-0.8,1.7-1.7,1.7h-8.6C168.2,84.1,167.4,83.3,167.4,82.4z"/>
		<path fill="#F2F2F2" stroke="#666666" stroke-linejoin="round" d="M167.4,71v-0.2c0-1,0.8-1.7,1.7-1.7h8.6c1,0,1.7,0.8,1.7,1.7V71
			c0,1-0.8,1.7-1.7,1.7h-8.6C168.2,72.7,167.4,72,167.4,71z"/>
		<path fill="#F2F2F2" stroke="#666666" stroke-linejoin="round" d="M182.6,82.4v-6.5c0-1,0.8-1.7,1.7-1.7h8.6c1,0,1.7,0.8,1.7,1.7
			v6.5c0,1-0.8,1.7-1.7,1.7h-8.6C183.4,84.1,182.6,83.3,182.6,82.4z"/>
		<path fill="#F2F2F2" stroke="#666666" stroke-linejoin="round" d="M182.6,71v-0.2c0-1,0.8-1.7,1.7-1.7h8.6c1,0,1.7,0.8,1.7,1.7V71
			c0,1-0.8,1.7-1.7,1.7h-8.6C183.4,72.7,182.6,72,182.6,71z"/>
		<path fill="#F2F2F2" stroke="#666666" stroke-linejoin="round" d="M197.8,82.4v-6.5c0-1,0.8-1.7,1.7-1.7h8.6c1,0,1.7,0.8,1.7,1.7
			v6.5c0,1-0.8,1.7-1.7,1.7h-8.6C198.6,84.1,197.8,83.3,197.8,82.4z"/>
		<path fill="#F2F2F2" stroke="#666666" stroke-linejoin="round" d="M197.8,71v-0.2c0-1,0.8-1.7,1.7-1.7h8.6c1,0,1.7,0.8,1.7,1.7V71
			c0,1-0.8,1.7-1.7,1.7h-8.6C198.6,72.7,197.8,72,197.8,71z"/>
		<path fill="#F2F2F2" stroke="#666666" stroke-linejoin="round" d="M213,82.4v-6.5c0-1,0.8-1.7,1.7-1.7h8.6c1,0,1.7,0.8,1.7,1.7
			v6.5c0,1-0.8,1.7-1.7,1.7h-8.6C213.8,84.1,213,83.3,213,82.4z"/>
		<path fill="#F2F2F2" stroke="#666666" stroke-linejoin="round" d="M213,71v-0.2c0-1,0.8-1.7,1.7-1.7h8.6c1,0,1.7,0.8,1.7,1.7V71
			c0,1-0.8,1.7-1.7,1.7h-8.6C213.8,72.7,213,72,213,71z"/>
		<path fill="#F2F2F2" stroke="#666666" stroke-linejoin="round" d="M228.3,82.4v-6.5c0-1,0.8-1.7,1.7-1.7h8.6c1,0,1.7,0.8,1.7,1.7
			v6.5c0,1-0.8,1.7-1.7,1.7H230C229,84.1,228.3,83.3,228.3,82.4z"/>
		<path fill="#F2F2F2" stroke="#666666" stroke-linejoin="round" d="M228.3,71v-0.2c0-1,0.8-1.7,1.7-1.7h8.6c1,0,1.7,0.8,1.7,1.7V71
			c0,1-0.8,1.7-1.7,1.7H230C229,72.7,228.3,72,228.3,71z"/>
		<path fill="#F2F2F2" stroke="#666666" stroke-linejoin="round" d="M243.5,82.4v-6.5c0-1,0.8-1.7,1.7-1.7h8.6c1,0,1.7,0.8,1.7,1.7
			v6.5c0,1-0.8,1.7-1.7,1.7h-8.6C244.3,84.1,243.5,83.3,243.5,82.4z"/>
		<path fill="#F2F2F2" stroke="#666666" stroke-linejoin="round" d="M243.5,71v-0.2c0-1,0.8-1.7,1.7-1.7h8.6c1,0,1.7,0.8,1.7,1.7V71
			c0,1-0.8,1.7-1.7,1.7h-8.6C244.3,72.7,243.5,72,243.5,71z"/>
		<path fill="#F2F2F2" stroke="#666666" stroke-linejoin="round" d="M258.7,82.4v-6.5c0-1,0.8-1.7,1.7-1.7h8.6c1,0,1.7,0.8,1.7,1.7
			v6.5c0,1-0.8,1.7-1.7,1.7h-8.6C259.5,84.1,258.7,83.3,258.7,82.4z"/>
		<path fill="#F2F2F2" stroke="#666666" stroke-linejoin="round" d="M258.7,71v-0.2c0-1,0.8-1.7,1.7-1.7h8.6c1,0,1.7,0.8,1.7,1.7V71
			c0,1-0.8,1.7-1.7,1.7h-8.6C259.5,72.7,258.7,72,258.7,71z"/>
		<path fill="#F2F2F2" stroke="#666666" stroke-linejoin="round" d="M273.9,82.4v-6.5c0-1,0.8-1.7,1.7-1.7h8.6c1,0,1.7,0.8,1.7,1.7
			v6.5c0,1-0.8,1.7-1.7,1.7h-8.6C274.7,84.1,273.9,83.3,273.9,82.4z"/>
		<path fill="#F2F2F2" stroke="#666666" stroke-linejoin="round" d="M273.9,71v-0.2c0-1,0.8-1.7,1.7-1.7h8.6c1,0,1.7,0.8,1.7,1.7V71
			c0,1-0.8,1.7-1.7,1.7h-8.6C274.7,72.7,273.9,72,273.9,71z"/>
		<path fill="#F2F2F2" stroke="#666666" stroke-linejoin="round" d="M289.1,82.4v-6.5c0-1,0.8-1.7,1.7-1.7h8.6c1,0,1.7,0.8,1.7,1.7
			v6.5c0,1-0.8,1.7-1.7,1.7h-8.6C289.9,84.1,289.1,83.3,289.1,82.4z"/>
		<path fill="#F2F2F2" stroke="#666666" stroke-linejoin="round" d="M289.1,71v-0.2c0-1,0.8-1.7,1.7-1.7h8.6c1,0,1.7,0.8,1.7,1.7V71
			c0,1-0.8,1.7-1.7,1.7h-8.6C289.9,72.7,289.1,72,289.1,71z"/>
		<path fill="#F2F2F2" stroke="#666666" stroke-linejoin="round" d="M304.4,82.4v-6.5c0-1,0.8-1.7,1.7-1.7h8.6c1,0,1.7,0.8,1.7,1.7
			v6.5c0,1-0.8,1.7-1.7,1.7h-8.6C305.1,84.1,304.4,83.3,304.4,82.4z"/>
		<path fill="#F2F2F2" stroke="#666666" stroke-linejoin="round" d="M304.4,71v-0.2c0-1,0.8-1.7,1.7-1.7h8.6c1,0,1.7,0.8,1.7,1.7V71
			c0,1-0.8,1.7-1.7,1.7h-8.6C305.1,72.7,304.4,72,304.4,71z"/>
		<path fill="#F2F2F2" stroke="#666666" stroke-linejoin="round" d="M347.7,120.2v6.5c0,1-0.8,1.7-1.7,1.7h-8.6
			c-1,0-1.7-0.8-1.7-1.7v-6.5c0-1,0.8-1.7,1.7-1.7h8.6C346.9,118.5,347.7,119.3,347.7,120.2z"/>
		<path fill="#F2F2F2" stroke="#666666" stroke-linejoin="round" d="M347.7,131.6v0.2c0,1-0.8,1.7-1.7,1.7h-8.6
			c-1,0-1.7-0.8-1.7-1.7v-0.2c0-1,0.8-1.7,1.7-1.7h8.6C346.9,129.8,347.7,130.6,347.7,131.6z"/>
		<path fill="#F2F2F2" stroke="#666666" stroke-linejoin="round" d="M332.5,120.2v6.5c0,1-0.8,1.7-1.7,1.7h-8.6
			c-1,0-1.7-0.8-1.7-1.7v-6.5c0-1,0.8-1.7,1.7-1.7h8.6C331.7,118.5,332.5,119.3,332.5,120.2z"/>
		<path fill="#F2F2F2" stroke="#666666" stroke-linejoin="round" d="M332.5,131.6v0.2c0,1-0.8,1.7-1.7,1.7h-8.6
			c-1,0-1.7-0.8-1.7-1.7v-0.2c0-1,0.8-1.7,1.7-1.7h8.6C331.7,129.8,332.5,130.6,332.5,131.6z"/>
		<path fill="#F2F2F2" stroke="#666666" stroke-linejoin="round" d="M407.2,120.2v6.5c0,1-0.8,1.7-1.7,1.7h-8.6
			c-1,0-1.7-0.8-1.7-1.7v-6.5c0-1,0.8-1.7,1.7-1.7h8.6C406.5,118.5,407.2,119.3,407.2,120.2z"/>
		<path fill="#F2F2F2" stroke="#666666" stroke-linejoin="round" d="M407.2,131.6v0.2c0,1-0.8,1.7-1.7,1.7h-8.6
			c-1,0-1.7-0.8-1.7-1.7v-0.2c0-1,0.8-1.7,1.7-1.7h8.6C406.5,129.8,407.2,130.6,407.2,131.6z"/>
		<path fill="#F2F2F2" stroke="#666666" stroke-linejoin="round" d="M422.5,120.2v6.5c0,1-0.8,1.7-1.7,1.7h-8.6
			c-1,0-1.7-0.8-1.7-1.7v-6.5c0-1,0.8-1.7,1.7-1.7h8.6C421.7,118.5,422.5,119.3,422.5,120.2z"/>
		<path fill="#F2F2F2" stroke="#666666" stroke-linejoin="round" d="M422.5,131.6v0.2c0,1-0.8,1.7-1.7,1.7h-8.6
			c-1,0-1.7-0.8-1.7-1.7v-0.2c0-1,0.8-1.7,1.7-1.7h8.6C421.7,129.8,422.5,130.6,422.5,131.6z"/>
		<path fill="#F2F2F2" stroke="#666666" stroke-linejoin="round" d="M392,120.2v6.5c0,1-0.8,1.7-1.7,1.7h-8.6c-1,0-1.7-0.8-1.7-1.7
			v-6.5c0-1,0.8-1.7,1.7-1.7h8.6C391.2,118.5,392,119.3,392,120.2z"/>
		<path fill="#F2F2F2" stroke="#666666" stroke-linejoin="round" d="M392,131.6v0.2c0,1-0.8,1.7-1.7,1.7h-8.6c-1,0-1.7-0.8-1.7-1.7
			v-0.2c0-1,0.8-1.7,1.7-1.7h8.6C391.2,129.8,392,130.6,392,131.6z"/>
		<path fill="#F2F2F2" stroke="#666666" stroke-linejoin="round" d="M376.8,120.2v6.5c0,1-0.8,1.7-1.7,1.7h-8.6
			c-1,0-1.7-0.8-1.7-1.7v-6.5c0-1,0.8-1.7,1.7-1.7h8.6C376,118.5,376.8,119.3,376.8,120.2z"/>
		<path fill="#F2F2F2" stroke="#666666" stroke-linejoin="round" d="M376.8,131.6v0.2c0,1-0.8,1.7-1.7,1.7h-8.6
			c-1,0-1.7-0.8-1.7-1.7v-0.2c0-1,0.8-1.7,1.7-1.7h8.6C376,129.8,376.8,130.6,376.8,131.6z"/>
		<path fill="#F2F2F2" stroke="#666666" stroke-linejoin="round" d="M361.6,120.2v6.5c0,1-0.8,1.7-1.7,1.7h-8.6
			c-1,0-1.7-0.8-1.7-1.7v-6.5c0-1,0.8-1.7,1.7-1.7h8.6C360.8,118.5,361.6,119.3,361.6,120.2z"/>
		<path fill="#F2F2F2" stroke="#666666" stroke-linejoin="round" d="M361.6,131.6v0.2c0,1-0.8,1.7-1.7,1.7h-8.6
			c-1,0-1.7-0.8-1.7-1.7v-0.2c0-1,0.8-1.7,1.7-1.7h8.6C360.8,129.8,361.6,130.6,361.6,131.6z"/>
		<path fill="#F2F2F2" stroke="#666666" stroke-linejoin="round" d="M319,82.4v-6.5c0-1,0.8-1.7,1.7-1.7h8.6c1,0,1.7,0.8,1.7,1.7
			v6.5c0,1-0.8,1.7-1.7,1.7h-8.6C319.8,84.1,319,83.3,319,82.4z"/>
		<path fill="#F2F2F2" stroke="#666666" stroke-linejoin="round" d="M319,71v-0.2c0-1,0.8-1.7,1.7-1.7h8.6c1,0,1.7,0.8,1.7,1.7V71
			c0,1-0.8,1.7-1.7,1.7h-8.6C319.8,72.7,319,72,319,71z"/>
		<path fill="#F2F2F2" stroke="#666666" stroke-linejoin="round" d="M334.3,82.4v-6.5c0-1,0.8-1.7,1.7-1.7h8.6c1,0,1.7,0.8,1.7,1.7
			v6.5c0,1-0.8,1.7-1.7,1.7H336C335,84.1,334.3,83.3,334.3,82.4z"/>
		<path fill="#F2F2F2" stroke="#666666" stroke-linejoin="round" d="M334.3,71v-0.2c0-1,0.8-1.7,1.7-1.7h8.6c1,0,1.7,0.8,1.7,1.7V71
			c0,1-0.8,1.7-1.7,1.7H336C335,72.7,334.3,72,334.3,71z"/>
		<path fill="#F2F2F2" stroke="#666666" stroke-linejoin="round" d="M349.5,82.4v-6.5c0-1,0.8-1.7,1.7-1.7h8.6c1,0,1.7,0.8,1.7,1.7
			v6.5c0,1-0.8,1.7-1.7,1.7h-8.6C350.3,84.1,349.5,83.3,349.5,82.4z"/>
		<path fill="#F2F2F2" stroke="#666666" stroke-linejoin="round" d="M349.5,71v-0.2c0-1,0.8-1.7,1.7-1.7h8.6c1,0,1.7,0.8,1.7,1.7V71
			c0,1-0.8,1.7-1.7,1.7h-8.6C350.3,72.7,349.5,72,349.5,71z"/>
		<path fill="#F2F2F2" stroke="#666666" stroke-linejoin="round" d="M364.7,82.4v-6.5c0-1,0.8-1.7,1.7-1.7h8.6c1,0,1.7,0.8,1.7,1.7
			v6.5c0,1-0.8,1.7-1.7,1.7h-8.6C365.5,84.1,364.7,83.3,364.7,82.4z"/>
		<path fill="#F2F2F2" stroke="#666666" stroke-linejoin="round" d="M364.7,71v-0.2c0-1,0.8-1.7,1.7-1.7h8.6c1,0,1.7,0.8,1.7,1.7V71
			c0,1-0.8,1.7-1.7,1.7h-8.6C365.5,72.7,364.7,72,364.7,71z"/>
		<path fill="#F2F2F2" stroke="#666666" stroke-linejoin="round" d="M379.9,82.4v-6.5c0-1,0.8-1.7,1.7-1.7h8.6c1,0,1.7,0.8,1.7,1.7
			v6.5c0,1-0.8,1.7-1.7,1.7h-8.6C380.7,84.1,379.9,83.3,379.9,82.4z"/>
		<path fill="#F2F2F2" stroke="#666666" stroke-linejoin="round" d="M379.9,71v-0.2c0-1,0.8-1.7,1.7-1.7h8.6c1,0,1.7,0.8,1.7,1.7V71
			c0,1-0.8,1.7-1.7,1.7h-8.6C380.7,72.7,379.9,72,379.9,71z"/>
		<path fill="#F2F2F2" stroke="#666666" stroke-linejoin="round" d="M395.1,82.4v-6.5c0-1,0.8-1.7,1.7-1.7h8.6c1,0,1.7,0.8,1.7,1.7
			v6.5c0,1-0.8,1.7-1.7,1.7h-8.6C395.9,84.1,395.1,83.3,395.1,82.4z"/>
		<path fill="#F2F2F2" stroke="#666666" stroke-linejoin="round" d="M395.1,71v-0.2c0-1,0.8-1.7,1.7-1.7h8.6c1,0,1.7,0.8,1.7,1.7V71
			c0,1-0.8,1.7-1.7,1.7h-8.6C395.9,72.7,395.1,72,395.1,71z"/>
		<path fill="#F2F2F2" stroke="#666666" stroke-linejoin="round" d="M410.4,82.4v-6.5c0-1,0.8-1.7,1.7-1.7h8.6c1,0,1.7,0.8,1.7,1.7
			v6.5c0,1-0.8,1.7-1.7,1.7h-8.6C411.1,84.1,410.4,83.3,410.4,82.4z"/>
		<path fill="#F2F2F2" stroke="#666666" stroke-linejoin="round" d="M410.4,71v-0.2c0-1,0.8-1.7,1.7-1.7h8.6c1,0,1.7,0.8,1.7,1.7V71
			c0,1-0.8,1.7-1.7,1.7h-8.6C411.1,72.7,410.4,72,410.4,71z"/>
		<path fill="#F2F2F2" stroke="#666666" stroke-linejoin="round" d="M452.2,120.2v6.5c0,1-0.8,1.7-1.7,1.7h-8.6
			c-1,0-1.7-0.8-1.7-1.7v-6.5c0-1,0.8-1.7,1.7-1.7h8.6C451.5,118.5,452.2,119.3,452.2,120.2z"/>
		<path fill="#F2F2F2" stroke="#666666" stroke-linejoin="round" d="M452.2,131.6v0.2c0,1-0.8,1.7-1.7,1.7h-8.6
			c-1,0-1.7-0.8-1.7-1.7v-0.2c0-1,0.8-1.7,1.7-1.7h8.6C451.5,129.8,452.2,130.6,452.2,131.6z"/>
		<path fill="#F2F2F2" stroke="#666666" stroke-linejoin="round" d="M467.5,120.2v6.5c0,1-0.8,1.7-1.7,1.7h-8.6
			c-1,0-1.7-0.8-1.7-1.7v-6.5c0-1,0.8-1.7,1.7-1.7h8.6C466.7,118.5,467.5,119.3,467.5,120.2z"/>
		<path fill="#F2F2F2" stroke="#666666" stroke-linejoin="round" d="M467.5,131.6v0.2c0,1-0.8,1.7-1.7,1.7h-8.6
			c-1,0-1.7-0.8-1.7-1.7v-0.2c0-1,0.8-1.7,1.7-1.7h8.6C466.7,129.8,467.5,130.6,467.5,131.6z"/>
		<path fill="#F2F2F2" stroke="#666666" stroke-linejoin="round" d="M437,120.2v6.5c0,1-0.8,1.7-1.7,1.7h-8.6c-1,0-1.7-0.8-1.7-1.7
			v-6.5c0-1,0.8-1.7,1.7-1.7h8.6C436.2,118.5,437,119.3,437,120.2z"/>
		<path fill="#F2F2F2" stroke="#666666" stroke-linejoin="round" d="M437,131.6v0.2c0,1-0.8,1.7-1.7,1.7h-8.6c-1,0-1.7-0.8-1.7-1.7
			v-0.2c0-1,0.8-1.7,1.7-1.7h8.6C436.2,129.8,437,130.6,437,131.6z"/>
		<path fill="#F2F2F2" stroke="#666666" stroke-linejoin="round" d="M424.9,82.4v-6.5c0-1,0.8-1.7,1.7-1.7h8.6c1,0,1.7,0.8,1.7,1.7
			v6.5c0,1-0.8,1.7-1.7,1.7h-8.6C425.7,84.1,424.9,83.3,424.9,82.4z"/>
		<path fill="#F2F2F2" stroke="#666666" stroke-linejoin="round" d="M424.9,71v-0.2c0-1,0.8-1.7,1.7-1.7h8.6c1,0,1.7,0.8,1.7,1.7V71
			c0,1-0.8,1.7-1.7,1.7h-8.6C425.7,72.7,424.9,72,424.9,71z"/>
		<path fill="#F2F2F2" stroke="#666666" stroke-linejoin="round" d="M440.1,82.4v-6.5c0-1,0.8-1.7,1.7-1.7h8.6c1,0,1.7,0.8,1.7,1.7
			v6.5c0,1-0.8,1.7-1.7,1.7h-8.6C440.9,84.1,440.1,83.3,440.1,82.4z"/>
		<path fill="#F2F2F2" stroke="#666666" stroke-linejoin="round" d="M440.1,71v-0.2c0-1,0.8-1.7,1.7-1.7h8.6c1,0,1.7,0.8,1.7,1.7V71
			c0,1-0.8,1.7-1.7,1.7h-8.6C440.9,72.7,440.1,72,440.1,71z"/>
		<path fill="#F2F2F2" stroke="#666666" stroke-linejoin="round" d="M455.4,82.4v-6.5c0-1,0.8-1.7,1.7-1.7h8.6c1,0,1.7,0.8,1.7,1.7
			v6.5c0,1-0.8,1.7-1.7,1.7h-8.6C456.1,84.1,455.4,83.3,455.4,82.4z"/>
		<path fill="#F2F2F2" stroke="#666666" stroke-linejoin="round" d="M455.4,71v-0.2c0-1,0.8-1.7,1.7-1.7h8.6c1,0,1.7,0.8,1.7,1.7V71
			c0,1-0.8,1.7-1.7,1.7h-8.6C456.1,72.7,455.4,72,455.4,71z"/>
		<path fill="#F2F2F2" stroke="#666666" stroke-linejoin="round" d="M62.2,82.4v-6.5c0-1,0.8-1.7,1.7-1.7h8.6c1,0,1.7,0.8,1.7,1.7
			v6.5c0,1-0.8,1.7-1.7,1.7h-8.6C63,84.1,62.2,83.3,62.2,82.4z"/>
		<path fill="#F2F2F2" stroke="#666666" stroke-linejoin="round" d="M62.2,71v-0.2c0-1,0.8-1.7,1.7-1.7h8.6c1,0,1.7,0.8,1.7,1.7V71
			c0,1-0.8,1.7-1.7,1.7h-8.6C63,72.7,62.2,72,62.2,71z"/>
		<path fill="#F2F2F2" stroke="#666666" stroke-linejoin="round" d="M77.4,82.4v-6.5c0-1,0.8-1.7,1.7-1.7h8.6c1,0,1.7,0.8,1.7,1.7
			v6.5c0,1-0.8,1.7-1.7,1.7h-8.6C78.2,84.1,77.4,83.3,77.4,82.4z"/>
		<path fill="#F2F2F2" stroke="#666666" stroke-linejoin="round" d="M77.4,71v-0.2c0-1,0.8-1.7,1.7-1.7h8.6c1,0,1.7,0.8,1.7,1.7V71
			c0,1-0.8,1.7-1.7,1.7h-8.6C78.2,72.7,77.4,72,77.4,71z"/>
		<path fill="#F2F2F2" stroke="#666666" stroke-linejoin="round" d="M28.9,114.9h-6.5c-1,0-1.7-0.8-1.7-1.7v-8.6
			c0-1,0.8-1.7,1.7-1.7h6.5c1,0,1.7,0.8,1.7,1.7v8.6C30.6,114.1,29.8,114.9,28.9,114.9z"/>
		<path fill="#F2F2F2" stroke="#666666" stroke-linejoin="round" d="M17.5,114.9h-0.2c-1,0-1.7-0.8-1.7-1.7v-8.6
			c0-1,0.8-1.7,1.7-1.7h0.2c1,0,1.7,0.8,1.7,1.7v8.6C19.2,114.1,18.5,114.9,17.5,114.9z"/>
		<path fill="#F2F2F2" stroke="#666666" stroke-linejoin="round" d="M28.9,99.7h-6.5c-1,0-1.7-0.8-1.7-1.7v-8.6c0-1,0.8-1.7,1.7-1.7
			h6.5c1,0,1.7,0.8,1.7,1.7v8.6C30.6,98.9,29.8,99.7,28.9,99.7z"/>
		<path fill="#F2F2F2" stroke="#666666" stroke-linejoin="round" d="M17.5,99.7h-0.2c-1,0-1.7-0.8-1.7-1.7v-8.6c0-1,0.8-1.7,1.7-1.7
			h0.2c1,0,1.7,0.8,1.7,1.7v8.6C19.2,98.9,18.5,99.7,17.5,99.7z"/>
		<path fill="#F2F2F2" stroke="#666666" stroke-linejoin="round" d="M28.9,84.4h-6.5c-1,0-1.7-0.8-1.7-1.7v-8.6c0-1,0.8-1.7,1.7-1.7
			h6.5c1,0,1.7,0.8,1.7,1.7v8.6C30.6,83.7,29.8,84.4,28.9,84.4z"/>
		<path fill="#F2F2F2" stroke="#666666" stroke-linejoin="round" d="M17.5,84.4h-0.2c-1,0-1.7-0.8-1.7-1.7v-8.6c0-1,0.8-1.7,1.7-1.7
			h0.2c1,0,1.7,0.8,1.7,1.7v8.6C19.2,83.7,18.5,84.4,17.5,84.4z"/>
		<path fill="#F2F2F2" stroke="#666666" stroke-linejoin="round" d="M28.9,69.2h-6.5c-1,0-1.7-0.8-1.7-1.7v-8.6c0-1,0.8-1.7,1.7-1.7
			h6.5c1,0,1.7,0.8,1.7,1.7v8.6C30.6,68.4,29.8,69.2,28.9,69.2z"/>
		<path fill="#F2F2F2" stroke="#666666" stroke-linejoin="round" d="M17.5,69.2h-0.2c-1,0-1.7-0.8-1.7-1.7v-8.6c0-1,0.8-1.7,1.7-1.7
			h0.2c1,0,1.7,0.8,1.7,1.7v8.6C19.2,68.5,18.5,69.2,17.5,69.2z"/>
		<path fill="#F2F2F2" stroke="#666666" stroke-linejoin="round" d="M28.9,54h-6.5c-1,0-1.7-0.8-1.7-1.7v-8.6c0-1,0.8-1.7,1.7-1.7
			h6.5c1,0,1.7,0.8,1.7,1.7v8.6C30.6,53.2,29.8,54,28.9,54z"/>
		<path fill="#F2F2F2" stroke="#666666" stroke-linejoin="round" d="M17.5,54h-0.2c-1,0-1.7-0.8-1.7-1.7v-8.6c0-1,0.8-1.7,1.7-1.7
			h0.2c1,0,1.7,0.8,1.7,1.7v8.6C19.2,53.2,18.5,54,17.5,54z"/>
		<path fill="#F2F2F2" stroke="#666666" stroke-linejoin="round" d="M28.9,38.8h-6.5c-1,0-1.7-0.8-1.7-1.7v-8.6c0-1,0.8-1.7,1.7-1.7
			h6.5c1,0,1.7,0.8,1.7,1.7v8.6C30.6,38,29.8,38.8,28.9,38.8z"/>
		<path fill="#F2F2F2" stroke="#666666" stroke-linejoin="round" d="M17.5,38.8h-0.2c-1,0-1.7-0.8-1.7-1.7v-8.6c0-1,0.8-1.7,1.7-1.7
			h0.2c1,0,1.7,0.8,1.7,1.7v8.6C19.2,38,18.5,38.8,17.5,38.8z"/>
		<path fill="#F2F2F2" stroke="#666666" stroke-linejoin="round" d="M28.9,23.6h-6.5c-1,0-1.7-0.8-1.7-1.7v-8.6c0-1,0.8-1.7,1.7-1.7
			h6.5c1,0,1.7,0.8,1.7,1.7v8.6C30.6,22.8,29.8,23.6,28.9,23.6z"/>
		<path fill="#F2F2F2" stroke="#666666" stroke-linejoin="round" d="M17.5,23.6h-0.2c-1,0-1.7-0.8-1.7-1.7v-8.6c0-1,0.8-1.7,1.7-1.7
			h0.2c1,0,1.7,0.8,1.7,1.7v8.6C19.2,22.8,18.5,23.6,17.5,23.6z"/>
		<path fill="#F2F2F2" stroke="#666666" stroke-linejoin="round" d="M28.9,175.9h-6.5c-1,0-1.7-0.8-1.7-1.7v-8.6
			c0-1,0.8-1.7,1.7-1.7h6.5c1,0,1.7,0.8,1.7,1.7v8.6C30.6,175.1,29.8,175.9,28.9,175.9z"/>
		<path fill="#F2F2F2" stroke="#666666" stroke-linejoin="round" d="M17.5,175.9h-0.2c-1,0-1.7-0.8-1.7-1.7v-8.6
			c0-1,0.8-1.7,1.7-1.7h0.2c1,0,1.7,0.8,1.7,1.7v8.6C19.2,175.1,18.5,175.9,17.5,175.9z"/>
		<path fill="#F2F2F2" stroke="#666666" stroke-linejoin="round" d="M28.9,191.1h-6.5c-1,0-1.7-0.8-1.7-1.7v-8.6
			c0-1,0.8-1.7,1.7-1.7h6.5c1,0,1.7,0.8,1.7,1.7v8.6C30.6,190.3,29.8,191.1,28.9,191.1z"/>
		<path fill="#F2F2F2" stroke="#666666" stroke-linejoin="round" d="M17.5,191.1h-0.2c-1,0-1.7-0.8-1.7-1.7v-8.6
			c0-1,0.8-1.7,1.7-1.7h0.2c1,0,1.7,0.8,1.7,1.7v8.6C19.2,190.3,18.5,191.1,17.5,191.1z"/>
		<path fill="#F2F2F2" stroke="#666666" stroke-linejoin="round" d="M28.9,160.7h-6.5c-1,0-1.7-0.8-1.7-1.7v-8.6
			c0-1,0.8-1.7,1.7-1.7h6.5c1,0,1.7,0.8,1.7,1.7v8.6C30.6,159.9,29.8,160.7,28.9,160.7z"/>
		<path fill="#F2F2F2" stroke="#666666" stroke-linejoin="round" d="M17.5,160.7h-0.2c-1,0-1.7-0.8-1.7-1.7v-8.6
			c0-1,0.8-1.7,1.7-1.7h0.2c1,0,1.7,0.8,1.7,1.7v8.6C19.2,159.9,18.5,160.7,17.5,160.7z"/>
		<path fill="#F2F2F2" stroke="#666666" stroke-linejoin="round" d="M28.9,145.5h-6.5c-1,0-1.7-0.8-1.7-1.7v-8.6
			c0-1,0.8-1.7,1.7-1.7h6.5c1,0,1.7,0.8,1.7,1.7v8.6C30.6,144.7,29.8,145.5,28.9,145.5z"/>
		<path fill="#F2F2F2" stroke="#666666" stroke-linejoin="round" d="M17.5,145.5h-0.2c-1,0-1.7-0.8-1.7-1.7v-8.6
			c0-1,0.8-1.7,1.7-1.7h0.2c1,0,1.7,0.8,1.7,1.7v8.6C19.2,144.7,18.5,145.5,17.5,145.5z"/>
		<path fill="#F2F2F2" stroke="#666666" stroke-linejoin="round" d="M28.9,130.2h-6.5c-1,0-1.7-0.8-1.7-1.7v-8.6
			c0-1,0.8-1.7,1.7-1.7h6.5c1,0,1.7,0.8,1.7,1.7v8.6C30.6,129.5,29.8,130.2,28.9,130.2z"/>
		<path fill="#F2F2F2" stroke="#666666" stroke-linejoin="round" d="M17.5,130.2h-0.2c-1,0-1.7-0.8-1.7-1.7v-8.6
			c0-1,0.8-1.7,1.7-1.7h0.2c1,0,1.7,0.8,1.7,1.7v8.6C19.2,129.5,18.5,130.2,17.5,130.2z"/>
		<path fill="#F2F2F2" stroke="#666666" stroke-linejoin="round" d="M36,45.6h19.9c1,0,1.7,0.8,1.7,1.7V80c0,1-0.8,1.7-1.7,1.7H36
			c-1,0-1.7-0.8-1.7-1.7V47.3C34.3,46.4,35.1,45.6,36,45.6z"/>
		<path fill="#F2F2F2" stroke="#666666" stroke-linejoin="round" d="M36,7.9h19.9c1,0,1.7,0.8,1.7,1.7v32.7c0,1-0.8,1.7-1.7,1.7H36
			c-1,0-1.7-0.8-1.7-1.7V9.7C34.3,8.7,35.1,7.9,36,7.9z"/>
		<path fill="#F2F2F2" stroke="#666666" stroke-linejoin="round" d="M36,83.2h19.9c1,0,1.7,0.8,1.7,1.7v32.7c0,1-0.8,1.7-1.7,1.7H36
			c-1,0-1.7-0.8-1.7-1.7V84.9C34.3,84,35.1,83.2,36,83.2z"/>
		<path fill="#F2F2F2" stroke="#666666" stroke-linejoin="round" d="M36,120.9h19.9c1,0,1.7,0.8,1.7,1.7v32.7c0,1-0.8,1.7-1.7,1.7
			H36c-1,0-1.7-0.8-1.7-1.7v-32.7C34.3,121.6,35.1,120.9,36,120.9z"/>
		<path fill="#F2F2F2" stroke="#666666" stroke-linejoin="round" d="M36,158.5h19.9c1,0,1.7,0.8,1.7,1.7v32.7c0,1-0.8,1.7-1.7,1.7
			H36c-1,0-1.7-0.8-1.7-1.7v-32.7C34.3,159.3,35.1,158.5,36,158.5z"/>
	</g>
</g>
</svg>
