<?xml version="1.0" encoding="utf-8"?>
<!-- Generator: Adobe Illustrator 21.0.0, SVG Export Plug-In . SVG Version: 6.00 Build 0)  -->
<svg version="1.0" id="Слой_1" xmlns="http://www.w3.org/2000/svg" xmlns:xlink="http://www.w3.org/1999/xlink" x="0px" y="0px"
	 viewBox="0 0 525.9 203.4" enable-background="new 0 0 525.9 203.4" xml:space="preserve">
<title>Ala-Too 200person (150)</title>
<g id="Слой_2">
	<g id="Alo-Too_U_50_75_">
		<path fill="#F2F2F2" stroke="#666666" stroke-linejoin="round" d="M267.2,25.6V20c0-0.8,0.7-1.5,1.5-1.5h7.5
			c0.8,0,1.5,0.7,1.5,1.5v5.6c0,0.8-0.7,1.5-1.5,1.5h-7.5C267.9,27.1,267.2,26.4,267.2,25.6z"/>
		<path fill="#F2F2F2" stroke="#666666" stroke-linejoin="round" d="M267.2,15.7v-0.2c0-0.8,0.7-1.5,1.5-1.5h7.5
			c0.8,0,1.5,0.7,1.5,1.5v0.2c0,0.8-0.7,1.5-1.5,1.5h-7.5C267.9,17.2,267.2,16.5,267.2,15.7z"/>
		<path fill="#F2F2F2" stroke="#666666" stroke-linejoin="round" d="M280.4,25.6V20c0-0.8,0.7-1.5,1.5-1.5h7.5
			c0.8,0,1.5,0.7,1.5,1.5v5.6c0,0.8-0.7,1.5-1.5,1.5h-7.5C281.1,27.1,280.4,26.4,280.4,25.6z"/>
		<path fill="#F2F2F2" stroke="#666666" stroke-linejoin="round" d="M280.4,15.7v-0.2c0-0.8,0.7-1.5,1.5-1.5h7.5
			c0.8,0,1.5,0.7,1.5,1.5v0.2c0,0.8-0.7,1.5-1.5,1.5h-7.5C281.1,17.2,280.4,16.5,280.4,15.7z"/>
		<path fill="#F2F2F2" stroke="#666666" stroke-linejoin="round" d="M293.7,25.6V20c0-0.8,0.7-1.5,1.5-1.5h7.5
			c0.8,0,1.5,0.7,1.5,1.5v5.6c0,0.8-0.7,1.5-1.5,1.5h-7.5C294.3,27.1,293.7,26.4,293.7,25.6z"/>
		<path fill="#F2F2F2" stroke="#666666" stroke-linejoin="round" d="M293.7,15.7v-0.2c0-0.8,0.7-1.5,1.5-1.5h7.5
			c0.8,0,1.5,0.7,1.5,1.5v0.2c0,0.8-0.7,1.5-1.5,1.5h-7.5C294.3,17.2,293.7,16.5,293.7,15.7z"/>
		<path fill="#F2F2F2" stroke="#666666" stroke-linejoin="round" d="M306.9,25.6V20c0-0.8,0.7-1.5,1.5-1.5h7.5
			c0.8,0,1.5,0.7,1.5,1.5v5.6c0,0.8-0.7,1.5-1.5,1.5h-7.5C307.6,27.1,306.9,26.4,306.9,25.6z"/>
		<path fill="#F2F2F2" stroke="#666666" stroke-linejoin="round" d="M306.9,15.7v-0.2c0-0.8,0.7-1.5,1.5-1.5h7.5
			c0.8,0,1.5,0.7,1.5,1.5v0.2c0,0.8-0.7,1.5-1.5,1.5h-7.5C307.6,17.2,306.9,16.5,306.9,15.7z"/>
		<path fill="#F2F2F2" stroke="#666666" stroke-linejoin="round" d="M320.2,25.6V20c0-0.8,0.7-1.5,1.5-1.5h7.5
			c0.8,0,1.5,0.7,1.5,1.5v5.6c0,0.8-0.7,1.5-1.5,1.5h-7.5C320.8,27.1,320.2,26.4,320.2,25.6z"/>
		<path fill="#F2F2F2" stroke="#666666" stroke-linejoin="round" d="M320.2,15.7v-0.2c0-0.8,0.7-1.5,1.5-1.5h7.5
			c0.8,0,1.5,0.7,1.5,1.5v0.2c0,0.8-0.7,1.5-1.5,1.5h-7.5C320.8,17.2,320.2,16.5,320.2,15.7z"/>
		<path fill="#F2F2F2" stroke="#666666" stroke-linejoin="round" d="M333.4,25.6V20c0-0.8,0.7-1.5,1.5-1.5h7.5
			c0.8,0,1.5,0.7,1.5,1.5v5.6c0,0.8-0.7,1.5-1.5,1.5h-7.5C334.1,27.1,333.4,26.4,333.4,25.6z"/>
		<path fill="#F2F2F2" stroke="#666666" stroke-linejoin="round" d="M333.4,15.7v-0.2c0-0.8,0.7-1.5,1.5-1.5h7.5
			c0.8,0,1.5,0.7,1.5,1.5v0.2c0,0.8-0.7,1.5-1.5,1.5h-7.5C334.1,17.2,333.4,16.5,333.4,15.7z"/>
		<path fill="#F2F2F2" stroke="#666666" stroke-linejoin="round" d="M346.7,25.6V20c0-0.8,0.7-1.5,1.5-1.5h7.5
			c0.8,0,1.5,0.7,1.5,1.5v5.6c0,0.8-0.7,1.5-1.5,1.5h-7.5C347.3,27.1,346.7,26.4,346.7,25.6z"/>
		<path fill="#F2F2F2" stroke="#666666" stroke-linejoin="round" d="M346.7,15.7v-0.2c0-0.8,0.7-1.5,1.5-1.5h7.5
			c0.8,0,1.5,0.7,1.5,1.5v0.2c0,0.8-0.7,1.5-1.5,1.5h-7.5C347.3,17.2,346.7,16.5,346.7,15.7z"/>
		<path fill="#F2F2F2" stroke="#666666" stroke-linejoin="round" d="M359.9,25.6V20c0-0.8,0.7-1.5,1.5-1.5h7.5
			c0.8,0,1.5,0.7,1.5,1.5v5.6c0,0.8-0.7,1.5-1.5,1.5h-7.5C360.6,27.1,359.9,26.4,359.9,25.6z"/>
		<path fill="#F2F2F2" stroke="#666666" stroke-linejoin="round" d="M359.9,15.7v-0.2c0-0.8,0.7-1.5,1.5-1.5h7.5
			c0.8,0,1.5,0.7,1.5,1.5v0.2c0,0.8-0.7,1.5-1.5,1.5h-7.5C360.6,17.2,359.9,16.5,359.9,15.7z"/>
		<path fill="#F2F2F2" stroke="#666666" stroke-linejoin="round" d="M373.1,25.6V20c0-0.8,0.7-1.5,1.5-1.5h7.5
			c0.8,0,1.5,0.7,1.5,1.5v5.6c0,0.8-0.7,1.5-1.5,1.5h-7.5C373.8,27.1,373.1,26.4,373.1,25.6z"/>
		<path fill="#F2F2F2" stroke="#666666" stroke-linejoin="round" d="M373.1,15.7v-0.2c0-0.8,0.7-1.5,1.5-1.5h7.5
			c0.8,0,1.5,0.7,1.5,1.5v0.2c0,0.8-0.7,1.5-1.5,1.5h-7.5C373.8,17.2,373.1,16.5,373.1,15.7z"/>
		<path fill="#F2F2F2" stroke="#666666" stroke-linejoin="round" d="M386.4,25.6V20c0-0.8,0.7-1.5,1.5-1.5h7.5
			c0.8,0,1.5,0.7,1.5,1.5v5.6c0,0.8-0.7,1.5-1.5,1.5h-7.5C387.1,27.1,386.4,26.4,386.4,25.6z"/>
		<path fill="#F2F2F2" stroke="#666666" stroke-linejoin="round" d="M386.4,15.7v-0.2c0-0.8,0.7-1.5,1.5-1.5h7.5
			c0.8,0,1.5,0.7,1.5,1.5v0.2c0,0.8-0.7,1.5-1.5,1.5h-7.5C387.1,17.2,386.4,16.5,386.4,15.7z"/>
		<path fill="#F2F2F2" stroke="#666666" stroke-linejoin="round" d="M399.6,25.6V20c0-0.8,0.7-1.5,1.5-1.5h7.5
			c0.8,0,1.5,0.7,1.5,1.5v5.6c0,0.8-0.7,1.5-1.5,1.5h-7.5C400.3,27.1,399.6,26.4,399.6,25.6z"/>
		<path fill="#F2F2F2" stroke="#666666" stroke-linejoin="round" d="M399.6,15.7v-0.2c0-0.8,0.7-1.5,1.5-1.5h7.5
			c0.8,0,1.5,0.7,1.5,1.5v0.2c0,0.8-0.7,1.5-1.5,1.5h-7.5C400.3,17.2,399.6,16.5,399.6,15.7z"/>
		<path fill="#F2F2F2" stroke="#666666" stroke-linejoin="round" d="M412.9,25.6V20c0-0.8,0.7-1.5,1.5-1.5h7.5
			c0.8,0,1.5,0.7,1.5,1.5v5.6c0,0.8-0.7,1.5-1.5,1.5h-7.5C413.6,27.1,412.9,26.4,412.9,25.6z"/>
		<path fill="#F2F2F2" stroke="#666666" stroke-linejoin="round" d="M412.9,15.7v-0.2c0-0.8,0.7-1.5,1.5-1.5h7.5
			c0.8,0,1.5,0.7,1.5,1.5v0.2c0,0.8-0.7,1.5-1.5,1.5h-7.5C413.6,17.2,412.9,16.5,412.9,15.7z"/>
		<path fill="#F2F2F2" stroke="#666666" stroke-linejoin="round" d="M426.1,25.6V20c0-0.8,0.7-1.5,1.5-1.5h7.5
			c0.8,0,1.5,0.7,1.5,1.5v5.6c0,0.8-0.7,1.5-1.5,1.5h-7.5C426.8,27.1,426.1,26.4,426.1,25.6z"/>
		<path fill="#F2F2F2" stroke="#666666" stroke-linejoin="round" d="M426.1,15.7v-0.2c0-0.8,0.7-1.5,1.5-1.5h7.5
			c0.8,0,1.5,0.7,1.5,1.5v0.2c0,0.8-0.7,1.5-1.5,1.5h-7.5C426.8,17.2,426.1,16.5,426.1,15.7z"/>
		<path fill="#F2F2F2" stroke="#666666" stroke-linejoin="round" d="M439.4,25.6V20c0-0.8,0.7-1.5,1.5-1.5h7.5
			c0.8,0,1.5,0.7,1.5,1.5v5.6c0,0.8-0.7,1.5-1.5,1.5h-7.5C440,27.1,439.4,26.4,439.4,25.6z"/>
		<path fill="#F2F2F2" stroke="#666666" stroke-linejoin="round" d="M439.4,15.7v-0.2c0-0.8,0.7-1.5,1.5-1.5h7.5
			c0.8,0,1.5,0.7,1.5,1.5v0.2c0,0.8-0.7,1.5-1.5,1.5h-7.5C440,17.2,439.4,16.5,439.4,15.7z"/>
		<path fill="#F2F2F2" stroke="#666666" stroke-linejoin="round" d="M452.6,25.6V20c0-0.8,0.7-1.5,1.5-1.5h7.5
			c0.8,0,1.5,0.7,1.5,1.5v5.6c0,0.8-0.7,1.5-1.5,1.5h-7.5C453.3,27.1,452.6,26.4,452.6,25.6z"/>
		<path fill="#F2F2F2" stroke="#666666" stroke-linejoin="round" d="M452.6,15.7v-0.2c0-0.8,0.7-1.5,1.5-1.5h7.5
			c0.8,0,1.5,0.7,1.5,1.5v0.2c0,0.8-0.7,1.5-1.5,1.5h-7.5C453.3,17.2,452.6,16.5,452.6,15.7z"/>
		<path fill="#F2F2F2" stroke="#666666" stroke-linejoin="round" d="M215.4,25.6V20c0-0.8,0.7-1.5,1.5-1.5h7.5
			c0.8,0,1.5,0.7,1.5,1.5v5.6c0,0.8-0.7,1.5-1.5,1.5h-7.5C216,27.1,215.4,26.4,215.4,25.6z"/>
		<path fill="#F2F2F2" stroke="#666666" stroke-linejoin="round" d="M215.4,15.7v-0.2c0-0.8,0.7-1.5,1.5-1.5h7.5
			c0.8,0,1.5,0.7,1.5,1.5v0.2c0,0.8-0.7,1.5-1.5,1.5h-7.5C216,17.2,215.4,16.5,215.4,15.7z"/>
		<path fill="#F2F2F2" stroke="#666666" stroke-linejoin="round" d="M202.1,25.6V20c0-0.8,0.7-1.5,1.5-1.5h7.5
			c0.8,0,1.5,0.7,1.5,1.5v5.6c0,0.8-0.7,1.5-1.5,1.5h-7.5C202.8,27.1,202.1,26.4,202.1,25.6z"/>
		<path fill="#F2F2F2" stroke="#666666" stroke-linejoin="round" d="M202.1,15.7v-0.2c0-0.8,0.7-1.5,1.5-1.5h7.5
			c0.8,0,1.5,0.7,1.5,1.5v0.2c0,0.8-0.7,1.5-1.5,1.5h-7.5C202.8,17.2,202.1,16.5,202.1,15.7z"/>
		<path fill="#F2F2F2" stroke="#666666" stroke-linejoin="round" d="M228.6,25.6V20c0-0.8,0.7-1.5,1.5-1.5h7.5
			c0.8,0,1.5,0.7,1.5,1.5v5.6c0,0.8-0.7,1.5-1.5,1.5h-7.5C229.3,27.1,228.6,26.4,228.6,25.6z"/>
		<path fill="#F2F2F2" stroke="#666666" stroke-linejoin="round" d="M228.6,15.7v-0.2c0-0.8,0.7-1.5,1.5-1.5h7.5
			c0.8,0,1.5,0.7,1.5,1.5v0.2c0,0.8-0.7,1.5-1.5,1.5h-7.5C229.3,17.2,228.6,16.5,228.6,15.7z"/>
		<path fill="#F2F2F2" stroke="#666666" stroke-linejoin="round" d="M241.9,25.6V20c0-0.8,0.7-1.5,1.5-1.5h7.5
			c0.8,0,1.5,0.7,1.5,1.5v5.6c0,0.8-0.7,1.5-1.5,1.5h-7.5C242.5,27.1,241.9,26.4,241.9,25.6z"/>
		<path fill="#F2F2F2" stroke="#666666" stroke-linejoin="round" d="M241.9,15.7v-0.2c0-0.8,0.7-1.5,1.5-1.5h7.5
			c0.8,0,1.5,0.7,1.5,1.5v0.2c0,0.8-0.7,1.5-1.5,1.5h-7.5C242.5,17.2,241.9,16.5,241.9,15.7z"/>
		<path fill="#F2F2F2" stroke="#666666" stroke-linejoin="round" d="M255.1,25.6V20c0-0.8,0.7-1.5,1.5-1.5h7.5
			c0.8,0,1.5,0.7,1.5,1.5v5.6c0,0.8-0.7,1.5-1.5,1.5h-7.5C255.8,27.1,255.1,26.4,255.1,25.6z"/>
		<path fill="#F2F2F2" stroke="#666666" stroke-linejoin="round" d="M255.1,15.7v-0.2c0-0.8,0.7-1.5,1.5-1.5h7.5
			c0.8,0,1.5,0.7,1.5,1.5v0.2c0,0.8-0.7,1.5-1.5,1.5h-7.5C255.8,17.2,255.1,16.5,255.1,15.7z"/>
		<path fill="#F2F2F2" stroke="#666666" stroke-linejoin="round" d="M398.1,178.1v5.6c0,0.8-0.7,1.5-1.5,1.5h-7.5
			c-0.8,0-1.5-0.7-1.5-1.5v-5.6c0-0.8,0.7-1.5,1.5-1.5h7.5C397.4,176.6,398.1,177.2,398.1,178.1z"/>
		<path fill="#F2F2F2" stroke="#666666" stroke-linejoin="round" d="M398.1,187.9v0.2c0,0.8-0.7,1.5-1.5,1.5h-7.5
			c-0.8,0-1.5-0.7-1.5-1.5v-0.2c0-0.8,0.7-1.5,1.5-1.5h7.5C397.4,186.4,398.1,187.1,398.1,187.9z"/>
		<path fill="#F2F2F2" stroke="#666666" stroke-linejoin="round" d="M384.8,178.1v5.6c0,0.8-0.7,1.5-1.5,1.5h-7.5
			c-0.8,0-1.5-0.7-1.5-1.5v-5.6c0-0.8,0.7-1.5,1.5-1.5h7.5C384.2,176.6,384.8,177.2,384.8,178.1z"/>
		<path fill="#F2F2F2" stroke="#666666" stroke-linejoin="round" d="M384.8,187.9v0.2c0,0.8-0.7,1.5-1.5,1.5h-7.5
			c-0.8,0-1.5-0.7-1.5-1.5v-0.2c0-0.8,0.7-1.5,1.5-1.5h7.5C384.2,186.4,384.8,187.1,384.8,187.9z"/>
		<path fill="#F2F2F2" stroke="#666666" stroke-linejoin="round" d="M371.6,178.1v5.6c0,0.8-0.7,1.5-1.5,1.5h-7.5
			c-0.8,0-1.5-0.7-1.5-1.5v-5.6c0-0.8,0.7-1.5,1.5-1.5h7.5C370.9,176.6,371.6,177.2,371.6,178.1z"/>
		<path fill="#F2F2F2" stroke="#666666" stroke-linejoin="round" d="M371.6,187.9v0.2c0,0.8-0.7,1.5-1.5,1.5h-7.5
			c-0.8,0-1.5-0.7-1.5-1.5v-0.2c0-0.8,0.7-1.5,1.5-1.5h7.5C370.9,186.4,371.6,187.1,371.6,187.9z"/>
		<path fill="#F2F2F2" stroke="#666666" stroke-linejoin="round" d="M358.3,178.1v5.6c0,0.8-0.7,1.5-1.5,1.5h-7.5
			c-0.8,0-1.5-0.7-1.5-1.5v-5.6c0-0.8,0.7-1.5,1.5-1.5h7.5C357.7,176.6,358.3,177.2,358.3,178.1z"/>
		<path fill="#F2F2F2" stroke="#666666" stroke-linejoin="round" d="M358.3,187.9v0.2c0,0.8-0.7,1.5-1.5,1.5h-7.5
			c-0.8,0-1.5-0.7-1.5-1.5v-0.2c0-0.8,0.7-1.5,1.5-1.5h7.5C357.7,186.4,358.3,187.1,358.3,187.9z"/>
		<path fill="#F2F2F2" stroke="#666666" stroke-linejoin="round" d="M345.1,178.1v5.6c0,0.8-0.7,1.5-1.5,1.5h-7.5
			c-0.8,0-1.5-0.7-1.5-1.5v-5.6c0-0.8,0.7-1.5,1.5-1.5h7.5C344.4,176.6,345.1,177.2,345.1,178.1z"/>
		<path fill="#F2F2F2" stroke="#666666" stroke-linejoin="round" d="M345.1,187.9v0.2c0,0.8-0.7,1.5-1.5,1.5h-7.5
			c-0.8,0-1.5-0.7-1.5-1.5v-0.2c0-0.8,0.7-1.5,1.5-1.5h7.5C344.4,186.4,345.1,187.1,345.1,187.9z"/>
		<path fill="#F2F2F2" stroke="#666666" stroke-linejoin="round" d="M331.9,178.1v5.6c0,0.8-0.7,1.5-1.5,1.5h-7.5
			c-0.8,0-1.5-0.7-1.5-1.5v-5.6c0-0.8,0.7-1.5,1.5-1.5h7.5C331.2,176.6,331.9,177.2,331.9,178.1z"/>
		<path fill="#F2F2F2" stroke="#666666" stroke-linejoin="round" d="M331.9,187.9v0.2c0,0.8-0.7,1.5-1.5,1.5h-7.5
			c-0.8,0-1.5-0.7-1.5-1.5v-0.2c0-0.8,0.7-1.5,1.5-1.5h7.5C331.2,186.4,331.9,187.1,331.9,187.9z"/>
		<path fill="#F2F2F2" stroke="#666666" stroke-linejoin="round" d="M318.6,178.1v5.6c0,0.8-0.7,1.5-1.5,1.5h-7.5
			c-0.8,0-1.5-0.7-1.5-1.5v-5.6c0-0.8,0.7-1.5,1.5-1.5h7.5C317.9,176.6,318.6,177.2,318.6,178.1z"/>
		<path fill="#F2F2F2" stroke="#666666" stroke-linejoin="round" d="M318.6,187.9v0.2c0,0.8-0.7,1.5-1.5,1.5h-7.5
			c-0.8,0-1.5-0.7-1.5-1.5v-0.2c0-0.8,0.7-1.5,1.5-1.5h7.5C317.9,186.4,318.6,187.1,318.6,187.9z"/>
		<path fill="#F2F2F2" stroke="#666666" stroke-linejoin="round" d="M305.4,178.1v5.6c0,0.8-0.7,1.5-1.5,1.5h-7.5
			c-0.8,0-1.5-0.7-1.5-1.5v-5.6c0-0.8,0.7-1.5,1.5-1.5h7.5C304.7,176.6,305.4,177.2,305.4,178.1z"/>
		<path fill="#F2F2F2" stroke="#666666" stroke-linejoin="round" d="M305.4,187.9v0.2c0,0.8-0.7,1.5-1.5,1.5h-7.5
			c-0.8,0-1.5-0.7-1.5-1.5v-0.2c0-0.8,0.7-1.5,1.5-1.5h7.5C304.7,186.4,305.4,187.1,305.4,187.9z"/>
		<path fill="#F2F2F2" stroke="#666666" stroke-linejoin="round" d="M292.1,178.1v5.6c0,0.8-0.7,1.5-1.5,1.5h-7.5
			c-0.8,0-1.5-0.7-1.5-1.5v-5.6c0-0.8,0.7-1.5,1.5-1.5h7.5C291.4,176.6,292.1,177.2,292.1,178.1z"/>
		<path fill="#F2F2F2" stroke="#666666" stroke-linejoin="round" d="M292.1,187.9v0.2c0,0.8-0.7,1.5-1.5,1.5h-7.5
			c-0.8,0-1.5-0.7-1.5-1.5v-0.2c0-0.8,0.7-1.5,1.5-1.5h7.5C291.4,186.4,292.1,187.1,292.1,187.9z"/>
		<path fill="#F2F2F2" stroke="#666666" stroke-linejoin="round" d="M278.9,178.1v5.6c0,0.8-0.7,1.5-1.5,1.5h-7.5
			c-0.8,0-1.5-0.7-1.5-1.5v-5.6c0-0.8,0.7-1.5,1.5-1.5h7.5C278.2,176.6,278.9,177.2,278.9,178.1z"/>
		<path fill="#F2F2F2" stroke="#666666" stroke-linejoin="round" d="M278.9,187.9v0.2c0,0.8-0.7,1.5-1.5,1.5h-7.5
			c-0.8,0-1.5-0.7-1.5-1.5v-0.2c0-0.8,0.7-1.5,1.5-1.5h7.5C278.2,186.4,278.9,187.1,278.9,187.9z"/>
		<path fill="#F2F2F2" stroke="#666666" stroke-linejoin="round" d="M265.6,178.1v5.6c0,0.8-0.7,1.5-1.5,1.5h-7.5
			c-0.8,0-1.5-0.7-1.5-1.5v-5.6c0-0.8,0.7-1.5,1.5-1.5h7.5C265,176.6,265.6,177.2,265.6,178.1z"/>
		<path fill="#F2F2F2" stroke="#666666" stroke-linejoin="round" d="M265.6,187.9v0.2c0,0.8-0.7,1.5-1.5,1.5h-7.5
			c-0.8,0-1.5-0.7-1.5-1.5v-0.2c0-0.8,0.7-1.5,1.5-1.5h7.5C265,186.4,265.6,187.1,265.6,187.9z"/>
		<path fill="#F2F2F2" stroke="#666666" stroke-linejoin="round" d="M252.4,178.1v5.6c0,0.8-0.7,1.5-1.5,1.5h-7.5
			c-0.8,0-1.5-0.7-1.5-1.5v-5.6c0-0.8,0.7-1.5,1.5-1.5h7.5C251.7,176.6,252.4,177.2,252.4,178.1z"/>
		<path fill="#F2F2F2" stroke="#666666" stroke-linejoin="round" d="M252.4,187.9v0.2c0,0.8-0.7,1.5-1.5,1.5h-7.5
			c-0.8,0-1.5-0.7-1.5-1.5v-0.2c0-0.8,0.7-1.5,1.5-1.5h7.5C251.7,186.4,252.4,187.1,252.4,187.9z"/>
		<path fill="#F2F2F2" stroke="#666666" stroke-linejoin="round" d="M239.1,178.1v5.6c0,0.8-0.7,1.5-1.5,1.5h-7.5
			c-0.8,0-1.5-0.7-1.5-1.5v-5.6c0-0.8,0.7-1.5,1.5-1.5h7.5C238.5,176.6,239.1,177.2,239.1,178.1z"/>
		<path fill="#F2F2F2" stroke="#666666" stroke-linejoin="round" d="M239.1,187.9v0.2c0,0.8-0.7,1.5-1.5,1.5h-7.5
			c-0.8,0-1.5-0.7-1.5-1.5v-0.2c0-0.8,0.7-1.5,1.5-1.5h7.5C238.5,186.4,239.1,187.1,239.1,187.9z"/>
		<path fill="#F2F2F2" stroke="#666666" stroke-linejoin="round" d="M225.9,178.1v5.6c0,0.8-0.7,1.5-1.5,1.5h-7.5
			c-0.8,0-1.5-0.7-1.5-1.5v-5.6c0-0.8,0.7-1.5,1.5-1.5h7.5C225.2,176.6,225.9,177.2,225.9,178.1z"/>
		<path fill="#F2F2F2" stroke="#666666" stroke-linejoin="round" d="M225.9,187.9v0.2c0,0.8-0.7,1.5-1.5,1.5h-7.5
			c-0.8,0-1.5-0.7-1.5-1.5v-0.2c0-0.8,0.7-1.5,1.5-1.5h7.5C225.2,186.4,225.9,187.1,225.9,187.9z"/>
		<path fill="#F2F2F2" stroke="#666666" stroke-linejoin="round" d="M212.6,178.1v5.6c0,0.8-0.7,1.5-1.5,1.5h-7.5
			c-0.8,0-1.5-0.7-1.5-1.5v-5.6c0-0.8,0.7-1.5,1.5-1.5h7.5C212,176.6,212.6,177.2,212.6,178.1z"/>
		<path fill="#F2F2F2" stroke="#666666" stroke-linejoin="round" d="M212.6,187.9v0.2c0,0.8-0.7,1.5-1.5,1.5h-7.5
			c-0.8,0-1.5-0.7-1.5-1.5v-0.2c0-0.8,0.7-1.5,1.5-1.5h7.5C212,186.4,212.6,187.1,212.6,187.9z"/>
		<path fill="#F2F2F2" stroke="#666666" stroke-linejoin="round" d="M449.9,178.1v5.6c0,0.8-0.7,1.5-1.5,1.5h-7.5
			c-0.8,0-1.5-0.7-1.5-1.5v-5.6c0-0.8,0.7-1.5,1.5-1.5h7.5C449.2,176.6,449.9,177.2,449.9,178.1z"/>
		<path fill="#F2F2F2" stroke="#666666" stroke-linejoin="round" d="M449.9,187.9v0.2c0,0.8-0.7,1.5-1.5,1.5h-7.5
			c-0.8,0-1.5-0.7-1.5-1.5v-0.2c0-0.8,0.7-1.5,1.5-1.5h7.5C449.2,186.4,449.9,187.1,449.9,187.9z"/>
		<path fill="#F2F2F2" stroke="#666666" stroke-linejoin="round" d="M463.1,178.1v5.6c0,0.8-0.7,1.5-1.5,1.5h-7.5
			c-0.8,0-1.5-0.7-1.5-1.5v-5.6c0-0.8,0.7-1.5,1.5-1.5h7.5C462.5,176.6,463.1,177.2,463.1,178.1z"/>
		<path fill="#F2F2F2" stroke="#666666" stroke-linejoin="round" d="M463.1,187.9v0.2c0,0.8-0.7,1.5-1.5,1.5h-7.5
			c-0.8,0-1.5-0.7-1.5-1.5v-0.2c0-0.8,0.7-1.5,1.5-1.5h7.5C462.5,186.4,463.1,187.1,463.1,187.9z"/>
		<path fill="#F2F2F2" stroke="#666666" stroke-linejoin="round" d="M436.6,178.1v5.6c0,0.8-0.7,1.5-1.5,1.5h-7.5
			c-0.8,0-1.5-0.7-1.5-1.5v-5.6c0-0.8,0.7-1.5,1.5-1.5h7.5C436,176.6,436.6,177.2,436.6,178.1z"/>
		<path fill="#F2F2F2" stroke="#666666" stroke-linejoin="round" d="M436.6,187.9v0.2c0,0.8-0.7,1.5-1.5,1.5h-7.5
			c-0.8,0-1.5-0.7-1.5-1.5v-0.2c0-0.8,0.7-1.5,1.5-1.5h7.5C436,186.4,436.6,187.1,436.6,187.9z"/>
		<path fill="#F2F2F2" stroke="#666666" stroke-linejoin="round" d="M423.4,178.1v5.6c0,0.8-0.7,1.5-1.5,1.5h-7.5
			c-0.8,0-1.5-0.7-1.5-1.5v-5.6c0-0.8,0.7-1.5,1.5-1.5h7.5C422.7,176.6,423.4,177.2,423.4,178.1z"/>
		<path fill="#F2F2F2" stroke="#666666" stroke-linejoin="round" d="M423.4,187.9v0.2c0,0.8-0.7,1.5-1.5,1.5h-7.5
			c-0.8,0-1.5-0.7-1.5-1.5v-0.2c0-0.8,0.7-1.5,1.5-1.5h7.5C422.7,186.4,423.4,187.1,423.4,187.9z"/>
		<path fill="#F2F2F2" stroke="#666666" stroke-linejoin="round" d="M410.2,178.1v5.6c0,0.8-0.7,1.5-1.5,1.5h-7.5
			c-0.8,0-1.5-0.7-1.5-1.5v-5.6c0-0.8,0.7-1.5,1.5-1.5h7.5C409.5,176.6,410.2,177.2,410.2,178.1z"/>
		<path fill="#F2F2F2" stroke="#666666" stroke-linejoin="round" d="M410.2,187.9v0.2c0,0.8-0.7,1.5-1.5,1.5h-7.5
			c-0.8,0-1.5-0.7-1.5-1.5v-0.2c0-0.8,0.7-1.5,1.5-1.5h7.5C409.5,186.4,410.2,187.1,410.2,187.9z"/>
		<path fill="#F2F2F2" stroke="#666666" stroke-linejoin="round" d="M468.3,103h5.6c0.8,0,1.5,0.7,1.5,1.5v7.5
			c0,0.8-0.7,1.5-1.5,1.5h-5.6c-0.8,0-1.5-0.7-1.5-1.5v-7.5C466.8,103.7,467.5,103,468.3,103z"/>
		<path fill="#F2F2F2" stroke="#666666" stroke-linejoin="round" d="M478.2,103h0.2c0.8,0,1.5,0.7,1.5,1.5v7.5
			c0,0.8-0.7,1.5-1.5,1.5h-0.2c-0.8,0-1.5-0.7-1.5-1.5v-7.5C476.7,103.7,477.3,103,478.2,103z"/>
		<path fill="#F2F2F2" stroke="#666666" stroke-linejoin="round" d="M468.3,116.2h5.6c0.8,0,1.5,0.7,1.5,1.5v7.5
			c0,0.8-0.7,1.5-1.5,1.5h-5.6c-0.8,0-1.5-0.7-1.5-1.5v-7.5C466.8,116.9,467.5,116.2,468.3,116.2z"/>
		<path fill="#F2F2F2" stroke="#666666" stroke-linejoin="round" d="M478.2,116.2h0.2c0.8,0,1.5,0.7,1.5,1.5v7.5
			c0,0.8-0.7,1.5-1.5,1.5h-0.2c-0.8,0-1.5-0.7-1.5-1.5v-7.5C476.7,116.9,477.3,116.2,478.2,116.2z"/>
		<path fill="#F2F2F2" stroke="#666666" stroke-linejoin="round" d="M468.3,129.5h5.6c0.8,0,1.5,0.7,1.5,1.5v7.5
			c0,0.8-0.7,1.5-1.5,1.5h-5.6c-0.8,0-1.5-0.7-1.5-1.5V131C466.8,130.2,467.5,129.5,468.3,129.5z"/>
		<path fill="#F2F2F2" stroke="#666666" stroke-linejoin="round" d="M478.2,129.5h0.2c0.8,0,1.5,0.7,1.5,1.5v7.5
			c0,0.8-0.7,1.5-1.5,1.5h-0.2c-0.8,0-1.5-0.7-1.5-1.5V131C476.7,130.2,477.3,129.5,478.2,129.5z"/>
		<path fill="#F2F2F2" stroke="#666666" stroke-linejoin="round" d="M468.3,142.7h5.6c0.8,0,1.5,0.7,1.5,1.5v7.5
			c0,0.8-0.7,1.5-1.5,1.5h-5.6c-0.8,0-1.5-0.7-1.5-1.5v-7.5C466.8,143.4,467.5,142.7,468.3,142.7z"/>
		<path fill="#F2F2F2" stroke="#666666" stroke-linejoin="round" d="M478.2,142.7h0.2c0.8,0,1.5,0.7,1.5,1.5v7.5
			c0,0.8-0.7,1.5-1.5,1.5h-0.2c-0.8,0-1.5-0.7-1.5-1.5v-7.5C476.7,143.4,477.3,142.7,478.2,142.7z"/>
		<path fill="#F2F2F2" stroke="#666666" stroke-linejoin="round" d="M468.3,156h5.6c0.8,0,1.5,0.7,1.5,1.5v7.5
			c0,0.8-0.7,1.5-1.5,1.5h-5.6c-0.8,0-1.5-0.7-1.5-1.5v-7.5C466.8,156.6,467.5,156,468.3,156z"/>
		<path fill="#F2F2F2" stroke="#666666" stroke-linejoin="round" d="M478.2,156h0.2c0.8,0,1.5,0.7,1.5,1.5v7.5
			c0,0.8-0.7,1.5-1.5,1.5h-0.2c-0.8,0-1.5-0.7-1.5-1.5v-7.5C476.7,156.6,477.3,156,478.2,156z"/>
		<path fill="#F2F2F2" stroke="#666666" stroke-linejoin="round" d="M468.3,49.9h5.6c0.8,0,1.5,0.7,1.5,1.5v7.5
			c0,0.8-0.7,1.5-1.5,1.5h-5.6c-0.8,0-1.5-0.7-1.5-1.5v-7.5C466.8,50.6,467.5,49.9,468.3,49.9z"/>
		<path fill="#F2F2F2" stroke="#666666" stroke-linejoin="round" d="M478.2,49.9h0.2c0.8,0,1.5,0.7,1.5,1.5v7.5
			c0,0.8-0.7,1.5-1.5,1.5h-0.2c-0.8,0-1.5-0.7-1.5-1.5v-7.5C476.7,50.6,477.3,49.9,478.2,49.9z"/>
		<path fill="#F2F2F2" stroke="#666666" stroke-linejoin="round" d="M468.3,36.7h5.6c0.8,0,1.5,0.7,1.5,1.5v7.5
			c0,0.8-0.7,1.5-1.5,1.5h-5.6c-0.8,0-1.5-0.7-1.5-1.5v-7.5C466.8,37.3,467.5,36.7,468.3,36.7z"/>
		<path fill="#F2F2F2" stroke="#666666" stroke-linejoin="round" d="M478.2,36.6h0.2c0.8,0,1.5,0.7,1.5,1.5v7.5
			c0,0.8-0.7,1.5-1.5,1.5h-0.2c-0.8,0-1.5-0.7-1.5-1.5v-7.5C476.7,37.3,477.3,36.6,478.2,36.6z"/>
		<path fill="#F2F2F2" stroke="#666666" stroke-linejoin="round" d="M468.3,63.1h5.6c0.8,0,1.5,0.7,1.5,1.5v7.5
			c0,0.8-0.7,1.5-1.5,1.5h-5.6c-0.8,0-1.5-0.7-1.5-1.5v-7.5C466.8,63.8,467.5,63.1,468.3,63.1z"/>
		<path fill="#F2F2F2" stroke="#666666" stroke-linejoin="round" d="M478.2,63.1h0.2c0.8,0,1.5,0.7,1.5,1.5v7.5
			c0,0.8-0.7,1.5-1.5,1.5h-0.2c-0.8,0-1.5-0.7-1.5-1.5v-7.5C476.7,63.8,477.3,63.1,478.2,63.1z"/>
		<path fill="#F2F2F2" stroke="#666666" stroke-linejoin="round" d="M468.3,76.4h5.6c0.8,0,1.5,0.7,1.5,1.5v7.5
			c0,0.8-0.7,1.5-1.5,1.5h-5.6c-0.8,0-1.5-0.7-1.5-1.5v-7.5C466.8,77.1,467.5,76.4,468.3,76.4z"/>
		<path fill="#F2F2F2" stroke="#666666" stroke-linejoin="round" d="M478.2,76.4h0.2c0.8,0,1.5,0.7,1.5,1.5v7.5
			c0,0.8-0.7,1.5-1.5,1.5h-0.2c-0.8,0-1.5-0.7-1.5-1.5v-7.5C476.7,77.1,477.3,76.4,478.2,76.4z"/>
		<path fill="#F2F2F2" stroke="#666666" stroke-linejoin="round" d="M468.3,89.6h5.6c0.8,0,1.5,0.7,1.5,1.5v7.5
			c0,0.8-0.7,1.5-1.5,1.5h-5.6c-0.8,0-1.5-0.7-1.5-1.5v-7.5C466.8,90.3,467.5,89.6,468.3,89.6z"/>
		<path fill="#F2F2F2" stroke="#666666" stroke-linejoin="round" d="M478.2,89.6h0.2c0.8,0,1.5,0.7,1.5,1.5v7.5
			c0,0.8-0.7,1.5-1.5,1.5h-0.2c-0.8,0-1.5-0.7-1.5-1.5v-7.5C476.7,90.3,477.3,89.6,478.2,89.6z"/>
		<path fill="#F2F2F2" stroke="#666666" stroke-linejoin="round" d="M397.3,33.6v17.3c0,0.8-0.7,1.5-1.5,1.5h-28.5
			c-0.8,0-1.5-0.7-1.5-1.5V33.6c0-0.8,0.7-1.5,1.5-1.5h28.5C396.6,32,397.3,32.7,397.3,33.6z"/>
		<path fill="#F2F2F2" stroke="#666666" stroke-linejoin="round" d="M364.5,33.6v17.3c0,0.8-0.7,1.5-1.5,1.5h-28.5
			c-0.8,0-1.5-0.7-1.5-1.5V33.6c0-0.8,0.7-1.5,1.5-1.5H363C363.8,32,364.5,32.7,364.5,33.6z"/>
		<path fill="#F2F2F2" stroke="#666666" stroke-linejoin="round" d="M462.8,33.6v17.3c0,0.8-0.7,1.5-1.5,1.5h-28.5
			c-0.8,0-1.5-0.7-1.5-1.5V33.6c0-0.8,0.7-1.5,1.5-1.5h28.5C462.1,32,462.8,32.7,462.8,33.6z"/>
		<path fill="#F2F2F2" stroke="#666666" stroke-linejoin="round" d="M430,33.6v17.3c0,0.8-0.7,1.5-1.5,1.5h-28.5
			c-0.8,0-1.5-0.7-1.5-1.5V33.6c0-0.8,0.7-1.5,1.5-1.5h28.5C429.3,32,430,32.7,430,33.6z"/>
		<path fill="#F2F2F2" stroke="#666666" stroke-linejoin="round" d="M461.3,117.9H444c-0.8,0-1.5-0.7-1.5-1.5V88
			c0-0.8,0.7-1.5,1.5-1.5h17.3c0.8,0,1.5,0.7,1.5,1.5v28.5C462.8,117.3,462.1,117.9,461.3,117.9z"/>
		<path fill="#F2F2F2" stroke="#666666" stroke-linejoin="round" d="M461.3,150.7H444c-0.8,0-1.5-0.7-1.5-1.5v-28.5
			c0-0.8,0.7-1.5,1.5-1.5h17.3c0.8,0,1.5,0.7,1.5,1.5v28.5C462.8,150,462.1,150.7,461.3,150.7z"/>
		<path fill="#F2F2F2" stroke="#666666" stroke-linejoin="round" d="M461.3,85.2H444c-0.8,0-1.5-0.7-1.5-1.5V55.2
			c0-0.8,0.7-1.5,1.5-1.5h17.3c0.8,0,1.5,0.7,1.5,1.5v28.5C462.8,84.5,462.1,85.2,461.3,85.2z"/>
		<path fill="#F2F2F2" stroke="#666666" stroke-linejoin="round" d="M331.7,33.6v17.3c0,0.8-0.7,1.5-1.5,1.5h-28.5
			c-0.8,0-1.5-0.7-1.5-1.5V33.6c0-0.8,0.7-1.5,1.5-1.5h28.5C331.1,32,331.7,32.7,331.7,33.6z"/>
		<path fill="#F2F2F2" stroke="#666666" stroke-linejoin="round" d="M299,33.6v17.3c0,0.8-0.7,1.5-1.5,1.5H269
			c-0.8,0-1.5-0.7-1.5-1.5V33.6c0-0.8,0.7-1.5,1.5-1.5h28.5C298.3,32,299,32.7,299,33.6z"/>
		<path fill="#F2F2F2" stroke="#666666" stroke-linejoin="round" d="M266.4,33.6v17.3c0,0.8-0.7,1.5-1.5,1.5h-28.5
			c-0.8,0-1.5-0.7-1.5-1.5V33.6c0-0.8,0.7-1.5,1.5-1.5h28.5C265.8,32,266.4,32.7,266.4,33.6z"/>
		<path fill="#F2F2F2" stroke="#666666" stroke-linejoin="round" d="M233.7,33.6v17.3c0,0.8-0.7,1.5-1.5,1.5h-28.5
			c-0.8,0-1.5-0.7-1.5-1.5V33.6c0-0.8,0.7-1.5,1.5-1.5h28.5C233,32,233.7,32.7,233.7,33.6z"/>
		<path fill="#F2F2F2" stroke="#666666" stroke-linejoin="round" d="M266.4,153.6v17.3c0,0.8-0.7,1.5-1.5,1.5h-28.5
			c-0.8,0-1.5-0.7-1.5-1.5v-17.3c0-0.8,0.7-1.5,1.5-1.5h28.5C265.8,152.1,266.4,152.8,266.4,153.6z"/>
		<path fill="#F2F2F2" stroke="#666666" stroke-linejoin="round" d="M233.7,153.6v17.3c0,0.8-0.7,1.5-1.5,1.5h-28.5
			c-0.8,0-1.5-0.7-1.5-1.5v-17.3c0-0.8,0.7-1.5,1.5-1.5h28.5C233,152.1,233.7,152.8,233.7,153.6z"/>
		<path fill="#F2F2F2" stroke="#666666" stroke-linejoin="round" d="M397.3,153.6v17.3c0,0.8-0.7,1.5-1.5,1.5h-28.5
			c-0.8,0-1.5-0.7-1.5-1.5v-17.3c0-0.8,0.7-1.5,1.5-1.5h28.5C396.6,152.1,397.3,152.8,397.3,153.6z"/>
		<path fill="#F2F2F2" stroke="#666666" stroke-linejoin="round" d="M364.5,153.6v17.3c0,0.8-0.7,1.5-1.5,1.5h-28.5
			c-0.8,0-1.5-0.7-1.5-1.5v-17.3c0-0.8,0.7-1.5,1.5-1.5H363C363.8,152.1,364.5,152.8,364.5,153.6z"/>
		<path fill="#F2F2F2" stroke="#666666" stroke-linejoin="round" d="M462.8,153.6v17.3c0,0.8-0.7,1.5-1.5,1.5h-28.5
			c-0.8,0-1.5-0.7-1.5-1.5v-17.3c0-0.8,0.7-1.5,1.5-1.5h28.5C462.1,152.1,462.8,152.8,462.8,153.6z"/>
		<path fill="#F2F2F2" stroke="#666666" stroke-linejoin="round" d="M430,153.6v17.3c0,0.8-0.7,1.5-1.5,1.5h-28.5
			c-0.8,0-1.5-0.7-1.5-1.5v-17.3c0-0.8,0.7-1.5,1.5-1.5h28.5C429.3,152.1,430,152.8,430,153.6z"/>
		<path fill="#F2F2F2" stroke="#666666" stroke-linejoin="round" d="M331.7,153.6v17.3c0,0.8-0.7,1.5-1.5,1.5h-28.5
			c-0.8,0-1.5-0.7-1.5-1.5v-17.3c0-0.8,0.7-1.5,1.5-1.5h28.5C331.1,152.1,331.7,152.8,331.7,153.6z"/>
		<path fill="#F2F2F2" stroke="#666666" stroke-linejoin="round" d="M299,153.6v17.3c0,0.8-0.7,1.5-1.5,1.5H269
			c-0.8,0-1.5-0.7-1.5-1.5v-17.3c0-0.8,0.7-1.5,1.5-1.5h28.5C298.3,152.1,299,152.8,299,153.6z"/>
		<path fill="#F2F2F2" stroke="#666666" stroke-linejoin="round" d="M136.2,25.6V20c0-0.8,0.7-1.5,1.5-1.5h7.5
			c0.8,0,1.5,0.7,1.5,1.5v5.6c0,0.8-0.7,1.5-1.5,1.5h-7.5C136.9,27.1,136.2,26.4,136.2,25.6z"/>
		<path fill="#F2F2F2" stroke="#666666" stroke-linejoin="round" d="M136.2,15.7v-0.2c0-0.8,0.7-1.5,1.5-1.5h7.5
			c0.8,0,1.5,0.7,1.5,1.5v0.2c0,0.8-0.7,1.5-1.5,1.5h-7.5C136.9,17.2,136.2,16.5,136.2,15.7z"/>
		<path fill="#F2F2F2" stroke="#666666" stroke-linejoin="round" d="M149.4,25.6V20c0-0.8,0.7-1.5,1.5-1.5h7.5
			c0.8,0,1.5,0.7,1.5,1.5v5.6c0,0.8-0.7,1.5-1.5,1.5h-7.5C150.1,27.1,149.4,26.4,149.4,25.6z"/>
		<path fill="#F2F2F2" stroke="#666666" stroke-linejoin="round" d="M149.4,15.7v-0.2c0-0.8,0.7-1.5,1.5-1.5h7.5
			c0.8,0,1.5,0.7,1.5,1.5v0.2c0,0.8-0.7,1.5-1.5,1.5h-7.5C150.1,17.2,149.4,16.5,149.4,15.7z"/>
		<path fill="#F2F2F2" stroke="#666666" stroke-linejoin="round" d="M162.7,25.6V20c0-0.8,0.7-1.5,1.5-1.5h7.5
			c0.8,0,1.5,0.7,1.5,1.5v5.6c0,0.8-0.7,1.5-1.5,1.5h-7.5C163.3,27.1,162.7,26.4,162.7,25.6z"/>
		<path fill="#F2F2F2" stroke="#666666" stroke-linejoin="round" d="M162.7,15.7v-0.2c0-0.8,0.7-1.5,1.5-1.5h7.5
			c0.8,0,1.5,0.7,1.5,1.5v0.2c0,0.8-0.7,1.5-1.5,1.5h-7.5C163.3,17.2,162.7,16.5,162.7,15.7z"/>
		<path fill="#F2F2F2" stroke="#666666" stroke-linejoin="round" d="M175.9,25.6V20c0-0.8,0.7-1.5,1.5-1.5h7.5
			c0.8,0,1.5,0.7,1.5,1.5v5.6c0,0.8-0.7,1.5-1.5,1.5h-7.5C176.6,27.1,175.9,26.4,175.9,25.6z"/>
		<path fill="#F2F2F2" stroke="#666666" stroke-linejoin="round" d="M175.9,15.7v-0.2c0-0.8,0.7-1.5,1.5-1.5h7.5
			c0.8,0,1.5,0.7,1.5,1.5v0.2c0,0.8-0.7,1.5-1.5,1.5h-7.5C176.6,17.2,175.9,16.5,175.9,15.7z"/>
		<path fill="#F2F2F2" stroke="#666666" stroke-linejoin="round" d="M189.2,25.6V20c0-0.8,0.7-1.5,1.5-1.5h7.5
			c0.8,0,1.5,0.7,1.5,1.5v5.6c0,0.8-0.7,1.5-1.5,1.5h-7.5C189.8,27.1,189.2,26.4,189.2,25.6z"/>
		<path fill="#F2F2F2" stroke="#666666" stroke-linejoin="round" d="M189.2,15.7v-0.2c0-0.8,0.7-1.5,1.5-1.5h7.5
			c0.8,0,1.5,0.7,1.5,1.5v0.2c0,0.8-0.7,1.5-1.5,1.5h-7.5C189.8,17.2,189.2,16.5,189.2,15.7z"/>
		<path fill="#F2F2F2" stroke="#666666" stroke-linejoin="round" d="M84.4,25.6V20c0-0.8,0.7-1.5,1.5-1.5h7.5c0.8,0,1.5,0.7,1.5,1.5
			v5.6c0,0.8-0.7,1.5-1.5,1.5h-7.5C85,27.1,84.4,26.4,84.4,25.6z"/>
		<path fill="#F2F2F2" stroke="#666666" stroke-linejoin="round" d="M84.4,15.7v-0.2c0-0.8,0.7-1.5,1.5-1.5h7.5
			c0.8,0,1.5,0.7,1.5,1.5v0.2c0,0.8-0.7,1.5-1.5,1.5h-7.5C85,17.2,84.4,16.5,84.4,15.7z"/>
		<path fill="#F2F2F2" stroke="#666666" stroke-linejoin="round" d="M71.1,25.6V20c0-0.8,0.7-1.5,1.5-1.5h7.5c0.8,0,1.5,0.7,1.5,1.5
			v5.6c0,0.8-0.7,1.5-1.5,1.5h-7.5C71.8,27.1,71.1,26.4,71.1,25.6z"/>
		<path fill="#F2F2F2" stroke="#666666" stroke-linejoin="round" d="M71.1,15.7v-0.2c0-0.8,0.7-1.5,1.5-1.5h7.5
			c0.8,0,1.5,0.7,1.5,1.5v0.2c0,0.8-0.7,1.5-1.5,1.5h-7.5C71.8,17.2,71.1,16.5,71.1,15.7z"/>
		<path fill="#F2F2F2" stroke="#666666" stroke-linejoin="round" d="M97.6,25.6V20c0-0.8,0.7-1.5,1.5-1.5h7.5c0.8,0,1.5,0.7,1.5,1.5
			v5.6c0,0.8-0.7,1.5-1.5,1.5h-7.5C98.3,27.1,97.6,26.4,97.6,25.6z"/>
		<path fill="#F2F2F2" stroke="#666666" stroke-linejoin="round" d="M97.6,15.7v-0.2c0-0.8,0.7-1.5,1.5-1.5h7.5
			c0.8,0,1.5,0.7,1.5,1.5v0.2c0,0.8-0.7,1.5-1.5,1.5h-7.5C98.3,17.2,97.6,16.5,97.6,15.7z"/>
		<path fill="#F2F2F2" stroke="#666666" stroke-linejoin="round" d="M110.9,25.6V20c0-0.8,0.7-1.5,1.5-1.5h7.5
			c0.8,0,1.5,0.7,1.5,1.5v5.6c0,0.8-0.7,1.5-1.5,1.5h-7.5C111.5,27.1,110.9,26.4,110.9,25.6z"/>
		<path fill="#F2F2F2" stroke="#666666" stroke-linejoin="round" d="M110.9,15.7v-0.2c0-0.8,0.7-1.5,1.5-1.5h7.5
			c0.8,0,1.5,0.7,1.5,1.5v0.2c0,0.8-0.7,1.5-1.5,1.5h-7.5C111.5,17.2,110.9,16.5,110.9,15.7z"/>
		<path fill="#F2F2F2" stroke="#666666" stroke-linejoin="round" d="M124.1,25.6V20c0-0.8,0.7-1.5,1.5-1.5h7.5
			c0.8,0,1.5,0.7,1.5,1.5v5.6c0,0.8-0.7,1.5-1.5,1.5h-7.5C124.8,27.1,124.1,26.4,124.1,25.6z"/>
		<path fill="#F2F2F2" stroke="#666666" stroke-linejoin="round" d="M124.1,15.7v-0.2c0-0.8,0.7-1.5,1.5-1.5h7.5
			c0.8,0,1.5,0.7,1.5,1.5v0.2c0,0.8-0.7,1.5-1.5,1.5h-7.5C124.8,17.2,124.1,16.5,124.1,15.7z"/>
		<path fill="#F2F2F2" stroke="#666666" stroke-linejoin="round" d="M199.9,178.1v5.6c0,0.8-0.7,1.5-1.5,1.5h-7.5
			c-0.8,0-1.5-0.7-1.5-1.5v-5.6c0-0.8,0.7-1.5,1.5-1.5h7.5C199.2,176.6,199.9,177.2,199.9,178.1z"/>
		<path fill="#F2F2F2" stroke="#666666" stroke-linejoin="round" d="M199.9,187.9v0.2c0,0.8-0.7,1.5-1.5,1.5h-7.5
			c-0.8,0-1.5-0.7-1.5-1.5v-0.2c0-0.8,0.7-1.5,1.5-1.5h7.5C199.2,186.4,199.9,187.1,199.9,187.9z"/>
		<path fill="#F2F2F2" stroke="#666666" stroke-linejoin="round" d="M186.6,178.1v5.6c0,0.8-0.7,1.5-1.5,1.5h-7.5
			c-0.8,0-1.5-0.7-1.5-1.5v-5.6c0-0.8,0.7-1.5,1.5-1.5h7.5C185.9,176.6,186.6,177.2,186.6,178.1z"/>
		<path fill="#F2F2F2" stroke="#666666" stroke-linejoin="round" d="M186.6,187.9v0.2c0,0.8-0.7,1.5-1.5,1.5h-7.5
			c-0.8,0-1.5-0.7-1.5-1.5v-0.2c0-0.8,0.7-1.5,1.5-1.5h7.5C185.9,186.4,186.6,187.1,186.6,187.9z"/>
		<path fill="#F2F2F2" stroke="#666666" stroke-linejoin="round" d="M173.4,178.1v5.6c0,0.8-0.7,1.5-1.5,1.5h-7.5
			c-0.8,0-1.5-0.7-1.5-1.5v-5.6c0-0.8,0.7-1.5,1.5-1.5h7.5C172.7,176.6,173.4,177.2,173.4,178.1z"/>
		<path fill="#F2F2F2" stroke="#666666" stroke-linejoin="round" d="M173.4,187.9v0.2c0,0.8-0.7,1.5-1.5,1.5h-7.5
			c-0.8,0-1.5-0.7-1.5-1.5v-0.2c0-0.8,0.7-1.5,1.5-1.5h7.5C172.7,186.4,173.4,187.1,173.4,187.9z"/>
		<path fill="#F2F2F2" stroke="#666666" stroke-linejoin="round" d="M160.1,178.1v5.6c0,0.8-0.7,1.5-1.5,1.5h-7.5
			c-0.8,0-1.5-0.7-1.5-1.5v-5.6c0-0.8,0.7-1.5,1.5-1.5h7.5C159.4,176.6,160.1,177.2,160.1,178.1z"/>
		<path fill="#F2F2F2" stroke="#666666" stroke-linejoin="round" d="M160.1,187.9v0.2c0,0.8-0.7,1.5-1.5,1.5h-7.5
			c-0.8,0-1.5-0.7-1.5-1.5v-0.2c0-0.8,0.7-1.5,1.5-1.5h7.5C159.4,186.4,160.1,187.1,160.1,187.9z"/>
		<path fill="#F2F2F2" stroke="#666666" stroke-linejoin="round" d="M146.9,178.1v5.6c0,0.8-0.7,1.5-1.5,1.5h-7.5
			c-0.8,0-1.5-0.7-1.5-1.5v-5.6c0-0.8,0.7-1.5,1.5-1.5h7.5C146.2,176.6,146.9,177.2,146.9,178.1z"/>
		<path fill="#F2F2F2" stroke="#666666" stroke-linejoin="round" d="M146.9,187.9v0.2c0,0.8-0.7,1.5-1.5,1.5h-7.5
			c-0.8,0-1.5-0.7-1.5-1.5v-0.2c0-0.8,0.7-1.5,1.5-1.5h7.5C146.2,186.4,146.9,187.1,146.9,187.9z"/>
		<path fill="#F2F2F2" stroke="#666666" stroke-linejoin="round" d="M133.6,178.1v5.6c0,0.8-0.7,1.5-1.5,1.5h-7.5
			c-0.8,0-1.5-0.7-1.5-1.5v-5.6c0-0.8,0.7-1.5,1.5-1.5h7.5C133,176.6,133.6,177.2,133.6,178.1z"/>
		<path fill="#F2F2F2" stroke="#666666" stroke-linejoin="round" d="M133.6,187.9v0.2c0,0.8-0.7,1.5-1.5,1.5h-7.5
			c-0.8,0-1.5-0.7-1.5-1.5v-0.2c0-0.8,0.7-1.5,1.5-1.5h7.5C133,186.4,133.6,187.1,133.6,187.9z"/>
		<path fill="#F2F2F2" stroke="#666666" stroke-linejoin="round" d="M120.4,178.1v5.6c0,0.8-0.7,1.5-1.5,1.5h-7.5
			c-0.8,0-1.5-0.7-1.5-1.5v-5.6c0-0.8,0.7-1.5,1.5-1.5h7.5C119.7,176.6,120.4,177.2,120.4,178.1z"/>
		<path fill="#F2F2F2" stroke="#666666" stroke-linejoin="round" d="M120.4,187.9v0.2c0,0.8-0.7,1.5-1.5,1.5h-7.5
			c-0.8,0-1.5-0.7-1.5-1.5v-0.2c0-0.8,0.7-1.5,1.5-1.5h7.5C119.7,186.4,120.4,187.1,120.4,187.9z"/>
		<path fill="#F2F2F2" stroke="#666666" stroke-linejoin="round" d="M107.1,178.1v5.6c0,0.8-0.7,1.5-1.5,1.5h-7.5
			c-0.8,0-1.5-0.7-1.5-1.5v-5.6c0-0.8,0.7-1.5,1.5-1.5h7.5C106.5,176.6,107.1,177.2,107.1,178.1z"/>
		<path fill="#F2F2F2" stroke="#666666" stroke-linejoin="round" d="M107.1,187.9v0.2c0,0.8-0.7,1.5-1.5,1.5h-7.5
			c-0.8,0-1.5-0.7-1.5-1.5v-0.2c0-0.8,0.7-1.5,1.5-1.5h7.5C106.5,186.4,107.1,187.1,107.1,187.9z"/>
		<path fill="#F2F2F2" stroke="#666666" stroke-linejoin="round" d="M93.9,178.1v5.6c0,0.8-0.7,1.5-1.5,1.5h-7.5
			c-0.8,0-1.5-0.7-1.5-1.5v-5.6c0-0.8,0.7-1.5,1.5-1.5h7.5C93.2,176.6,93.9,177.2,93.9,178.1z"/>
		<path fill="#F2F2F2" stroke="#666666" stroke-linejoin="round" d="M93.9,187.9v0.2c0,0.8-0.7,1.5-1.5,1.5h-7.5
			c-0.8,0-1.5-0.7-1.5-1.5v-0.2c0-0.8,0.7-1.5,1.5-1.5h7.5C93.2,186.4,93.9,187.1,93.9,187.9z"/>
		<path fill="#F2F2F2" stroke="#666666" stroke-linejoin="round" d="M80.6,178.1v5.6c0,0.8-0.7,1.5-1.5,1.5h-7.5
			c-0.8,0-1.5-0.7-1.5-1.5v-5.6c0-0.8,0.7-1.5,1.5-1.5h7.5C80,176.6,80.6,177.2,80.6,178.1z"/>
		<path fill="#F2F2F2" stroke="#666666" stroke-linejoin="round" d="M80.6,187.9v0.2c0,0.8-0.7,1.5-1.5,1.5h-7.5
			c-0.8,0-1.5-0.7-1.5-1.5v-0.2c0-0.8,0.7-1.5,1.5-1.5h7.5C80,186.4,80.6,187.1,80.6,187.9z"/>
		<path fill="#F2F2F2" stroke="#666666" stroke-linejoin="round" d="M200.7,33.6v17.3c0,0.8-0.7,1.5-1.5,1.5h-28.5
			c-0.8,0-1.5-0.7-1.5-1.5V33.6c0-0.8,0.7-1.5,1.5-1.5h28.5C200.1,32,200.7,32.7,200.7,33.6z"/>
		<path fill="#F2F2F2" stroke="#666666" stroke-linejoin="round" d="M168,33.6v17.3c0,0.8-0.7,1.5-1.5,1.5H138
			c-0.8,0-1.5-0.7-1.5-1.5V33.6c0-0.8,0.7-1.5,1.5-1.5h28.5C167.3,32,168,32.7,168,33.6z"/>
		<path fill="#F2F2F2" stroke="#666666" stroke-linejoin="round" d="M135.4,33.6v17.3c0,0.8-0.7,1.5-1.5,1.5h-28.5
			c-0.8,0-1.5-0.7-1.5-1.5V33.6c0-0.8,0.7-1.5,1.5-1.5h28.5C134.8,32,135.4,32.7,135.4,33.6z"/>
		<path fill="#F2F2F2" stroke="#666666" stroke-linejoin="round" d="M102.7,33.6v17.3c0,0.8-0.7,1.5-1.5,1.5H72.7
			c-0.8,0-1.5-0.7-1.5-1.5V33.6c0-0.8,0.7-1.5,1.5-1.5h28.5C102,32,102.7,32.7,102.7,33.6z"/>
		<path fill="#F2F2F2" stroke="#666666" stroke-linejoin="round" d="M135.4,153.6v17.3c0,0.8-0.7,1.5-1.5,1.5h-28.5
			c-0.8,0-1.5-0.7-1.5-1.5v-17.3c0-0.8,0.7-1.5,1.5-1.5h28.5C134.8,152.1,135.4,152.8,135.4,153.6z"/>
		<path fill="#F2F2F2" stroke="#666666" stroke-linejoin="round" d="M102.7,153.6v17.3c0,0.8-0.7,1.5-1.5,1.5H72.7
			c-0.8,0-1.5-0.7-1.5-1.5v-17.3c0-0.8,0.7-1.5,1.5-1.5h28.5C102,152.1,102.7,152.8,102.7,153.6z"/>
		<path fill="#F2F2F2" stroke="#666666" stroke-linejoin="round" d="M200.7,153.6v17.3c0,0.8-0.7,1.5-1.5,1.5h-28.5
			c-0.8,0-1.5-0.7-1.5-1.5v-17.3c0-0.8,0.7-1.5,1.5-1.5h28.5C200.1,152.1,200.7,152.8,200.7,153.6z"/>
		<path fill="#F2F2F2" stroke="#666666" stroke-linejoin="round" d="M168,153.6v17.3c0,0.8-0.7,1.5-1.5,1.5H138
			c-0.8,0-1.5-0.7-1.5-1.5v-17.3c0-0.8,0.7-1.5,1.5-1.5h28.5C167.3,152.1,168,152.8,168,153.6z"/>
	</g>
</g>
</svg>
