<svg xmlns="http://www.w3.org/2000/svg" viewBox="0 0 525.88 203.42"><defs><style>.cls-1{fill:#f2f2f2;stroke:#666;stroke-linejoin:round;}</style></defs><title>Ala-Too 200person (150)</title><g id="Слой_2" data-name="Слой 2"><g id="Ala-Too_150_200_" data-name="Ala-Too 150 (200)"><rect class="cls-1" x="104.17" y="0.5" width="13.46" height="16.42" rx="2.35" ry="2.35"/><rect class="cls-1" x="30.95" y="0.5" width="31.68" height="49.09" rx="2.35" ry="2.35"/><rect class="cls-1" x="30.95" y="51.61" width="31.68" height="49.09" rx="2.35" ry="2.35"/><rect class="cls-1" x="30.95" y="102.72" width="31.68" height="49.09" rx="2.35" ry="2.35"/><rect class="cls-1" x="30.95" y="153.83" width="31.68" height="49.09" rx="2.35" ry="2.35"/><rect class="cls-1" x="119.58" y="0.5" width="5" height="16.42" rx="2.35" ry="2.35"/><rect class="cls-1" x="104.17" y="21.17" width="13.46" height="16.42" rx="2.35" ry="2.35"/><rect class="cls-1" x="119.58" y="21.17" width="5" height="16.42" rx="2.35" ry="2.35"/><rect class="cls-1" x="104.17" y="41.83" width="13.46" height="16.42" rx="2.35" ry="2.35"/><rect class="cls-1" x="119.58" y="41.83" width="5" height="16.42" rx="2.35" ry="2.35"/><rect class="cls-1" x="104.17" y="62.5" width="13.46" height="16.42" rx="2.35" ry="2.35"/><rect class="cls-1" x="119.58" y="62.5" width="5" height="16.42" rx="2.35" ry="2.35"/><rect class="cls-1" x="104.17" y="83.17" width="13.46" height="16.42" rx="2.35" ry="2.35"/><rect class="cls-1" x="119.58" y="83.17" width="5" height="16.42" rx="2.35" ry="2.35"/><rect class="cls-1" x="104.17" y="103.83" width="13.46" height="16.42" rx="2.35" ry="2.35"/><rect class="cls-1" x="119.58" y="103.83" width="5" height="16.42" rx="2.35" ry="2.35"/><rect class="cls-1" x="104.17" y="124.5" width="13.46" height="16.42" rx="2.35" ry="2.35"/><rect class="cls-1" x="119.58" y="124.5" width="5" height="16.42" rx="2.35" ry="2.35"/><rect class="cls-1" x="104.17" y="145.17" width="13.46" height="16.42" rx="2.35" ry="2.35"/><rect class="cls-1" x="119.58" y="145.17" width="5" height="16.42" rx="2.35" ry="2.35"/><rect class="cls-1" x="104.17" y="165.83" width="13.46" height="16.42" rx="2.35" ry="2.35"/><rect class="cls-1" x="119.58" y="165.83" width="5" height="16.42" rx="2.35" ry="2.35"/><rect class="cls-1" x="104.17" y="186.5" width="13.46" height="16.42" rx="2.35" ry="2.35"/><rect class="cls-1" x="119.58" y="186.5" width="5" height="16.42" rx="2.35" ry="2.35"/><rect class="cls-1" x="7.46" y="157.92" width="13.46" height="16.42" rx="2.35" ry="2.35" transform="matrix(-1, 0, 0, -1, 28.38, 332.25)"/><rect class="cls-1" x="0.5" y="157.92" width="5" height="16.42" rx="2.35" ry="2.35" transform="matrix(-1, 0, 0, -1, 6, 332.25)"/><rect class="cls-1" x="7.46" y="137.25" width="13.46" height="16.42" rx="2.35" ry="2.35" transform="matrix(-1, 0, 0, -1, 28.38, 290.92)"/><rect class="cls-1" x="0.5" y="137.25" width="5" height="16.42" rx="2.35" ry="2.35" transform="matrix(-1, 0, 0, -1, 6, 290.92)"/><rect class="cls-1" x="7.46" y="116.58" width="13.46" height="16.42" rx="2.35" ry="2.35" transform="matrix(-1, 0, 0, -1, 28.38, 249.58)"/><rect class="cls-1" x="0.5" y="116.58" width="5" height="16.42" rx="2.35" ry="2.35" transform="matrix(-1, 0, 0, -1, 6, 249.58)"/><rect class="cls-1" x="7.46" y="95.92" width="13.46" height="16.42" rx="2.35" ry="2.35" transform="matrix(-1, 0, 0, -1, 28.38, 208.25)"/><rect class="cls-1" x="0.5" y="95.92" width="5" height="16.42" rx="2.35" ry="2.35" transform="matrix(-1, 0, 0, -1, 6, 208.25)"/><rect class="cls-1" x="7.46" y="75.25" width="13.46" height="16.42" rx="2.35" ry="2.35" transform="matrix(-1, 0, 0, -1, 28.38, 166.92)"/><rect class="cls-1" x="0.5" y="75.25" width="5" height="16.42" rx="2.35" ry="2.35" transform="matrix(-1, 0, 0, -1, 6, 166.92)"/><rect class="cls-1" x="7.46" y="54.58" width="13.46" height="16.42" rx="2.35" ry="2.35" transform="matrix(-1, 0, 0, -1, 28.38, 125.58)"/><rect class="cls-1" x="0.5" y="54.58" width="5" height="16.42" rx="2.35" ry="2.35" transform="translate(6 125.58) rotate(180)"/><rect class="cls-1" x="7.46" y="33.92" width="13.46" height="16.42" rx="2.35" ry="2.35" transform="matrix(-1, 0, 0, -1, 28.38, 84.25)"/><rect class="cls-1" x="0.5" y="33.92" width="5" height="16.42" rx="2.35" ry="2.35" transform="translate(6 84.25) rotate(180)"/><rect class="cls-1" x="133.96" y="0.5" width="13.46" height="16.42" rx="2.35" ry="2.35"/><rect class="cls-1" x="149.38" y="0.5" width="5" height="16.42" rx="2.35" ry="2.35"/><rect class="cls-1" x="133.96" y="21.17" width="13.46" height="16.42" rx="2.35" ry="2.35"/><rect class="cls-1" x="149.38" y="21.17" width="5" height="16.42" rx="2.35" ry="2.35"/><rect class="cls-1" x="133.96" y="41.83" width="13.46" height="16.42" rx="2.35" ry="2.35"/><rect class="cls-1" x="149.38" y="41.83" width="5" height="16.42" rx="2.35" ry="2.35"/><rect class="cls-1" x="133.96" y="62.5" width="13.46" height="16.42" rx="2.35" ry="2.35"/><rect class="cls-1" x="149.38" y="62.5" width="5" height="16.42" rx="2.35" ry="2.35"/><rect class="cls-1" x="133.96" y="83.17" width="13.46" height="16.42" rx="2.35" ry="2.35"/><rect class="cls-1" x="149.38" y="83.17" width="5" height="16.42" rx="2.35" ry="2.35"/><rect class="cls-1" x="133.96" y="103.83" width="13.46" height="16.42" rx="2.35" ry="2.35"/><rect class="cls-1" x="149.38" y="103.83" width="5" height="16.42" rx="2.35" ry="2.35"/><rect class="cls-1" x="133.96" y="124.5" width="13.46" height="16.42" rx="2.35" ry="2.35"/><rect class="cls-1" x="149.38" y="124.5" width="5" height="16.42" rx="2.35" ry="2.35"/><rect class="cls-1" x="133.96" y="145.17" width="13.46" height="16.42" rx="2.35" ry="2.35"/><rect class="cls-1" x="149.38" y="145.17" width="5" height="16.42" rx="2.35" ry="2.35"/><rect class="cls-1" x="133.96" y="165.83" width="13.46" height="16.42" rx="2.35" ry="2.35"/><rect class="cls-1" x="149.38" y="165.83" width="5" height="16.42" rx="2.35" ry="2.35"/><rect class="cls-1" x="133.96" y="186.5" width="13.46" height="16.42" rx="2.35" ry="2.35"/><rect class="cls-1" x="149.38" y="186.5" width="5" height="16.42" rx="2.35" ry="2.35"/><rect class="cls-1" x="162.46" y="0.5" width="13.46" height="16.42" rx="2.35" ry="2.35"/><rect class="cls-1" x="177.88" y="0.5" width="5" height="16.42" rx="2.35" ry="2.35"/><rect class="cls-1" x="162.46" y="21.17" width="13.46" height="16.42" rx="2.35" ry="2.35"/><rect class="cls-1" x="177.88" y="21.17" width="5" height="16.42" rx="2.35" ry="2.35"/><rect class="cls-1" x="162.46" y="41.83" width="13.46" height="16.42" rx="2.35" ry="2.35"/><rect class="cls-1" x="177.88" y="41.83" width="5" height="16.42" rx="2.35" ry="2.35"/><rect class="cls-1" x="162.46" y="62.5" width="13.46" height="16.42" rx="2.35" ry="2.35"/><rect class="cls-1" x="177.88" y="62.5" width="5" height="16.42" rx="2.35" ry="2.35"/><rect class="cls-1" x="162.46" y="83.17" width="13.46" height="16.42" rx="2.35" ry="2.35"/><rect class="cls-1" x="177.88" y="83.17" width="5" height="16.42" rx="2.35" ry="2.35"/><rect class="cls-1" x="162.46" y="103.83" width="13.46" height="16.42" rx="2.35" ry="2.35"/><rect class="cls-1" x="177.88" y="103.83" width="5" height="16.42" rx="2.35" ry="2.35"/><rect class="cls-1" x="162.46" y="124.5" width="13.46" height="16.42" rx="2.35" ry="2.35"/><rect class="cls-1" x="177.88" y="124.5" width="5" height="16.42" rx="2.35" ry="2.35"/><rect class="cls-1" x="162.46" y="145.17" width="13.46" height="16.42" rx="2.35" ry="2.35"/><rect class="cls-1" x="177.88" y="145.17" width="5" height="16.42" rx="2.35" ry="2.35"/><rect class="cls-1" x="162.46" y="165.83" width="13.46" height="16.42" rx="2.35" ry="2.35"/><rect class="cls-1" x="177.88" y="165.83" width="5" height="16.42" rx="2.35" ry="2.35"/><rect class="cls-1" x="162.46" y="186.5" width="13.46" height="16.42" rx="2.35" ry="2.35"/><rect class="cls-1" x="177.88" y="186.5" width="5" height="16.42" rx="2.35" ry="2.35"/><rect class="cls-1" x="190.96" y="0.5" width="13.46" height="16.42" rx="2.35" ry="2.35"/><rect class="cls-1" x="206.38" y="0.5" width="5" height="16.42" rx="2.35" ry="2.35"/><rect class="cls-1" x="190.96" y="21.17" width="13.46" height="16.42" rx="2.35" ry="2.35"/><rect class="cls-1" x="206.38" y="21.17" width="5" height="16.42" rx="2.35" ry="2.35"/><rect class="cls-1" x="190.96" y="41.83" width="13.46" height="16.42" rx="2.35" ry="2.35"/><rect class="cls-1" x="206.38" y="41.83" width="5" height="16.42" rx="2.35" ry="2.35"/><rect class="cls-1" x="190.96" y="62.5" width="13.46" height="16.42" rx="2.35" ry="2.35"/><rect class="cls-1" x="206.38" y="62.5" width="5" height="16.42" rx="2.35" ry="2.35"/><rect class="cls-1" x="190.96" y="83.17" width="13.46" height="16.42" rx="2.35" ry="2.35"/><rect class="cls-1" x="206.38" y="83.17" width="5" height="16.42" rx="2.35" ry="2.35"/><rect class="cls-1" x="190.96" y="103.83" width="13.46" height="16.42" rx="2.35" ry="2.35"/><rect class="cls-1" x="206.38" y="103.83" width="5" height="16.42" rx="2.35" ry="2.35"/><rect class="cls-1" x="190.96" y="124.5" width="13.46" height="16.42" rx="2.35" ry="2.35"/><rect class="cls-1" x="206.38" y="124.5" width="5" height="16.42" rx="2.35" ry="2.35"/><rect class="cls-1" x="190.96" y="145.17" width="13.46" height="16.42" rx="2.35" ry="2.35"/><rect class="cls-1" x="206.38" y="145.17" width="5" height="16.42" rx="2.35" ry="2.35"/><rect class="cls-1" x="190.96" y="165.83" width="13.46" height="16.42" rx="2.35" ry="2.35"/><rect class="cls-1" x="206.38" y="165.83" width="5" height="16.42" rx="2.35" ry="2.35"/><rect class="cls-1" x="190.96" y="186.5" width="13.46" height="16.42" rx="2.35" ry="2.35"/><rect class="cls-1" x="206.38" y="186.5" width="5" height="16.42" rx="2.35" ry="2.35"/><rect class="cls-1" x="219.46" y="0.5" width="13.46" height="16.42" rx="2.35" ry="2.35"/><rect class="cls-1" x="234.88" y="0.5" width="5" height="16.42" rx="2.35" ry="2.35"/><rect class="cls-1" x="219.46" y="21.17" width="13.46" height="16.42" rx="2.35" ry="2.35"/><rect class="cls-1" x="234.88" y="21.17" width="5" height="16.42" rx="2.35" ry="2.35"/><rect class="cls-1" x="219.46" y="41.83" width="13.46" height="16.42" rx="2.35" ry="2.35"/><rect class="cls-1" x="234.88" y="41.83" width="5" height="16.42" rx="2.35" ry="2.35"/><rect class="cls-1" x="219.46" y="62.5" width="13.46" height="16.42" rx="2.35" ry="2.35"/><rect class="cls-1" x="234.88" y="62.5" width="5" height="16.42" rx="2.35" ry="2.35"/><rect class="cls-1" x="219.46" y="83.17" width="13.46" height="16.42" rx="2.35" ry="2.35"/><rect class="cls-1" x="234.88" y="83.17" width="5" height="16.42" rx="2.35" ry="2.35"/><rect class="cls-1" x="219.46" y="103.83" width="13.46" height="16.42" rx="2.35" ry="2.35"/><rect class="cls-1" x="234.88" y="103.83" width="5" height="16.42" rx="2.35" ry="2.35"/><rect class="cls-1" x="219.46" y="124.5" width="13.46" height="16.42" rx="2.35" ry="2.35"/><rect class="cls-1" x="234.88" y="124.5" width="5" height="16.42" rx="2.35" ry="2.35"/><rect class="cls-1" x="219.46" y="145.17" width="13.46" height="16.42" rx="2.35" ry="2.35"/><rect class="cls-1" x="234.88" y="145.17" width="5" height="16.42" rx="2.35" ry="2.35"/><rect class="cls-1" x="219.46" y="165.83" width="13.46" height="16.42" rx="2.35" ry="2.35"/><rect class="cls-1" x="234.88" y="165.83" width="5" height="16.42" rx="2.35" ry="2.35"/><rect class="cls-1" x="219.46" y="186.5" width="13.46" height="16.42" rx="2.35" ry="2.35"/><rect class="cls-1" x="234.88" y="186.5" width="5" height="16.42" rx="2.35" ry="2.35"/><rect class="cls-1" x="247.96" y="0.5" width="13.46" height="16.42" rx="2.35" ry="2.35"/><rect class="cls-1" x="263.38" y="0.5" width="5" height="16.42" rx="2.35" ry="2.35"/><rect class="cls-1" x="247.96" y="21.17" width="13.46" height="16.42" rx="2.35" ry="2.35"/><rect class="cls-1" x="263.38" y="21.17" width="5" height="16.42" rx="2.35" ry="2.35"/><rect class="cls-1" x="247.96" y="41.83" width="13.46" height="16.42" rx="2.35" ry="2.35"/><rect class="cls-1" x="263.38" y="41.83" width="5" height="16.42" rx="2.35" ry="2.35"/><rect class="cls-1" x="247.96" y="62.5" width="13.46" height="16.42" rx="2.35" ry="2.35"/><rect class="cls-1" x="263.38" y="62.5" width="5" height="16.42" rx="2.35" ry="2.35"/><rect class="cls-1" x="247.96" y="83.17" width="13.46" height="16.42" rx="2.35" ry="2.35"/><rect class="cls-1" x="263.38" y="83.17" width="5" height="16.42" rx="2.35" ry="2.35"/><rect class="cls-1" x="247.96" y="103.83" width="13.46" height="16.42" rx="2.35" ry="2.35"/><rect class="cls-1" x="263.38" y="103.83" width="5" height="16.42" rx="2.35" ry="2.35"/><rect class="cls-1" x="247.96" y="124.5" width="13.46" height="16.42" rx="2.35" ry="2.35"/><rect class="cls-1" x="263.38" y="124.5" width="5" height="16.42" rx="2.35" ry="2.35"/><rect class="cls-1" x="247.96" y="145.17" width="13.46" height="16.42" rx="2.35" ry="2.35"/><rect class="cls-1" x="263.38" y="145.17" width="5" height="16.42" rx="2.35" ry="2.35"/><rect class="cls-1" x="247.96" y="165.83" width="13.46" height="16.42" rx="2.35" ry="2.35"/><rect class="cls-1" x="263.38" y="165.83" width="5" height="16.42" rx="2.35" ry="2.35"/><rect class="cls-1" x="247.96" y="186.5" width="13.46" height="16.42" rx="2.35" ry="2.35"/><rect class="cls-1" x="263.38" y="186.5" width="5" height="16.42" rx="2.35" ry="2.35"/><rect class="cls-1" x="276.46" y="0.5" width="13.46" height="16.42" rx="2.35" ry="2.35"/><rect class="cls-1" x="291.88" y="0.5" width="5" height="16.42" rx="2.35" ry="2.35"/><rect class="cls-1" x="276.46" y="21.17" width="13.46" height="16.42" rx="2.35" ry="2.35"/><rect class="cls-1" x="291.88" y="21.17" width="5" height="16.42" rx="2.35" ry="2.35"/><rect class="cls-1" x="276.46" y="41.83" width="13.46" height="16.42" rx="2.35" ry="2.35"/><rect class="cls-1" x="291.88" y="41.83" width="5" height="16.42" rx="2.35" ry="2.35"/><rect class="cls-1" x="276.46" y="62.5" width="13.46" height="16.42" rx="2.35" ry="2.35"/><rect class="cls-1" x="291.88" y="62.5" width="5" height="16.42" rx="2.35" ry="2.35"/><rect class="cls-1" x="276.46" y="83.17" width="13.46" height="16.42" rx="2.35" ry="2.35"/><rect class="cls-1" x="291.88" y="83.17" width="5" height="16.42" rx="2.35" ry="2.35"/><rect class="cls-1" x="276.46" y="103.83" width="13.46" height="16.42" rx="2.35" ry="2.35"/><rect class="cls-1" x="291.88" y="103.83" width="5" height="16.42" rx="2.35" ry="2.35"/><rect class="cls-1" x="276.46" y="124.5" width="13.46" height="16.42" rx="2.35" ry="2.35"/><rect class="cls-1" x="291.88" y="124.5" width="5" height="16.42" rx="2.35" ry="2.35"/><rect class="cls-1" x="276.46" y="145.17" width="13.46" height="16.42" rx="2.35" ry="2.35"/><rect class="cls-1" x="291.88" y="145.17" width="5" height="16.42" rx="2.35" ry="2.35"/><rect class="cls-1" x="276.46" y="165.83" width="13.46" height="16.42" rx="2.35" ry="2.35"/><rect class="cls-1" x="291.88" y="165.83" width="5" height="16.42" rx="2.35" ry="2.35"/><rect class="cls-1" x="276.46" y="186.5" width="13.46" height="16.42" rx="2.35" ry="2.35"/><rect class="cls-1" x="291.88" y="186.5" width="5" height="16.42" rx="2.35" ry="2.35"/><rect class="cls-1" x="304.96" y="0.5" width="13.46" height="16.42" rx="2.35" ry="2.35"/><rect class="cls-1" x="320.38" y="0.5" width="5" height="16.42" rx="2.35" ry="2.35"/><rect class="cls-1" x="304.96" y="21.17" width="13.46" height="16.42" rx="2.35" ry="2.35"/><rect class="cls-1" x="320.38" y="21.17" width="5" height="16.42" rx="2.35" ry="2.35"/><rect class="cls-1" x="304.96" y="41.83" width="13.46" height="16.42" rx="2.35" ry="2.35"/><rect class="cls-1" x="320.38" y="41.83" width="5" height="16.42" rx="2.35" ry="2.35"/><rect class="cls-1" x="304.96" y="62.5" width="13.46" height="16.42" rx="2.35" ry="2.35"/><rect class="cls-1" x="320.38" y="62.5" width="5" height="16.42" rx="2.35" ry="2.35"/><rect class="cls-1" x="304.96" y="83.17" width="13.46" height="16.42" rx="2.35" ry="2.35"/><rect class="cls-1" x="320.38" y="83.17" width="5" height="16.42" rx="2.35" ry="2.35"/><rect class="cls-1" x="304.96" y="103.83" width="13.46" height="16.42" rx="2.35" ry="2.35"/><rect class="cls-1" x="320.38" y="103.83" width="5" height="16.42" rx="2.35" ry="2.35"/><rect class="cls-1" x="304.96" y="124.5" width="13.46" height="16.42" rx="2.35" ry="2.35"/><rect class="cls-1" x="320.38" y="124.5" width="5" height="16.42" rx="2.35" ry="2.35"/><rect class="cls-1" x="304.96" y="145.17" width="13.46" height="16.42" rx="2.35" ry="2.35"/><rect class="cls-1" x="320.38" y="145.17" width="5" height="16.42" rx="2.35" ry="2.35"/><rect class="cls-1" x="304.96" y="165.83" width="13.46" height="16.42" rx="2.35" ry="2.35"/><rect class="cls-1" x="320.38" y="165.83" width="5" height="16.42" rx="2.35" ry="2.35"/><rect class="cls-1" x="304.96" y="186.5" width="13.46" height="16.42" rx="2.35" ry="2.35"/><rect class="cls-1" x="320.38" y="186.5" width="5" height="16.42" rx="2.35" ry="2.35"/><rect class="cls-1" x="333.46" y="0.5" width="13.46" height="16.42" rx="2.35" ry="2.35"/><rect class="cls-1" x="348.88" y="0.5" width="5" height="16.42" rx="2.35" ry="2.35"/><rect class="cls-1" x="333.46" y="21.17" width="13.46" height="16.42" rx="2.35" ry="2.35"/><rect class="cls-1" x="348.88" y="21.17" width="5" height="16.42" rx="2.35" ry="2.35"/><rect class="cls-1" x="333.46" y="41.83" width="13.46" height="16.42" rx="2.35" ry="2.35"/><rect class="cls-1" x="348.88" y="41.83" width="5" height="16.42" rx="2.35" ry="2.35"/><rect class="cls-1" x="333.46" y="62.5" width="13.46" height="16.42" rx="2.35" ry="2.35"/><rect class="cls-1" x="348.88" y="62.5" width="5" height="16.42" rx="2.35" ry="2.35"/><rect class="cls-1" x="333.46" y="83.17" width="13.46" height="16.42" rx="2.35" ry="2.35"/><rect class="cls-1" x="348.88" y="83.17" width="5" height="16.42" rx="2.35" ry="2.35"/><rect class="cls-1" x="333.46" y="103.83" width="13.46" height="16.42" rx="2.35" ry="2.35"/><rect class="cls-1" x="348.88" y="103.83" width="5" height="16.42" rx="2.35" ry="2.35"/><rect class="cls-1" x="333.46" y="124.5" width="13.46" height="16.42" rx="2.35" ry="2.35"/><rect class="cls-1" x="348.88" y="124.5" width="5" height="16.42" rx="2.35" ry="2.35"/><rect class="cls-1" x="333.46" y="145.17" width="13.46" height="16.42" rx="2.35" ry="2.35"/><rect class="cls-1" x="348.88" y="145.17" width="5" height="16.42" rx="2.35" ry="2.35"/><rect class="cls-1" x="333.46" y="165.83" width="13.46" height="16.42" rx="2.35" ry="2.35"/><rect class="cls-1" x="348.88" y="165.83" width="5" height="16.42" rx="2.35" ry="2.35"/><rect class="cls-1" x="333.46" y="186.5" width="13.46" height="16.42" rx="2.35" ry="2.35"/><rect class="cls-1" x="348.88" y="186.5" width="5" height="16.42" rx="2.35" ry="2.35"/><rect class="cls-1" x="361.96" y="0.5" width="13.46" height="16.42" rx="2.35" ry="2.35"/><rect class="cls-1" x="377.38" y="0.5" width="5" height="16.42" rx="2.35" ry="2.35"/><rect class="cls-1" x="361.96" y="21.17" width="13.46" height="16.42" rx="2.35" ry="2.35"/><rect class="cls-1" x="377.38" y="21.17" width="5" height="16.42" rx="2.35" ry="2.35"/><rect class="cls-1" x="361.96" y="41.83" width="13.46" height="16.42" rx="2.35" ry="2.35"/><rect class="cls-1" x="377.38" y="41.83" width="5" height="16.42" rx="2.35" ry="2.35"/><rect class="cls-1" x="361.96" y="62.5" width="13.46" height="16.42" rx="2.35" ry="2.35"/><rect class="cls-1" x="377.38" y="62.5" width="5" height="16.42" rx="2.35" ry="2.35"/><rect class="cls-1" x="361.96" y="83.17" width="13.46" height="16.42" rx="2.35" ry="2.35"/><rect class="cls-1" x="377.38" y="83.17" width="5" height="16.42" rx="2.35" ry="2.35"/><rect class="cls-1" x="361.96" y="103.83" width="13.46" height="16.42" rx="2.35" ry="2.35"/><rect class="cls-1" x="377.38" y="103.83" width="5" height="16.42" rx="2.35" ry="2.35"/><rect class="cls-1" x="361.96" y="124.5" width="13.46" height="16.42" rx="2.35" ry="2.35"/><rect class="cls-1" x="377.38" y="124.5" width="5" height="16.42" rx="2.35" ry="2.35"/><rect class="cls-1" x="361.96" y="145.17" width="13.46" height="16.42" rx="2.35" ry="2.35"/><rect class="cls-1" x="377.38" y="145.17" width="5" height="16.42" rx="2.35" ry="2.35"/><rect class="cls-1" x="361.96" y="165.83" width="13.46" height="16.42" rx="2.35" ry="2.35"/><rect class="cls-1" x="377.38" y="165.83" width="5" height="16.42" rx="2.35" ry="2.35"/><rect class="cls-1" x="361.96" y="186.5" width="13.46" height="16.42" rx="2.35" ry="2.35"/><rect class="cls-1" x="377.38" y="186.5" width="5" height="16.42" rx="2.35" ry="2.35"/><rect class="cls-1" x="390.96" y="0.5" width="13.46" height="16.42" rx="2.35" ry="2.35"/><rect class="cls-1" x="406.38" y="0.5" width="5" height="16.42" rx="2.35" ry="2.35"/><rect class="cls-1" x="390.96" y="21.17" width="13.46" height="16.42" rx="2.35" ry="2.35"/><rect class="cls-1" x="406.38" y="21.17" width="5" height="16.42" rx="2.35" ry="2.35"/><rect class="cls-1" x="390.96" y="41.83" width="13.46" height="16.42" rx="2.35" ry="2.35"/><rect class="cls-1" x="406.38" y="41.83" width="5" height="16.42" rx="2.35" ry="2.35"/><rect class="cls-1" x="390.96" y="62.5" width="13.46" height="16.42" rx="2.35" ry="2.35"/><rect class="cls-1" x="406.38" y="62.5" width="5" height="16.42" rx="2.35" ry="2.35"/><rect class="cls-1" x="390.96" y="83.17" width="13.46" height="16.42" rx="2.35" ry="2.35"/><rect class="cls-1" x="406.38" y="83.17" width="5" height="16.42" rx="2.35" ry="2.35"/><rect class="cls-1" x="390.96" y="103.83" width="13.46" height="16.42" rx="2.35" ry="2.35"/><rect class="cls-1" x="406.38" y="103.83" width="5" height="16.42" rx="2.35" ry="2.35"/><rect class="cls-1" x="390.96" y="124.5" width="13.46" height="16.42" rx="2.35" ry="2.35"/><rect class="cls-1" x="406.38" y="124.5" width="5" height="16.42" rx="2.35" ry="2.35"/><rect class="cls-1" x="390.96" y="145.17" width="13.46" height="16.42" rx="2.35" ry="2.35"/><rect class="cls-1" x="406.38" y="145.17" width="5" height="16.42" rx="2.35" ry="2.35"/><rect class="cls-1" x="390.96" y="165.83" width="13.46" height="16.42" rx="2.35" ry="2.35"/><rect class="cls-1" x="406.38" y="165.83" width="5" height="16.42" rx="2.35" ry="2.35"/><rect class="cls-1" x="390.96" y="186.5" width="13.46" height="16.42" rx="2.35" ry="2.35"/><rect class="cls-1" x="406.38" y="186.5" width="5" height="16.42" rx="2.35" ry="2.35"/><rect class="cls-1" x="419.46" y="0.5" width="13.46" height="16.42" rx="2.35" ry="2.35"/><rect class="cls-1" x="434.88" y="0.5" width="5" height="16.42" rx="2.35" ry="2.35"/><rect class="cls-1" x="419.46" y="21.17" width="13.46" height="16.42" rx="2.35" ry="2.35"/><rect class="cls-1" x="434.88" y="21.17" width="5" height="16.42" rx="2.35" ry="2.35"/><rect class="cls-1" x="419.46" y="41.83" width="13.46" height="16.42" rx="2.35" ry="2.35"/><rect class="cls-1" x="434.88" y="41.83" width="5" height="16.42" rx="2.35" ry="2.35"/><rect class="cls-1" x="419.46" y="62.5" width="13.46" height="16.42" rx="2.35" ry="2.35"/><rect class="cls-1" x="434.88" y="62.5" width="5" height="16.42" rx="2.35" ry="2.35"/><rect class="cls-1" x="419.46" y="83.17" width="13.46" height="16.42" rx="2.35" ry="2.35"/><rect class="cls-1" x="434.88" y="83.17" width="5" height="16.42" rx="2.35" ry="2.35"/><rect class="cls-1" x="419.46" y="103.83" width="13.46" height="16.42" rx="2.35" ry="2.35"/><rect class="cls-1" x="434.88" y="103.83" width="5" height="16.42" rx="2.35" ry="2.35"/><rect class="cls-1" x="419.46" y="124.5" width="13.46" height="16.42" rx="2.35" ry="2.35"/><rect class="cls-1" x="434.88" y="124.5" width="5" height="16.42" rx="2.35" ry="2.35"/><rect class="cls-1" x="419.46" y="145.17" width="13.46" height="16.42" rx="2.35" ry="2.35"/><rect class="cls-1" x="434.88" y="145.17" width="5" height="16.42" rx="2.35" ry="2.35"/><rect class="cls-1" x="419.46" y="165.83" width="13.46" height="16.42" rx="2.35" ry="2.35"/><rect class="cls-1" x="434.88" y="165.83" width="5" height="16.42" rx="2.35" ry="2.35"/><rect class="cls-1" x="419.46" y="186.5" width="13.46" height="16.42" rx="2.35" ry="2.35"/><rect class="cls-1" x="434.88" y="186.5" width="5" height="16.42" rx="2.35" ry="2.35"/><rect class="cls-1" x="447.96" y="0.5" width="13.46" height="16.42" rx="2.35" ry="2.35"/><rect class="cls-1" x="463.38" y="0.5" width="5" height="16.42" rx="2.35" ry="2.35"/><rect class="cls-1" x="447.96" y="21.17" width="13.46" height="16.42" rx="2.35" ry="2.35"/><rect class="cls-1" x="463.38" y="21.17" width="5" height="16.42" rx="2.35" ry="2.35"/><rect class="cls-1" x="447.96" y="41.83" width="13.46" height="16.42" rx="2.35" ry="2.35"/><rect class="cls-1" x="463.38" y="41.83" width="5" height="16.42" rx="2.35" ry="2.35"/><rect class="cls-1" x="447.96" y="62.5" width="13.46" height="16.42" rx="2.35" ry="2.35"/><rect class="cls-1" x="463.38" y="62.5" width="5" height="16.42" rx="2.35" ry="2.35"/><rect class="cls-1" x="447.96" y="83.17" width="13.46" height="16.42" rx="2.35" ry="2.35"/><rect class="cls-1" x="463.38" y="83.17" width="5" height="16.42" rx="2.35" ry="2.35"/><rect class="cls-1" x="447.96" y="103.83" width="13.46" height="16.42" rx="2.35" ry="2.35"/><rect class="cls-1" x="463.38" y="103.83" width="5" height="16.42" rx="2.35" ry="2.35"/><rect class="cls-1" x="447.96" y="124.5" width="13.46" height="16.42" rx="2.35" ry="2.35"/><rect class="cls-1" x="463.38" y="124.5" width="5" height="16.42" rx="2.35" ry="2.35"/><rect class="cls-1" x="447.96" y="145.17" width="13.46" height="16.42" rx="2.35" ry="2.35"/><rect class="cls-1" x="463.38" y="145.17" width="5" height="16.42" rx="2.35" ry="2.35"/><rect class="cls-1" x="447.96" y="165.83" width="13.46" height="16.42" rx="2.35" ry="2.35"/><rect class="cls-1" x="463.38" y="165.83" width="5" height="16.42" rx="2.35" ry="2.35"/><rect class="cls-1" x="447.96" y="186.5" width="13.46" height="16.42" rx="2.35" ry="2.35"/><rect class="cls-1" x="463.38" y="186.5" width="5" height="16.42" rx="2.35" ry="2.35"/><rect class="cls-1" x="476.46" y="0.5" width="13.46" height="16.42" rx="2.35" ry="2.35"/><rect class="cls-1" x="491.88" y="0.5" width="5" height="16.42" rx="2.35" ry="2.35"/><rect class="cls-1" x="476.46" y="21.17" width="13.46" height="16.42" rx="2.35" ry="2.35"/><rect class="cls-1" x="491.88" y="21.17" width="5" height="16.42" rx="2.35" ry="2.35"/><rect class="cls-1" x="476.46" y="41.83" width="13.46" height="16.42" rx="2.35" ry="2.35"/><rect class="cls-1" x="491.88" y="41.83" width="5" height="16.42" rx="2.35" ry="2.35"/><rect class="cls-1" x="476.46" y="62.5" width="13.46" height="16.42" rx="2.35" ry="2.35"/><rect class="cls-1" x="491.88" y="62.5" width="5" height="16.42" rx="2.35" ry="2.35"/><rect class="cls-1" x="476.46" y="83.17" width="13.46" height="16.42" rx="2.35" ry="2.35"/><rect class="cls-1" x="491.88" y="83.17" width="5" height="16.42" rx="2.35" ry="2.35"/><rect class="cls-1" x="476.46" y="103.83" width="13.46" height="16.42" rx="2.35" ry="2.35"/><rect class="cls-1" x="491.88" y="103.83" width="5" height="16.42" rx="2.35" ry="2.35"/><rect class="cls-1" x="476.46" y="124.5" width="13.46" height="16.42" rx="2.35" ry="2.35"/><rect class="cls-1" x="491.88" y="124.5" width="5" height="16.42" rx="2.35" ry="2.35"/><rect class="cls-1" x="476.46" y="145.17" width="13.46" height="16.42" rx="2.35" ry="2.35"/><rect class="cls-1" x="491.88" y="145.17" width="5" height="16.42" rx="2.35" ry="2.35"/><rect class="cls-1" x="476.46" y="165.83" width="13.46" height="16.42" rx="2.35" ry="2.35"/><rect class="cls-1" x="491.88" y="165.83" width="5" height="16.42" rx="2.35" ry="2.35"/><rect class="cls-1" x="476.46" y="186.5" width="13.46" height="16.42" rx="2.35" ry="2.35"/><rect class="cls-1" x="491.88" y="186.5" width="5" height="16.42" rx="2.35" ry="2.35"/><rect class="cls-1" x="504.96" y="0.5" width="13.46" height="16.42" rx="2.35" ry="2.35"/><rect class="cls-1" x="520.38" y="0.5" width="5" height="16.42" rx="2.35" ry="2.35"/><rect class="cls-1" x="504.96" y="21.17" width="13.46" height="16.42" rx="2.35" ry="2.35"/><rect class="cls-1" x="520.38" y="21.17" width="5" height="16.42" rx="2.35" ry="2.35"/><rect class="cls-1" x="504.96" y="41.83" width="13.46" height="16.42" rx="2.35" ry="2.35"/><rect class="cls-1" x="520.38" y="41.83" width="5" height="16.42" rx="2.35" ry="2.35"/><rect class="cls-1" x="504.96" y="62.5" width="13.46" height="16.42" rx="2.35" ry="2.35"/><rect class="cls-1" x="520.38" y="62.5" width="5" height="16.42" rx="2.35" ry="2.35"/><rect class="cls-1" x="504.96" y="83.17" width="13.46" height="16.42" rx="2.35" ry="2.35"/><rect class="cls-1" x="520.38" y="83.17" width="5" height="16.42" rx="2.35" ry="2.35"/><rect class="cls-1" x="504.96" y="103.83" width="13.46" height="16.42" rx="2.35" ry="2.35"/><rect class="cls-1" x="520.38" y="103.83" width="5" height="16.42" rx="2.35" ry="2.35"/><rect class="cls-1" x="504.96" y="124.5" width="13.46" height="16.42" rx="2.35" ry="2.35"/><rect class="cls-1" x="520.38" y="124.5" width="5" height="16.42" rx="2.35" ry="2.35"/><rect class="cls-1" x="504.96" y="145.17" width="13.46" height="16.42" rx="2.35" ry="2.35"/><rect class="cls-1" x="520.38" y="145.17" width="5" height="16.42" rx="2.35" ry="2.35"/><rect class="cls-1" x="504.96" y="165.83" width="13.46" height="16.42" rx="2.35" ry="2.35"/><rect class="cls-1" x="520.38" y="165.83" width="5" height="16.42" rx="2.35" ry="2.35"/><rect class="cls-1" x="504.96" y="186.5" width="13.46" height="16.42" rx="2.35" ry="2.35"/><rect class="cls-1" x="520.38" y="186.5" width="5" height="16.42" rx="2.35" ry="2.35"/></g></g></svg>