<?xml version="1.0" encoding="utf-8"?>
<!-- Generator: Adobe Illustrator 21.0.0, SVG Export Plug-In . SVG Version: 6.00 Build 0)  -->
<svg version="1.0" id="Слой_1" xmlns="http://www.w3.org/2000/svg" xmlns:xlink="http://www.w3.org/1999/xlink" x="0px" y="0px"
	 viewBox="0 0 525.9 203.4" enable-background="new 0 0 525.9 203.4" xml:space="preserve">
<title>Ala-Too 200person (150)</title>
<g id="Слой_2">
	<g id="Ala-Too_banket">
		<circle fill="#F2F2F2" stroke="#666666" stroke-linejoin="round" cx="97.6" cy="160.2" r="24.1"/>
		<path fill="#F2F2F2" stroke="#666666" stroke-linejoin="round" d="M93.3,131.8v-4.6c0-0.7,0.6-1.2,1.2-1.2h6.2
			c0.7,0,1.2,0.6,1.2,1.2v4.6c0,0.7-0.6,1.2-1.2,1.2h-6.2C93.9,133,93.3,132.5,93.3,131.8z"/>
		<path fill="#F2F2F2" stroke="#666666" stroke-linejoin="round" d="M93.3,123.6v-0.2c0-0.7,0.6-1.2,1.2-1.2h6.2
			c0.7,0,1.2,0.6,1.2,1.2v0.2c0,0.7-0.6,1.2-1.2,1.2h-6.2C93.9,124.9,93.3,124.3,93.3,123.6z"/>
		<path fill="#F2F2F2" stroke="#666666" stroke-linejoin="round" d="M69.4,164.6h-4.6c-0.7,0-1.2-0.6-1.2-1.2v-6.2
			c0-0.7,0.6-1.2,1.2-1.2h4.6c0.7,0,1.2,0.6,1.2,1.2v6.2C70.6,164,70,164.6,69.4,164.6z"/>
		<path fill="#F2F2F2" stroke="#666666" stroke-linejoin="round" d="M61.2,164.6H61c-0.7,0-1.2-0.6-1.2-1.2v-6.2
			c0-0.7,0.6-1.2,1.2-1.2h0.2c0.7,0,1.2,0.6,1.2,1.2v6.2C62.4,164,61.9,164.6,61.2,164.6z"/>
		<path fill="#F2F2F2" stroke="#666666" stroke-linejoin="round" d="M102,188.7v4.6c0,0.7-0.6,1.2-1.2,1.2h-6.2
			c-0.7,0-1.2-0.6-1.2-1.2v-4.6c0-0.7,0.6-1.2,1.2-1.2h6.2C101.4,187.4,102,188,102,188.7z"/>
		<path fill="#F2F2F2" stroke="#666666" stroke-linejoin="round" d="M102,196.9v0.2c0,0.7-0.6,1.2-1.2,1.2h-6.2
			c-0.7,0-1.2-0.6-1.2-1.2v-0.2c0-0.7,0.6-1.2,1.2-1.2h6.2C101.4,195.6,102,196.2,102,196.9z"/>
		<path fill="#F2F2F2" stroke="#666666" stroke-linejoin="round" d="M125.9,155.9h4.6c0.7,0,1.2,0.6,1.2,1.2v6.2
			c0,0.7-0.6,1.2-1.2,1.2h-4.6c-0.7,0-1.2-0.6-1.2-1.2v-6.2C124.7,156.4,125.2,155.9,125.9,155.9z"/>
		<path fill="#F2F2F2" stroke="#666666" stroke-linejoin="round" d="M134.1,155.9h0.2c0.7,0,1.2,0.6,1.2,1.2v6.2
			c0,0.7-0.6,1.2-1.2,1.2h-0.2c-0.7,0-1.2-0.6-1.2-1.2v-6.2C132.9,156.4,133.4,155.9,134.1,155.9z"/>
		<path fill="#F2F2F2" stroke="#666666" stroke-linejoin="round" d="M104.7,132.3l1.8-4.3c0.3-0.6,1-0.9,1.6-0.7l5.7,2.4
			c0.6,0.3,0.9,1,0.7,1.6l-1.8,4.3c-0.3,0.6-1,0.9-1.6,0.7l-5.7-2.4C104.7,133.7,104.4,133,104.7,132.3z"/>
		<path fill="#F2F2F2" stroke="#666666" stroke-linejoin="round" d="M107.8,124.8l0.1-0.1c0.3-0.6,1-0.9,1.6-0.7l5.7,2.4
			c0.6,0.3,0.9,1,0.7,1.6l-0.1,0.1c-0.3,0.6-1,0.9-1.6,0.7l-5.7-2.4C107.9,126.2,107.6,125.4,107.8,124.8z"/>
		<path fill="#F2F2F2" stroke="#666666" stroke-linejoin="round" d="M69.9,153.3l-4.3-1.8c-0.6-0.3-0.9-1-0.7-1.6l2.4-5.7
			c0.3-0.6,1-0.9,1.6-0.7l4.3,1.8c0.6,0.3,0.9,1,0.7,1.6l-2.4,5.7C71.2,153.2,70.5,153.5,69.9,153.3z"/>
		<path fill="#F2F2F2" stroke="#666666" stroke-linejoin="round" d="M62.4,150.1l-0.1-0.1c-0.6-0.3-0.9-1-0.7-1.6l2.4-5.7
			c0.3-0.6,1-0.9,1.6-0.7l0.1,0.1c0.6,0.3,0.9,1,0.7,1.6l-2.4,5.7C63.7,150.1,63,150.4,62.4,150.1z"/>
		<path fill="#F2F2F2" stroke="#666666" stroke-linejoin="round" d="M90.6,188.1l-1.8,4.3c-0.3,0.6-1,0.9-1.6,0.7l-5.7-2.4
			c-0.6-0.3-0.9-1-0.7-1.6l1.8-4.3c0.3-0.6,1-0.9,1.6-0.7l5.7,2.4C90.6,186.8,90.9,187.5,90.6,188.1z"/>
		<path fill="#F2F2F2" stroke="#666666" stroke-linejoin="round" d="M87.4,195.7l-0.1,0.1c-0.3,0.6-1,0.9-1.6,0.7l-5.7-2.4
			c-0.6-0.3-0.9-1-0.7-1.6l0.1-0.1c0.3-0.6,1-0.9,1.6-0.7l5.7,2.4C87.4,194.3,87.7,195,87.4,195.7z"/>
		<path fill="#F2F2F2" stroke="#666666" stroke-linejoin="round" d="M125.4,167.2l4.3,1.8c0.6,0.3,0.9,1,0.7,1.6l-2.4,5.7
			c-0.3,0.6-1,0.9-1.6,0.7l-4.3-1.8c-0.6-0.3-0.9-1-0.7-1.6l2.4-5.7C124,167.2,124.8,166.9,125.4,167.2z"/>
		<path fill="#F2F2F2" stroke="#666666" stroke-linejoin="round" d="M132.6,170.2l0.1,0.1c0.6,0.3,0.9,1,0.7,1.6l-2.4,5.7
			c-0.3,0.6-1,0.9-1.6,0.7l-0.1-0.1c-0.6-0.3-0.9-1-0.7-1.6l2.4-5.7C131.3,170.2,132,170,132.6,170.2z"/>
		<path fill="#F2F2F2" stroke="#666666" stroke-linejoin="round" d="M115.2,137.4l3.4-3.2c0.5-0.5,1.3-0.5,1.8,0l4.3,4.5
			c0.5,0.5,0.5,1.3,0,1.8l-3.4,3.2c-0.5,0.5-1.3,0.5-1.8,0l-4.3-4.5C114.7,138.7,114.7,137.9,115.2,137.4z"/>
		<path fill="#F2F2F2" stroke="#666666" stroke-linejoin="round" d="M121.1,131.8l0.1-0.1c0.5-0.5,1.3-0.5,1.8,0l4.3,4.5
			c0.5,0.5,0.5,1.3,0,1.8l-0.1,0.1c-0.5,0.5-1.3,0.5-1.8,0l-4.3-4.5C120.6,133.1,120.6,132.3,121.1,131.8z"/>
		<path fill="#F2F2F2" stroke="#666666" stroke-linejoin="round" d="M75,142.8l-3.2-3.4c-0.5-0.5-0.5-1.3,0-1.8l4.5-4.3
			c0.5-0.5,1.3-0.5,1.8,0l3.2,3.4c0.5,0.5,0.5,1.3,0,1.8l-4.5,4.3C76.2,143.3,75.4,143.3,75,142.8z"/>
		<path fill="#F2F2F2" stroke="#666666" stroke-linejoin="round" d="M69.3,136.9l-0.1-0.1c-0.5-0.5-0.5-1.3,0-1.8l4.5-4.3
			c0.5-0.5,1.3-0.5,1.8,0l0.1,0.1c0.5,0.5,0.5,1.3,0,1.8l-4.5,4.3C70.6,137.4,69.8,137.4,69.3,136.9z"/>
		<path fill="#F2F2F2" stroke="#666666" stroke-linejoin="round" d="M80.1,183l-3.4,3.2c-0.5,0.5-1.3,0.5-1.8,0l-4.3-4.5
			c-0.5-0.5-0.5-1.3,0-1.8l3.4-3.2c0.5-0.5,1.3-0.5,1.8,0l4.3,4.5C80.6,181.8,80.6,182.6,80.1,183z"/>
		<path fill="#F2F2F2" stroke="#666666" stroke-linejoin="round" d="M74.2,188.7l-0.1,0.1c-0.5,0.5-1.3,0.5-1.8,0l-4.3-4.5
			c-0.5-0.5-0.5-1.3,0-1.8l0.1-0.1c0.5-0.5,1.3-0.5,1.8,0l4.3,4.5C74.7,187.4,74.7,188.2,74.2,188.7z"/>
		<path fill="#F2F2F2" stroke="#666666" stroke-linejoin="round" d="M120.3,177.7l3.2,3.4c0.5,0.5,0.5,1.3,0,1.8l-4.5,4.3
			c-0.5,0.5-1.3,0.5-1.8,0l-3.2-3.4c-0.5-0.5-0.5-1.3,0-1.8l4.5-4.3C119.1,177.2,119.8,177.2,120.3,177.7z"/>
		<path fill="#F2F2F2" stroke="#666666" stroke-linejoin="round" d="M126,183.6l0.1,0.1c0.5,0.5,0.5,1.3,0,1.8l-4.5,4.3
			c-0.5,0.5-1.3,0.5-1.8,0l-0.1-0.1c-0.5-0.5-0.5-1.3,0-1.8l4.5-4.3C124.7,183.1,125.5,183.1,126,183.6z"/>
		<path fill="#F2F2F2" stroke="#666666" stroke-linejoin="round" d="M122.4,145.6l4.3-1.7c0.6-0.3,1.4,0.1,1.6,0.7l2.3,5.8
			c0.3,0.6-0.1,1.4-0.7,1.6l-4.3,1.7c-0.6,0.3-1.4-0.1-1.6-0.7l-2.3-5.8C121.5,146.6,121.8,145.9,122.4,145.6z"/>
		<path fill="#F2F2F2" stroke="#666666" stroke-linejoin="round" d="M130,142.6l0.1-0.1c0.6-0.3,1.4,0.1,1.6,0.7l2.3,5.8
			c0.3,0.6-0.1,1.4-0.7,1.6l-0.1,0.1c-0.6,0.3-1.4-0.1-1.6-0.7l-2.3-5.8C129.1,143.6,129.4,142.9,130,142.6z"/>
		<path fill="#F2F2F2" stroke="#666666" stroke-linejoin="round" d="M83.1,135.6l-1.7-4.3c-0.3-0.6,0.1-1.4,0.7-1.6l5.8-2.3
			c0.6-0.3,1.4,0.1,1.6,0.7l1.7,4.3c0.3,0.6-0.1,1.4-0.7,1.6l-5.8,2.3C84.1,136.5,83.4,136.2,83.1,135.6z"/>
		<path fill="#F2F2F2" stroke="#666666" stroke-linejoin="round" d="M80.1,128l-0.1-0.1c-0.3-0.6,0.1-1.4,0.7-1.6l5.8-2.3
			c0.6-0.3,1.4,0.1,1.6,0.7l0.1,0.1c0.3,0.6-0.1,1.4-0.7,1.6l-5.8,2.3C81.1,129,80.3,128.6,80.1,128z"/>
		<path fill="#F2F2F2" stroke="#666666" stroke-linejoin="round" d="M72.8,174.8l-4.3,1.7c-0.6,0.3-1.4-0.1-1.6-0.7l-2.3-5.8
			c-0.3-0.6,0.1-1.4,0.7-1.6l4.3-1.7c0.6-0.3,1.4,0.1,1.6,0.7l2.3,5.8C73.8,173.9,73.5,174.6,72.8,174.8z"/>
		<path fill="#F2F2F2" stroke="#666666" stroke-linejoin="round" d="M65.3,177.9l-0.1,0.1c-0.6,0.3-1.4-0.1-1.6-0.7l-2.3-5.8
			c-0.3-0.6,0.1-1.4,0.7-1.6l0.1-0.1c0.6-0.3,1.4,0.1,1.6,0.7l2.3,5.8C66.2,176.9,65.9,177.6,65.3,177.9z"/>
		<path fill="#F2F2F2" stroke="#666666" stroke-linejoin="round" d="M112.2,184.9l1.7,4.3c0.3,0.6-0.1,1.4-0.7,1.6l-5.8,2.3
			c-0.6,0.3-1.4-0.1-1.6-0.7l-1.7-4.3c-0.3-0.6,0.1-1.4,0.7-1.6l5.8-2.3C111.2,183.9,111.9,184.2,112.2,184.9z"/>
		<path fill="#F2F2F2" stroke="#666666" stroke-linejoin="round" d="M115.2,192.5l0.1,0.1c0.3,0.6-0.1,1.4-0.7,1.6l-5.8,2.3
			c-0.6,0.3-1.4-0.1-1.6-0.7l-0.1-0.1c-0.3-0.6,0.1-1.4,0.7-1.6l5.8-2.3C114.2,191.5,115,191.8,115.2,192.5z"/>
		<circle fill="#F2F2F2" stroke="#666666" stroke-linejoin="round" cx="97.6" cy="45.3" r="24.1"/>
		<path fill="#F2F2F2" stroke="#666666" stroke-linejoin="round" d="M93.3,16.8v-4.6c0-0.7,0.6-1.2,1.2-1.2h6.2
			c0.7,0,1.2,0.6,1.2,1.2v4.6c0,0.7-0.6,1.2-1.2,1.2h-6.2C93.9,18.1,93.3,17.5,93.3,16.8z"/>
		<path fill="#F2F2F2" stroke="#666666" stroke-linejoin="round" d="M93.3,8.7V8.5c0-0.7,0.6-1.2,1.2-1.2h6.2c0.7,0,1.2,0.6,1.2,1.2
			v0.2c0,0.7-0.6,1.2-1.2,1.2h-6.2C93.9,9.9,93.3,9.3,93.3,8.7z"/>
		<path fill="#F2F2F2" stroke="#666666" stroke-linejoin="round" d="M69.4,49.6h-4.6c-0.7,0-1.2-0.6-1.2-1.2v-6.2
			c0-0.7,0.6-1.2,1.2-1.2h4.6c0.7,0,1.2,0.6,1.2,1.2v6.2C70.6,49.1,70,49.6,69.4,49.6z"/>
		<path fill="#F2F2F2" stroke="#666666" stroke-linejoin="round" d="M61.2,49.6H61c-0.7,0-1.2-0.6-1.2-1.2v-6.2
			c0-0.7,0.6-1.2,1.2-1.2h0.2c0.7,0,1.2,0.6,1.2,1.2v6.2C62.4,49.1,61.9,49.6,61.2,49.6z"/>
		<path fill="#F2F2F2" stroke="#666666" stroke-linejoin="round" d="M102,73.7v4.6c0,0.7-0.6,1.2-1.2,1.2h-6.2
			c-0.7,0-1.2-0.6-1.2-1.2v-4.6c0-0.7,0.6-1.2,1.2-1.2h6.2C101.4,72.5,102,73,102,73.7z"/>
		<path fill="#F2F2F2" stroke="#666666" stroke-linejoin="round" d="M102,81.9v0.2c0,0.7-0.6,1.2-1.2,1.2h-6.2
			c-0.7,0-1.2-0.6-1.2-1.2v-0.2c0-0.7,0.6-1.2,1.2-1.2h6.2C101.4,80.6,102,81.2,102,81.9z"/>
		<path fill="#F2F2F2" stroke="#666666" stroke-linejoin="round" d="M125.9,40.9h4.6c0.7,0,1.2,0.6,1.2,1.2v6.2
			c0,0.7-0.6,1.2-1.2,1.2h-4.6c-0.7,0-1.2-0.6-1.2-1.2v-6.2C124.7,41.5,125.2,40.9,125.9,40.9z"/>
		<path fill="#F2F2F2" stroke="#666666" stroke-linejoin="round" d="M134.1,40.9h0.2c0.7,0,1.2,0.6,1.2,1.2v6.2
			c0,0.7-0.6,1.2-1.2,1.2h-0.2c-0.7,0-1.2-0.6-1.2-1.2v-6.2C132.9,41.5,133.4,40.9,134.1,40.9z"/>
		<path fill="#F2F2F2" stroke="#666666" stroke-linejoin="round" d="M104.7,17.4l1.8-4.3c0.3-0.6,1-0.9,1.6-0.7l5.7,2.4
			c0.6,0.3,0.9,1,0.7,1.6l-1.8,4.3c-0.3,0.6-1,0.9-1.6,0.7l-5.7-2.4C104.7,18.7,104.4,18,104.7,17.4z"/>
		<path fill="#F2F2F2" stroke="#666666" stroke-linejoin="round" d="M107.8,9.8l0.1-0.1c0.3-0.6,1-0.9,1.6-0.7l5.7,2.4
			c0.6,0.3,0.9,1,0.7,1.6l-0.1,0.1c-0.3,0.6-1,0.9-1.6,0.7l-5.7-2.4C107.9,11.2,107.6,10.5,107.8,9.8z"/>
		<path fill="#F2F2F2" stroke="#666666" stroke-linejoin="round" d="M69.9,38.3l-4.3-1.8c-0.6-0.3-0.9-1-0.7-1.6l2.4-5.7
			c0.3-0.6,1-0.9,1.6-0.7l4.3,1.8c0.6,0.3,0.9,1,0.7,1.6l-2.4,5.7C71.3,38.3,70.5,38.6,69.9,38.3z"/>
		<path fill="#F2F2F2" stroke="#666666" stroke-linejoin="round" d="M62.4,35.1l-0.1-0.1c-0.6-0.3-0.9-1-0.7-1.6l2.4-5.7
			c0.3-0.6,1-0.9,1.6-0.7l0.1,0.1c0.6,0.3,0.9,1,0.7,1.6L64,34.5C63.7,35.1,63,35.4,62.4,35.1z"/>
		<path fill="#F2F2F2" stroke="#666666" stroke-linejoin="round" d="M90.6,73.2l-1.8,4.3c-0.3,0.6-1,0.9-1.6,0.7l-5.7-2.4
			c-0.6-0.3-0.9-1-0.7-1.6l1.8-4.3c0.3-0.6,1-0.9,1.6-0.7l5.7,2.4C90.6,71.8,90.9,72.5,90.6,73.2z"/>
		<path fill="#F2F2F2" stroke="#666666" stroke-linejoin="round" d="M87.4,80.7l-0.1,0.1c-0.3,0.6-1,0.9-1.6,0.7L80,79.1
			c-0.6-0.3-0.9-1-0.7-1.6l0.1-0.1c0.3-0.6,1-0.9,1.6-0.7l5.7,2.4C87.4,79.3,87.7,80.1,87.4,80.7z"/>
		<path fill="#F2F2F2" stroke="#666666" stroke-linejoin="round" d="M125.4,52.2l4.3,1.8c0.6,0.3,0.9,1,0.7,1.6l-2.4,5.7
			c-0.3,0.6-1,0.9-1.6,0.7l-4.3-1.8c-0.6-0.3-0.9-1-0.7-1.6l2.4-5.7C124,52.3,124.8,52,125.4,52.2z"/>
		<path fill="#F2F2F2" stroke="#666666" stroke-linejoin="round" d="M132.9,55.4l0.1,0.1c0.6,0.3,0.9,1,0.7,1.6l-2.4,5.7
			c-0.3,0.6-1,0.9-1.6,0.7l-0.1-0.1c-0.6-0.3-0.9-1-0.7-1.6l2.4-5.7C131.6,55.4,132.3,55.1,132.9,55.4z"/>
		<path fill="#F2F2F2" stroke="#666666" stroke-linejoin="round" d="M115.2,22.5l3.4-3.2c0.5-0.5,1.3-0.5,1.8,0l4.3,4.5
			c0.5,0.5,0.5,1.3,0,1.8l-3.4,3.2c-0.5,0.5-1.3,0.5-1.8,0l-4.3-4.5C114.7,23.8,114.7,23,115.2,22.5z"/>
		<path fill="#F2F2F2" stroke="#666666" stroke-linejoin="round" d="M121.1,16.8l0.1-0.1c0.5-0.5,1.3-0.5,1.8,0l4.3,4.5
			c0.5,0.5,0.5,1.3,0,1.8l-0.1,0.1c-0.5,0.5-1.3,0.5-1.8,0l-4.3-4.5C120.6,18.1,120.6,17.3,121.1,16.8z"/>
		<path fill="#F2F2F2" stroke="#666666" stroke-linejoin="round" d="M75,27.8l-3.2-3.4c-0.5-0.5-0.5-1.3,0-1.8l4.5-4.3
			c0.5-0.5,1.3-0.5,1.8,0l3.2,3.4c0.5,0.5,0.5,1.3,0,1.8l-4.5,4.3C76.2,28.3,75.4,28.3,75,27.8z"/>
		<path fill="#F2F2F2" stroke="#666666" stroke-linejoin="round" d="M69.3,21.9l-0.1-0.1c-0.5-0.5-0.5-1.3,0-1.8l4.5-4.3
			c0.5-0.5,1.3-0.5,1.8,0l0.1,0.1c0.5,0.5,0.5,1.3,0,1.8l-4.5,4.3C70.6,22.4,69.8,22.4,69.3,21.9z"/>
		<path fill="#F2F2F2" stroke="#666666" stroke-linejoin="round" d="M80.1,68.1l-3.4,3.2c-0.5,0.5-1.3,0.5-1.8,0l-4.3-4.5
			c-0.5-0.5-0.5-1.3,0-1.8l3.4-3.2c0.5-0.5,1.3-0.5,1.8,0l4.3,4.5C80.6,66.8,80.6,67.6,80.1,68.1z"/>
		<path fill="#F2F2F2" stroke="#666666" stroke-linejoin="round" d="M74.2,73.7L74,73.8c-0.5,0.5-1.3,0.5-1.8,0L68,69.3
			c-0.5-0.5-0.5-1.3,0-1.8l0.1-0.1c0.5-0.5,1.3-0.5,1.8,0l4.3,4.5C74.7,72.4,74.7,73.2,74.2,73.7z"/>
		<path fill="#F2F2F2" stroke="#666666" stroke-linejoin="round" d="M120.3,62.7l3.2,3.4c0.5,0.5,0.5,1.3,0,1.8l-4.5,4.3
			c-0.5,0.5-1.3,0.5-1.8,0l-3.2-3.4c-0.5-0.5-0.5-1.3,0-1.8l4.5-4.3C119.1,62.2,119.8,62.2,120.3,62.7z"/>
		<path fill="#F2F2F2" stroke="#666666" stroke-linejoin="round" d="M126,68.6l0.1,0.1c0.5,0.5,0.5,1.3,0,1.8l-4.5,4.3
			c-0.5,0.5-1.3,0.5-1.8,0l-0.1-0.1c-0.5-0.5-0.5-1.3,0-1.8l4.5-4.3C124.7,68.1,125.5,68.1,126,68.6z"/>
		<path fill="#F2F2F2" stroke="#666666" stroke-linejoin="round" d="M122.5,30.7l4.3-1.7c0.6-0.3,1.4,0.1,1.6,0.7l2.3,5.8
			c0.3,0.6-0.1,1.4-0.7,1.6l-4.3,1.7c-0.6,0.3-1.4-0.1-1.6-0.7l-2.3-5.8C121.5,31.7,121.8,30.9,122.5,30.7z"/>
		<path fill="#F2F2F2" stroke="#666666" stroke-linejoin="round" d="M130,27.6l0.1-0.1c0.6-0.3,1.4,0.1,1.6,0.7l2.3,5.8
			c0.3,0.6-0.1,1.4-0.7,1.6l-0.1,0.1c-0.6,0.3-1.4-0.1-1.6-0.7l-2.3-5.8C129.1,28.6,129.4,27.9,130,27.6z"/>
		<path fill="#F2F2F2" stroke="#666666" stroke-linejoin="round" d="M83.1,20.6l-1.7-4.3c-0.3-0.6,0.1-1.4,0.7-1.6l5.8-2.3
			c0.6-0.3,1.4,0.1,1.6,0.7l1.7,4.3c0.3,0.6-0.1,1.4-0.7,1.6l-5.8,2.3C84.1,21.6,83.4,21.3,83.1,20.6z"/>
		<path fill="#F2F2F2" stroke="#666666" stroke-linejoin="round" d="M80.1,13L80,12.9c-0.3-0.6,0.1-1.4,0.7-1.6L86.5,9
			c0.6-0.3,1.4,0.1,1.6,0.7l0.1,0.1c0.3,0.6-0.1,1.4-0.7,1.6l-5.8,2.3C81.1,14,80.3,13.7,80.1,13z"/>
		<path fill="#F2F2F2" stroke="#666666" stroke-linejoin="round" d="M72.8,59.9l-4.3,1.7c-0.6,0.3-1.4-0.1-1.6-0.7l-2.3-5.8
			c-0.3-0.6,0.1-1.4,0.7-1.6l4.3-1.7c0.6-0.3,1.4,0.1,1.6,0.7l2.3,5.8C73.8,58.9,73.5,59.6,72.8,59.9z"/>
		<path fill="#F2F2F2" stroke="#666666" stroke-linejoin="round" d="M65.3,62.9L65.1,63c-0.6,0.3-1.4-0.1-1.6-0.7l-2.3-5.8
			c-0.3-0.6,0.1-1.4,0.7-1.6l0.1-0.1c0.6-0.3,1.4,0.1,1.6,0.7l2.3,5.8C66.2,61.9,65.9,62.6,65.3,62.9z"/>
		<path fill="#F2F2F2" stroke="#666666" stroke-linejoin="round" d="M112.2,69.9l1.7,4.3c0.3,0.6-0.1,1.4-0.7,1.6l-5.8,2.3
			c-0.6,0.3-1.4-0.1-1.6-0.7l-1.7-4.3c-0.3-0.6,0.1-1.4,0.7-1.6l5.8-2.3C111.2,69,111.9,69.3,112.2,69.9z"/>
		<path fill="#F2F2F2" stroke="#666666" stroke-linejoin="round" d="M115.2,77.5l0.1,0.1c0.3,0.6-0.1,1.4-0.7,1.6l-5.8,2.3
			c-0.6,0.3-1.4-0.1-1.6-0.7l-0.1-0.1c-0.3-0.6,0.1-1.4,0.7-1.6l5.8-2.3C114.2,76.6,115,76.9,115.2,77.5z"/>
		<circle fill="#F2F2F2" stroke="#666666" stroke-linejoin="round" cx="193.8" cy="160.2" r="24.1"/>
		<path fill="#F2F2F2" stroke="#666666" stroke-linejoin="round" d="M189.4,131.8v-4.6c0-0.7,0.6-1.2,1.2-1.2h6.2
			c0.7,0,1.2,0.6,1.2,1.2v4.6c0,0.7-0.6,1.2-1.2,1.2h-6.2C190,133,189.4,132.5,189.4,131.8z"/>
		<path fill="#F2F2F2" stroke="#666666" stroke-linejoin="round" d="M189.4,123.6v-0.2c0-0.7,0.6-1.2,1.2-1.2h6.2
			c0.7,0,1.2,0.6,1.2,1.2v0.2c0,0.7-0.6,1.2-1.2,1.2h-6.2C190,124.9,189.4,124.3,189.4,123.6z"/>
		<path fill="#F2F2F2" stroke="#666666" stroke-linejoin="round" d="M165.5,164.6h-4.6c-0.7,0-1.2-0.6-1.2-1.2v-6.2
			c0-0.7,0.6-1.2,1.2-1.2h4.6c0.7,0,1.2,0.6,1.2,1.2v6.2C166.7,164,166.2,164.6,165.5,164.6z"/>
		<path fill="#F2F2F2" stroke="#666666" stroke-linejoin="round" d="M157.3,164.6h-0.2c-0.7,0-1.2-0.6-1.2-1.2v-6.2
			c0-0.7,0.6-1.2,1.2-1.2h0.2c0.7,0,1.2,0.6,1.2,1.2v6.2C158.6,164,158,164.6,157.3,164.6z"/>
		<path fill="#F2F2F2" stroke="#666666" stroke-linejoin="round" d="M198.1,188.7v4.6c0,0.7-0.6,1.2-1.2,1.2h-6.2
			c-0.7,0-1.2-0.6-1.2-1.2v-4.6c0-0.7,0.6-1.2,1.2-1.2h6.2C197.6,187.4,198.1,188,198.1,188.7z"/>
		<path fill="#F2F2F2" stroke="#666666" stroke-linejoin="round" d="M198.1,196.9v0.2c0,0.7-0.6,1.2-1.2,1.2h-6.2
			c-0.7,0-1.2-0.6-1.2-1.2v-0.2c0-0.7,0.6-1.2,1.2-1.2h6.2C197.6,195.6,198.1,196.2,198.1,196.9z"/>
		<path fill="#F2F2F2" stroke="#666666" stroke-linejoin="round" d="M222.1,155.9h4.6c0.7,0,1.2,0.6,1.2,1.2v6.2
			c0,0.7-0.6,1.2-1.2,1.2h-4.6c-0.7,0-1.2-0.6-1.2-1.2v-6.2C220.8,156.4,221.4,155.9,222.1,155.9z"/>
		<path fill="#F2F2F2" stroke="#666666" stroke-linejoin="round" d="M230.2,155.9h0.2c0.7,0,1.2,0.6,1.2,1.2v6.2
			c0,0.7-0.6,1.2-1.2,1.2h-0.2c-0.7,0-1.2-0.6-1.2-1.2v-6.2C229,156.4,229.6,155.9,230.2,155.9z"/>
		<path fill="#F2F2F2" stroke="#666666" stroke-linejoin="round" d="M200.8,132.3l1.8-4.3c0.3-0.6,1-0.9,1.6-0.7l5.7,2.4
			c0.6,0.3,0.9,1,0.7,1.6l-1.8,4.3c-0.3,0.6-1,0.9-1.6,0.7l-5.7-2.4C200.8,133.7,200.5,133,200.8,132.3z"/>
		<path fill="#F2F2F2" stroke="#666666" stroke-linejoin="round" d="M204,124.8l0.1-0.1c0.3-0.6,1-0.9,1.6-0.7l5.7,2.4
			c0.6,0.3,0.9,1,0.7,1.6l-0.1,0.1c-0.3,0.6-1,0.9-1.6,0.7l-5.7-2.4C204,126.2,203.7,125.4,204,124.8z"/>
		<path fill="#F2F2F2" stroke="#666666" stroke-linejoin="round" d="M166,153.3l-4.3-1.8c-0.6-0.3-0.9-1-0.7-1.6l2.4-5.7
			c0.3-0.6,1-0.9,1.6-0.7l4.3,1.8c0.6,0.3,0.9,1,0.7,1.6l-2.4,5.7C167.4,153.2,166.7,153.5,166,153.3z"/>
		<path fill="#F2F2F2" stroke="#666666" stroke-linejoin="round" d="M158.5,150.1l-0.1-0.1c-0.6-0.3-0.9-1-0.7-1.6l2.4-5.7
			c0.3-0.6,1-0.9,1.6-0.7l0.1,0.1c0.6,0.3,0.9,1,0.7,1.6l-2.4,5.7C159.9,150.1,159.1,150.4,158.5,150.1z"/>
		<path fill="#F2F2F2" stroke="#666666" stroke-linejoin="round" d="M186.8,188.1l-1.8,4.3c-0.3,0.6-1,0.9-1.6,0.7l-5.7-2.4
			c-0.6-0.3-0.9-1-0.7-1.6l1.8-4.3c0.3-0.6,1-0.9,1.6-0.7l5.7,2.4C186.7,186.8,187,187.5,186.8,188.1z"/>
		<path fill="#F2F2F2" stroke="#666666" stroke-linejoin="round" d="M183.6,195.7l-0.1,0.1c-0.3,0.6-1,0.9-1.6,0.7l-5.7-2.4
			c-0.6-0.3-0.9-1-0.7-1.6l0.1-0.1c0.3-0.6,1-0.9,1.6-0.7l5.7,2.4C183.6,194.3,183.9,195,183.6,195.7z"/>
		<path fill="#F2F2F2" stroke="#666666" stroke-linejoin="round" d="M221.5,167.2l4.3,1.8c0.6,0.3,0.9,1,0.7,1.6l-2.4,5.7
			c-0.3,0.6-1,0.9-1.6,0.7l-4.3-1.8c-0.6-0.3-0.9-1-0.7-1.6l2.4-5.7C220.2,167.2,220.9,166.9,221.5,167.2z"/>
		<path fill="#F2F2F2" stroke="#666666" stroke-linejoin="round" d="M229.1,170.4l0.1,0.1c0.6,0.3,0.9,1,0.7,1.6l-2.4,5.7
			c-0.3,0.6-1,0.9-1.6,0.7l-0.1-0.1c-0.6-0.3-0.9-1-0.7-1.6l2.4-5.7C227.7,170.4,228.4,170.1,229.1,170.4z"/>
		<path fill="#F2F2F2" stroke="#666666" stroke-linejoin="round" d="M211.4,137.5l3.4-3.2c0.5-0.5,1.3-0.5,1.8,0l4.3,4.5
			c0.5,0.5,0.5,1.3,0,1.8l-3.4,3.2c-0.5,0.5-1.3,0.5-1.8,0l-4.3-4.5C210.8,138.7,210.9,137.9,211.4,137.5z"/>
		<path fill="#F2F2F2" stroke="#666666" stroke-linejoin="round" d="M217.3,131.8l0.1-0.1c0.5-0.5,1.3-0.5,1.8,0l4.3,4.5
			c0.5,0.5,0.5,1.3,0,1.8l-0.1,0.1c-0.5,0.5-1.3,0.5-1.8,0l-4.3-4.5C216.7,133.1,216.8,132.3,217.3,131.8z"/>
		<path fill="#F2F2F2" stroke="#666666" stroke-linejoin="round" d="M171.1,142.8l-3.2-3.4c-0.5-0.5-0.5-1.3,0-1.8l4.5-4.3
			c0.5-0.5,1.3-0.5,1.8,0l3.2,3.4c0.5,0.5,0.5,1.3,0,1.8l-4.5,4.3C172.4,143.3,171.6,143.3,171.1,142.8z"/>
		<path fill="#F2F2F2" stroke="#666666" stroke-linejoin="round" d="M165.5,136.9l-0.1-0.1c-0.5-0.5-0.5-1.3,0-1.8l4.5-4.3
			c0.5-0.5,1.3-0.5,1.8,0l0.1,0.1c0.5,0.5,0.5,1.3,0,1.8l-4.5,4.3C166.7,137.4,165.9,137.4,165.5,136.9z"/>
		<path fill="#F2F2F2" stroke="#666666" stroke-linejoin="round" d="M176.2,183l-3.4,3.2c-0.5,0.5-1.3,0.5-1.8,0l-4.3-4.5
			c-0.5-0.5-0.5-1.3,0-1.8l3.4-3.2c0.5-0.5,1.3-0.5,1.8,0l4.3,4.5C176.7,181.8,176.7,182.5,176.2,183z"/>
		<path fill="#F2F2F2" stroke="#666666" stroke-linejoin="round" d="M170.3,188.7l-0.1,0.1c-0.5,0.5-1.3,0.5-1.8,0l-4.3-4.5
			c-0.5-0.5-0.5-1.3,0-1.8l0.1-0.1c0.5-0.5,1.3-0.5,1.8,0l4.3,4.5C170.8,187.4,170.8,188.2,170.3,188.7z"/>
		<path fill="#F2F2F2" stroke="#666666" stroke-linejoin="round" d="M216.5,177.7l3.2,3.4c0.5,0.5,0.5,1.3,0,1.8l-4.5,4.3
			c-0.5,0.5-1.3,0.5-1.8,0l-3.2-3.4c-0.5-0.5-0.5-1.3,0-1.8l4.5-4.3C215.2,177.2,216,177.2,216.5,177.7z"/>
		<path fill="#F2F2F2" stroke="#666666" stroke-linejoin="round" d="M222.1,183.6l0.1,0.1c0.5,0.5,0.5,1.3,0,1.8l-4.5,4.3
			c-0.5,0.5-1.3,0.5-1.8,0l-0.1-0.1c-0.5-0.5-0.5-1.3,0-1.8l4.5-4.3C220.8,183.1,221.6,183.1,222.1,183.6z"/>
		<path fill="#F2F2F2" stroke="#666666" stroke-linejoin="round" d="M218.6,145.6l4.3-1.7c0.6-0.3,1.4,0.1,1.6,0.7l2.3,5.8
			c0.3,0.6-0.1,1.4-0.7,1.6l-4.3,1.7c-0.6,0.3-1.4-0.1-1.6-0.7l-2.3-5.8C217.6,146.6,217.9,145.9,218.6,145.6z"/>
		<path fill="#F2F2F2" stroke="#666666" stroke-linejoin="round" d="M226.2,142.6l0.1-0.1c0.6-0.3,1.4,0.1,1.6,0.7l2.3,5.8
			c0.3,0.6-0.1,1.4-0.7,1.6l-0.1,0.1c-0.6,0.3-1.4-0.1-1.6-0.7l-2.3-5.8C225.2,143.6,225.5,142.9,226.2,142.6z"/>
		<path fill="#F2F2F2" stroke="#666666" stroke-linejoin="round" d="M179.2,135.6l-1.7-4.3c-0.3-0.6,0.1-1.4,0.7-1.6l5.8-2.3
			c0.6-0.3,1.4,0.1,1.6,0.7l1.7,4.3c0.3,0.6-0.1,1.4-0.7,1.6l-5.8,2.3C180.2,136.5,179.5,136.2,179.2,135.6z"/>
		<path fill="#F2F2F2" stroke="#666666" stroke-linejoin="round" d="M176.2,128l-0.1-0.1c-0.3-0.6,0.1-1.4,0.7-1.6l5.8-2.3
			c0.6-0.3,1.4,0.1,1.6,0.7l0.1,0.1c0.3,0.6-0.1,1.4-0.7,1.6l-5.8,2.3C177.2,128.9,176.5,128.6,176.2,128z"/>
		<path fill="#F2F2F2" stroke="#666666" stroke-linejoin="round" d="M169,174.8l-4.3,1.7c-0.6,0.3-1.4-0.1-1.6-0.7l-2.3-5.8
			c-0.3-0.6,0.1-1.4,0.7-1.6l4.3-1.7c0.6-0.3,1.4,0.1,1.6,0.7l2.3,5.8C169.9,173.8,169.6,174.6,169,174.8z"/>
		<path fill="#F2F2F2" stroke="#666666" stroke-linejoin="round" d="M161.4,177.9l-0.1,0.1c-0.6,0.3-1.4-0.1-1.6-0.7l-2.3-5.8
			c-0.3-0.6,0.1-1.4,0.7-1.6l0.1-0.1c0.6-0.3,1.4,0.1,1.6,0.7l2.3,5.8C162.4,176.9,162,177.6,161.4,177.9z"/>
		<path fill="#F2F2F2" stroke="#666666" stroke-linejoin="round" d="M208.3,184.9l1.7,4.3c0.3,0.6-0.1,1.4-0.7,1.6l-5.8,2.3
			c-0.6,0.3-1.4-0.1-1.6-0.7l-1.7-4.3c-0.3-0.6,0.1-1.4,0.7-1.6l5.8-2.3C207.3,183.9,208.1,184.2,208.3,184.9z"/>
		<path fill="#F2F2F2" stroke="#666666" stroke-linejoin="round" d="M211.4,192.5l0.1,0.1c0.3,0.6-0.1,1.4-0.7,1.6l-5.8,2.3
			c-0.6,0.3-1.4-0.1-1.6-0.7l-0.1-0.1c-0.3-0.6,0.1-1.4,0.7-1.6l5.8-2.3C210.4,191.5,211.1,191.8,211.4,192.5z"/>
		<circle fill="#F2F2F2" stroke="#666666" stroke-linejoin="round" cx="193.8" cy="45.3" r="24.1"/>
		<path fill="#F2F2F2" stroke="#666666" stroke-linejoin="round" d="M189.4,16.8v-4.6c0-0.7,0.6-1.2,1.2-1.2h6.2
			c0.7,0,1.2,0.6,1.2,1.2v4.6c0,0.7-0.6,1.2-1.2,1.2h-6.2C190,18.1,189.4,17.5,189.4,16.8z"/>
		<path fill="#F2F2F2" stroke="#666666" stroke-linejoin="round" d="M189.4,8.7V8.5c0-0.7,0.6-1.2,1.2-1.2h6.2
			c0.7,0,1.2,0.6,1.2,1.2v0.2c0,0.7-0.6,1.2-1.2,1.2h-6.2C190,9.9,189.4,9.3,189.4,8.7z"/>
		<path fill="#F2F2F2" stroke="#666666" stroke-linejoin="round" d="M165.5,49.6h-4.6c-0.7,0-1.2-0.6-1.2-1.2v-6.2
			c0-0.7,0.6-1.2,1.2-1.2h4.6c0.7,0,1.2,0.6,1.2,1.2v6.2C166.7,49.1,166.2,49.6,165.5,49.6z"/>
		<path fill="#F2F2F2" stroke="#666666" stroke-linejoin="round" d="M157.3,49.6h-0.2c-0.7,0-1.2-0.6-1.2-1.2v-6.2
			c0-0.7,0.6-1.2,1.2-1.2h0.2c0.7,0,1.2,0.6,1.2,1.2v6.2C158.6,49.1,158,49.6,157.3,49.6z"/>
		<path fill="#F2F2F2" stroke="#666666" stroke-linejoin="round" d="M198.1,73.7v4.6c0,0.7-0.6,1.2-1.2,1.2h-6.2
			c-0.7,0-1.2-0.6-1.2-1.2v-4.6c0-0.7,0.6-1.2,1.2-1.2h6.2C197.6,72.5,198.1,73,198.1,73.7z"/>
		<path fill="#F2F2F2" stroke="#666666" stroke-linejoin="round" d="M198.1,81.9v0.2c0,0.7-0.6,1.2-1.2,1.2h-6.2
			c-0.7,0-1.2-0.6-1.2-1.2v-0.2c0-0.7,0.6-1.2,1.2-1.2h6.2C197.6,80.6,198.1,81.2,198.1,81.9z"/>
		<path fill="#F2F2F2" stroke="#666666" stroke-linejoin="round" d="M222.1,40.9h4.6c0.7,0,1.2,0.6,1.2,1.2v6.2
			c0,0.7-0.6,1.2-1.2,1.2h-4.6c-0.7,0-1.2-0.6-1.2-1.2v-6.2C220.8,41.5,221.4,40.9,222.1,40.9z"/>
		<path fill="#F2F2F2" stroke="#666666" stroke-linejoin="round" d="M230.2,40.9h0.2c0.7,0,1.2,0.6,1.2,1.2v6.2
			c0,0.7-0.6,1.2-1.2,1.2h-0.2c-0.7,0-1.2-0.6-1.2-1.2v-6.2C229,41.5,229.6,40.9,230.2,40.9z"/>
		<path fill="#F2F2F2" stroke="#666666" stroke-linejoin="round" d="M200.8,17.4l1.8-4.3c0.3-0.6,1-0.9,1.6-0.7l5.7,2.4
			c0.6,0.3,0.9,1,0.7,1.6l-1.8,4.3c-0.3,0.6-1,0.9-1.6,0.7l-5.7-2.4C200.8,18.7,200.6,18,200.8,17.4z"/>
		<path fill="#F2F2F2" stroke="#666666" stroke-linejoin="round" d="M204,9.8l0.1-0.1c0.3-0.6,1-0.9,1.6-0.7l5.7,2.4
			c0.6,0.3,0.9,1,0.7,1.6l-0.1,0.1c-0.3,0.6-1,0.9-1.6,0.7l-5.7-2.4C204,11.2,203.7,10.5,204,9.8z"/>
		<path fill="#F2F2F2" stroke="#666666" stroke-linejoin="round" d="M166,38.3l-4.3-1.8c-0.6-0.3-0.9-1-0.7-1.6l2.4-5.7
			c0.3-0.6,1-0.9,1.6-0.7l4.3,1.8c0.6,0.3,0.9,1,0.7,1.6l-2.4,5.7C167.4,38.3,166.7,38.6,166,38.3z"/>
		<path fill="#F2F2F2" stroke="#666666" stroke-linejoin="round" d="M158.5,35.1l-0.1-0.1c-0.6-0.3-0.9-1-0.7-1.6l2.4-5.7
			c0.3-0.6,1-0.9,1.6-0.7l0.1,0.1c0.6,0.3,0.9,1,0.7,1.6l-2.4,5.7C159.9,35.1,159.1,35.4,158.5,35.1z"/>
		<path fill="#F2F2F2" stroke="#666666" stroke-linejoin="round" d="M186.8,73.2l-1.8,4.3c-0.3,0.6-1,0.9-1.6,0.7l-5.7-2.4
			c-0.6-0.3-0.9-1-0.7-1.6l1.8-4.3c0.3-0.6,1-0.9,1.6-0.7l5.7,2.4C186.7,71.8,187,72.5,186.8,73.2z"/>
		<path fill="#F2F2F2" stroke="#666666" stroke-linejoin="round" d="M183.6,80.7l-0.1,0.1c-0.3,0.6-1,0.9-1.6,0.7l-5.7-2.4
			c-0.6-0.3-0.9-1-0.7-1.6l0.1-0.1c0.3-0.6,1-0.9,1.6-0.7l5.7,2.4C183.6,79.3,183.9,80.1,183.6,80.7z"/>
		<path fill="#F2F2F2" stroke="#666666" stroke-linejoin="round" d="M221.5,52.2l4.3,1.8c0.6,0.3,0.9,1,0.7,1.6l-2.4,5.7
			c-0.3,0.6-1,0.9-1.6,0.7l-4.3-1.8c-0.6-0.3-0.9-1-0.7-1.6l2.4-5.7C220.2,52.3,220.9,52,221.5,52.2z"/>
		<path fill="#F2F2F2" stroke="#666666" stroke-linejoin="round" d="M229.1,55.4l0.1,0.1c0.6,0.3,0.9,1,0.7,1.6l-2.4,5.7
			c-0.3,0.6-1,0.9-1.6,0.7l-0.1-0.1c-0.6-0.3-0.9-1-0.7-1.6l2.4-5.7C227.7,55.4,228.4,55.1,229.1,55.4z"/>
		<path fill="#F2F2F2" stroke="#666666" stroke-linejoin="round" d="M211.4,22.5l3.4-3.2c0.5-0.5,1.3-0.5,1.8,0l4.3,4.5
			c0.5,0.5,0.5,1.3,0,1.8l-3.4,3.2c-0.5,0.5-1.3,0.5-1.8,0l-4.3-4.5C210.8,23.8,210.9,23,211.4,22.5z"/>
		<path fill="#F2F2F2" stroke="#666666" stroke-linejoin="round" d="M217.3,16.9l0.1-0.1c0.5-0.5,1.3-0.5,1.8,0l4.3,4.5
			c0.5,0.5,0.5,1.3,0,1.8l-0.1,0.1c-0.5,0.5-1.3,0.5-1.8,0l-4.3-4.5C216.8,18.1,216.8,17.3,217.3,16.9z"/>
		<path fill="#F2F2F2" stroke="#666666" stroke-linejoin="round" d="M171.1,27.8l-3.2-3.4c-0.5-0.5-0.5-1.3,0-1.8l4.5-4.3
			c0.5-0.5,1.3-0.5,1.8,0l3.2,3.4c0.5,0.5,0.5,1.3,0,1.8l-4.5,4.3C172.4,28.3,171.6,28.3,171.1,27.8z"/>
		<path fill="#F2F2F2" stroke="#666666" stroke-linejoin="round" d="M165.5,21.9l-0.1-0.1c-0.5-0.5-0.5-1.3,0-1.8l4.5-4.3
			c0.5-0.5,1.3-0.5,1.8,0l0.1,0.1c0.5,0.5,0.5,1.3,0,1.8l-4.5,4.3C166.7,22.4,165.9,22.4,165.5,21.9z"/>
		<path fill="#F2F2F2" stroke="#666666" stroke-linejoin="round" d="M176.2,68.1l-3.4,3.2c-0.5,0.5-1.3,0.5-1.8,0l-4.3-4.5
			c-0.5-0.5-0.5-1.3,0-1.8l3.4-3.2c0.5-0.5,1.3-0.5,1.8,0l4.3,4.5C176.7,66.8,176.7,67.6,176.2,68.1z"/>
		<path fill="#F2F2F2" stroke="#666666" stroke-linejoin="round" d="M170.3,73.7l-0.1,0.1c-0.5,0.5-1.3,0.5-1.8,0l-4.3-4.5
			c-0.5-0.5-0.5-1.3,0-1.8l0.1-0.1c0.5-0.5,1.3-0.5,1.8,0l4.3,4.5C170.8,72.4,170.8,73.2,170.3,73.7z"/>
		<path fill="#F2F2F2" stroke="#666666" stroke-linejoin="round" d="M216.5,62.7l3.2,3.4c0.5,0.5,0.5,1.3,0,1.8l-4.5,4.3
			c-0.5,0.5-1.3,0.5-1.8,0l-3.2-3.4c-0.5-0.5-0.5-1.3,0-1.8l4.5-4.3C215.2,62.2,216,62.2,216.5,62.7z"/>
		<path fill="#F2F2F2" stroke="#666666" stroke-linejoin="round" d="M222.1,68.6l0.1,0.1c0.5,0.5,0.5,1.3,0,1.8l-4.5,4.3
			c-0.5,0.5-1.3,0.5-1.8,0l-0.1-0.1c-0.5-0.5-0.5-1.3,0-1.8l4.5-4.3C220.8,68.1,221.6,68.1,222.1,68.6z"/>
		<path fill="#F2F2F2" stroke="#666666" stroke-linejoin="round" d="M218.6,30.7l4.3-1.7c0.6-0.3,1.4,0.1,1.6,0.7l2.3,5.8
			c0.3,0.6-0.1,1.4-0.7,1.6l-4.3,1.7c-0.6,0.3-1.4-0.1-1.6-0.7l-2.3-5.8C217.6,31.7,217.9,30.9,218.6,30.7z"/>
		<path fill="#F2F2F2" stroke="#666666" stroke-linejoin="round" d="M226.2,27.6l0.1-0.1c0.6-0.3,1.4,0.1,1.6,0.7l2.3,5.8
			c0.3,0.6-0.1,1.4-0.7,1.6l-0.1,0.1c-0.6,0.3-1.4-0.1-1.6-0.7l-2.3-5.8C225.2,28.6,225.5,27.9,226.2,27.6z"/>
		<path fill="#F2F2F2" stroke="#666666" stroke-linejoin="round" d="M179.3,20.6l-1.7-4.3c-0.3-0.6,0.1-1.4,0.7-1.6l5.8-2.3
			c0.6-0.3,1.4,0.1,1.6,0.7l1.7,4.3c0.3,0.6-0.1,1.4-0.7,1.6l-5.8,2.3C180.2,21.6,179.5,21.3,179.3,20.6z"/>
		<path fill="#F2F2F2" stroke="#666666" stroke-linejoin="round" d="M176.2,13l-0.1-0.1c-0.3-0.6,0.1-1.4,0.7-1.6l5.8-2.3
			c0.6-0.3,1.4,0.1,1.6,0.7l0.1,0.1c0.3,0.6-0.1,1.4-0.7,1.6l-5.8,2.3C177.2,14,176.5,13.7,176.2,13z"/>
		<path fill="#F2F2F2" stroke="#666666" stroke-linejoin="round" d="M169,59.9l-4.3,1.7c-0.6,0.3-1.4-0.1-1.6-0.7l-2.3-5.8
			c-0.3-0.6,0.1-1.4,0.7-1.6l4.3-1.7c0.6-0.3,1.4,0.1,1.6,0.7l2.3,5.8C169.9,58.9,169.6,59.6,169,59.9z"/>
		<path fill="#F2F2F2" stroke="#666666" stroke-linejoin="round" d="M161.4,62.9l-0.1,0.1c-0.6,0.3-1.4-0.1-1.6-0.7l-2.3-5.8
			c-0.3-0.6,0.1-1.4,0.7-1.6l0.1-0.1c0.6-0.3,1.4,0.1,1.6,0.7l2.3,5.8C162.3,61.9,162,62.6,161.4,62.9z"/>
		<path fill="#F2F2F2" stroke="#666666" stroke-linejoin="round" d="M208.3,69.9l1.7,4.3c0.3,0.6-0.1,1.4-0.7,1.6l-5.8,2.3
			c-0.6,0.3-1.4-0.1-1.6-0.7l-1.7-4.3c-0.3-0.6,0.1-1.4,0.7-1.6l5.8-2.3C207.3,69,208.1,69.3,208.3,69.9z"/>
		<path fill="#F2F2F2" stroke="#666666" stroke-linejoin="round" d="M211.4,77.5l0.1,0.1c0.3,0.6-0.1,1.4-0.7,1.6l-5.8,2.3
			c-0.6,0.3-1.4-0.1-1.6-0.7l-0.1-0.1c-0.3-0.6,0.1-1.4,0.7-1.6l5.8-2.3C210.4,76.6,211.1,76.9,211.4,77.5z"/>
		<circle fill="#F2F2F2" stroke="#666666" stroke-linejoin="round" cx="288.4" cy="160.2" r="24.1"/>
		<path fill="#F2F2F2" stroke="#666666" stroke-linejoin="round" d="M284,131.8v-4.6c0-0.7,0.6-1.2,1.2-1.2h6.2
			c0.7,0,1.2,0.6,1.2,1.2v4.6c0,0.7-0.6,1.2-1.2,1.2h-6.2C284.6,133,284,132.5,284,131.8z"/>
		<path fill="#F2F2F2" stroke="#666666" stroke-linejoin="round" d="M284,123.6v-0.2c0-0.7,0.6-1.2,1.2-1.2h6.2
			c0.7,0,1.2,0.6,1.2,1.2v0.2c0,0.7-0.6,1.2-1.2,1.2h-6.2C284.6,124.9,284,124.3,284,123.6z"/>
		<path fill="#F2F2F2" stroke="#666666" stroke-linejoin="round" d="M260.1,164.6h-4.6c-0.7,0-1.2-0.6-1.2-1.2v-6.2
			c0-0.7,0.6-1.2,1.2-1.2h4.6c0.7,0,1.2,0.6,1.2,1.2v6.2C261.3,164,260.8,164.6,260.1,164.6z"/>
		<path fill="#F2F2F2" stroke="#666666" stroke-linejoin="round" d="M251.9,164.6h-0.2c-0.7,0-1.2-0.6-1.2-1.2v-6.2
			c0-0.7,0.6-1.2,1.2-1.2h0.2c0.7,0,1.2,0.6,1.2,1.2v6.2C253.2,164,252.6,164.6,251.9,164.6z"/>
		<path fill="#F2F2F2" stroke="#666666" stroke-linejoin="round" d="M292.7,188.7v4.6c0,0.7-0.6,1.2-1.2,1.2h-6.2
			c-0.7,0-1.2-0.6-1.2-1.2v-4.6c0-0.7,0.6-1.2,1.2-1.2h6.2C292.2,187.4,292.7,188,292.7,188.7z"/>
		<path fill="#F2F2F2" stroke="#666666" stroke-linejoin="round" d="M292.7,196.9v0.2c0,0.7-0.6,1.2-1.2,1.2h-6.2
			c-0.7,0-1.2-0.6-1.2-1.2v-0.2c0-0.7,0.6-1.2,1.2-1.2h6.2C292.2,195.6,292.7,196.2,292.7,196.9z"/>
		<path fill="#F2F2F2" stroke="#666666" stroke-linejoin="round" d="M316.7,155.9h4.6c0.7,0,1.2,0.6,1.2,1.2v6.2
			c0,0.7-0.6,1.2-1.2,1.2h-4.6c-0.7,0-1.2-0.6-1.2-1.2v-6.2C315.4,156.4,316,155.9,316.7,155.9z"/>
		<path fill="#F2F2F2" stroke="#666666" stroke-linejoin="round" d="M324.8,155.9h0.2c0.7,0,1.2,0.6,1.2,1.2v6.2
			c0,0.7-0.6,1.2-1.2,1.2h-0.2c-0.7,0-1.2-0.6-1.2-1.2v-6.2C323.6,156.4,324.2,155.9,324.8,155.9z"/>
		<path fill="#F2F2F2" stroke="#666666" stroke-linejoin="round" d="M295.4,132.3l1.8-4.3c0.3-0.6,1-0.9,1.6-0.7l5.7,2.4
			c0.6,0.3,0.9,1,0.7,1.6l-1.8,4.3c-0.3,0.6-1,0.9-1.6,0.7l-5.7-2.4C295.4,133.7,295.1,133,295.4,132.3z"/>
		<path fill="#F2F2F2" stroke="#666666" stroke-linejoin="round" d="M298.6,124.8l0.1-0.1c0.3-0.6,1-0.9,1.6-0.7l5.7,2.4
			c0.6,0.3,0.9,1,0.7,1.6l-0.1,0.1c-0.3,0.6-1,0.9-1.6,0.7l-5.7-2.4C298.6,126.2,298.3,125.4,298.6,124.8z"/>
		<path fill="#F2F2F2" stroke="#666666" stroke-linejoin="round" d="M260.6,153.3l-4.3-1.8c-0.6-0.3-0.9-1-0.7-1.6l2.4-5.7
			c0.3-0.6,1-0.9,1.6-0.7l4.3,1.8c0.6,0.3,0.9,1,0.7,1.6l-2.4,5.7C262,153.2,261.3,153.5,260.6,153.3z"/>
		<path fill="#F2F2F2" stroke="#666666" stroke-linejoin="round" d="M253.1,150.1l-0.1-0.1c-0.6-0.3-0.9-1-0.7-1.6l2.4-5.7
			c0.3-0.6,1-0.9,1.6-0.7l0.1,0.1c0.6,0.3,0.9,1,0.7,1.6l-2.4,5.7C254.5,150.1,253.7,150.4,253.1,150.1z"/>
		<path fill="#F2F2F2" stroke="#666666" stroke-linejoin="round" d="M281.4,188.1l-1.8,4.3c-0.3,0.6-1,0.9-1.6,0.7l-5.7-2.4
			c-0.6-0.3-0.9-1-0.7-1.6l1.8-4.3c0.3-0.6,1-0.9,1.6-0.7l5.7,2.4C281.3,186.8,281.6,187.5,281.4,188.1z"/>
		<path fill="#F2F2F2" stroke="#666666" stroke-linejoin="round" d="M278.2,195.7l-0.1,0.1c-0.3,0.6-1,0.9-1.6,0.7l-5.7-2.4
			c-0.6-0.3-0.9-1-0.7-1.6l0.1-0.1c0.3-0.6,1-0.9,1.6-0.7l5.7,2.4C278.2,194.3,278.5,195,278.2,195.7z"/>
		<path fill="#F2F2F2" stroke="#666666" stroke-linejoin="round" d="M316.1,167.2l4.3,1.8c0.6,0.3,0.9,1,0.7,1.6l-2.4,5.7
			c-0.3,0.6-1,0.9-1.6,0.7l-4.3-1.8c-0.6-0.3-0.9-1-0.7-1.6l2.4-5.7C314.8,167.2,315.5,166.9,316.1,167.2z"/>
		<path fill="#F2F2F2" stroke="#666666" stroke-linejoin="round" d="M323.7,170.4l0.1,0.1c0.6,0.3,0.9,1,0.7,1.6l-2.4,5.7
			c-0.3,0.6-1,0.9-1.6,0.7l-0.1-0.1c-0.6-0.3-0.9-1-0.7-1.6l2.4-5.7C322.3,170.4,323,170.1,323.7,170.4z"/>
		<path fill="#F2F2F2" stroke="#666666" stroke-linejoin="round" d="M305.9,137.5l3.4-3.2c0.5-0.5,1.3-0.5,1.8,0l4.3,4.5
			c0.5,0.5,0.5,1.3,0,1.8l-3.4,3.2c-0.5,0.5-1.3,0.5-1.8,0l-4.3-4.5C305.4,138.7,305.5,137.9,305.9,137.5z"/>
		<path fill="#F2F2F2" stroke="#666666" stroke-linejoin="round" d="M311.9,131.8l0.1-0.1c0.5-0.5,1.3-0.5,1.8,0l4.3,4.5
			c0.5,0.5,0.5,1.3,0,1.8l-0.1,0.1c-0.5,0.5-1.3,0.5-1.8,0l-4.3-4.5C311.3,133.1,311.4,132.3,311.9,131.8z"/>
		<path fill="#F2F2F2" stroke="#666666" stroke-linejoin="round" d="M265.7,142.8l-3.2-3.4c-0.5-0.5-0.5-1.3,0-1.8l4.5-4.3
			c0.5-0.5,1.3-0.5,1.8,0l3.2,3.4c0.5,0.5,0.5,1.3,0,1.8l-4.5,4.3C267,143.3,266.2,143.3,265.7,142.8z"/>
		<path fill="#F2F2F2" stroke="#666666" stroke-linejoin="round" d="M260.1,136.9l-0.1-0.1c-0.5-0.5-0.5-1.3,0-1.8l4.5-4.3
			c0.5-0.5,1.3-0.5,1.8,0l0.1,0.1c0.5,0.5,0.5,1.3,0,1.8l-4.5,4.3C261.3,137.4,260.5,137.4,260.1,136.9z"/>
		<path fill="#F2F2F2" stroke="#666666" stroke-linejoin="round" d="M270.8,183l-3.4,3.2c-0.5,0.5-1.3,0.5-1.8,0l-4.3-4.5
			c-0.5-0.5-0.5-1.3,0-1.8l3.4-3.2c0.5-0.5,1.3-0.5,1.8,0l4.3,4.5C271.3,181.8,271.3,182.5,270.8,183z"/>
		<path fill="#F2F2F2" stroke="#666666" stroke-linejoin="round" d="M264.9,188.7l-0.1,0.1c-0.5,0.5-1.3,0.5-1.8,0l-4.3-4.5
			c-0.5-0.5-0.5-1.3,0-1.8l0.1-0.1c0.5-0.5,1.3-0.5,1.8,0l4.3,4.5C265.4,187.4,265.4,188.2,264.9,188.7z"/>
		<path fill="#F2F2F2" stroke="#666666" stroke-linejoin="round" d="M311,177.7l3.2,3.4c0.5,0.5,0.5,1.3,0,1.8l-4.5,4.3
			c-0.5,0.5-1.3,0.5-1.8,0l-3.2-3.4c-0.5-0.5-0.5-1.3,0-1.8l4.5-4.3C309.8,177.2,310.6,177.2,311,177.7z"/>
		<path fill="#F2F2F2" stroke="#666666" stroke-linejoin="round" d="M316.7,183.6l0.1,0.1c0.5,0.5,0.5,1.3,0,1.8l-4.5,4.3
			c-0.5,0.5-1.3,0.5-1.8,0l-0.1-0.1c-0.5-0.5-0.5-1.3,0-1.8l4.5-4.3C315.4,183.1,316.2,183.1,316.7,183.6z"/>
		<path fill="#F2F2F2" stroke="#666666" stroke-linejoin="round" d="M313.2,145.6l4.3-1.7c0.6-0.3,1.4,0.1,1.6,0.7l2.3,5.8
			c0.3,0.6-0.1,1.4-0.7,1.6l-4.3,1.7c-0.6,0.3-1.4-0.1-1.6-0.7l-2.3-5.8C312.2,146.6,312.5,145.9,313.2,145.6z"/>
		<path fill="#F2F2F2" stroke="#666666" stroke-linejoin="round" d="M320.8,142.6l0.1-0.1c0.6-0.3,1.4,0.1,1.6,0.7l2.3,5.8
			c0.3,0.6-0.1,1.4-0.7,1.6l-0.1,0.1c-0.6,0.3-1.4-0.1-1.6-0.7l-2.3-5.8C319.8,143.6,320.1,142.9,320.8,142.6z"/>
		<path fill="#F2F2F2" stroke="#666666" stroke-linejoin="round" d="M273.8,135.6l-1.7-4.3c-0.3-0.6,0.1-1.4,0.7-1.6l5.8-2.3
			c0.6-0.3,1.4,0.1,1.6,0.7l1.7,4.3c0.3,0.6-0.1,1.4-0.7,1.6l-5.8,2.3C274.8,136.5,274.1,136.2,273.8,135.6z"/>
		<path fill="#F2F2F2" stroke="#666666" stroke-linejoin="round" d="M270.8,128l-0.1-0.1c-0.3-0.6,0.1-1.4,0.7-1.6l5.8-2.3
			c0.6-0.3,1.4,0.1,1.6,0.7l0.1,0.1c0.3,0.6-0.1,1.4-0.7,1.6l-5.8,2.3C271.8,129,271.1,128.6,270.8,128z"/>
		<path fill="#F2F2F2" stroke="#666666" stroke-linejoin="round" d="M263.6,174.8l-4.3,1.7c-0.6,0.3-1.4-0.1-1.6-0.7l-2.3-5.8
			c-0.3-0.6,0.1-1.4,0.7-1.6l4.3-1.7c0.6-0.3,1.4,0.1,1.6,0.7l2.3,5.8C264.5,173.9,264.2,174.6,263.6,174.8z"/>
		<path fill="#F2F2F2" stroke="#666666" stroke-linejoin="round" d="M256,177.9l-0.1,0.1c-0.6,0.3-1.4-0.1-1.6-0.7l-2.3-5.8
			c-0.3-0.6,0.1-1.4,0.7-1.6l0.1-0.1c0.6-0.3,1.4,0.1,1.6,0.7l2.3,5.8C256.9,176.9,256.6,177.6,256,177.9z"/>
		<path fill="#F2F2F2" stroke="#666666" stroke-linejoin="round" d="M302.5,184.5l1.7,4.3c0.3,0.6-0.1,1.4-0.7,1.6l-5.8,2.3
			c-0.6,0.3-1.4-0.1-1.6-0.7l-1.7-4.3c-0.3-0.6,0.1-1.4,0.7-1.6l5.8-2.3C301.5,183.6,302.2,183.9,302.5,184.5z"/>
		<path fill="#F2F2F2" stroke="#666666" stroke-linejoin="round" d="M306,192.5l0.1,0.1c0.3,0.6-0.1,1.4-0.7,1.6l-5.8,2.3
			c-0.6,0.3-1.4-0.1-1.6-0.7l-0.1-0.1c-0.3-0.6,0.1-1.4,0.7-1.6l5.8-2.3C305,191.5,305.7,191.8,306,192.5z"/>
		<circle fill="#F2F2F2" stroke="#666666" stroke-linejoin="round" cx="288.4" cy="45.3" r="24.1"/>
		<path fill="#F2F2F2" stroke="#666666" stroke-linejoin="round" d="M284,16.8v-4.6c0-0.7,0.6-1.2,1.2-1.2h6.2
			c0.7,0,1.2,0.6,1.2,1.2v4.6c0,0.7-0.6,1.2-1.2,1.2h-6.2C284.6,18.1,284,17.5,284,16.8z"/>
		<path fill="#F2F2F2" stroke="#666666" stroke-linejoin="round" d="M284,8.7V8.5c0-0.7,0.6-1.2,1.2-1.2h6.2c0.7,0,1.2,0.6,1.2,1.2
			v0.2c0,0.7-0.6,1.2-1.2,1.2h-6.2C284.6,9.9,284,9.3,284,8.7z"/>
		<path fill="#F2F2F2" stroke="#666666" stroke-linejoin="round" d="M260.1,49.6h-4.6c-0.7,0-1.2-0.6-1.2-1.2v-6.2
			c0-0.7,0.6-1.2,1.2-1.2h4.6c0.7,0,1.2,0.6,1.2,1.2v6.2C261.3,49.1,260.8,49.6,260.1,49.6z"/>
		<path fill="#F2F2F2" stroke="#666666" stroke-linejoin="round" d="M251.9,49.6h-0.2c-0.7,0-1.2-0.6-1.2-1.2v-6.2
			c0-0.7,0.6-1.2,1.2-1.2h0.2c0.7,0,1.2,0.6,1.2,1.2v6.2C253.2,49.1,252.6,49.6,251.9,49.6z"/>
		<path fill="#F2F2F2" stroke="#666666" stroke-linejoin="round" d="M292.7,73.7v4.6c0,0.7-0.6,1.2-1.2,1.2h-6.2
			c-0.7,0-1.2-0.6-1.2-1.2v-4.6c0-0.7,0.6-1.2,1.2-1.2h6.2C292.2,72.5,292.7,73,292.7,73.7z"/>
		<path fill="#F2F2F2" stroke="#666666" stroke-linejoin="round" d="M292.7,81.9v0.2c0,0.7-0.6,1.2-1.2,1.2h-6.2
			c-0.7,0-1.2-0.6-1.2-1.2v-0.2c0-0.7,0.6-1.2,1.2-1.2h6.2C292.2,80.6,292.7,81.2,292.7,81.9z"/>
		<path fill="#F2F2F2" stroke="#666666" stroke-linejoin="round" d="M316.7,40.9h4.6c0.7,0,1.2,0.6,1.2,1.2v6.2
			c0,0.7-0.6,1.2-1.2,1.2h-4.6c-0.7,0-1.2-0.6-1.2-1.2v-6.2C315.4,41.5,316,40.9,316.7,40.9z"/>
		<path fill="#F2F2F2" stroke="#666666" stroke-linejoin="round" d="M324.8,40.9h0.2c0.7,0,1.2,0.6,1.2,1.2v6.2
			c0,0.7-0.6,1.2-1.2,1.2h-0.2c-0.7,0-1.2-0.6-1.2-1.2v-6.2C323.6,41.5,324.2,40.9,324.8,40.9z"/>
		<path fill="#F2F2F2" stroke="#666666" stroke-linejoin="round" d="M295.4,17.4l1.8-4.3c0.3-0.6,1-0.9,1.6-0.7l5.7,2.4
			c0.6,0.3,0.9,1,0.7,1.6l-1.8,4.3c-0.3,0.6-1,0.9-1.6,0.7l-5.7-2.4C295.4,18.7,295.1,18,295.4,17.4z"/>
		<path fill="#F2F2F2" stroke="#666666" stroke-linejoin="round" d="M298.5,10.7l0.1-0.1c0.3-0.6,1-0.9,1.6-0.7l5.7,2.4
			c0.6,0.3,0.9,1,0.7,1.6l-0.1,0.1c-0.3,0.6-1,0.9-1.6,0.7l-5.7-2.4C298.5,12.1,298.2,11.4,298.5,10.7z"/>
		<path fill="#F2F2F2" stroke="#666666" stroke-linejoin="round" d="M260.6,38.3l-4.3-1.8c-0.6-0.3-0.9-1-0.7-1.6l2.4-5.7
			c0.3-0.6,1-0.9,1.6-0.7l4.3,1.8c0.6,0.3,0.9,1,0.7,1.6l-2.4,5.7C262,38.3,261.3,38.6,260.6,38.3z"/>
		<path fill="#F2F2F2" stroke="#666666" stroke-linejoin="round" d="M253.1,35.1l-0.1-0.1c-0.6-0.3-0.9-1-0.7-1.6l2.4-5.7
			c0.3-0.6,1-0.9,1.6-0.7l0.1,0.1c0.6,0.3,0.9,1,0.7,1.6l-2.4,5.7C254.5,35.1,253.7,35.4,253.1,35.1z"/>
		<path fill="#F2F2F2" stroke="#666666" stroke-linejoin="round" d="M281.4,73.2l-1.8,4.3c-0.3,0.6-1,0.9-1.6,0.7l-5.7-2.4
			c-0.6-0.3-0.9-1-0.7-1.6l1.8-4.3c0.3-0.6,1-0.9,1.6-0.7l5.7,2.4C281.3,71.8,281.6,72.5,281.4,73.2z"/>
		<path fill="#F2F2F2" stroke="#666666" stroke-linejoin="round" d="M278.2,80.7l-0.1,0.1c-0.3,0.6-1,0.9-1.6,0.7l-5.7-2.4
			c-0.6-0.3-0.9-1-0.7-1.6l0.1-0.1c0.3-0.6,1-0.9,1.6-0.7l5.7,2.4C278.2,79.3,278.5,80.1,278.2,80.7z"/>
		<path fill="#F2F2F2" stroke="#666666" stroke-linejoin="round" d="M316.1,52.2l4.3,1.8c0.6,0.3,0.9,1,0.7,1.6l-2.4,5.7
			c-0.3,0.6-1,0.9-1.6,0.7l-4.3-1.8c-0.6-0.3-0.9-1-0.7-1.6l2.4-5.7C314.8,52.3,315.5,52,316.1,52.2z"/>
		<path fill="#F2F2F2" stroke="#666666" stroke-linejoin="round" d="M323.7,55.4l0.1,0.1c0.6,0.3,0.9,1,0.7,1.6l-2.4,5.7
			c-0.3,0.6-1,0.9-1.6,0.7l-0.1-0.1c-0.6-0.3-0.9-1-0.7-1.6l2.4-5.7C322.3,55.4,323,55.1,323.7,55.4z"/>
		<path fill="#F2F2F2" stroke="#666666" stroke-linejoin="round" d="M306,22.5l3.4-3.2c0.5-0.5,1.3-0.5,1.8,0l4.3,4.5
			c0.5,0.5,0.5,1.3,0,1.8l-3.4,3.2c-0.5,0.5-1.3,0.5-1.8,0l-4.3-4.5C305.4,23.8,305.5,23,306,22.5z"/>
		<path fill="#F2F2F2" stroke="#666666" stroke-linejoin="round" d="M311.9,16.9l0.1-0.1c0.5-0.5,1.3-0.5,1.8,0l4.3,4.5
			c0.5,0.5,0.5,1.3,0,1.8l-0.1,0.1c-0.5,0.5-1.3,0.5-1.8,0l-4.3-4.5C311.3,18.1,311.4,17.3,311.9,16.9z"/>
		<path fill="#F2F2F2" stroke="#666666" stroke-linejoin="round" d="M265.7,27.8l-3.2-3.4c-0.5-0.5-0.5-1.3,0-1.8l4.5-4.3
			c0.5-0.5,1.3-0.5,1.8,0l3.2,3.4c0.5,0.5,0.5,1.3,0,1.8l-4.5,4.3C267,28.3,266.2,28.3,265.7,27.8z"/>
		<path fill="#F2F2F2" stroke="#666666" stroke-linejoin="round" d="M260.1,21.9l-0.1-0.1c-0.5-0.5-0.5-1.3,0-1.8l4.5-4.3
			c0.5-0.5,1.3-0.5,1.8,0l0.1,0.1c0.5,0.5,0.5,1.3,0,1.8l-4.5,4.3C261.3,22.4,260.5,22.4,260.1,21.9z"/>
		<path fill="#F2F2F2" stroke="#666666" stroke-linejoin="round" d="M270.8,68.1l-3.4,3.2c-0.5,0.5-1.3,0.5-1.8,0l-4.3-4.5
			c-0.5-0.5-0.5-1.3,0-1.8l3.4-3.2c0.5-0.5,1.3-0.5,1.8,0l4.3,4.5C271.3,66.8,271.3,67.6,270.8,68.1z"/>
		<path fill="#F2F2F2" stroke="#666666" stroke-linejoin="round" d="M264.9,73.7l-0.1,0.1c-0.5,0.5-1.3,0.5-1.8,0l-4.3-4.5
			c-0.5-0.5-0.5-1.3,0-1.8l0.1-0.1c0.5-0.5,1.3-0.5,1.8,0l4.3,4.5C265.4,72.4,265.4,73.2,264.9,73.7z"/>
		<path fill="#F2F2F2" stroke="#666666" stroke-linejoin="round" d="M311,62.7l3.2,3.4c0.5,0.5,0.5,1.3,0,1.8l-4.5,4.3
			c-0.5,0.5-1.3,0.5-1.8,0l-3.2-3.4c-0.5-0.5-0.5-1.3,0-1.8l4.5-4.3C309.8,62.2,310.6,62.2,311,62.7z"/>
		<path fill="#F2F2F2" stroke="#666666" stroke-linejoin="round" d="M316.7,68.6l0.1,0.1c0.5,0.5,0.5,1.3,0,1.8l-4.5,4.3
			c-0.5,0.5-1.3,0.5-1.8,0l-0.1-0.1c-0.5-0.5-0.5-1.3,0-1.8l4.5-4.3C315.4,68.1,316.2,68.1,316.7,68.6z"/>
		<path fill="#F2F2F2" stroke="#666666" stroke-linejoin="round" d="M313.2,30.7l4.3-1.7c0.6-0.3,1.4,0.1,1.6,0.7l2.3,5.8
			c0.3,0.6-0.1,1.4-0.7,1.6l-4.3,1.7c-0.6,0.3-1.4-0.1-1.6-0.7l-2.3-5.8C312.2,31.7,312.5,30.9,313.2,30.7z"/>
		<path fill="#F2F2F2" stroke="#666666" stroke-linejoin="round" d="M320.8,27.6l0.1-0.1c0.6-0.3,1.4,0.1,1.6,0.7l2.3,5.8
			c0.3,0.6-0.1,1.4-0.7,1.6l-0.1,0.1c-0.6,0.3-1.4-0.1-1.6-0.7l-2.3-5.8C319.8,28.6,320.1,27.9,320.8,27.6z"/>
		<path fill="#F2F2F2" stroke="#666666" stroke-linejoin="round" d="M274.5,20.7l-1.7-4.3c-0.3-0.6,0.1-1.4,0.7-1.6l5.8-2.3
			c0.6-0.3,1.4,0.1,1.6,0.7l1.7,4.3c0.3,0.6-0.1,1.4-0.7,1.6l-5.8,2.3C275.4,21.6,274.7,21.3,274.5,20.7z"/>
		<path fill="#F2F2F2" stroke="#666666" stroke-linejoin="round" d="M270.8,13l-0.1-0.1c-0.3-0.6,0.1-1.4,0.7-1.6l5.8-2.3
			c0.6-0.3,1.4,0.1,1.6,0.7l0.1,0.1c0.3,0.6-0.1,1.4-0.7,1.6l-5.8,2.3C271.8,14,271.1,13.7,270.8,13z"/>
		<path fill="#F2F2F2" stroke="#666666" stroke-linejoin="round" d="M263.6,59.9l-4.3,1.7c-0.6,0.3-1.4-0.1-1.6-0.7l-2.3-5.8
			c-0.3-0.6,0.1-1.4,0.7-1.6l4.3-1.7c0.6-0.3,1.4,0.1,1.6,0.7l2.3,5.8C264.5,58.9,264.2,59.6,263.6,59.9z"/>
		<path fill="#F2F2F2" stroke="#666666" stroke-linejoin="round" d="M256,62.9l-0.1,0.1c-0.6,0.3-1.4-0.1-1.6-0.7l-2.3-5.8
			c-0.3-0.6,0.1-1.4,0.7-1.6l0.1-0.1c0.6-0.3,1.4,0.1,1.6,0.7l2.3,5.8C256.9,61.9,256.6,62.6,256,62.9z"/>
		<path fill="#F2F2F2" stroke="#666666" stroke-linejoin="round" d="M302.3,69.7l1.7,4.3c0.3,0.6-0.1,1.4-0.7,1.6l-5.8,2.3
			c-0.6,0.3-1.4-0.1-1.6-0.7l-1.7-4.3c-0.3-0.6,0.1-1.4,0.7-1.6l5.8-2.3C301.4,68.8,302.1,69.1,302.3,69.7z"/>
		<path fill="#F2F2F2" stroke="#666666" stroke-linejoin="round" d="M305.9,77.5l0.1,0.1c0.3,0.6-0.1,1.4-0.7,1.6l-5.8,2.3
			c-0.6,0.3-1.4-0.1-1.6-0.7l-0.1-0.1c-0.3-0.6,0.1-1.4,0.7-1.6l5.8-2.3C305,76.6,305.7,76.9,305.9,77.5z"/>
		<circle fill="#F2F2F2" stroke="#666666" stroke-linejoin="round" cx="385.7" cy="160.2" r="24.1"/>
		<path fill="#F2F2F2" stroke="#666666" stroke-linejoin="round" d="M381.4,131.8v-4.6c0-0.7,0.6-1.2,1.2-1.2h6.2
			c0.7,0,1.2,0.6,1.2,1.2v4.6c0,0.7-0.6,1.2-1.2,1.2h-6.2C381.9,133,381.4,132.5,381.4,131.8z"/>
		<path fill="#F2F2F2" stroke="#666666" stroke-linejoin="round" d="M381.4,123.6v-0.2c0-0.7,0.6-1.2,1.2-1.2h6.2
			c0.7,0,1.2,0.6,1.2,1.2v0.2c0,0.7-0.6,1.2-1.2,1.2h-6.2C381.9,124.9,381.4,124.3,381.4,123.6z"/>
		<path fill="#F2F2F2" stroke="#666666" stroke-linejoin="round" d="M357.4,164.6h-4.6c-0.7,0-1.2-0.6-1.2-1.2v-6.2
			c0-0.7,0.6-1.2,1.2-1.2h4.6c0.7,0,1.2,0.6,1.2,1.2v6.2C358.7,164,358.1,164.6,357.4,164.6z"/>
		<path fill="#F2F2F2" stroke="#666666" stroke-linejoin="round" d="M349.3,164.6h-0.2c-0.7,0-1.2-0.6-1.2-1.2v-6.2
			c0-0.7,0.6-1.2,1.2-1.2h0.2c0.7,0,1.2,0.6,1.2,1.2v6.2C350.5,164,350,164.6,349.3,164.6z"/>
		<path fill="#F2F2F2" stroke="#666666" stroke-linejoin="round" d="M390.1,188.7v4.6c0,0.7-0.6,1.2-1.2,1.2h-6.2
			c-0.7,0-1.2-0.6-1.2-1.2v-4.6c0-0.7,0.6-1.2,1.2-1.2h6.2C389.5,187.4,390.1,188,390.1,188.7z"/>
		<path fill="#F2F2F2" stroke="#666666" stroke-linejoin="round" d="M390.1,196.9v0.2c0,0.7-0.6,1.2-1.2,1.2h-6.2
			c-0.7,0-1.2-0.6-1.2-1.2v-0.2c0-0.7,0.6-1.2,1.2-1.2h6.2C389.5,195.6,390.1,196.2,390.1,196.9z"/>
		<path fill="#F2F2F2" stroke="#666666" stroke-linejoin="round" d="M414,155.9h4.6c0.7,0,1.2,0.6,1.2,1.2v6.2
			c0,0.7-0.6,1.2-1.2,1.2H414c-0.7,0-1.2-0.6-1.2-1.2v-6.2C412.8,156.4,413.3,155.9,414,155.9z"/>
		<path fill="#F2F2F2" stroke="#666666" stroke-linejoin="round" d="M422.2,155.9h0.2c0.7,0,1.2,0.6,1.2,1.2v6.2
			c0,0.7-0.6,1.2-1.2,1.2h-0.2c-0.7,0-1.2-0.6-1.2-1.2v-6.2C421,156.4,421.5,155.9,422.2,155.9z"/>
		<path fill="#F2F2F2" stroke="#666666" stroke-linejoin="round" d="M392.8,132.3l1.8-4.3c0.3-0.6,1-0.9,1.6-0.7l5.7,2.4
			c0.6,0.3,0.9,1,0.7,1.6l-1.8,4.3c-0.3,0.6-1,0.9-1.6,0.7l-5.7-2.4C392.8,133.7,392.5,133,392.8,132.3z"/>
		<path fill="#F2F2F2" stroke="#666666" stroke-linejoin="round" d="M395.9,124.8l0.1-0.1c0.3-0.6,1-0.9,1.6-0.7l5.7,2.4
			c0.6,0.3,0.9,1,0.7,1.6l-0.1,0.1c-0.3,0.6-1,0.9-1.6,0.7l-5.7-2.4C396,126.2,395.7,125.4,395.9,124.8z"/>
		<path fill="#F2F2F2" stroke="#666666" stroke-linejoin="round" d="M358,153.3l-4.3-1.8c-0.6-0.3-0.9-1-0.7-1.6l2.4-5.7
			c0.3-0.6,1-0.9,1.6-0.7l4.3,1.8c0.6,0.3,0.9,1,0.7,1.6l-2.4,5.7C359.3,153.2,358.6,153.5,358,153.3z"/>
		<path fill="#F2F2F2" stroke="#666666" stroke-linejoin="round" d="M350.5,150.1l-0.1-0.1c-0.6-0.3-0.9-1-0.7-1.6l2.4-5.7
			c0.3-0.6,1-0.9,1.6-0.7l0.1,0.1c0.6,0.3,0.9,1,0.7,1.6l-2.4,5.7C351.8,150.1,351.1,150.4,350.5,150.1z"/>
		<path fill="#F2F2F2" stroke="#666666" stroke-linejoin="round" d="M378.7,188.1l-1.8,4.3c-0.3,0.6-1,0.9-1.6,0.7l-5.7-2.4
			c-0.6-0.3-0.9-1-0.7-1.6l1.8-4.3c0.3-0.6,1-0.9,1.6-0.7l5.7,2.4C378.7,186.8,379,187.5,378.7,188.1z"/>
		<path fill="#F2F2F2" stroke="#666666" stroke-linejoin="round" d="M375.5,195.7l-0.1,0.1c-0.3,0.6-1,0.9-1.6,0.7l-5.7-2.4
			c-0.6-0.3-0.9-1-0.7-1.6l0.1-0.1c0.3-0.6,1-0.9,1.6-0.7l5.7,2.4C375.5,194.3,375.8,195,375.5,195.7z"/>
		<path fill="#F2F2F2" stroke="#666666" stroke-linejoin="round" d="M413.5,167.2l4.3,1.8c0.6,0.3,0.9,1,0.7,1.6l-2.4,5.7
			c-0.3,0.6-1,0.9-1.6,0.7l-4.3-1.8c-0.6-0.3-0.9-1-0.7-1.6l2.4-5.7C412.1,167.2,412.8,166.9,413.5,167.2z"/>
		<path fill="#F2F2F2" stroke="#666666" stroke-linejoin="round" d="M421,170.4l0.1,0.1c0.6,0.3,0.9,1,0.7,1.6l-2.4,5.7
			c-0.3,0.6-1,0.9-1.6,0.7l-0.1-0.1c-0.6-0.3-0.9-1-0.7-1.6l2.4-5.7C419.6,170.4,420.4,170.1,421,170.4z"/>
		<path fill="#F2F2F2" stroke="#666666" stroke-linejoin="round" d="M403.3,137.5l3.4-3.2c0.5-0.5,1.3-0.5,1.8,0l4.3,4.5
			c0.5,0.5,0.5,1.3,0,1.8l-3.4,3.2c-0.5,0.5-1.3,0.5-1.8,0l-4.3-4.5C402.8,138.7,402.8,137.9,403.3,137.5z"/>
		<path fill="#F2F2F2" stroke="#666666" stroke-linejoin="round" d="M409.2,131.8l0.1-0.1c0.5-0.5,1.3-0.5,1.8,0l4.3,4.5
			c0.5,0.5,0.5,1.3,0,1.8l-0.1,0.1c-0.5,0.5-1.3,0.5-1.8,0l-4.3-4.5C408.7,133.1,408.7,132.3,409.2,131.8z"/>
		<path fill="#F2F2F2" stroke="#666666" stroke-linejoin="round" d="M363.1,142.8l-3.2-3.4c-0.5-0.5-0.5-1.3,0-1.8l4.5-4.3
			c0.5-0.5,1.3-0.5,1.8,0l3.2,3.4c0.5,0.5,0.5,1.3,0,1.8l-4.5,4.3C364.3,143.3,363.5,143.3,363.1,142.8z"/>
		<path fill="#F2F2F2" stroke="#666666" stroke-linejoin="round" d="M357.4,136.9l-0.1-0.1c-0.5-0.5-0.5-1.3,0-1.8l4.5-4.3
			c0.5-0.5,1.3-0.5,1.8,0l0.1,0.1c0.5,0.5,0.5,1.3,0,1.8l-4.5,4.3C358.7,137.4,357.9,137.4,357.4,136.9z"/>
		<path fill="#F2F2F2" stroke="#666666" stroke-linejoin="round" d="M368.2,183l-3.4,3.2c-0.5,0.5-1.3,0.5-1.8,0l-4.3-4.5
			c-0.5-0.5-0.5-1.3,0-1.8l3.4-3.2c0.5-0.5,1.3-0.5,1.8,0l4.3,4.5C368.7,181.8,368.7,182.5,368.2,183z"/>
		<path fill="#F2F2F2" stroke="#666666" stroke-linejoin="round" d="M362.3,188.7l-0.1,0.1c-0.5,0.5-1.3,0.5-1.8,0l-4.3-4.5
			c-0.5-0.5-0.5-1.3,0-1.8l0.1-0.1c0.5-0.5,1.3-0.5,1.8,0l4.3,4.5C362.8,187.4,362.8,188.2,362.3,188.7z"/>
		<path fill="#F2F2F2" stroke="#666666" stroke-linejoin="round" d="M408.4,177.7l3.2,3.4c0.5,0.5,0.5,1.3,0,1.8l-4.5,4.3
			c-0.5,0.5-1.3,0.5-1.8,0l-3.2-3.4c-0.5-0.5-0.5-1.3,0-1.8l4.5-4.3C407.1,177.2,407.9,177.2,408.4,177.7z"/>
		<path fill="#F2F2F2" stroke="#666666" stroke-linejoin="round" d="M414,183.6l0.1,0.1c0.5,0.5,0.5,1.3,0,1.8l-4.5,4.3
			c-0.5,0.5-1.3,0.5-1.8,0l-0.1-0.1c-0.5-0.5-0.5-1.3,0-1.8l4.5-4.3C412.8,183.1,413.6,183.1,414,183.6z"/>
		<path fill="#F2F2F2" stroke="#666666" stroke-linejoin="round" d="M410.1,146.3l4.3-1.7c0.6-0.3,1.4,0.1,1.6,0.7l2.3,5.8
			c0.3,0.6-0.1,1.4-0.7,1.6l-4.3,1.7c-0.6,0.3-1.4-0.1-1.6-0.7l-2.3-5.8C409.2,147.3,409.5,146.5,410.1,146.3z"/>
		<path fill="#F2F2F2" stroke="#666666" stroke-linejoin="round" d="M418.1,142.6l0.1-0.1c0.6-0.3,1.4,0.1,1.6,0.7l2.3,5.8
			c0.3,0.6-0.1,1.4-0.7,1.6l-0.1,0.1c-0.6,0.3-1.4-0.1-1.6-0.7l-2.3-5.8C417.2,143.6,417.5,142.9,418.1,142.6z"/>
		<path fill="#F2F2F2" stroke="#666666" stroke-linejoin="round" d="M371.2,135.6l-1.7-4.3c-0.3-0.6,0.1-1.4,0.7-1.6l5.8-2.3
			c0.6-0.3,1.4,0.1,1.6,0.7l1.7,4.3c0.3,0.6-0.1,1.4-0.7,1.6l-5.8,2.3C372.2,136.5,371.5,136.2,371.2,135.6z"/>
		<path fill="#F2F2F2" stroke="#666666" stroke-linejoin="round" d="M368.2,128l-0.1-0.1c-0.3-0.6,0.1-1.4,0.7-1.6l5.8-2.3
			c0.6-0.3,1.4,0.1,1.6,0.7l0.1,0.1c0.3,0.6-0.1,1.4-0.7,1.6l-5.8,2.3C369.1,129,368.4,128.6,368.2,128z"/>
		<path fill="#F2F2F2" stroke="#666666" stroke-linejoin="round" d="M360.9,174.8l-4.3,1.7c-0.6,0.3-1.4-0.1-1.6-0.7l-2.3-5.8
			c-0.3-0.6,0.1-1.4,0.7-1.6l4.3-1.7c0.6-0.3,1.4,0.1,1.6,0.7l2.3,5.8C361.9,173.9,361.6,174.6,360.9,174.8z"/>
		<path fill="#F2F2F2" stroke="#666666" stroke-linejoin="round" d="M353.4,177.9l-0.1,0.1c-0.6,0.3-1.4-0.1-1.6-0.7l-2.3-5.8
			c-0.3-0.6,0.1-1.4,0.7-1.6l0.1-0.1c0.6-0.3,1.4,0.1,1.6,0.7l2.3,5.8C354.3,176.9,354,177.6,353.4,177.9z"/>
		<path fill="#F2F2F2" stroke="#666666" stroke-linejoin="round" d="M399.7,184.4l1.7,4.3c0.3,0.6-0.1,1.4-0.7,1.6l-5.8,2.3
			c-0.6,0.3-1.4-0.1-1.6-0.7l-1.7-4.3c-0.3-0.6,0.1-1.4,0.7-1.6l5.8-2.3C398.7,183.5,399.4,183.8,399.7,184.4z"/>
		<path fill="#F2F2F2" stroke="#666666" stroke-linejoin="round" d="M403.3,192.5l0.1,0.1c0.3,0.6-0.1,1.4-0.7,1.6l-5.8,2.3
			c-0.6,0.3-1.4-0.1-1.6-0.7l-0.1-0.1c-0.3-0.6,0.1-1.4,0.7-1.6l5.8-2.3C402.3,191.5,403,191.8,403.3,192.5z"/>
		<circle fill="#F2F2F2" stroke="#666666" stroke-linejoin="round" cx="385.7" cy="45.3" r="24.1"/>
		<path fill="#F2F2F2" stroke="#666666" stroke-linejoin="round" d="M381.4,16.8v-4.6c0-0.7,0.6-1.2,1.2-1.2h6.2
			c0.7,0,1.2,0.6,1.2,1.2v4.6c0,0.7-0.6,1.2-1.2,1.2h-6.2C381.9,18.1,381.4,17.5,381.4,16.8z"/>
		<path fill="#F2F2F2" stroke="#666666" stroke-linejoin="round" d="M381.4,8.7V8.5c0-0.7,0.6-1.2,1.2-1.2h6.2
			c0.7,0,1.2,0.6,1.2,1.2v0.2c0,0.7-0.6,1.2-1.2,1.2h-6.2C381.9,9.9,381.4,9.3,381.4,8.7z"/>
		<path fill="#F2F2F2" stroke="#666666" stroke-linejoin="round" d="M357.4,49.6h-4.6c-0.7,0-1.2-0.6-1.2-1.2v-6.2
			c0-0.7,0.6-1.2,1.2-1.2h4.6c0.7,0,1.2,0.6,1.2,1.2v6.2C358.7,49.1,358.1,49.6,357.4,49.6z"/>
		<path fill="#F2F2F2" stroke="#666666" stroke-linejoin="round" d="M349.3,49.6h-0.2c-0.7,0-1.2-0.6-1.2-1.2v-6.2
			c0-0.7,0.6-1.2,1.2-1.2h0.2c0.7,0,1.2,0.6,1.2,1.2v6.2C350.5,49.1,350,49.6,349.3,49.6z"/>
		<path fill="#F2F2F2" stroke="#666666" stroke-linejoin="round" d="M390.1,73.7v4.6c0,0.7-0.6,1.2-1.2,1.2h-6.2
			c-0.7,0-1.2-0.6-1.2-1.2v-4.6c0-0.7,0.6-1.2,1.2-1.2h6.2C389.5,72.5,390.1,73,390.1,73.7z"/>
		<path fill="#F2F2F2" stroke="#666666" stroke-linejoin="round" d="M390.1,81.9v0.2c0,0.7-0.6,1.2-1.2,1.2h-6.2
			c-0.7,0-1.2-0.6-1.2-1.2v-0.2c0-0.7,0.6-1.2,1.2-1.2h6.2C389.5,80.6,390.1,81.2,390.1,81.9z"/>
		<path fill="#F2F2F2" stroke="#666666" stroke-linejoin="round" d="M414,40.9h4.6c0.7,0,1.2,0.6,1.2,1.2v6.2c0,0.7-0.6,1.2-1.2,1.2
			H414c-0.7,0-1.2-0.6-1.2-1.2v-6.2C412.8,41.5,413.3,40.9,414,40.9z"/>
		<path fill="#F2F2F2" stroke="#666666" stroke-linejoin="round" d="M422.2,40.9h0.2c0.7,0,1.2,0.6,1.2,1.2v6.2
			c0,0.7-0.6,1.2-1.2,1.2h-0.2c-0.7,0-1.2-0.6-1.2-1.2v-6.2C421,41.5,421.5,40.9,422.2,40.9z"/>
		<path fill="#F2F2F2" stroke="#666666" stroke-linejoin="round" d="M392.8,17.4l1.8-4.3c0.3-0.6,1-0.9,1.6-0.7l5.7,2.4
			c0.6,0.3,0.9,1,0.7,1.6l-1.8,4.3c-0.3,0.6-1,0.9-1.6,0.7l-5.7-2.4C392.8,18.7,392.5,18,392.8,17.4z"/>
		<path fill="#F2F2F2" stroke="#666666" stroke-linejoin="round" d="M395.7,10.9l0.1-0.1c0.3-0.6,1-0.9,1.6-0.7l5.7,2.4
			c0.6,0.3,0.9,1,0.7,1.6l-0.1,0.1c-0.3,0.6-1,0.9-1.6,0.7l-5.7-2.4C395.7,12.3,395.4,11.6,395.7,10.9z"/>
		<path fill="#F2F2F2" stroke="#666666" stroke-linejoin="round" d="M358,38.3l-4.3-1.8c-0.6-0.3-0.9-1-0.7-1.6l2.4-5.7
			c0.3-0.6,1-0.9,1.6-0.7l4.3,1.8c0.6,0.3,0.9,1,0.7,1.6l-2.4,5.7C359.3,38.3,358.6,38.6,358,38.3z"/>
		<path fill="#F2F2F2" stroke="#666666" stroke-linejoin="round" d="M350.5,35.1l-0.1-0.1c-0.6-0.3-0.9-1-0.7-1.6l2.4-5.7
			c0.3-0.6,1-0.9,1.6-0.7l0.1,0.1c0.6,0.3,0.9,1,0.7,1.6l-2.4,5.7C351.8,35.1,351.1,35.4,350.5,35.1z"/>
		<path fill="#F2F2F2" stroke="#666666" stroke-linejoin="round" d="M378.7,73.2l-1.8,4.3c-0.3,0.6-1,0.9-1.6,0.7l-5.7-2.4
			c-0.6-0.3-0.9-1-0.7-1.6l1.8-4.3c0.3-0.6,1-0.9,1.6-0.7l5.7,2.4C378.7,71.8,379,72.5,378.7,73.2z"/>
		<path fill="#F2F2F2" stroke="#666666" stroke-linejoin="round" d="M375.5,80.7l-0.1,0.1c-0.3,0.6-1,0.9-1.6,0.7l-5.7-2.4
			c-0.6-0.3-0.9-1-0.7-1.6l0.1-0.1c0.3-0.6,1-0.9,1.6-0.7l5.7,2.4C375.5,79.3,375.8,80.1,375.5,80.7z"/>
		<path fill="#F2F2F2" stroke="#666666" stroke-linejoin="round" d="M413.5,52.2l4.3,1.8c0.6,0.3,0.9,1,0.7,1.6l-2.4,5.7
			c-0.3,0.6-1,0.9-1.6,0.7l-4.3-1.8c-0.6-0.3-0.9-1-0.7-1.6l2.4-5.7C412.1,52.3,412.8,52,413.5,52.2z"/>
		<path fill="#F2F2F2" stroke="#666666" stroke-linejoin="round" d="M421,55.4l0.1,0.1c0.6,0.3,0.9,1,0.7,1.6l-2.4,5.7
			c-0.3,0.6-1,0.9-1.6,0.7l-0.1-0.1c-0.6-0.3-0.9-1-0.7-1.6l2.4-5.7C419.6,55.4,420.4,55.1,421,55.4z"/>
		<path fill="#F2F2F2" stroke="#666666" stroke-linejoin="round" d="M403.3,22.5l3.4-3.2c0.5-0.5,1.3-0.5,1.8,0l4.3,4.5
			c0.5,0.5,0.5,1.3,0,1.8l-3.4,3.2c-0.5,0.5-1.3,0.5-1.8,0l-4.3-4.5C402.8,23.8,402.8,23,403.3,22.5z"/>
		<path fill="#F2F2F2" stroke="#666666" stroke-linejoin="round" d="M408.4,15.6l0.1-0.1c0.5-0.5,1.3-0.5,1.8,0l4.3,4.5
			c0.5,0.5,0.5,1.3,0,1.8l-0.1,0.1c-0.5,0.5-1.3,0.5-1.8,0l-4.3-4.5C407.9,16.9,407.9,16.1,408.4,15.6z"/>
		<path fill="#F2F2F2" stroke="#666666" stroke-linejoin="round" d="M363.1,27.8l-3.2-3.4c-0.5-0.5-0.5-1.3,0-1.8l4.5-4.3
			c0.5-0.5,1.3-0.5,1.8,0l3.2,3.4c0.5,0.5,0.5,1.3,0,1.8l-4.5,4.3C364.3,28.3,363.5,28.3,363.1,27.8z"/>
		<path fill="#F2F2F2" stroke="#666666" stroke-linejoin="round" d="M357.4,21.9l-0.1-0.1c-0.5-0.5-0.5-1.3,0-1.8l4.5-4.3
			c0.5-0.5,1.3-0.5,1.8,0l0.1,0.1c0.5,0.5,0.5,1.3,0,1.8l-4.5,4.3C358.7,22.4,357.9,22.4,357.4,21.9z"/>
		<path fill="#F2F2F2" stroke="#666666" stroke-linejoin="round" d="M368.2,68.1l-3.4,3.2c-0.5,0.5-1.3,0.5-1.8,0l-4.3-4.5
			c-0.5-0.5-0.5-1.3,0-1.8l3.4-3.2c0.5-0.5,1.3-0.5,1.8,0l4.3,4.5C368.7,66.8,368.7,67.6,368.2,68.1z"/>
		<path fill="#F2F2F2" stroke="#666666" stroke-linejoin="round" d="M362.3,73.7l-0.1,0.1c-0.5,0.5-1.3,0.5-1.8,0l-4.3-4.5
			c-0.5-0.5-0.5-1.3,0-1.8l0.1-0.1c0.5-0.5,1.3-0.5,1.8,0l4.3,4.5C362.8,72.4,362.8,73.2,362.3,73.7z"/>
		<path fill="#F2F2F2" stroke="#666666" stroke-linejoin="round" d="M408.4,62.7l3.2,3.4c0.5,0.5,0.5,1.3,0,1.8l-4.5,4.3
			c-0.5,0.5-1.3,0.5-1.8,0l-3.2-3.4c-0.5-0.5-0.5-1.3,0-1.8l4.5-4.3C407.1,62.2,407.9,62.2,408.4,62.7z"/>
		<path fill="#F2F2F2" stroke="#666666" stroke-linejoin="round" d="M414,68.6l0.1,0.1c0.5,0.5,0.5,1.3,0,1.8l-4.5,4.3
			c-0.5,0.5-1.3,0.5-1.8,0l-0.1-0.1c-0.5-0.5-0.5-1.3,0-1.8l4.5-4.3C412.8,68.1,413.6,68.1,414,68.6z"/>
		<path fill="#F2F2F2" stroke="#666666" stroke-linejoin="round" d="M410.5,30.7l4.3-1.7c0.6-0.3,1.4,0.1,1.6,0.7l2.3,5.8
			c0.3,0.6-0.1,1.4-0.7,1.6l-4.3,1.7c-0.6,0.3-1.4-0.1-1.6-0.7l-2.3-5.8C409.6,31.7,409.9,30.9,410.5,30.7z"/>
		<path fill="#F2F2F2" stroke="#666666" stroke-linejoin="round" d="M418.1,27.6l0.1-0.1c0.6-0.3,1.4,0.1,1.6,0.7l2.3,5.8
			c0.3,0.6-0.1,1.4-0.7,1.6l-0.1,0.1c-0.6,0.3-1.4-0.1-1.6-0.7l-2.3-5.8C417.2,28.6,417.5,27.9,418.1,27.6z"/>
		<path fill="#F2F2F2" stroke="#666666" stroke-linejoin="round" d="M371.9,20.8l-1.7-4.3c-0.3-0.6,0.1-1.4,0.7-1.6l5.8-2.3
			c0.6-0.3,1.4,0.1,1.6,0.7l1.7,4.3c0.3,0.6-0.1,1.4-0.7,1.6l-5.8,2.3C372.9,21.8,372.2,21.4,371.9,20.8z"/>
		<path fill="#F2F2F2" stroke="#666666" stroke-linejoin="round" d="M368.2,13l-0.1-0.1c-0.3-0.6,0.1-1.4,0.7-1.6l5.8-2.3
			c0.6-0.3,1.4,0.1,1.6,0.7l0.1,0.1c0.3,0.6-0.1,1.4-0.7,1.6l-5.8,2.3C369.1,14,368.4,13.7,368.2,13z"/>
		<path fill="#F2F2F2" stroke="#666666" stroke-linejoin="round" d="M360.9,59.9l-4.3,1.7c-0.6,0.3-1.4-0.1-1.6-0.7l-2.3-5.8
			c-0.3-0.6,0.1-1.4,0.7-1.6l4.3-1.7c0.6-0.3,1.4,0.1,1.6,0.7l2.3,5.8C361.9,58.9,361.6,59.6,360.9,59.9z"/>
		<path fill="#F2F2F2" stroke="#666666" stroke-linejoin="round" d="M353.4,62.9l-0.1,0.1c-0.6,0.3-1.4-0.1-1.6-0.7l-2.3-5.8
			c-0.3-0.6,0.1-1.4,0.7-1.6l0.1-0.1c0.6-0.3,1.4,0.1,1.6,0.7l2.3,5.8C354.3,61.9,354,62.6,353.4,62.9z"/>
		<path fill="#F2F2F2" stroke="#666666" stroke-linejoin="round" d="M399.6,69.6l1.7,4.3c0.3,0.6-0.1,1.4-0.7,1.6l-5.8,2.3
			c-0.6,0.3-1.4-0.1-1.6-0.7l-1.7-4.3c-0.3-0.6,0.1-1.4,0.7-1.6l5.8-2.3C398.6,68.7,399.3,69,399.6,69.6z"/>
		<path fill="#F2F2F2" stroke="#666666" stroke-linejoin="round" d="M403.3,77.5l0.1,0.1c0.3,0.6-0.1,1.4-0.7,1.6l-5.8,2.3
			c-0.6,0.3-1.4-0.1-1.6-0.7l-0.1-0.1c-0.3-0.6,0.1-1.4,0.7-1.6l5.8-2.3C402.3,76.6,403,76.9,403.3,77.5z"/>
		<circle fill="#F2F2F2" stroke="#666666" stroke-linejoin="round" cx="483.1" cy="160.2" r="24.1"/>
		<path fill="#F2F2F2" stroke="#666666" stroke-linejoin="round" d="M478.7,131.8v-4.6c0-0.7,0.6-1.2,1.2-1.2h6.2
			c0.7,0,1.2,0.6,1.2,1.2v4.6c0,0.7-0.6,1.2-1.2,1.2H480C479.3,133,478.7,132.5,478.7,131.8z"/>
		<path fill="#F2F2F2" stroke="#666666" stroke-linejoin="round" d="M478.7,123.6v-0.2c0-0.7,0.6-1.2,1.2-1.2h6.2
			c0.7,0,1.2,0.6,1.2,1.2v0.2c0,0.7-0.6,1.2-1.2,1.2H480C479.3,124.9,478.7,124.3,478.7,123.6z"/>
		<path fill="#F2F2F2" stroke="#666666" stroke-linejoin="round" d="M454.8,164.6h-4.6c-0.7,0-1.2-0.6-1.2-1.2v-6.2
			c0-0.7,0.6-1.2,1.2-1.2h4.6c0.7,0,1.2,0.6,1.2,1.2v6.2C456,164,455.5,164.6,454.8,164.6z"/>
		<path fill="#F2F2F2" stroke="#666666" stroke-linejoin="round" d="M446.6,164.6h-0.2c-0.7,0-1.2-0.6-1.2-1.2v-6.2
			c0-0.7,0.6-1.2,1.2-1.2h0.2c0.7,0,1.2,0.6,1.2,1.2v6.2C447.8,164,447.3,164.6,446.6,164.6z"/>
		<path fill="#F2F2F2" stroke="#666666" stroke-linejoin="round" d="M487.4,188.7v4.6c0,0.7-0.6,1.2-1.2,1.2H480
			c-0.7,0-1.2-0.6-1.2-1.2v-4.6c0-0.7,0.6-1.2,1.2-1.2h6.2C486.9,187.4,487.4,188,487.4,188.7z"/>
		<path fill="#F2F2F2" stroke="#666666" stroke-linejoin="round" d="M487.4,196.9v0.2c0,0.7-0.6,1.2-1.2,1.2H480
			c-0.7,0-1.2-0.6-1.2-1.2v-0.2c0-0.7,0.6-1.2,1.2-1.2h6.2C486.9,195.6,487.4,196.2,487.4,196.9z"/>
		<path fill="#F2F2F2" stroke="#666666" stroke-linejoin="round" d="M511.4,155.9h4.6c0.7,0,1.2,0.6,1.2,1.2v6.2
			c0,0.7-0.6,1.2-1.2,1.2h-4.6c-0.7,0-1.2-0.6-1.2-1.2v-6.2C510.1,156.4,510.7,155.9,511.4,155.9z"/>
		<path fill="#F2F2F2" stroke="#666666" stroke-linejoin="round" d="M519.5,155.9h0.2c0.7,0,1.2,0.6,1.2,1.2v6.2
			c0,0.7-0.6,1.2-1.2,1.2h-0.2c-0.7,0-1.2-0.6-1.2-1.2v-6.2C518.3,156.4,518.8,155.9,519.5,155.9z"/>
		<path fill="#F2F2F2" stroke="#666666" stroke-linejoin="round" d="M490.1,132.3l1.8-4.3c0.3-0.6,1-0.9,1.6-0.7l5.7,2.4
			c0.6,0.3,0.9,1,0.7,1.6l-1.8,4.3c-0.3,0.6-1,0.9-1.6,0.7l-5.7-2.4C490.1,133.7,489.8,133,490.1,132.3z"/>
		<path fill="#F2F2F2" stroke="#666666" stroke-linejoin="round" d="M493.3,124.8l0.1-0.1c0.3-0.6,1-0.9,1.6-0.7l5.7,2.4
			c0.6,0.3,0.9,1,0.7,1.6l-0.1,0.1c-0.3,0.6-1,0.9-1.6,0.7l-5.7-2.4C493.3,126.2,493,125.4,493.3,124.8z"/>
		<path fill="#F2F2F2" stroke="#666666" stroke-linejoin="round" d="M455.3,153.3l-4.3-1.8c-0.6-0.3-0.9-1-0.7-1.6l2.4-5.7
			c0.3-0.6,1-0.9,1.6-0.7l4.3,1.8c0.6,0.3,0.9,1,0.7,1.6l-2.4,5.7C456.7,153.2,456,153.5,455.3,153.3z"/>
		<path fill="#F2F2F2" stroke="#666666" stroke-linejoin="round" d="M447.8,150.1l-0.1-0.1c-0.6-0.3-0.9-1-0.7-1.6l2.4-5.7
			c0.3-0.6,1-0.9,1.6-0.7l0.1,0.1c0.6,0.3,0.9,1,0.7,1.6l-2.4,5.7C449.2,150.1,448.4,150.4,447.8,150.1z"/>
		<path fill="#F2F2F2" stroke="#666666" stroke-linejoin="round" d="M476,188.1l-1.8,4.3c-0.3,0.6-1,0.9-1.6,0.7l-5.7-2.4
			c-0.6-0.3-0.9-1-0.7-1.6l1.8-4.3c0.3-0.6,1-0.9,1.6-0.7l5.7,2.4C476,186.8,476.3,187.5,476,188.1z"/>
		<path fill="#F2F2F2" stroke="#666666" stroke-linejoin="round" d="M472.9,195.7l-0.1,0.1c-0.3,0.6-1,0.9-1.6,0.7l-5.7-2.4
			c-0.6-0.3-0.9-1-0.7-1.6l0.1-0.1c0.3-0.6,1-0.9,1.6-0.7l5.7,2.4C472.8,194.3,473.1,195,472.9,195.7z"/>
		<path fill="#F2F2F2" stroke="#666666" stroke-linejoin="round" d="M510.8,167.2l4.3,1.8c0.6,0.3,0.9,1,0.7,1.6l-2.4,5.7
			c-0.3,0.6-1,0.9-1.6,0.7l-4.3-1.8c-0.6-0.3-0.9-1-0.7-1.6l2.4-5.7C509.4,167.2,510.2,166.9,510.8,167.2z"/>
		<path fill="#F2F2F2" stroke="#666666" stroke-linejoin="round" d="M518.3,170.4l0.1,0.1c0.6,0.3,0.9,1,0.7,1.6l-2.4,5.7
			c-0.3,0.6-1,0.9-1.6,0.7l-0.1-0.1c-0.6-0.3-0.9-1-0.7-1.6l2.4-5.7C517,170.4,517.7,170.1,518.3,170.4z"/>
		<path fill="#F2F2F2" stroke="#666666" stroke-linejoin="round" d="M500.6,137.5l3.4-3.2c0.5-0.5,1.3-0.5,1.8,0l4.3,4.5
			c0.5,0.5,0.5,1.3,0,1.8l-3.4,3.2c-0.5,0.5-1.3,0.5-1.8,0l-4.3-4.5C500.1,138.7,500.1,137.9,500.6,137.5z"/>
		<path fill="#F2F2F2" stroke="#666666" stroke-linejoin="round" d="M506.5,131.8l0.1-0.1c0.5-0.5,1.3-0.5,1.8,0l4.3,4.5
			c0.5,0.5,0.5,1.3,0,1.8l-0.1,0.1c-0.5,0.5-1.3,0.5-1.8,0l-4.3-4.5C506,133.1,506,132.3,506.5,131.8z"/>
		<path fill="#F2F2F2" stroke="#666666" stroke-linejoin="round" d="M460.4,142.8l-3.2-3.4c-0.5-0.5-0.5-1.3,0-1.8l4.5-4.3
			c0.5-0.5,1.3-0.5,1.8,0l3.2,3.4c0.5,0.5,0.5,1.3,0,1.8l-4.5,4.3C461.7,143.3,460.9,143.3,460.4,142.8z"/>
		<path fill="#F2F2F2" stroke="#666666" stroke-linejoin="round" d="M454.8,136.9l-0.1-0.1c-0.5-0.5-0.5-1.3,0-1.8l4.5-4.3
			c0.5-0.5,1.3-0.5,1.8,0l0.1,0.1c0.5,0.5,0.5,1.3,0,1.8l-4.5,4.3C456,137.4,455.2,137.4,454.8,136.9z"/>
		<path fill="#F2F2F2" stroke="#666666" stroke-linejoin="round" d="M465.5,183l-3.4,3.2c-0.5,0.5-1.3,0.5-1.8,0l-4.3-4.5
			c-0.5-0.5-0.5-1.3,0-1.8l3.4-3.2c0.5-0.5,1.3-0.5,1.8,0l4.3,4.5C466,181.7,466,182.5,465.5,183z"/>
		<path fill="#F2F2F2" stroke="#666666" stroke-linejoin="round" d="M459.6,188.7l-0.1,0.1c-0.5,0.5-1.3,0.5-1.8,0l-4.3-4.5
			c-0.5-0.5-0.5-1.3,0-1.8l0.1-0.1c0.5-0.5,1.3-0.5,1.8,0l4.3,4.5C460.1,187.4,460.1,188.2,459.6,188.7z"/>
		<path fill="#F2F2F2" stroke="#666666" stroke-linejoin="round" d="M505.7,177.7l3.2,3.4c0.5,0.5,0.5,1.3,0,1.8l-4.5,4.3
			c-0.5,0.5-1.3,0.5-1.8,0l-3.2-3.4c-0.5-0.5-0.5-1.3,0-1.8l4.5-4.3C504.5,177.2,505.3,177.2,505.7,177.7z"/>
		<path fill="#F2F2F2" stroke="#666666" stroke-linejoin="round" d="M511.4,183.6l0.1,0.1c0.5,0.5,0.5,1.3,0,1.8l-4.5,4.3
			c-0.5,0.5-1.3,0.5-1.8,0l-0.1-0.1c-0.5-0.5-0.5-1.3,0-1.8l4.5-4.3C510.1,183.1,510.9,183.1,511.4,183.6z"/>
		<path fill="#F2F2F2" stroke="#666666" stroke-linejoin="round" d="M507.3,146.4l4.3-1.7c0.6-0.3,1.4,0.1,1.6,0.7l2.3,5.8
			c0.3,0.6-0.1,1.4-0.7,1.6l-4.3,1.7c-0.6,0.3-1.4-0.1-1.6-0.7l-2.3-5.8C506.4,147.4,506.7,146.7,507.3,146.4z"/>
		<path fill="#F2F2F2" stroke="#666666" stroke-linejoin="round" d="M515.4,142.6l0.1-0.1c0.6-0.3,1.4,0.1,1.6,0.7l2.3,5.8
			c0.3,0.6-0.1,1.4-0.7,1.6l-0.1,0.1c-0.6,0.3-1.4-0.1-1.6-0.7l-2.3-5.8C514.5,143.6,514.8,142.9,515.4,142.6z"/>
		<path fill="#F2F2F2" stroke="#666666" stroke-linejoin="round" d="M468.5,135.6l-1.7-4.3c-0.3-0.6,0.1-1.4,0.7-1.6l5.8-2.3
			c0.6-0.3,1.4,0.1,1.6,0.7l1.7,4.3c0.3,0.6-0.1,1.4-0.7,1.6l-5.8,2.3C469.5,136.5,468.8,136.2,468.5,135.6z"/>
		<path fill="#F2F2F2" stroke="#666666" stroke-linejoin="round" d="M465.5,128l-0.1-0.1c-0.3-0.6,0.1-1.4,0.7-1.6l5.8-2.3
			c0.6-0.3,1.4,0.1,1.6,0.7l0.1,0.1c0.3,0.6-0.1,1.4-0.7,1.6l-5.8,2.3C466.5,129,465.8,128.7,465.5,128z"/>
		<path fill="#F2F2F2" stroke="#666666" stroke-linejoin="round" d="M458.3,174.8l-4.3,1.7c-0.6,0.3-1.4-0.1-1.6-0.7l-2.3-5.8
			c-0.3-0.6,0.1-1.4,0.7-1.6l4.3-1.7c0.6-0.3,1.4,0.1,1.6,0.7l2.3,5.8C459.2,173.9,458.9,174.6,458.3,174.8z"/>
		<path fill="#F2F2F2" stroke="#666666" stroke-linejoin="round" d="M450.7,177.9l-0.1,0.1c-0.6,0.3-1.4-0.1-1.6-0.7l-2.3-5.8
			c-0.3-0.6,0.1-1.4,0.7-1.6l0.1-0.1c0.6-0.3,1.4,0.1,1.6,0.7l2.3,5.8C451.6,176.9,451.3,177.6,450.7,177.9z"/>
		<path fill="#F2F2F2" stroke="#666666" stroke-linejoin="round" d="M496.9,184.3l1.7,4.3c0.3,0.6-0.1,1.4-0.7,1.6l-5.8,2.3
			c-0.6,0.3-1.4-0.1-1.6-0.7l-1.7-4.3c-0.3-0.6,0.1-1.4,0.7-1.6l5.8-2.3C495.9,183.4,496.6,183.7,496.9,184.3z"/>
		<path fill="#F2F2F2" stroke="#666666" stroke-linejoin="round" d="M500.6,192.5l0.1,0.1c0.3,0.6-0.1,1.4-0.7,1.6l-5.8,2.3
			c-0.6,0.3-1.4-0.1-1.6-0.7l-0.1-0.1c-0.3-0.6,0.1-1.4,0.7-1.6l5.8-2.3C499.7,191.5,500.4,191.8,500.6,192.5z"/>
		<circle fill="#F2F2F2" stroke="#666666" stroke-linejoin="round" cx="483.1" cy="45.3" r="24.1"/>
		<path fill="#F2F2F2" stroke="#666666" stroke-linejoin="round" d="M478.7,16.8v-4.6c0-0.7,0.6-1.2,1.2-1.2h6.2
			c0.7,0,1.2,0.6,1.2,1.2v4.6c0,0.7-0.6,1.2-1.2,1.2H480C479.3,18.1,478.7,17.5,478.7,16.8z"/>
		<path fill="#F2F2F2" stroke="#666666" stroke-linejoin="round" d="M478.7,8.7V8.5c0-0.7,0.6-1.2,1.2-1.2h6.2
			c0.7,0,1.2,0.6,1.2,1.2v0.2c0,0.7-0.6,1.2-1.2,1.2H480C479.3,9.9,478.7,9.3,478.7,8.7z"/>
		<path fill="#F2F2F2" stroke="#666666" stroke-linejoin="round" d="M454.8,49.6h-4.6c-0.7,0-1.2-0.6-1.2-1.2v-6.2
			c0-0.7,0.6-1.2,1.2-1.2h4.6c0.7,0,1.2,0.6,1.2,1.2v6.2C456,49.1,455.5,49.6,454.8,49.6z"/>
		<path fill="#F2F2F2" stroke="#666666" stroke-linejoin="round" d="M446.6,49.6h-0.2c-0.7,0-1.2-0.6-1.2-1.2v-6.2
			c0-0.7,0.6-1.2,1.2-1.2h0.2c0.7,0,1.2,0.6,1.2,1.2v6.2C447.8,49.1,447.3,49.6,446.6,49.6z"/>
		<path fill="#F2F2F2" stroke="#666666" stroke-linejoin="round" d="M487.4,73.7v4.6c0,0.7-0.6,1.2-1.2,1.2H480
			c-0.7,0-1.2-0.6-1.2-1.2v-4.6c0-0.7,0.6-1.2,1.2-1.2h6.2C486.9,72.5,487.4,73,487.4,73.7z"/>
		<path fill="#F2F2F2" stroke="#666666" stroke-linejoin="round" d="M487.4,81.9v0.2c0,0.7-0.6,1.2-1.2,1.2H480
			c-0.7,0-1.2-0.6-1.2-1.2v-0.2c0-0.7,0.6-1.2,1.2-1.2h6.2C486.9,80.6,487.4,81.2,487.4,81.9z"/>
		<path fill="#F2F2F2" stroke="#666666" stroke-linejoin="round" d="M511.4,40.9h4.6c0.7,0,1.2,0.6,1.2,1.2v6.2
			c0,0.7-0.6,1.2-1.2,1.2h-4.6c-0.7,0-1.2-0.6-1.2-1.2v-6.2C510.1,41.5,510.7,40.9,511.4,40.9z"/>
		<path fill="#F2F2F2" stroke="#666666" stroke-linejoin="round" d="M519.5,40.9h0.2c0.7,0,1.2,0.6,1.2,1.2v6.2
			c0,0.7-0.6,1.2-1.2,1.2h-0.2c-0.7,0-1.2-0.6-1.2-1.2v-6.2C518.3,41.5,518.8,40.9,519.5,40.9z"/>
		<path fill="#F2F2F2" stroke="#666666" stroke-linejoin="round" d="M490.1,17.4l1.8-4.3c0.3-0.6,1-0.9,1.6-0.7l5.7,2.4
			c0.6,0.3,0.9,1,0.7,1.6l-1.8,4.3c-0.3,0.6-1,0.9-1.6,0.7l-5.7-2.4C490.1,18.7,489.8,18,490.1,17.4z"/>
		<path fill="#F2F2F2" stroke="#666666" stroke-linejoin="round" d="M493.3,9.9l0.1-0.1c0.3-0.6,1-0.9,1.6-0.7l5.7,2.4
			c0.6,0.3,0.9,1,0.7,1.6l-0.1,0.1c-0.3,0.6-1,0.9-1.6,0.7l-5.7-2.4C493.3,11.2,493,10.5,493.3,9.9z"/>
		<path fill="#F2F2F2" stroke="#666666" stroke-linejoin="round" d="M455.3,38.3l-4.3-1.8c-0.6-0.3-0.9-1-0.7-1.6l2.4-5.7
			c0.3-0.6,1-0.9,1.6-0.7l4.3,1.8c0.6,0.3,0.9,1,0.7,1.6l-2.4,5.7C456.7,38.3,456,38.6,455.3,38.3z"/>
		<path fill="#F2F2F2" stroke="#666666" stroke-linejoin="round" d="M447.8,35.1l-0.1-0.1c-0.6-0.3-0.9-1-0.7-1.6l2.4-5.7
			c0.3-0.6,1-0.9,1.6-0.7l0.1,0.1c0.6,0.3,0.9,1,0.7,1.6l-2.4,5.7C449.2,35.1,448.4,35.4,447.8,35.1z"/>
		<path fill="#F2F2F2" stroke="#666666" stroke-linejoin="round" d="M476,73.2l-1.8,4.3c-0.3,0.6-1,0.9-1.6,0.7l-5.7-2.4
			c-0.6-0.3-0.9-1-0.7-1.6l1.8-4.3c0.3-0.6,1-0.9,1.6-0.7l5.7,2.4C476,71.8,476.3,72.5,476,73.2z"/>
		<path fill="#F2F2F2" stroke="#666666" stroke-linejoin="round" d="M472.9,80.7l-0.1,0.1c-0.3,0.6-1,0.9-1.6,0.7l-5.7-2.4
			c-0.6-0.3-0.9-1-0.7-1.6l0.1-0.1c0.3-0.6,1-0.9,1.6-0.7l5.7,2.4C472.8,79.3,473.1,80.1,472.9,80.7z"/>
		<path fill="#F2F2F2" stroke="#666666" stroke-linejoin="round" d="M510.8,52.2l4.3,1.8c0.6,0.3,0.9,1,0.7,1.6l-2.4,5.7
			c-0.3,0.6-1,0.9-1.6,0.7l-4.3-1.8c-0.6-0.3-0.9-1-0.7-1.6l2.4-5.7C509.4,52.3,510.2,52,510.8,52.2z"/>
		<path fill="#F2F2F2" stroke="#666666" stroke-linejoin="round" d="M518.3,55.4l0.1,0.1c0.6,0.3,0.9,1,0.7,1.6l-2.4,5.7
			c-0.3,0.6-1,0.9-1.6,0.7l-0.1-0.1c-0.6-0.3-0.9-1-0.7-1.6l2.4-5.7C517,55.4,517.7,55.1,518.3,55.4z"/>
		<path fill="#F2F2F2" stroke="#666666" stroke-linejoin="round" d="M500.6,22.5l3.4-3.2c0.5-0.5,1.3-0.5,1.8,0l4.3,4.5
			c0.5,0.5,0.5,1.3,0,1.8l-3.4,3.2c-0.5,0.5-1.3,0.5-1.8,0l-4.3-4.5C500.1,23.8,500.1,23,500.6,22.5z"/>
		<path fill="#F2F2F2" stroke="#666666" stroke-linejoin="round" d="M506.5,16.9l0.1-0.1c0.5-0.5,1.3-0.5,1.8,0l4.3,4.5
			c0.5,0.5,0.5,1.3,0,1.8l-0.1,0.1c-0.5,0.5-1.3,0.5-1.8,0l-4.3-4.5C506,18.1,506,17.3,506.5,16.9z"/>
		<path fill="#F2F2F2" stroke="#666666" stroke-linejoin="round" d="M460.4,27.8l-3.2-3.4c-0.5-0.5-0.5-1.3,0-1.8l4.5-4.3
			c0.5-0.5,1.3-0.5,1.8,0l3.2,3.4c0.5,0.5,0.5,1.3,0,1.8l-4.5,4.3C461.7,28.3,460.9,28.3,460.4,27.8z"/>
		<path fill="#F2F2F2" stroke="#666666" stroke-linejoin="round" d="M454.8,21.9l-0.1-0.1c-0.5-0.5-0.5-1.3,0-1.8l4.5-4.3
			c0.5-0.5,1.3-0.5,1.8,0l0.1,0.1c0.5,0.5,0.5,1.3,0,1.8l-4.5,4.3C456,22.4,455.2,22.4,454.8,21.9z"/>
		<path fill="#F2F2F2" stroke="#666666" stroke-linejoin="round" d="M465.5,68l-3.4,3.2c-0.5,0.5-1.3,0.5-1.8,0l-4.3-4.5
			c-0.5-0.5-0.5-1.3,0-1.8l3.4-3.2c0.5-0.5,1.3-0.5,1.8,0l4.3,4.5C466,66.8,466,67.6,465.5,68z"/>
		<path fill="#F2F2F2" stroke="#666666" stroke-linejoin="round" d="M459.6,73.7l-0.1,0.1c-0.5,0.5-1.3,0.5-1.8,0l-4.3-4.5
			c-0.5-0.5-0.5-1.3,0-1.8l0.1-0.1c0.5-0.5,1.3-0.5,1.8,0l4.3,4.5C460.1,72.4,460.1,73.2,459.6,73.7z"/>
		<path fill="#F2F2F2" stroke="#666666" stroke-linejoin="round" d="M505.7,62.7l3.2,3.4c0.5,0.5,0.5,1.3,0,1.8l-4.5,4.3
			c-0.5,0.5-1.3,0.5-1.8,0l-3.2-3.4c-0.5-0.5-0.5-1.3,0-1.8l4.5-4.3C504.5,62.2,505.3,62.2,505.7,62.7z"/>
		<path fill="#F2F2F2" stroke="#666666" stroke-linejoin="round" d="M511.4,68.6l0.1,0.1c0.5,0.5,0.5,1.3,0,1.8l-4.5,4.3
			c-0.5,0.5-1.3,0.5-1.8,0l-0.1-0.1c-0.5-0.5-0.5-1.3,0-1.8l4.5-4.3C510.1,68.1,510.9,68.1,511.4,68.6z"/>
		<path fill="#F2F2F2" stroke="#666666" stroke-linejoin="round" d="M507.9,30.7l4.3-1.7c0.6-0.3,1.4,0.1,1.6,0.7l2.3,5.8
			c0.3,0.6-0.1,1.4-0.7,1.6l-4.3,1.7c-0.6,0.3-1.4-0.1-1.6-0.7l-2.3-5.8C506.9,31.7,507.2,30.9,507.9,30.7z"/>
		<path fill="#F2F2F2" stroke="#666666" stroke-linejoin="round" d="M515.4,27.7l0.1-0.1c0.6-0.3,1.4,0.1,1.6,0.7l2.3,5.8
			c0.3,0.6-0.1,1.4-0.7,1.6l-0.1,0.1c-0.6,0.3-1.4-0.1-1.6-0.7l-2.3-5.8C514.5,28.6,514.8,27.9,515.4,27.7z"/>
		<path fill="#F2F2F2" stroke="#666666" stroke-linejoin="round" d="M468.5,20.6l-1.7-4.3c-0.3-0.6,0.1-1.4,0.7-1.6l5.8-2.3
			c0.6-0.3,1.4,0.1,1.6,0.7l1.7,4.3c0.3,0.6-0.1,1.4-0.7,1.6l-5.8,2.3C469.5,21.6,468.8,21.3,468.5,20.6z"/>
		<path fill="#F2F2F2" stroke="#666666" stroke-linejoin="round" d="M465.5,13l-0.1-0.1c-0.3-0.6,0.1-1.4,0.7-1.6l5.8-2.3
			c0.6-0.3,1.4,0.1,1.6,0.7l0.1,0.1c0.3,0.6-0.1,1.4-0.7,1.6l-5.8,2.3C466.5,14,465.8,13.7,465.5,13z"/>
		<path fill="#F2F2F2" stroke="#666666" stroke-linejoin="round" d="M458.3,59.9l-4.3,1.7c-0.6,0.3-1.4-0.1-1.6-0.7l-2.3-5.8
			c-0.3-0.6,0.1-1.4,0.7-1.6l4.3-1.7c0.6-0.3,1.4,0.1,1.6,0.7l2.3,5.8C459.2,58.9,458.9,59.6,458.3,59.9z"/>
		<path fill="#F2F2F2" stroke="#666666" stroke-linejoin="round" d="M450.7,62.9l-0.1,0.1c-0.6,0.3-1.4-0.1-1.6-0.7l-2.3-5.8
			c-0.3-0.6,0.1-1.4,0.7-1.6l0.1-0.1c0.6-0.3,1.4,0.1,1.6,0.7l2.3,5.8C451.6,61.9,451.3,62.6,450.7,62.9z"/>
		<path fill="#F2F2F2" stroke="#666666" stroke-linejoin="round" d="M496.7,69.5l1.7,4.3c0.3,0.6-0.1,1.4-0.7,1.6l-5.8,2.3
			c-0.6,0.3-1.4-0.1-1.6-0.7l-1.7-4.3c-0.3-0.6,0.1-1.4,0.7-1.6l5.8-2.3C495.8,68.6,496.5,68.9,496.7,69.5z"/>
		<path fill="#F2F2F2" stroke="#666666" stroke-linejoin="round" d="M500.6,77.5l0.1,0.1c0.3,0.6-0.1,1.4-0.7,1.6l-5.8,2.3
			c-0.6,0.3-1.4-0.1-1.6-0.7l-0.1-0.1c-0.3-0.6,0.1-1.4,0.7-1.6l5.8-2.3C499.7,76.6,500.4,76.9,500.6,77.5z"/>
		<path fill="#F2F2F2" stroke="#666666" stroke-linejoin="round" d="M14.1,96.2H9.5c-0.7,0-1.2-0.6-1.2-1.2v-6.2
			c0-0.7,0.6-1.2,1.2-1.2h4.6c0.7,0,1.2,0.6,1.2,1.2v6.2C15.4,95.6,14.8,96.2,14.1,96.2z"/>
		<path fill="#F2F2F2" stroke="#666666" stroke-linejoin="round" d="M6,96.2H5.8c-0.7,0-1.2-0.6-1.2-1.2v-6.2c0-0.7,0.6-1.2,1.2-1.2
			H6c0.7,0,1.2,0.6,1.2,1.2v6.2C7.2,95.6,6.6,96.2,6,96.2z"/>
		<path fill="#F2F2F2" stroke="#666666" stroke-linejoin="round" d="M14.1,85.2H9.5c-0.7,0-1.2-0.6-1.2-1.2v-6.2
			c0-0.7,0.6-1.2,1.2-1.2h4.6c0.7,0,1.2,0.6,1.2,1.2V84C15.4,84.7,14.8,85.2,14.1,85.2z"/>
		<path fill="#F2F2F2" stroke="#666666" stroke-linejoin="round" d="M6,85.2H5.8c-0.7,0-1.2-0.6-1.2-1.2v-6.2c0-0.7,0.6-1.2,1.2-1.2
			H6c0.7,0,1.2,0.6,1.2,1.2V84C7.2,84.7,6.6,85.2,6,85.2z"/>
		<path fill="#F2F2F2" stroke="#666666" stroke-linejoin="round" d="M14.1,74.3H9.5c-0.7,0-1.2-0.6-1.2-1.2v-6.2
			c0-0.7,0.6-1.2,1.2-1.2h4.6c0.7,0,1.2,0.6,1.2,1.2V73C15.4,73.7,14.8,74.3,14.1,74.3z"/>
		<path fill="#F2F2F2" stroke="#666666" stroke-linejoin="round" d="M6,74.3H5.8c-0.7,0-1.2-0.6-1.2-1.2v-6.2c0-0.7,0.6-1.2,1.2-1.2
			H6c0.7,0,1.2,0.6,1.2,1.2V73C7.2,73.7,6.6,74.3,6,74.3z"/>
		<path fill="#F2F2F2" stroke="#666666" stroke-linejoin="round" d="M14.1,63.3H9.5c-0.7,0-1.2-0.6-1.2-1.2v-6.2
			c0-0.7,0.6-1.2,1.2-1.2h4.6c0.7,0,1.2,0.6,1.2,1.2v6.2C15.4,62.8,14.8,63.3,14.1,63.3z"/>
		<path fill="#F2F2F2" stroke="#666666" stroke-linejoin="round" d="M6,63.3H5.8c-0.7,0-1.2-0.6-1.2-1.2v-6.2c0-0.7,0.6-1.2,1.2-1.2
			H6c0.7,0,1.2,0.6,1.2,1.2v6.2C7.2,62.8,6.6,63.3,6,63.3z"/>
		<path fill="#F2F2F2" stroke="#666666" stroke-linejoin="round" d="M14.1,140.1H9.5c-0.7,0-1.2-0.6-1.2-1.2v-6.2
			c0-0.7,0.6-1.2,1.2-1.2h4.6c0.7,0,1.2,0.6,1.2,1.2v6.2C15.4,139.5,14.8,140.1,14.1,140.1z"/>
		<path fill="#F2F2F2" stroke="#666666" stroke-linejoin="round" d="M6,140.1H5.8c-0.7,0-1.2-0.6-1.2-1.2v-6.2
			c0-0.7,0.6-1.2,1.2-1.2H6c0.7,0,1.2,0.6,1.2,1.2v6.2C7.2,139.5,6.6,140.1,6,140.1z"/>
		<path fill="#F2F2F2" stroke="#666666" stroke-linejoin="round" d="M14.1,151H9.5c-0.7,0-1.2-0.6-1.2-1.2v-6.2
			c0-0.7,0.6-1.2,1.2-1.2h4.6c0.7,0,1.2,0.6,1.2,1.2v6.2C15.4,150.5,14.8,151,14.1,151z"/>
		<path fill="#F2F2F2" stroke="#666666" stroke-linejoin="round" d="M6,151H5.8c-0.7,0-1.2-0.6-1.2-1.2v-6.2c0-0.7,0.6-1.2,1.2-1.2
			H6c0.7,0,1.2,0.6,1.2,1.2v6.2C7.2,150.5,6.6,151,6,151z"/>
		<path fill="#F2F2F2" stroke="#666666" stroke-linejoin="round" d="M14.1,129.1H9.5c-0.7,0-1.2-0.6-1.2-1.2v-6.2
			c0-0.7,0.6-1.2,1.2-1.2h4.6c0.7,0,1.2,0.6,1.2,1.2v6.2C15.4,128.6,14.8,129.1,14.1,129.1z"/>
		<path fill="#F2F2F2" stroke="#666666" stroke-linejoin="round" d="M6,129.1H5.8c-0.7,0-1.2-0.6-1.2-1.2v-6.2
			c0-0.7,0.6-1.2,1.2-1.2H6c0.7,0,1.2,0.6,1.2,1.2v6.2C7.2,128.6,6.6,129.1,6,129.1z"/>
		<path fill="#F2F2F2" stroke="#666666" stroke-linejoin="round" d="M14.1,118.2H9.5c-0.7,0-1.2-0.6-1.2-1.2v-6.2
			c0-0.7,0.6-1.2,1.2-1.2h4.6c0.7,0,1.2,0.6,1.2,1.2v6.2C15.4,117.6,14.8,118.2,14.1,118.2z"/>
		<path fill="#F2F2F2" stroke="#666666" stroke-linejoin="round" d="M6,118.2H5.8c-0.7,0-1.2-0.6-1.2-1.2v-6.2
			c0-0.7,0.6-1.2,1.2-1.2H6c0.7,0,1.2,0.6,1.2,1.2v6.2C7.2,117.6,6.6,118.2,6,118.2z"/>
		<path fill="#F2F2F2" stroke="#666666" stroke-linejoin="round" d="M14.1,107.2H9.5c-0.7,0-1.2-0.6-1.2-1.2v-6.2
			c0-0.7,0.6-1.2,1.2-1.2h4.6c0.7,0,1.2,0.6,1.2,1.2v6.2C15.4,106.7,14.8,107.2,14.1,107.2z"/>
		<path fill="#F2F2F2" stroke="#666666" stroke-linejoin="round" d="M6,107.2H5.8c-0.7,0-1.2-0.6-1.2-1.2v-6.2
			c0-0.7,0.6-1.2,1.2-1.2H6c0.7,0,1.2,0.6,1.2,1.2v6.2C7.2,106.7,6.6,107.2,6,107.2z"/>
		<path fill="#F2F2F2" stroke="#666666" stroke-linejoin="round" d="M19.3,49.2h14.3c0.7,0,1.2,0.6,1.2,1.2V74
			c0,0.7-0.6,1.2-1.2,1.2H19.3c-0.7,0-1.2-0.6-1.2-1.2V50.5C18,49.8,18.6,49.2,19.3,49.2z"/>
		<path fill="#F2F2F2" stroke="#666666" stroke-linejoin="round" d="M19.3,76.3h14.3c0.7,0,1.2,0.6,1.2,1.2v23.5
			c0,0.7-0.6,1.2-1.2,1.2H19.3c-0.7,0-1.2-0.6-1.2-1.2V77.5C18,76.8,18.6,76.3,19.3,76.3z"/>
		<path fill="#F2F2F2" stroke="#666666" stroke-linejoin="round" d="M19.3,103.4h14.3c0.7,0,1.2,0.6,1.2,1.2v23.5
			c0,0.7-0.6,1.2-1.2,1.2H19.3c-0.7,0-1.2-0.6-1.2-1.2v-23.5C18,103.9,18.6,103.4,19.3,103.4z"/>
		<path fill="#F2F2F2" stroke="#666666" stroke-linejoin="round" d="M19.3,130.5h14.3c0.7,0,1.2,0.6,1.2,1.2v23.5
			c0,0.7-0.6,1.2-1.2,1.2H19.3c-0.7,0-1.2-0.6-1.2-1.2v-23.5C18,131,18.6,130.5,19.3,130.5z"/>
	</g>
</g>
</svg>
