<?xml version="1.0" encoding="utf-8"?>
<!-- Generator: Adobe Illustrator 21.0.0, SVG Export Plug-In . SVG Version: 6.00 Build 0)  -->
<svg version="1.0" id="Слой_1" xmlns="http://www.w3.org/2000/svg" xmlns:xlink="http://www.w3.org/1999/xlink" x="0px" y="0px"
	 viewBox="0 0 525.9 203.4" enable-background="new 0 0 525.9 203.4" xml:space="preserve">
<title>Ala-Too 200person (150)</title>
<g id="Слой_2">
	<g id="Ala-Too_class_60_75_">
		<path fill="#F2F2F2" stroke="#666666" stroke-linejoin="round" d="M44.7,35.2h24.4c1.2,0,2.1,1,2.1,2.1v40.2c0,1.2-1,2.1-2.1,2.1
			H44.7c-1.2,0-2.1-1-2.1-2.1V37.3C42.6,36.1,43.5,35.2,44.7,35.2z"/>
		<path fill="#F2F2F2" stroke="#666666" stroke-linejoin="round" d="M44.7,81.4h24.4c1.2,0,2.1,1,2.1,2.1v40.2c0,1.2-1,2.1-2.1,2.1
			H44.7c-1.2,0-2.1-1-2.1-2.1V83.6C42.6,82.4,43.5,81.4,44.7,81.4z"/>
		<path fill="#F2F2F2" stroke="#666666" stroke-linejoin="round" d="M44.7,127.7h24.4c1.2,0,2.1,1,2.1,2.1v40.2c0,1.2-1,2.1-2.1,2.1
			H44.7c-1.2,0-2.1-1-2.1-2.1v-40.2C42.6,128.7,43.5,127.7,44.7,127.7z"/>
		<path fill="#F2F2F2" stroke="#666666" stroke-linejoin="round" d="M104.9,9.7h24.4c1.2,0,2.1,1,2.1,2.1V52c0,1.2-1,2.1-2.1,2.1
			h-24.4c-1.2,0-2.1-1-2.1-2.1V11.8C102.8,10.7,103.8,9.7,104.9,9.7z"/>
		<path fill="#F2F2F2" stroke="#666666" stroke-linejoin="round" d="M104.9,56h24.4c1.2,0,2.1,1,2.1,2.1v40.2c0,1.2-1,2.1-2.1,2.1
			h-24.4c-1.2,0-2.1-1-2.1-2.1V58.1C102.8,56.9,103.8,56,104.9,56z"/>
		<path fill="#F2F2F2" stroke="#666666" stroke-linejoin="round" d="M104.9,102.3h24.4c1.2,0,2.1,1,2.1,2.1v40.2
			c0,1.2-1,2.1-2.1,2.1h-24.4c-1.2,0-2.1-1-2.1-2.1v-40.2C102.8,103.2,103.8,102.3,104.9,102.3z"/>
		<path fill="#F2F2F2" stroke="#666666" stroke-linejoin="round" d="M104.9,148.6h24.4c1.2,0,2.1,1,2.1,2.1v40.2
			c0,1.2-1,2.1-2.1,2.1h-24.4c-1.2,0-2.1-1-2.1-2.1v-40.2C102.8,149.5,103.8,148.6,104.9,148.6z"/>
		<path fill="#F2F2F2" stroke="#666666" stroke-linejoin="round" d="M140.9,9.7h7.9c1.2,0,2.1,1,2.1,2.1v10.6c0,1.2-1,2.1-2.1,2.1
			h-7.9c-1.2,0-2.1-1-2.1-2.1V11.8C138.8,10.7,139.7,9.7,140.9,9.7z"/>
		<path fill="#F2F2F2" stroke="#666666" stroke-linejoin="round" d="M154.9,9.7h0.3c1.2,0,2.1,1,2.1,2.1v10.6c0,1.2-1,2.1-2.1,2.1
			h-0.3c-1.2,0-2.1-1-2.1-2.1V11.8C152.7,10.7,153.7,9.7,154.9,9.7z"/>
		<path fill="#F2F2F2" stroke="#666666" stroke-linejoin="round" d="M140.9,28.4h7.9c1.2,0,2.1,1,2.1,2.1v10.6c0,1.2-1,2.1-2.1,2.1
			h-7.9c-1.2,0-2.1-1-2.1-2.1V30.5C138.8,29.4,139.7,28.4,140.9,28.4z"/>
		<path fill="#F2F2F2" stroke="#666666" stroke-linejoin="round" d="M154.9,28.4h0.3c1.2,0,2.1,1,2.1,2.1v10.6c0,1.2-1,2.1-2.1,2.1
			h-0.3c-1.2,0-2.1-1-2.1-2.1V30.5C152.7,29.4,153.7,28.4,154.9,28.4z"/>
		<path fill="#F2F2F2" stroke="#666666" stroke-linejoin="round" d="M140.9,47.1h7.9c1.2,0,2.1,1,2.1,2.1v10.6c0,1.2-1,2.1-2.1,2.1
			h-7.9c-1.2,0-2.1-1-2.1-2.1V49.3C138.8,48.1,139.7,47.1,140.9,47.1z"/>
		<path fill="#F2F2F2" stroke="#666666" stroke-linejoin="round" d="M154.9,47.1h0.3c1.2,0,2.1,1,2.1,2.1v10.6c0,1.2-1,2.1-2.1,2.1
			h-0.3c-1.2,0-2.1-1-2.1-2.1V49.3C152.7,48.1,153.7,47.1,154.9,47.1z"/>
		<path fill="#F2F2F2" stroke="#666666" stroke-linejoin="round" d="M140.9,65.9h7.9c1.2,0,2.1,1,2.1,2.1v10.6c0,1.2-1,2.1-2.1,2.1
			h-7.9c-1.2,0-2.1-1-2.1-2.1V68C138.8,66.8,139.7,65.9,140.9,65.9z"/>
		<path fill="#F2F2F2" stroke="#666666" stroke-linejoin="round" d="M154.9,65.9h0.3c1.2,0,2.1,1,2.1,2.1v10.6c0,1.2-1,2.1-2.1,2.1
			h-0.3c-1.2,0-2.1-1-2.1-2.1V68C152.7,66.8,153.7,65.9,154.9,65.9z"/>
		<path fill="#F2F2F2" stroke="#666666" stroke-linejoin="round" d="M140.9,84.6h7.9c1.2,0,2.1,1,2.1,2.1v10.6c0,1.2-1,2.1-2.1,2.1
			h-7.9c-1.2,0-2.1-1-2.1-2.1V86.7C138.8,85.5,139.7,84.6,140.9,84.6z"/>
		<path fill="#F2F2F2" stroke="#666666" stroke-linejoin="round" d="M154.9,84.6h0.3c1.2,0,2.1,1,2.1,2.1v10.6c0,1.2-1,2.1-2.1,2.1
			h-0.3c-1.2,0-2.1-1-2.1-2.1V86.7C152.7,85.5,153.7,84.6,154.9,84.6z"/>
		<path fill="#F2F2F2" stroke="#666666" stroke-linejoin="round" d="M140.9,103.3h7.9c1.2,0,2.1,1,2.1,2.1V116c0,1.2-1,2.1-2.1,2.1
			h-7.9c-1.2,0-2.1-1-2.1-2.1v-10.6C138.8,104.2,139.7,103.3,140.9,103.3z"/>
		<path fill="#F2F2F2" stroke="#666666" stroke-linejoin="round" d="M154.9,103.3h0.3c1.2,0,2.1,1,2.1,2.1V116c0,1.2-1,2.1-2.1,2.1
			h-0.3c-1.2,0-2.1-1-2.1-2.1v-10.6C152.7,104.2,153.7,103.3,154.9,103.3z"/>
		<path fill="#F2F2F2" stroke="#666666" stroke-linejoin="round" d="M140.9,122h7.9c1.2,0,2.1,1,2.1,2.1v10.6c0,1.2-1,2.1-2.1,2.1
			h-7.9c-1.2,0-2.1-1-2.1-2.1v-10.6C138.8,123,139.7,122,140.9,122z"/>
		<path fill="#F2F2F2" stroke="#666666" stroke-linejoin="round" d="M154.9,122h0.3c1.2,0,2.1,1,2.1,2.1v10.6c0,1.2-1,2.1-2.1,2.1
			h-0.3c-1.2,0-2.1-1-2.1-2.1v-10.6C152.7,123,153.7,122,154.9,122z"/>
		<path fill="#F2F2F2" stroke="#666666" stroke-linejoin="round" d="M140.9,140.7h7.9c1.2,0,2.1,1,2.1,2.1v10.6c0,1.2-1,2.1-2.1,2.1
			h-7.9c-1.2,0-2.1-1-2.1-2.1v-10.6C138.8,141.7,139.7,140.7,140.9,140.7z"/>
		<path fill="#F2F2F2" stroke="#666666" stroke-linejoin="round" d="M154.9,140.7h0.3c1.2,0,2.1,1,2.1,2.1v10.6c0,1.2-1,2.1-2.1,2.1
			h-0.3c-1.2,0-2.1-1-2.1-2.1v-10.6C152.7,141.7,153.7,140.7,154.9,140.7z"/>
		<path fill="#F2F2F2" stroke="#666666" stroke-linejoin="round" d="M140.9,159.4h7.9c1.2,0,2.1,1,2.1,2.1v10.6c0,1.2-1,2.1-2.1,2.1
			h-7.9c-1.2,0-2.1-1-2.1-2.1v-10.6C138.8,160.4,139.7,159.4,140.9,159.4z"/>
		<path fill="#F2F2F2" stroke="#666666" stroke-linejoin="round" d="M154.9,159.4h0.3c1.2,0,2.1,1,2.1,2.1v10.6c0,1.2-1,2.1-2.1,2.1
			h-0.3c-1.2,0-2.1-1-2.1-2.1v-10.6C152.7,160.4,153.7,159.4,154.9,159.4z"/>
		<path fill="#F2F2F2" stroke="#666666" stroke-linejoin="round" d="M140.9,178.2h7.9c1.2,0,2.1,1,2.1,2.1v10.6c0,1.2-1,2.1-2.1,2.1
			h-7.9c-1.2,0-2.1-1-2.1-2.1v-10.6C138.8,179.1,139.7,178.2,140.9,178.2z"/>
		<path fill="#F2F2F2" stroke="#666666" stroke-linejoin="round" d="M154.9,178.2h0.3c1.2,0,2.1,1,2.1,2.1v10.6c0,1.2-1,2.1-2.1,2.1
			h-0.3c-1.2,0-2.1-1-2.1-2.1v-10.6C152.7,179.1,153.7,178.2,154.9,178.2z"/>
		<path fill="#F2F2F2" stroke="#666666" stroke-linejoin="round" d="M176.5,9.7h24.4c1.2,0,2.1,1,2.1,2.1V52c0,1.2-1,2.1-2.1,2.1
			h-24.4c-1.2,0-2.1-1-2.1-2.1V11.8C174.4,10.7,175.3,9.7,176.5,9.7z"/>
		<path fill="#F2F2F2" stroke="#666666" stroke-linejoin="round" d="M176.5,56h24.4c1.2,0,2.1,1,2.1,2.1v40.2c0,1.2-1,2.1-2.1,2.1
			h-24.4c-1.2,0-2.1-1-2.1-2.1V58.1C174.4,56.9,175.3,56,176.5,56z"/>
		<path fill="#F2F2F2" stroke="#666666" stroke-linejoin="round" d="M176.5,102.3h24.4c1.2,0,2.1,1,2.1,2.1v40.2
			c0,1.2-1,2.1-2.1,2.1h-24.4c-1.2,0-2.1-1-2.1-2.1v-40.2C174.4,103.2,175.3,102.3,176.5,102.3z"/>
		<path fill="#F2F2F2" stroke="#666666" stroke-linejoin="round" d="M176.5,148.6h24.4c1.2,0,2.1,1,2.1,2.1v40.2
			c0,1.2-1,2.1-2.1,2.1h-24.4c-1.2,0-2.1-1-2.1-2.1v-40.2C174.4,149.5,175.3,148.6,176.5,148.6z"/>
		<path fill="#F2F2F2" stroke="#666666" stroke-linejoin="round" d="M212.5,9.7h7.9c1.2,0,2.1,1,2.1,2.1v10.6c0,1.2-1,2.1-2.1,2.1
			h-7.9c-1.2,0-2.1-1-2.1-2.1V11.8C210.3,10.7,211.3,9.7,212.5,9.7z"/>
		<path fill="#F2F2F2" stroke="#666666" stroke-linejoin="round" d="M226.4,9.7h0.3c1.2,0,2.1,1,2.1,2.1v10.6c0,1.2-1,2.1-2.1,2.1
			h-0.3c-1.2,0-2.1-1-2.1-2.1V11.8C224.3,10.7,225.2,9.7,226.4,9.7z"/>
		<path fill="#F2F2F2" stroke="#666666" stroke-linejoin="round" d="M212.5,28.4h7.9c1.2,0,2.1,1,2.1,2.1v10.6c0,1.2-1,2.1-2.1,2.1
			h-7.9c-1.2,0-2.1-1-2.1-2.1V30.5C210.3,29.4,211.3,28.4,212.5,28.4z"/>
		<path fill="#F2F2F2" stroke="#666666" stroke-linejoin="round" d="M226.4,28.4h0.3c1.2,0,2.1,1,2.1,2.1v10.6c0,1.2-1,2.1-2.1,2.1
			h-0.3c-1.2,0-2.1-1-2.1-2.1V30.5C224.3,29.4,225.2,28.4,226.4,28.4z"/>
		<path fill="#F2F2F2" stroke="#666666" stroke-linejoin="round" d="M212.5,47.1h7.9c1.2,0,2.1,1,2.1,2.1v10.6c0,1.2-1,2.1-2.1,2.1
			h-7.9c-1.2,0-2.1-1-2.1-2.1V49.3C210.3,48.1,211.3,47.1,212.5,47.1z"/>
		<path fill="#F2F2F2" stroke="#666666" stroke-linejoin="round" d="M226.4,47.1h0.3c1.2,0,2.1,1,2.1,2.1v10.6c0,1.2-1,2.1-2.1,2.1
			h-0.3c-1.2,0-2.1-1-2.1-2.1V49.3C224.3,48.1,225.2,47.1,226.4,47.1z"/>
		<path fill="#F2F2F2" stroke="#666666" stroke-linejoin="round" d="M212.5,65.9h7.9c1.2,0,2.1,1,2.1,2.1v10.6c0,1.2-1,2.1-2.1,2.1
			h-7.9c-1.2,0-2.1-1-2.1-2.1V68C210.3,66.8,211.3,65.9,212.5,65.9z"/>
		<path fill="#F2F2F2" stroke="#666666" stroke-linejoin="round" d="M226.4,65.9h0.3c1.2,0,2.1,1,2.1,2.1v10.6c0,1.2-1,2.1-2.1,2.1
			h-0.3c-1.2,0-2.1-1-2.1-2.1V68C224.3,66.8,225.2,65.9,226.4,65.9z"/>
		<path fill="#F2F2F2" stroke="#666666" stroke-linejoin="round" d="M212.5,84.6h7.9c1.2,0,2.1,1,2.1,2.1v10.6c0,1.2-1,2.1-2.1,2.1
			h-7.9c-1.2,0-2.1-1-2.1-2.1V86.7C210.3,85.5,211.3,84.6,212.5,84.6z"/>
		<path fill="#F2F2F2" stroke="#666666" stroke-linejoin="round" d="M226.4,84.6h0.3c1.2,0,2.1,1,2.1,2.1v10.6c0,1.2-1,2.1-2.1,2.1
			h-0.3c-1.2,0-2.1-1-2.1-2.1V86.7C224.3,85.5,225.2,84.6,226.4,84.6z"/>
		<path fill="#F2F2F2" stroke="#666666" stroke-linejoin="round" d="M212.5,103.3h7.9c1.2,0,2.1,1,2.1,2.1V116c0,1.2-1,2.1-2.1,2.1
			h-7.9c-1.2,0-2.1-1-2.1-2.1v-10.6C210.3,104.2,211.3,103.3,212.5,103.3z"/>
		<path fill="#F2F2F2" stroke="#666666" stroke-linejoin="round" d="M226.4,103.3h0.3c1.2,0,2.1,1,2.1,2.1V116c0,1.2-1,2.1-2.1,2.1
			h-0.3c-1.2,0-2.1-1-2.1-2.1v-10.6C224.3,104.2,225.2,103.3,226.4,103.3z"/>
		<path fill="#F2F2F2" stroke="#666666" stroke-linejoin="round" d="M212.5,122h7.9c1.2,0,2.1,1,2.1,2.1v10.6c0,1.2-1,2.1-2.1,2.1
			h-7.9c-1.2,0-2.1-1-2.1-2.1v-10.6C210.3,123,211.3,122,212.5,122z"/>
		<path fill="#F2F2F2" stroke="#666666" stroke-linejoin="round" d="M226.4,122h0.3c1.2,0,2.1,1,2.1,2.1v10.6c0,1.2-1,2.1-2.1,2.1
			h-0.3c-1.2,0-2.1-1-2.1-2.1v-10.6C224.3,123,225.2,122,226.4,122z"/>
		<path fill="#F2F2F2" stroke="#666666" stroke-linejoin="round" d="M212.5,140.7h7.9c1.2,0,2.1,1,2.1,2.1v10.6c0,1.2-1,2.1-2.1,2.1
			h-7.9c-1.2,0-2.1-1-2.1-2.1v-10.6C210.3,141.7,211.3,140.7,212.5,140.7z"/>
		<path fill="#F2F2F2" stroke="#666666" stroke-linejoin="round" d="M226.4,140.7h0.3c1.2,0,2.1,1,2.1,2.1v10.6c0,1.2-1,2.1-2.1,2.1
			h-0.3c-1.2,0-2.1-1-2.1-2.1v-10.6C224.3,141.7,225.2,140.7,226.4,140.7z"/>
		<path fill="#F2F2F2" stroke="#666666" stroke-linejoin="round" d="M212.5,159.4h7.9c1.2,0,2.1,1,2.1,2.1v10.6c0,1.2-1,2.1-2.1,2.1
			h-7.9c-1.2,0-2.1-1-2.1-2.1v-10.6C210.3,160.4,211.3,159.4,212.5,159.4z"/>
		<path fill="#F2F2F2" stroke="#666666" stroke-linejoin="round" d="M226.4,159.4h0.3c1.2,0,2.1,1,2.1,2.1v10.6c0,1.2-1,2.1-2.1,2.1
			h-0.3c-1.2,0-2.1-1-2.1-2.1v-10.6C224.3,160.4,225.2,159.4,226.4,159.4z"/>
		<path fill="#F2F2F2" stroke="#666666" stroke-linejoin="round" d="M212.5,178.2h7.9c1.2,0,2.1,1,2.1,2.1v10.6c0,1.2-1,2.1-2.1,2.1
			h-7.9c-1.2,0-2.1-1-2.1-2.1v-10.6C210.3,179.1,211.3,178.2,212.5,178.2z"/>
		<path fill="#F2F2F2" stroke="#666666" stroke-linejoin="round" d="M226.4,178.2h0.3c1.2,0,2.1,1,2.1,2.1v10.6c0,1.2-1,2.1-2.1,2.1
			h-0.3c-1.2,0-2.1-1-2.1-2.1v-10.6C224.3,179.1,225.2,178.2,226.4,178.2z"/>
		<path fill="#F2F2F2" stroke="#666666" stroke-linejoin="round" d="M248.6,9.7H273c1.2,0,2.1,1,2.1,2.1V52c0,1.2-1,2.1-2.1,2.1
			h-24.4c-1.2,0-2.1-1-2.1-2.1V11.8C246.4,10.7,247.4,9.7,248.6,9.7z"/>
		<path fill="#F2F2F2" stroke="#666666" stroke-linejoin="round" d="M248.6,56H273c1.2,0,2.1,1,2.1,2.1v40.2c0,1.2-1,2.1-2.1,2.1
			h-24.4c-1.2,0-2.1-1-2.1-2.1V58.1C246.4,56.9,247.4,56,248.6,56z"/>
		<path fill="#F2F2F2" stroke="#666666" stroke-linejoin="round" d="M248.6,102.3H273c1.2,0,2.1,1,2.1,2.1v40.2c0,1.2-1,2.1-2.1,2.1
			h-24.4c-1.2,0-2.1-1-2.1-2.1v-40.2C246.4,103.2,247.4,102.3,248.6,102.3z"/>
		<path fill="#F2F2F2" stroke="#666666" stroke-linejoin="round" d="M248.6,148.6H273c1.2,0,2.1,1,2.1,2.1v40.2c0,1.2-1,2.1-2.1,2.1
			h-24.4c-1.2,0-2.1-1-2.1-2.1v-40.2C246.4,149.5,247.4,148.6,248.6,148.6z"/>
		<path fill="#F2F2F2" stroke="#666666" stroke-linejoin="round" d="M284.5,9.7h7.9c1.2,0,2.1,1,2.1,2.1v10.6c0,1.2-1,2.1-2.1,2.1
			h-7.9c-1.2,0-2.1-1-2.1-2.1V11.8C282.4,10.7,283.4,9.7,284.5,9.7z"/>
		<path fill="#F2F2F2" stroke="#666666" stroke-linejoin="round" d="M298.5,9.7h0.3c1.2,0,2.1,1,2.1,2.1v10.6c0,1.2-1,2.1-2.1,2.1
			h-0.3c-1.2,0-2.1-1-2.1-2.1V11.8C296.4,10.7,297.3,9.7,298.5,9.7z"/>
		<path fill="#F2F2F2" stroke="#666666" stroke-linejoin="round" d="M284.5,28.4h7.9c1.2,0,2.1,1,2.1,2.1v10.6c0,1.2-1,2.1-2.1,2.1
			h-7.9c-1.2,0-2.1-1-2.1-2.1V30.5C282.4,29.4,283.4,28.4,284.5,28.4z"/>
		<path fill="#F2F2F2" stroke="#666666" stroke-linejoin="round" d="M298.5,28.4h0.3c1.2,0,2.1,1,2.1,2.1v10.6c0,1.2-1,2.1-2.1,2.1
			h-0.3c-1.2,0-2.1-1-2.1-2.1V30.5C296.4,29.4,297.3,28.4,298.5,28.4z"/>
		<path fill="#F2F2F2" stroke="#666666" stroke-linejoin="round" d="M284.5,47.1h7.9c1.2,0,2.1,1,2.1,2.1v10.6c0,1.2-1,2.1-2.1,2.1
			h-7.9c-1.2,0-2.1-1-2.1-2.1V49.3C282.4,48.1,283.4,47.1,284.5,47.1z"/>
		<path fill="#F2F2F2" stroke="#666666" stroke-linejoin="round" d="M298.5,47.1h0.3c1.2,0,2.1,1,2.1,2.1v10.6c0,1.2-1,2.1-2.1,2.1
			h-0.3c-1.2,0-2.1-1-2.1-2.1V49.3C296.4,48.1,297.3,47.1,298.5,47.1z"/>
		<path fill="#F2F2F2" stroke="#666666" stroke-linejoin="round" d="M284.5,65.9h7.9c1.2,0,2.1,1,2.1,2.1v10.6c0,1.2-1,2.1-2.1,2.1
			h-7.9c-1.2,0-2.1-1-2.1-2.1V68C282.4,66.8,283.4,65.9,284.5,65.9z"/>
		<path fill="#F2F2F2" stroke="#666666" stroke-linejoin="round" d="M298.5,65.9h0.3c1.2,0,2.1,1,2.1,2.1v10.6c0,1.2-1,2.1-2.1,2.1
			h-0.3c-1.2,0-2.1-1-2.1-2.1V68C296.4,66.8,297.3,65.9,298.5,65.9z"/>
		<path fill="#F2F2F2" stroke="#666666" stroke-linejoin="round" d="M284.5,84.6h7.9c1.2,0,2.1,1,2.1,2.1v10.6c0,1.2-1,2.1-2.1,2.1
			h-7.9c-1.2,0-2.1-1-2.1-2.1V86.7C282.4,85.5,283.4,84.6,284.5,84.6z"/>
		<path fill="#F2F2F2" stroke="#666666" stroke-linejoin="round" d="M298.5,84.6h0.3c1.2,0,2.1,1,2.1,2.1v10.6c0,1.2-1,2.1-2.1,2.1
			h-0.3c-1.2,0-2.1-1-2.1-2.1V86.7C296.4,85.5,297.3,84.6,298.5,84.6z"/>
		<path fill="#F2F2F2" stroke="#666666" stroke-linejoin="round" d="M284.5,103.3h7.9c1.2,0,2.1,1,2.1,2.1V116c0,1.2-1,2.1-2.1,2.1
			h-7.9c-1.2,0-2.1-1-2.1-2.1v-10.6C282.4,104.2,283.4,103.3,284.5,103.3z"/>
		<path fill="#F2F2F2" stroke="#666666" stroke-linejoin="round" d="M298.5,103.3h0.3c1.2,0,2.1,1,2.1,2.1V116c0,1.2-1,2.1-2.1,2.1
			h-0.3c-1.2,0-2.1-1-2.1-2.1v-10.6C296.4,104.2,297.3,103.3,298.5,103.3z"/>
		<path fill="#F2F2F2" stroke="#666666" stroke-linejoin="round" d="M284.5,122h7.9c1.2,0,2.1,1,2.1,2.1v10.6c0,1.2-1,2.1-2.1,2.1
			h-7.9c-1.2,0-2.1-1-2.1-2.1v-10.6C282.4,123,283.4,122,284.5,122z"/>
		<path fill="#F2F2F2" stroke="#666666" stroke-linejoin="round" d="M298.5,122h0.3c1.2,0,2.1,1,2.1,2.1v10.6c0,1.2-1,2.1-2.1,2.1
			h-0.3c-1.2,0-2.1-1-2.1-2.1v-10.6C296.4,123,297.3,122,298.5,122z"/>
		<path fill="#F2F2F2" stroke="#666666" stroke-linejoin="round" d="M284.5,140.7h7.9c1.2,0,2.1,1,2.1,2.1v10.6c0,1.2-1,2.1-2.1,2.1
			h-7.9c-1.2,0-2.1-1-2.1-2.1v-10.6C282.4,141.7,283.4,140.7,284.5,140.7z"/>
		<path fill="#F2F2F2" stroke="#666666" stroke-linejoin="round" d="M298.5,140.7h0.3c1.2,0,2.1,1,2.1,2.1v10.6c0,1.2-1,2.1-2.1,2.1
			h-0.3c-1.2,0-2.1-1-2.1-2.1v-10.6C296.4,141.7,297.3,140.7,298.5,140.7z"/>
		<path fill="#F2F2F2" stroke="#666666" stroke-linejoin="round" d="M284.5,159.4h7.9c1.2,0,2.1,1,2.1,2.1v10.6c0,1.2-1,2.1-2.1,2.1
			h-7.9c-1.2,0-2.1-1-2.1-2.1v-10.6C282.4,160.4,283.4,159.4,284.5,159.4z"/>
		<path fill="#F2F2F2" stroke="#666666" stroke-linejoin="round" d="M298.5,159.4h0.3c1.2,0,2.1,1,2.1,2.1v10.6c0,1.2-1,2.1-2.1,2.1
			h-0.3c-1.2,0-2.1-1-2.1-2.1v-10.6C296.4,160.4,297.3,159.4,298.5,159.4z"/>
		<path fill="#F2F2F2" stroke="#666666" stroke-linejoin="round" d="M284.5,178.2h7.9c1.2,0,2.1,1,2.1,2.1v10.6c0,1.2-1,2.1-2.1,2.1
			h-7.9c-1.2,0-2.1-1-2.1-2.1v-10.6C282.4,179.1,283.4,178.2,284.5,178.2z"/>
		<path fill="#F2F2F2" stroke="#666666" stroke-linejoin="round" d="M298.5,178.2h0.3c1.2,0,2.1,1,2.1,2.1v10.6c0,1.2-1,2.1-2.1,2.1
			h-0.3c-1.2,0-2.1-1-2.1-2.1v-10.6C296.4,179.1,297.3,178.2,298.5,178.2z"/>
		<path fill="#F2F2F2" stroke="#666666" stroke-linejoin="round" d="M320.6,9.7h24.4c1.2,0,2.1,1,2.1,2.1V52c0,1.2-1,2.1-2.1,2.1
			h-24.4c-1.2,0-2.1-1-2.1-2.1V11.8C318.5,10.7,319.5,9.7,320.6,9.7z"/>
		<path fill="#F2F2F2" stroke="#666666" stroke-linejoin="round" d="M320.6,56h24.4c1.2,0,2.1,1,2.1,2.1v40.2c0,1.2-1,2.1-2.1,2.1
			h-24.4c-1.2,0-2.1-1-2.1-2.1V58.1C318.5,56.9,319.5,56,320.6,56z"/>
		<path fill="#F2F2F2" stroke="#666666" stroke-linejoin="round" d="M320.6,102.3h24.4c1.2,0,2.1,1,2.1,2.1v40.2
			c0,1.2-1,2.1-2.1,2.1h-24.4c-1.2,0-2.1-1-2.1-2.1v-40.2C318.5,103.2,319.5,102.3,320.6,102.3z"/>
		<path fill="#F2F2F2" stroke="#666666" stroke-linejoin="round" d="M320.6,148.6h24.4c1.2,0,2.1,1,2.1,2.1v40.2
			c0,1.2-1,2.1-2.1,2.1h-24.4c-1.2,0-2.1-1-2.1-2.1v-40.2C318.5,149.5,319.5,148.6,320.6,148.6z"/>
		<path fill="#F2F2F2" stroke="#666666" stroke-linejoin="round" d="M356.6,9.7h7.9c1.2,0,2.1,1,2.1,2.1v10.6c0,1.2-1,2.1-2.1,2.1
			h-7.9c-1.2,0-2.1-1-2.1-2.1V11.8C354.5,10.7,355.4,9.7,356.6,9.7z"/>
		<path fill="#F2F2F2" stroke="#666666" stroke-linejoin="round" d="M370.6,9.7h0.3c1.2,0,2.1,1,2.1,2.1v10.6c0,1.2-1,2.1-2.1,2.1
			h-0.3c-1.2,0-2.1-1-2.1-2.1V11.8C368.4,10.7,369.4,9.7,370.6,9.7z"/>
		<path fill="#F2F2F2" stroke="#666666" stroke-linejoin="round" d="M356.6,28.4h7.9c1.2,0,2.1,1,2.1,2.1v10.6c0,1.2-1,2.1-2.1,2.1
			h-7.9c-1.2,0-2.1-1-2.1-2.1V30.5C354.5,29.4,355.4,28.4,356.6,28.4z"/>
		<path fill="#F2F2F2" stroke="#666666" stroke-linejoin="round" d="M370.6,28.4h0.3c1.2,0,2.1,1,2.1,2.1v10.6c0,1.2-1,2.1-2.1,2.1
			h-0.3c-1.2,0-2.1-1-2.1-2.1V30.5C368.4,29.4,369.4,28.4,370.6,28.4z"/>
		<path fill="#F2F2F2" stroke="#666666" stroke-linejoin="round" d="M356.6,47.1h7.9c1.2,0,2.1,1,2.1,2.1v10.6c0,1.2-1,2.1-2.1,2.1
			h-7.9c-1.2,0-2.1-1-2.1-2.1V49.3C354.5,48.1,355.4,47.1,356.6,47.1z"/>
		<path fill="#F2F2F2" stroke="#666666" stroke-linejoin="round" d="M370.6,47.1h0.3c1.2,0,2.1,1,2.1,2.1v10.6c0,1.2-1,2.1-2.1,2.1
			h-0.3c-1.2,0-2.1-1-2.1-2.1V49.3C368.4,48.1,369.4,47.1,370.6,47.1z"/>
		<path fill="#F2F2F2" stroke="#666666" stroke-linejoin="round" d="M356.6,65.9h7.9c1.2,0,2.1,1,2.1,2.1v10.6c0,1.2-1,2.1-2.1,2.1
			h-7.9c-1.2,0-2.1-1-2.1-2.1V68C354.5,66.8,355.4,65.9,356.6,65.9z"/>
		<path fill="#F2F2F2" stroke="#666666" stroke-linejoin="round" d="M370.6,65.9h0.3c1.2,0,2.1,1,2.1,2.1v10.6c0,1.2-1,2.1-2.1,2.1
			h-0.3c-1.2,0-2.1-1-2.1-2.1V68C368.4,66.8,369.4,65.9,370.6,65.9z"/>
		<path fill="#F2F2F2" stroke="#666666" stroke-linejoin="round" d="M356.6,84.6h7.9c1.2,0,2.1,1,2.1,2.1v10.6c0,1.2-1,2.1-2.1,2.1
			h-7.9c-1.2,0-2.1-1-2.1-2.1V86.7C354.5,85.5,355.4,84.6,356.6,84.6z"/>
		<path fill="#F2F2F2" stroke="#666666" stroke-linejoin="round" d="M370.6,84.6h0.3c1.2,0,2.1,1,2.1,2.1v10.6c0,1.2-1,2.1-2.1,2.1
			h-0.3c-1.2,0-2.1-1-2.1-2.1V86.7C368.4,85.5,369.4,84.6,370.6,84.6z"/>
		<path fill="#F2F2F2" stroke="#666666" stroke-linejoin="round" d="M356.6,103.3h7.9c1.2,0,2.1,1,2.1,2.1V116c0,1.2-1,2.1-2.1,2.1
			h-7.9c-1.2,0-2.1-1-2.1-2.1v-10.6C354.5,104.2,355.4,103.3,356.6,103.3z"/>
		<path fill="#F2F2F2" stroke="#666666" stroke-linejoin="round" d="M370.6,103.3h0.3c1.2,0,2.1,1,2.1,2.1V116c0,1.2-1,2.1-2.1,2.1
			h-0.3c-1.2,0-2.1-1-2.1-2.1v-10.6C368.4,104.2,369.4,103.3,370.6,103.3z"/>
		<path fill="#F2F2F2" stroke="#666666" stroke-linejoin="round" d="M356.6,122h7.9c1.2,0,2.1,1,2.1,2.1v10.6c0,1.2-1,2.1-2.1,2.1
			h-7.9c-1.2,0-2.1-1-2.1-2.1v-10.6C354.5,123,355.4,122,356.6,122z"/>
		<path fill="#F2F2F2" stroke="#666666" stroke-linejoin="round" d="M370.6,122h0.3c1.2,0,2.1,1,2.1,2.1v10.6c0,1.2-1,2.1-2.1,2.1
			h-0.3c-1.2,0-2.1-1-2.1-2.1v-10.6C368.4,123,369.4,122,370.6,122z"/>
		<path fill="#F2F2F2" stroke="#666666" stroke-linejoin="round" d="M356.6,140.7h7.9c1.2,0,2.1,1,2.1,2.1v10.6c0,1.2-1,2.1-2.1,2.1
			h-7.9c-1.2,0-2.1-1-2.1-2.1v-10.6C354.5,141.7,355.4,140.7,356.6,140.7z"/>
		<path fill="#F2F2F2" stroke="#666666" stroke-linejoin="round" d="M370.6,140.7h0.3c1.2,0,2.1,1,2.1,2.1v10.6c0,1.2-1,2.1-2.1,2.1
			h-0.3c-1.2,0-2.1-1-2.1-2.1v-10.6C368.4,141.7,369.4,140.7,370.6,140.7z"/>
		<path fill="#F2F2F2" stroke="#666666" stroke-linejoin="round" d="M356.6,159.4h7.9c1.2,0,2.1,1,2.1,2.1v10.6c0,1.2-1,2.1-2.1,2.1
			h-7.9c-1.2,0-2.1-1-2.1-2.1v-10.6C354.5,160.4,355.4,159.4,356.6,159.4z"/>
		<path fill="#F2F2F2" stroke="#666666" stroke-linejoin="round" d="M370.6,159.4h0.3c1.2,0,2.1,1,2.1,2.1v10.6c0,1.2-1,2.1-2.1,2.1
			h-0.3c-1.2,0-2.1-1-2.1-2.1v-10.6C368.4,160.4,369.4,159.4,370.6,159.4z"/>
		<path fill="#F2F2F2" stroke="#666666" stroke-linejoin="round" d="M356.6,178.2h7.9c1.2,0,2.1,1,2.1,2.1v10.6c0,1.2-1,2.1-2.1,2.1
			h-7.9c-1.2,0-2.1-1-2.1-2.1v-10.6C354.5,179.1,355.4,178.2,356.6,178.2z"/>
		<path fill="#F2F2F2" stroke="#666666" stroke-linejoin="round" d="M370.6,178.2h0.3c1.2,0,2.1,1,2.1,2.1v10.6c0,1.2-1,2.1-2.1,2.1
			h-0.3c-1.2,0-2.1-1-2.1-2.1v-10.6C368.4,179.1,369.4,178.2,370.6,178.2z"/>
		<path fill="#F2F2F2" stroke="#666666" stroke-linejoin="round" d="M392.7,9.7h24.4c1.2,0,2.1,1,2.1,2.1V52c0,1.2-1,2.1-2.1,2.1
			h-24.4c-1.2,0-2.1-1-2.1-2.1V11.8C390.6,10.7,391.5,9.7,392.7,9.7z"/>
		<path fill="#F2F2F2" stroke="#666666" stroke-linejoin="round" d="M392.7,56h24.4c1.2,0,2.1,1,2.1,2.1v40.2c0,1.2-1,2.1-2.1,2.1
			h-24.4c-1.2,0-2.1-1-2.1-2.1V58.1C390.6,56.9,391.5,56,392.7,56z"/>
		<path fill="#F2F2F2" stroke="#666666" stroke-linejoin="round" d="M392.7,102.3h24.4c1.2,0,2.1,1,2.1,2.1v40.2
			c0,1.2-1,2.1-2.1,2.1h-24.4c-1.2,0-2.1-1-2.1-2.1v-40.2C390.6,103.2,391.5,102.3,392.7,102.3z"/>
		<path fill="#F2F2F2" stroke="#666666" stroke-linejoin="round" d="M392.7,148.6h24.4c1.2,0,2.1,1,2.1,2.1v40.2
			c0,1.2-1,2.1-2.1,2.1h-24.4c-1.2,0-2.1-1-2.1-2.1v-40.2C390.6,149.5,391.5,148.6,392.7,148.6z"/>
		<path fill="#F2F2F2" stroke="#666666" stroke-linejoin="round" d="M428.7,9.7h7.9c1.2,0,2.1,1,2.1,2.1v10.6c0,1.2-1,2.1-2.1,2.1
			h-7.9c-1.2,0-2.1-1-2.1-2.1V11.8C426.6,10.7,427.5,9.7,428.7,9.7z"/>
		<path fill="#F2F2F2" stroke="#666666" stroke-linejoin="round" d="M442.6,9.7h0.3c1.2,0,2.1,1,2.1,2.1v10.6c0,1.2-1,2.1-2.1,2.1
			h-0.3c-1.2,0-2.1-1-2.1-2.1V11.8C440.5,10.7,441.5,9.7,442.6,9.7z"/>
		<path fill="#F2F2F2" stroke="#666666" stroke-linejoin="round" d="M428.7,28.4h7.9c1.2,0,2.1,1,2.1,2.1v10.6c0,1.2-1,2.1-2.1,2.1
			h-7.9c-1.2,0-2.1-1-2.1-2.1V30.5C426.6,29.4,427.5,28.4,428.7,28.4z"/>
		<path fill="#F2F2F2" stroke="#666666" stroke-linejoin="round" d="M442.6,28.4h0.3c1.2,0,2.1,1,2.1,2.1v10.6c0,1.2-1,2.1-2.1,2.1
			h-0.3c-1.2,0-2.1-1-2.1-2.1V30.5C440.5,29.4,441.5,28.4,442.6,28.4z"/>
		<path fill="#F2F2F2" stroke="#666666" stroke-linejoin="round" d="M428.7,47.1h7.9c1.2,0,2.1,1,2.1,2.1v10.6c0,1.2-1,2.1-2.1,2.1
			h-7.9c-1.2,0-2.1-1-2.1-2.1V49.3C426.6,48.1,427.5,47.1,428.7,47.1z"/>
		<path fill="#F2F2F2" stroke="#666666" stroke-linejoin="round" d="M442.6,47.1h0.3c1.2,0,2.1,1,2.1,2.1v10.6c0,1.2-1,2.1-2.1,2.1
			h-0.3c-1.2,0-2.1-1-2.1-2.1V49.3C440.5,48.1,441.5,47.1,442.6,47.1z"/>
		<path fill="#F2F2F2" stroke="#666666" stroke-linejoin="round" d="M428.7,65.9h7.9c1.2,0,2.1,1,2.1,2.1v10.6c0,1.2-1,2.1-2.1,2.1
			h-7.9c-1.2,0-2.1-1-2.1-2.1V68C426.6,66.8,427.5,65.9,428.7,65.9z"/>
		<path fill="#F2F2F2" stroke="#666666" stroke-linejoin="round" d="M442.6,65.9h0.3c1.2,0,2.1,1,2.1,2.1v10.6c0,1.2-1,2.1-2.1,2.1
			h-0.3c-1.2,0-2.1-1-2.1-2.1V68C440.5,66.8,441.5,65.9,442.6,65.9z"/>
		<path fill="#F2F2F2" stroke="#666666" stroke-linejoin="round" d="M428.7,84.6h7.9c1.2,0,2.1,1,2.1,2.1v10.6c0,1.2-1,2.1-2.1,2.1
			h-7.9c-1.2,0-2.1-1-2.1-2.1V86.7C426.6,85.5,427.5,84.6,428.7,84.6z"/>
		<path fill="#F2F2F2" stroke="#666666" stroke-linejoin="round" d="M442.6,84.6h0.3c1.2,0,2.1,1,2.1,2.1v10.6c0,1.2-1,2.1-2.1,2.1
			h-0.3c-1.2,0-2.1-1-2.1-2.1V86.7C440.5,85.5,441.5,84.6,442.6,84.6z"/>
		<path fill="#F2F2F2" stroke="#666666" stroke-linejoin="round" d="M428.7,103.3h7.9c1.2,0,2.1,1,2.1,2.1V116c0,1.2-1,2.1-2.1,2.1
			h-7.9c-1.2,0-2.1-1-2.1-2.1v-10.6C426.6,104.2,427.5,103.3,428.7,103.3z"/>
		<path fill="#F2F2F2" stroke="#666666" stroke-linejoin="round" d="M442.6,103.3h0.3c1.2,0,2.1,1,2.1,2.1V116c0,1.2-1,2.1-2.1,2.1
			h-0.3c-1.2,0-2.1-1-2.1-2.1v-10.6C440.5,104.2,441.5,103.3,442.6,103.3z"/>
		<path fill="#F2F2F2" stroke="#666666" stroke-linejoin="round" d="M428.7,122h7.9c1.2,0,2.1,1,2.1,2.1v10.6c0,1.2-1,2.1-2.1,2.1
			h-7.9c-1.2,0-2.1-1-2.1-2.1v-10.6C426.6,123,427.5,122,428.7,122z"/>
		<path fill="#F2F2F2" stroke="#666666" stroke-linejoin="round" d="M442.6,122h0.3c1.2,0,2.1,1,2.1,2.1v10.6c0,1.2-1,2.1-2.1,2.1
			h-0.3c-1.2,0-2.1-1-2.1-2.1v-10.6C440.5,123,441.5,122,442.6,122z"/>
		<path fill="#F2F2F2" stroke="#666666" stroke-linejoin="round" d="M428.7,140.7h7.9c1.2,0,2.1,1,2.1,2.1v10.6c0,1.2-1,2.1-2.1,2.1
			h-7.9c-1.2,0-2.1-1-2.1-2.1v-10.6C426.6,141.7,427.5,140.7,428.7,140.7z"/>
		<path fill="#F2F2F2" stroke="#666666" stroke-linejoin="round" d="M442.6,140.7h0.3c1.2,0,2.1,1,2.1,2.1v10.6c0,1.2-1,2.1-2.1,2.1
			h-0.3c-1.2,0-2.1-1-2.1-2.1v-10.6C440.5,141.7,441.5,140.7,442.6,140.7z"/>
		<path fill="#F2F2F2" stroke="#666666" stroke-linejoin="round" d="M428.7,159.4h7.9c1.2,0,2.1,1,2.1,2.1v10.6c0,1.2-1,2.1-2.1,2.1
			h-7.9c-1.2,0-2.1-1-2.1-2.1v-10.6C426.6,160.4,427.5,159.4,428.7,159.4z"/>
		<path fill="#F2F2F2" stroke="#666666" stroke-linejoin="round" d="M442.6,159.4h0.3c1.2,0,2.1,1,2.1,2.1v10.6c0,1.2-1,2.1-2.1,2.1
			h-0.3c-1.2,0-2.1-1-2.1-2.1v-10.6C440.5,160.4,441.5,159.4,442.6,159.4z"/>
		<path fill="#F2F2F2" stroke="#666666" stroke-linejoin="round" d="M428.7,178.2h7.9c1.2,0,2.1,1,2.1,2.1v10.6c0,1.2-1,2.1-2.1,2.1
			h-7.9c-1.2,0-2.1-1-2.1-2.1v-10.6C426.6,179.1,427.5,178.2,428.7,178.2z"/>
		<path fill="#F2F2F2" stroke="#666666" stroke-linejoin="round" d="M442.6,178.2h0.3c1.2,0,2.1,1,2.1,2.1v10.6c0,1.2-1,2.1-2.1,2.1
			h-0.3c-1.2,0-2.1-1-2.1-2.1v-10.6C440.5,179.1,441.5,178.2,442.6,178.2z"/>
		<path fill="#F2F2F2" stroke="#666666" stroke-linejoin="round" d="M464.8,9.7h24.4c1.2,0,2.1,1,2.1,2.1V52c0,1.2-1,2.1-2.1,2.1
			h-24.4c-1.2,0-2.1-1-2.1-2.1V11.8C462.7,10.7,463.6,9.7,464.8,9.7z"/>
		<path fill="#F2F2F2" stroke="#666666" stroke-linejoin="round" d="M464.8,56h24.4c1.2,0,2.1,1,2.1,2.1v40.2c0,1.2-1,2.1-2.1,2.1
			h-24.4c-1.2,0-2.1-1-2.1-2.1V58.1C462.7,56.9,463.6,56,464.8,56z"/>
		<path fill="#F2F2F2" stroke="#666666" stroke-linejoin="round" d="M464.8,102.3h24.4c1.2,0,2.1,1,2.1,2.1v40.2
			c0,1.2-1,2.1-2.1,2.1h-24.4c-1.2,0-2.1-1-2.1-2.1v-40.2C462.7,103.2,463.6,102.3,464.8,102.3z"/>
		<path fill="#F2F2F2" stroke="#666666" stroke-linejoin="round" d="M464.8,148.6h24.4c1.2,0,2.1,1,2.1,2.1v40.2
			c0,1.2-1,2.1-2.1,2.1h-24.4c-1.2,0-2.1-1-2.1-2.1v-40.2C462.7,149.5,463.6,148.6,464.8,148.6z"/>
		<path fill="#F2F2F2" stroke="#666666" stroke-linejoin="round" d="M500.8,9.7h7.9c1.2,0,2.1,1,2.1,2.1v10.6c0,1.2-1,2.1-2.1,2.1
			h-7.9c-1.2,0-2.1-1-2.1-2.1V11.8C498.6,10.7,499.6,9.7,500.8,9.7z"/>
		<path fill="#F2F2F2" stroke="#666666" stroke-linejoin="round" d="M514.7,9.7h0.3c1.2,0,2.1,1,2.1,2.1v10.6c0,1.2-1,2.1-2.1,2.1
			h-0.3c-1.2,0-2.1-1-2.1-2.1V11.8C512.6,10.7,513.6,9.7,514.7,9.7z"/>
		<path fill="#F2F2F2" stroke="#666666" stroke-linejoin="round" d="M500.8,28.4h7.9c1.2,0,2.1,1,2.1,2.1v10.6c0,1.2-1,2.1-2.1,2.1
			h-7.9c-1.2,0-2.1-1-2.1-2.1V30.5C498.6,29.4,499.6,28.4,500.8,28.4z"/>
		<path fill="#F2F2F2" stroke="#666666" stroke-linejoin="round" d="M514.7,28.4h0.3c1.2,0,2.1,1,2.1,2.1v10.6c0,1.2-1,2.1-2.1,2.1
			h-0.3c-1.2,0-2.1-1-2.1-2.1V30.5C512.6,29.4,513.6,28.4,514.7,28.4z"/>
		<path fill="#F2F2F2" stroke="#666666" stroke-linejoin="round" d="M500.8,47.1h7.9c1.2,0,2.1,1,2.1,2.1v10.6c0,1.2-1,2.1-2.1,2.1
			h-7.9c-1.2,0-2.1-1-2.1-2.1V49.3C498.6,48.1,499.6,47.1,500.8,47.1z"/>
		<path fill="#F2F2F2" stroke="#666666" stroke-linejoin="round" d="M514.7,47.1h0.3c1.2,0,2.1,1,2.1,2.1v10.6c0,1.2-1,2.1-2.1,2.1
			h-0.3c-1.2,0-2.1-1-2.1-2.1V49.3C512.6,48.1,513.6,47.1,514.7,47.1z"/>
		<path fill="#F2F2F2" stroke="#666666" stroke-linejoin="round" d="M500.8,65.9h7.9c1.2,0,2.1,1,2.1,2.1v10.6c0,1.2-1,2.1-2.1,2.1
			h-7.9c-1.2,0-2.1-1-2.1-2.1V68C498.6,66.8,499.6,65.9,500.8,65.9z"/>
		<path fill="#F2F2F2" stroke="#666666" stroke-linejoin="round" d="M514.7,65.9h0.3c1.2,0,2.1,1,2.1,2.1v10.6c0,1.2-1,2.1-2.1,2.1
			h-0.3c-1.2,0-2.1-1-2.1-2.1V68C512.6,66.8,513.6,65.9,514.7,65.9z"/>
		<path fill="#F2F2F2" stroke="#666666" stroke-linejoin="round" d="M500.8,84.6h7.9c1.2,0,2.1,1,2.1,2.1v10.6c0,1.2-1,2.1-2.1,2.1
			h-7.9c-1.2,0-2.1-1-2.1-2.1V86.7C498.6,85.5,499.6,84.6,500.8,84.6z"/>
		<path fill="#F2F2F2" stroke="#666666" stroke-linejoin="round" d="M514.7,84.6h0.3c1.2,0,2.1,1,2.1,2.1v10.6c0,1.2-1,2.1-2.1,2.1
			h-0.3c-1.2,0-2.1-1-2.1-2.1V86.7C512.6,85.5,513.6,84.6,514.7,84.6z"/>
		<path fill="#F2F2F2" stroke="#666666" stroke-linejoin="round" d="M500.8,103.3h7.9c1.2,0,2.1,1,2.1,2.1V116c0,1.2-1,2.1-2.1,2.1
			h-7.9c-1.2,0-2.1-1-2.1-2.1v-10.6C498.6,104.2,499.6,103.3,500.8,103.3z"/>
		<path fill="#F2F2F2" stroke="#666666" stroke-linejoin="round" d="M514.7,103.3h0.3c1.2,0,2.1,1,2.1,2.1V116c0,1.2-1,2.1-2.1,2.1
			h-0.3c-1.2,0-2.1-1-2.1-2.1v-10.6C512.6,104.2,513.6,103.3,514.7,103.3z"/>
		<path fill="#F2F2F2" stroke="#666666" stroke-linejoin="round" d="M500.8,122h7.9c1.2,0,2.1,1,2.1,2.1v10.6c0,1.2-1,2.1-2.1,2.1
			h-7.9c-1.2,0-2.1-1-2.1-2.1v-10.6C498.6,123,499.6,122,500.8,122z"/>
		<path fill="#F2F2F2" stroke="#666666" stroke-linejoin="round" d="M514.7,122h0.3c1.2,0,2.1,1,2.1,2.1v10.6c0,1.2-1,2.1-2.1,2.1
			h-0.3c-1.2,0-2.1-1-2.1-2.1v-10.6C512.6,123,513.6,122,514.7,122z"/>
		<path fill="#F2F2F2" stroke="#666666" stroke-linejoin="round" d="M500.8,140.7h7.9c1.2,0,2.1,1,2.1,2.1v10.6c0,1.2-1,2.1-2.1,2.1
			h-7.9c-1.2,0-2.1-1-2.1-2.1v-10.6C498.6,141.7,499.6,140.7,500.8,140.7z"/>
		<path fill="#F2F2F2" stroke="#666666" stroke-linejoin="round" d="M514.7,140.7h0.3c1.2,0,2.1,1,2.1,2.1v10.6c0,1.2-1,2.1-2.1,2.1
			h-0.3c-1.2,0-2.1-1-2.1-2.1v-10.6C512.6,141.7,513.6,140.7,514.7,140.7z"/>
		<path fill="#F2F2F2" stroke="#666666" stroke-linejoin="round" d="M500.8,159.4h7.9c1.2,0,2.1,1,2.1,2.1v10.6c0,1.2-1,2.1-2.1,2.1
			h-7.9c-1.2,0-2.1-1-2.1-2.1v-10.6C498.6,160.4,499.6,159.4,500.8,159.4z"/>
		<path fill="#F2F2F2" stroke="#666666" stroke-linejoin="round" d="M514.7,159.4h0.3c1.2,0,2.1,1,2.1,2.1v10.6c0,1.2-1,2.1-2.1,2.1
			h-0.3c-1.2,0-2.1-1-2.1-2.1v-10.6C512.6,160.4,513.6,159.4,514.7,159.4z"/>
		<path fill="#F2F2F2" stroke="#666666" stroke-linejoin="round" d="M500.8,178.2h7.9c1.2,0,2.1,1,2.1,2.1v10.6c0,1.2-1,2.1-2.1,2.1
			h-7.9c-1.2,0-2.1-1-2.1-2.1v-10.6C498.6,179.1,499.6,178.2,500.8,178.2z"/>
		<path fill="#F2F2F2" stroke="#666666" stroke-linejoin="round" d="M514.7,178.2h0.3c1.2,0,2.1,1,2.1,2.1v10.6c0,1.2-1,2.1-2.1,2.1
			h-0.3c-1.2,0-2.1-1-2.1-2.1v-10.6C512.6,179.1,513.6,178.2,514.7,178.2z"/>
		<path fill="#F2F2F2" stroke="#666666" stroke-linejoin="round" d="M31.4,167.1h-7.9c-1.2,0-2.1-1-2.1-2.1v-10.6
			c0-1.2,1-2.1,2.1-2.1h7.9c1.2,0,2.1,1,2.1,2.1V165C33.5,166.2,32.5,167.1,31.4,167.1z"/>
		<path fill="#F2F2F2" stroke="#666666" stroke-linejoin="round" d="M17.4,167.1h-0.3c-1.2,0-2.1-1-2.1-2.1v-10.6
			c0-1.2,1-2.1,2.1-2.1h0.3c1.2,0,2.1,1,2.1,2.1V165C19.5,166.2,18.6,167.1,17.4,167.1z"/>
		<path fill="#F2F2F2" stroke="#666666" stroke-linejoin="round" d="M31.4,148.4h-7.9c-1.2,0-2.1-1-2.1-2.1v-10.6
			c0-1.2,1-2.1,2.1-2.1h7.9c1.2,0,2.1,1,2.1,2.1v10.6C33.5,147.5,32.5,148.4,31.4,148.4z"/>
		<path fill="#F2F2F2" stroke="#666666" stroke-linejoin="round" d="M17.4,148.4h-0.3c-1.2,0-2.1-1-2.1-2.1v-10.6
			c0-1.2,1-2.1,2.1-2.1h0.3c1.2,0,2.1,1,2.1,2.1v10.6C19.5,147.5,18.6,148.4,17.4,148.4z"/>
		<path fill="#F2F2F2" stroke="#666666" stroke-linejoin="round" d="M31.4,129.7h-7.9c-1.2,0-2.1-1-2.1-2.1V117c0-1.2,1-2.1,2.1-2.1
			h7.9c1.2,0,2.1,1,2.1,2.1v10.6C33.5,128.8,32.5,129.7,31.4,129.7z"/>
		<path fill="#F2F2F2" stroke="#666666" stroke-linejoin="round" d="M17.4,129.7h-0.3c-1.2,0-2.1-1-2.1-2.1V117c0-1.2,1-2.1,2.1-2.1
			h0.3c1.2,0,2.1,1,2.1,2.1v10.6C19.5,128.8,18.6,129.7,17.4,129.7z"/>
		<path fill="#F2F2F2" stroke="#666666" stroke-linejoin="round" d="M31.4,111h-7.9c-1.2,0-2.1-1-2.1-2.1V98.2c0-1.2,1-2.1,2.1-2.1
			h7.9c1.2,0,2.1,1,2.1,2.1v10.6C33.5,110,32.5,111,31.4,111z"/>
		<path fill="#F2F2F2" stroke="#666666" stroke-linejoin="round" d="M17.4,111h-0.3c-1.2,0-2.1-1-2.1-2.1V98.2c0-1.2,1-2.1,2.1-2.1
			h0.3c1.2,0,2.1,1,2.1,2.1v10.6C19.5,110,18.6,111,17.4,111z"/>
		<path fill="#F2F2F2" stroke="#666666" stroke-linejoin="round" d="M31.4,92.3h-7.9c-1.2,0-2.1-1-2.1-2.1V79.5c0-1.2,1-2.1,2.1-2.1
			h7.9c1.2,0,2.1,1,2.1,2.1v10.6C33.5,91.3,32.5,92.3,31.4,92.3z"/>
		<path fill="#F2F2F2" stroke="#666666" stroke-linejoin="round" d="M17.4,92.3h-0.3c-1.2,0-2.1-1-2.1-2.1V79.5c0-1.2,1-2.1,2.1-2.1
			h0.3c1.2,0,2.1,1,2.1,2.1v10.6C19.5,91.3,18.6,92.3,17.4,92.3z"/>
		<path fill="#F2F2F2" stroke="#666666" stroke-linejoin="round" d="M31.4,73.6h-7.9c-1.2,0-2.1-1-2.1-2.1V60.8c0-1.2,1-2.1,2.1-2.1
			h7.9c1.2,0,2.1,1,2.1,2.1v10.6C33.5,72.6,32.5,73.6,31.4,73.6z"/>
		<path fill="#F2F2F2" stroke="#666666" stroke-linejoin="round" d="M17.4,73.6h-0.3c-1.2,0-2.1-1-2.1-2.1V60.8c0-1.2,1-2.1,2.1-2.1
			h0.3c1.2,0,2.1,1,2.1,2.1v10.6C19.5,72.6,18.6,73.6,17.4,73.6z"/>
		<path fill="#F2F2F2" stroke="#666666" stroke-linejoin="round" d="M31.4,54.8h-7.9c-1.2,0-2.1-1-2.1-2.1V42.1c0-1.2,1-2.1,2.1-2.1
			h7.9c1.2,0,2.1,1,2.1,2.1v10.6C33.5,53.9,32.5,54.8,31.4,54.8z"/>
		<path fill="#F2F2F2" stroke="#666666" stroke-linejoin="round" d="M17.4,54.8h-0.3c-1.2,0-2.1-1-2.1-2.1V42.1c0-1.2,1-2.1,2.1-2.1
			h0.3c1.2,0,2.1,1,2.1,2.1v10.6C19.5,53.9,18.6,54.8,17.4,54.8z"/>
	</g>
</g>
</svg>
