<?xml version="1.0" encoding="utf-8"?>
<!-- Generator: Adobe Illustrator 21.0.0, SVG Export Plug-In . SVG Version: 6.00 Build 0)  -->
<svg version="1.0" id="Слой_1" xmlns="http://www.w3.org/2000/svg" xmlns:xlink="http://www.w3.org/1999/xlink" x="0px" y="0px"
	 viewBox="0 0 497.1 317.7" enable-background="new 0 0 497.1 317.7" xml:space="preserve">
<title>Baytik banket 48person (48)</title>
<g id="Слой_2">
	<g id="Baytik_class_40_38_">
		<path fill="#F2F2F2" stroke="#666666" stroke-linejoin="round" d="M46.5,98.3h27c1.3,0,2.4,1.1,2.4,2.4v48.4
			c0,1.3-1.1,2.4-2.4,2.4h-27c-1.3,0-2.3-1.1-2.3-2.4v-48.4C44.2,99.4,45.2,98.3,46.5,98.3z"/>
		<path fill="#F2F2F2" stroke="#666666" stroke-linejoin="round" d="M46.5,153.6h27c1.3,0,2.4,1.1,2.4,2.4v48.4
			c0,1.3-1.1,2.4-2.4,2.4h-27c-1.3,0-2.3-1.1-2.3-2.4v-48.4C44.2,154.6,45.2,153.6,46.5,153.6z"/>
		<path fill="#F2F2F2" stroke="#666666" stroke-linejoin="round" d="M107.8,48h27c1.3,0,2.4,1.1,2.4,2.4v47.6c0,1.3-1.1,2.3-2.4,2.3
			h-27c-1.3,0-2.3-1.1-2.3-2.3V50.3C105.5,49,106.5,48,107.8,48z"/>
		<path fill="#F2F2F2" stroke="#666666" stroke-linejoin="round" d="M107.8,102.4h27c1.3,0,2.4,1.1,2.4,2.3v47.6
			c0,1.3-1.1,2.4-2.4,2.4h-27c-1.3,0-2.3-1.1-2.3-2.4v-47.6C105.5,103.4,106.5,102.4,107.8,102.4z"/>
		<path fill="#F2F2F2" stroke="#666666" stroke-linejoin="round" d="M107.8,156.8h27c1.3,0,2.4,1.1,2.4,2.4v47.6
			c0,1.3-1.1,2.4-2.4,2.4h-27c-1.3,0-2.3-1.1-2.3-2.4v-47.6C105.5,157.8,106.5,156.8,107.8,156.8z"/>
		<path fill="#F2F2F2" stroke="#666666" stroke-linejoin="round" d="M147.5,44h8.8c1.3,0,2.4,1.1,2.4,2.4V58c0,1.3-1.1,2.4-2.4,2.4
			h-8.8c-1.3,0-2.4-1.1-2.4-2.4V46.3C145.2,45,146.2,44,147.5,44z"/>
		<path fill="#F2F2F2" stroke="#666666" stroke-linejoin="round" d="M162.9,44h0.3c1.3,0,2.4,1.1,2.4,2.4V58c0,1.3-1.1,2.4-2.4,2.4
			h-0.3c-1.3,0-2.4-1.1-2.4-2.4V46.3C160.6,45,161.6,44,162.9,44z"/>
		<path fill="#F2F2F2" stroke="#666666" stroke-linejoin="round" d="M147.5,64.6h8.8c1.3,0,2.4,1.1,2.4,2.4v11.7
			c0,1.3-1.1,2.3-2.4,2.3h-8.8c-1.3,0-2.4-1.1-2.4-2.3V67C145.2,65.7,146.2,64.6,147.5,64.6z"/>
		<path fill="#F2F2F2" stroke="#666666" stroke-linejoin="round" d="M162.9,64.6h0.3c1.3,0,2.4,1.1,2.4,2.4v11.7
			c0,1.3-1.1,2.3-2.4,2.3h-0.3c-1.3,0-2.4-1.1-2.4-2.3V67C160.6,65.7,161.6,64.6,162.9,64.6z"/>
		<path fill="#F2F2F2" stroke="#666666" stroke-linejoin="round" d="M147.5,85.3h8.8c1.3,0,2.4,1.1,2.4,2.3v11.7
			c0,1.3-1.1,2.3-2.4,2.3h-8.8c-1.3,0-2.4-1.1-2.4-2.3V87.6C145.2,86.3,146.2,85.3,147.5,85.3z"/>
		<path fill="#F2F2F2" stroke="#666666" stroke-linejoin="round" d="M162.9,85.3h0.3c1.3,0,2.4,1.1,2.4,2.3v11.7
			c0,1.3-1.1,2.3-2.4,2.3h-0.3c-1.3,0-2.4-1.1-2.4-2.3V87.6C160.6,86.3,161.6,85.3,162.9,85.3z"/>
		<path fill="#F2F2F2" stroke="#666666" stroke-linejoin="round" d="M147.5,106h8.8c1.3,0,2.4,1.1,2.4,2.3V120
			c0,1.3-1.1,2.3-2.4,2.3h-8.8c-1.3,0-2.4-1.1-2.4-2.3v-11.7C145.2,107,146.2,106,147.5,106z"/>
		<path fill="#F2F2F2" stroke="#666666" stroke-linejoin="round" d="M162.9,106h0.3c1.3,0,2.4,1.1,2.4,2.3V120
			c0,1.3-1.1,2.3-2.4,2.3h-0.3c-1.3,0-2.4-1.1-2.4-2.3v-11.7C160.6,107,161.6,106,162.9,106z"/>
		<path fill="#F2F2F2" stroke="#666666" stroke-linejoin="round" d="M147.5,126.6h8.8c1.3,0,2.4,1.1,2.4,2.3v11.7
			c0,1.3-1.1,2.4-2.4,2.4h-8.8c-1.3,0-2.4-1.1-2.4-2.4V129C145.2,127.7,146.2,126.6,147.5,126.6z"/>
		<path fill="#F2F2F2" stroke="#666666" stroke-linejoin="round" d="M162.9,126.6h0.3c1.3,0,2.4,1.1,2.4,2.3v11.7
			c0,1.3-1.1,2.4-2.4,2.4h-0.3c-1.3,0-2.4-1.1-2.4-2.4V129C160.6,127.7,161.6,126.6,162.9,126.6z"/>
		<path fill="#F2F2F2" stroke="#666666" stroke-linejoin="round" d="M147.5,147.3h8.8c1.3,0,2.4,1.1,2.4,2.3v11.7
			c0,1.3-1.1,2.4-2.4,2.4h-8.8c-1.3,0-2.4-1.1-2.4-2.4v-11.7C145.2,148.3,146.2,147.3,147.5,147.3z"/>
		<path fill="#F2F2F2" stroke="#666666" stroke-linejoin="round" d="M162.9,147.3h0.3c1.3,0,2.4,1.1,2.4,2.3v11.7
			c0,1.3-1.1,2.4-2.4,2.4h-0.3c-1.3,0-2.4-1.1-2.4-2.4v-11.7C160.6,148.3,161.6,147.3,162.9,147.3z"/>
		<path fill="#F2F2F2" stroke="#666666" stroke-linejoin="round" d="M147.5,168h8.8c1.3,0,2.4,1.1,2.4,2.3V182
			c0,1.3-1.1,2.4-2.4,2.4h-8.8c-1.3,0-2.4-1.1-2.4-2.4v-11.7C145.2,169,146.2,168,147.5,168z"/>
		<path fill="#F2F2F2" stroke="#666666" stroke-linejoin="round" d="M162.9,168h0.3c1.3,0,2.4,1.1,2.4,2.3V182
			c0,1.3-1.1,2.4-2.4,2.4h-0.3c-1.3,0-2.4-1.1-2.4-2.4v-11.7C160.6,169,161.6,168,162.9,168z"/>
		<path fill="#F2F2F2" stroke="#666666" stroke-linejoin="round" d="M147.5,188.6h8.8c1.3,0,2.4,1.1,2.4,2.4v11.7
			c0,1.3-1.1,2.4-2.4,2.4h-8.8c-1.3,0-2.4-1.1-2.4-2.4V191C145.2,189.7,146.2,188.6,147.5,188.6z"/>
		<path fill="#F2F2F2" stroke="#666666" stroke-linejoin="round" d="M162.9,188.6h0.3c1.3,0,2.4,1.1,2.4,2.4v11.7
			c0,1.3-1.1,2.4-2.4,2.4h-0.3c-1.3,0-2.4-1.1-2.4-2.4V191C160.6,189.7,161.6,188.6,162.9,188.6z"/>
		<path fill="#F2F2F2" stroke="#666666" stroke-linejoin="round" d="M186.8,48h27c1.3,0,2.4,1.1,2.4,2.4v47.6c0,1.3-1.1,2.3-2.4,2.3
			h-27c-1.3,0-2.4-1.1-2.4-2.3V50.3C184.5,49,185.5,48,186.8,48z"/>
		<path fill="#F2F2F2" stroke="#666666" stroke-linejoin="round" d="M186.8,102.4h27c1.3,0,2.4,1.1,2.4,2.3v47.6
			c0,1.3-1.1,2.4-2.4,2.4h-27c-1.3,0-2.4-1.1-2.4-2.4v-47.6C184.5,103.4,185.5,102.4,186.8,102.4z"/>
		<path fill="#F2F2F2" stroke="#666666" stroke-linejoin="round" d="M186.8,156.8h27c1.3,0,2.4,1.1,2.4,2.4v47.6
			c0,1.3-1.1,2.4-2.4,2.4h-27c-1.3,0-2.4-1.1-2.4-2.4v-47.6C184.5,157.8,185.5,156.8,186.8,156.8z"/>
		<path fill="#F2F2F2" stroke="#666666" stroke-linejoin="round" d="M226.5,44h8.8c1.3,0,2.4,1.1,2.4,2.4V58c0,1.3-1.1,2.4-2.4,2.4
			h-8.8c-1.3,0-2.4-1.1-2.4-2.4V46.3C224.2,45,225.2,44,226.5,44z"/>
		<path fill="#F2F2F2" stroke="#666666" stroke-linejoin="round" d="M241.9,48h0.3c1.3,0,2.4,1.1,2.4,2.4V62c0,1.3-1.1,2.3-2.4,2.3
			h-0.3c-1.3,0-2.4-1.1-2.4-2.3V50.3C239.6,49,240.6,48,241.9,48z"/>
		<path fill="#F2F2F2" stroke="#666666" stroke-linejoin="round" d="M226.5,64.6h8.8c1.3,0,2.4,1.1,2.4,2.4v11.7
			c0,1.3-1.1,2.3-2.4,2.3h-8.8c-1.3,0-2.4-1.1-2.4-2.3V67C224.2,65.7,225.2,64.6,226.5,64.6z"/>
		<path fill="#F2F2F2" stroke="#666666" stroke-linejoin="round" d="M241.9,68.6h0.3c1.3,0,2.4,1.1,2.4,2.4v11.7
			c0,1.3-1.1,2.3-2.4,2.3h-0.3c-1.3,0-2.4-1.1-2.4-2.3V71C239.6,69.7,240.6,68.6,241.9,68.6z"/>
		<path fill="#F2F2F2" stroke="#666666" stroke-linejoin="round" d="M226.5,85.3h8.8c1.3,0,2.4,1.1,2.4,2.3v11.7
			c0,1.3-1.1,2.3-2.4,2.3h-8.8c-1.3,0-2.4-1.1-2.4-2.3V87.6C224.2,86.3,225.2,85.3,226.5,85.3z"/>
		<path fill="#F2F2F2" stroke="#666666" stroke-linejoin="round" d="M241.9,89.3h0.3c1.3,0,2.4,1.1,2.4,2.3v11.7
			c0,1.3-1.1,2.3-2.4,2.3h-0.3c-1.3,0-2.4-1.1-2.4-2.3V91.6C239.6,90.3,240.6,89.3,241.9,89.3z"/>
		<path fill="#F2F2F2" stroke="#666666" stroke-linejoin="round" d="M226.5,106h8.8c1.3,0,2.4,1.1,2.4,2.3V120
			c0,1.3-1.1,2.3-2.4,2.3h-8.8c-1.3,0-2.4-1.1-2.4-2.3v-11.7C224.2,107,225.2,106,226.5,106z"/>
		<path fill="#F2F2F2" stroke="#666666" stroke-linejoin="round" d="M241.9,110h0.3c1.3,0,2.4,1.1,2.4,2.3V124
			c0,1.3-1.1,2.3-2.4,2.3h-0.3c-1.3,0-2.4-1.1-2.4-2.3v-11.7C239.6,111,240.6,110,241.9,110z"/>
		<path fill="#F2F2F2" stroke="#666666" stroke-linejoin="round" d="M226.5,126.6h8.8c1.3,0,2.4,1.1,2.4,2.3v11.7
			c0,1.3-1.1,2.4-2.4,2.4h-8.8c-1.3,0-2.4-1.1-2.4-2.4V129C224.2,127.7,225.2,126.6,226.5,126.6z"/>
		<path fill="#F2F2F2" stroke="#666666" stroke-linejoin="round" d="M241.9,130.6h0.3c1.3,0,2.4,1.1,2.4,2.3v11.7
			c0,1.3-1.1,2.4-2.4,2.4h-0.3c-1.3,0-2.4-1.1-2.4-2.4V133C239.6,131.7,240.6,130.6,241.9,130.6z"/>
		<path fill="#F2F2F2" stroke="#666666" stroke-linejoin="round" d="M226.5,147.3h8.8c1.3,0,2.4,1.1,2.4,2.3v11.7
			c0,1.3-1.1,2.4-2.4,2.4h-8.8c-1.3,0-2.4-1.1-2.4-2.4v-11.7C224.2,148.3,225.2,147.3,226.5,147.3z"/>
		<path fill="#F2F2F2" stroke="#666666" stroke-linejoin="round" d="M241.9,151.3h0.3c1.3,0,2.4,1.1,2.4,2.3v11.7
			c0,1.3-1.1,2.4-2.4,2.4h-0.3c-1.3,0-2.4-1.1-2.4-2.4v-11.7C239.6,152.3,240.6,151.3,241.9,151.3z"/>
		<path fill="#F2F2F2" stroke="#666666" stroke-linejoin="round" d="M226.5,168h8.8c1.3,0,2.4,1.1,2.4,2.3V182
			c0,1.3-1.1,2.4-2.4,2.4h-8.8c-1.3,0-2.4-1.1-2.4-2.4v-11.7C224.2,169,225.2,168,226.5,168z"/>
		<path fill="#F2F2F2" stroke="#666666" stroke-linejoin="round" d="M241.9,172h0.3c1.3,0,2.4,1.1,2.4,2.3V186
			c0,1.3-1.1,2.4-2.4,2.4h-0.3c-1.3,0-2.4-1.1-2.4-2.4v-11.7C239.6,173,240.6,172,241.9,172z"/>
		<path fill="#F2F2F2" stroke="#666666" stroke-linejoin="round" d="M226.5,188.6h8.8c1.3,0,2.4,1.1,2.4,2.4v11.7
			c0,1.3-1.1,2.4-2.4,2.4h-8.8c-1.3,0-2.4-1.1-2.4-2.4V191C224.2,189.7,225.2,188.6,226.5,188.6z"/>
		<path fill="#F2F2F2" stroke="#666666" stroke-linejoin="round" d="M241.9,192.6h0.3c1.3,0,2.4,1.1,2.4,2.4v11.7
			c0,1.3-1.1,2.4-2.4,2.4h-0.3c-1.3,0-2.4-1.1-2.4-2.4V195C239.6,193.7,240.6,192.6,241.9,192.6z"/>
		<path fill="#F2F2F2" stroke="#666666" stroke-linejoin="round" d="M266.4,48h27c1.3,0,2.4,1.1,2.4,2.4v47.6c0,1.3-1.1,2.3-2.4,2.3
			h-27c-1.3,0-2.4-1.1-2.4-2.3V50.3C264,49,265.1,48,266.4,48z"/>
		<path fill="#F2F2F2" stroke="#666666" stroke-linejoin="round" d="M266.4,102.4h27c1.3,0,2.4,1.1,2.4,2.3v47.6
			c0,1.3-1.1,2.4-2.4,2.4h-27c-1.3,0-2.4-1.1-2.4-2.4v-47.6C264,103.4,265.1,102.4,266.4,102.4z"/>
		<path fill="#F2F2F2" stroke="#666666" stroke-linejoin="round" d="M266.4,156.8h27c1.3,0,2.4,1.1,2.4,2.4v47.6
			c0,1.3-1.1,2.4-2.4,2.4h-27c-1.3,0-2.4-1.1-2.4-2.4v-47.6C264,157.8,265.1,156.8,266.4,156.8z"/>
		<path fill="#F2F2F2" stroke="#666666" stroke-linejoin="round" d="M306.1,44h8.8c1.3,0,2.4,1.1,2.4,2.4V58c0,1.3-1.1,2.4-2.4,2.4
			h-8.8c-1.3,0-2.4-1.1-2.4-2.4V46.3C303.8,45,304.8,44,306.1,44z"/>
		<path fill="#F2F2F2" stroke="#666666" stroke-linejoin="round" d="M321.5,44h0.3c1.3,0,2.4,1.1,2.4,2.4V58c0,1.3-1.1,2.4-2.4,2.4
			h-0.3c-1.3,0-2.4-1.1-2.4-2.4V46.3C319.2,45,320.2,44,321.5,44z"/>
		<path fill="#F2F2F2" stroke="#666666" stroke-linejoin="round" d="M306.1,64.6h8.8c1.3,0,2.4,1.1,2.4,2.4v11.7
			c0,1.3-1.1,2.3-2.4,2.3h-8.8c-1.3,0-2.4-1.1-2.4-2.3V67C303.8,65.7,304.8,64.6,306.1,64.6z"/>
		<path fill="#F2F2F2" stroke="#666666" stroke-linejoin="round" d="M321.5,64.6h0.3c1.3,0,2.4,1.1,2.4,2.4v11.7
			c0,1.3-1.1,2.3-2.4,2.3h-0.3c-1.3,0-2.4-1.1-2.4-2.3V67C319.2,65.7,320.2,64.6,321.5,64.6z"/>
		<path fill="#F2F2F2" stroke="#666666" stroke-linejoin="round" d="M306.1,85.3h8.8c1.3,0,2.4,1.1,2.4,2.3v11.7
			c0,1.3-1.1,2.3-2.4,2.3h-8.8c-1.3,0-2.4-1.1-2.4-2.3V87.6C303.8,86.3,304.8,85.3,306.1,85.3z"/>
		<path fill="#F2F2F2" stroke="#666666" stroke-linejoin="round" d="M321.5,85.3h0.3c1.3,0,2.4,1.1,2.4,2.3v11.7
			c0,1.3-1.1,2.3-2.4,2.3h-0.3c-1.3,0-2.4-1.1-2.4-2.3V87.6C319.2,86.3,320.2,85.3,321.5,85.3z"/>
		<path fill="#F2F2F2" stroke="#666666" stroke-linejoin="round" d="M306.1,106h8.8c1.3,0,2.4,1.1,2.4,2.3V120
			c0,1.3-1.1,2.3-2.4,2.3h-8.8c-1.3,0-2.4-1.1-2.4-2.3v-11.7C303.8,107,304.8,106,306.1,106z"/>
		<path fill="#F2F2F2" stroke="#666666" stroke-linejoin="round" d="M321.5,106h0.3c1.3,0,2.4,1.1,2.4,2.3V120
			c0,1.3-1.1,2.3-2.4,2.3h-0.3c-1.3,0-2.4-1.1-2.4-2.3v-11.7C319.2,107,320.2,106,321.5,106z"/>
		<path fill="#F2F2F2" stroke="#666666" stroke-linejoin="round" d="M306.1,126.6h8.8c1.3,0,2.4,1.1,2.4,2.3v11.7
			c0,1.3-1.1,2.4-2.4,2.4h-8.8c-1.3,0-2.4-1.1-2.4-2.4V129C303.8,127.7,304.8,126.6,306.1,126.6z"/>
		<path fill="#F2F2F2" stroke="#666666" stroke-linejoin="round" d="M321.5,126.6h0.3c1.3,0,2.4,1.1,2.4,2.3v11.7
			c0,1.3-1.1,2.4-2.4,2.4h-0.3c-1.3,0-2.4-1.1-2.4-2.4V129C319.2,127.7,320.2,126.6,321.5,126.6z"/>
		<path fill="#F2F2F2" stroke="#666666" stroke-linejoin="round" d="M306.1,147.3h8.8c1.3,0,2.4,1.1,2.4,2.3v11.7
			c0,1.3-1.1,2.4-2.4,2.4h-8.8c-1.3,0-2.4-1.1-2.4-2.4v-11.7C303.8,148.3,304.8,147.3,306.1,147.3z"/>
		<path fill="#F2F2F2" stroke="#666666" stroke-linejoin="round" d="M321.5,147.3h0.3c1.3,0,2.4,1.1,2.4,2.3v11.7
			c0,1.3-1.1,2.4-2.4,2.4h-0.3c-1.3,0-2.4-1.1-2.4-2.4v-11.7C319.2,148.3,320.2,147.3,321.5,147.3z"/>
		<path fill="#F2F2F2" stroke="#666666" stroke-linejoin="round" d="M306.1,168h8.8c1.3,0,2.4,1.1,2.4,2.3V182
			c0,1.3-1.1,2.4-2.4,2.4h-8.8c-1.3,0-2.4-1.1-2.4-2.4v-11.7C303.8,169,304.8,168,306.1,168z"/>
		<path fill="#F2F2F2" stroke="#666666" stroke-linejoin="round" d="M321.5,168h0.3c1.3,0,2.4,1.1,2.4,2.3V182
			c0,1.3-1.1,2.4-2.4,2.4h-0.3c-1.3,0-2.4-1.1-2.4-2.4v-11.7C319.2,169,320.2,168,321.5,168z"/>
		<path fill="#F2F2F2" stroke="#666666" stroke-linejoin="round" d="M306.1,188.6h8.8c1.3,0,2.4,1.1,2.4,2.4v11.7
			c0,1.3-1.1,2.4-2.4,2.4h-8.8c-1.3,0-2.4-1.1-2.4-2.4V191C303.8,189.7,304.8,188.6,306.1,188.6z"/>
		<path fill="#F2F2F2" stroke="#666666" stroke-linejoin="round" d="M321.5,188.6h0.3c1.3,0,2.4,1.1,2.4,2.4v11.7
			c0,1.3-1.1,2.4-2.4,2.4h-0.3c-1.3,0-2.4-1.1-2.4-2.4V191C319.2,189.7,320.2,188.6,321.5,188.6z"/>
		<path fill="#F2F2F2" stroke="#666666" stroke-linejoin="round" d="M346,48h27c1.3,0,2.4,1.1,2.4,2.4v47.6c0,1.3-1.1,2.3-2.4,2.3
			h-27c-1.3,0-2.4-1.1-2.4-2.3V50.3C343.6,49,344.7,48,346,48z"/>
		<path fill="#F2F2F2" stroke="#666666" stroke-linejoin="round" d="M346,102.4h27c1.3,0,2.4,1.1,2.4,2.3v47.6
			c0,1.3-1.1,2.4-2.4,2.4h-27c-1.3,0-2.4-1.1-2.4-2.4v-47.6C343.6,103.4,344.7,102.4,346,102.4z"/>
		<path fill="#F2F2F2" stroke="#666666" stroke-linejoin="round" d="M346,156.8h27c1.3,0,2.4,1.1,2.4,2.4v47.6
			c0,1.3-1.1,2.4-2.4,2.4h-27c-1.3,0-2.4-1.1-2.4-2.4v-47.6C343.6,157.8,344.7,156.8,346,156.8z"/>
		<path fill="#F2F2F2" stroke="#666666" stroke-linejoin="round" d="M385.7,44h8.8c1.3,0,2.4,1.1,2.4,2.4V58c0,1.3-1.1,2.4-2.4,2.4
			h-8.8c-1.3,0-2.4-1.1-2.4-2.4V46.3C383.3,45,384.4,44,385.7,44z"/>
		<path fill="#F2F2F2" stroke="#666666" stroke-linejoin="round" d="M401.1,44h0.3c1.3,0,2.4,1.1,2.4,2.4V58c0,1.3-1.1,2.4-2.4,2.4
			h-0.3c-1.3,0-2.4-1.1-2.4-2.4V46.3C398.8,45,399.8,44,401.1,44z"/>
		<path fill="#F2F2F2" stroke="#666666" stroke-linejoin="round" d="M385.7,64.6h8.8c1.3,0,2.4,1.1,2.4,2.4v11.7
			c0,1.3-1.1,2.3-2.4,2.3h-8.8c-1.3,0-2.4-1.1-2.4-2.3V67C383.3,65.7,384.4,64.6,385.7,64.6z"/>
		<path fill="#F2F2F2" stroke="#666666" stroke-linejoin="round" d="M401.1,64.6h0.3c1.3,0,2.4,1.1,2.4,2.4v11.7
			c0,1.3-1.1,2.3-2.4,2.3h-0.3c-1.3,0-2.4-1.1-2.4-2.3V67C398.8,65.7,399.8,64.6,401.1,64.6z"/>
		<path fill="#F2F2F2" stroke="#666666" stroke-linejoin="round" d="M385.7,85.3h8.8c1.3,0,2.4,1.1,2.4,2.3v11.7
			c0,1.3-1.1,2.3-2.4,2.3h-8.8c-1.3,0-2.4-1.1-2.4-2.3V87.6C383.3,86.3,384.4,85.3,385.7,85.3z"/>
		<path fill="#F2F2F2" stroke="#666666" stroke-linejoin="round" d="M401.1,85.3h0.3c1.3,0,2.4,1.1,2.4,2.3v11.7
			c0,1.3-1.1,2.3-2.4,2.3h-0.3c-1.3,0-2.4-1.1-2.4-2.3V87.6C398.8,86.3,399.8,85.3,401.1,85.3z"/>
		<path fill="#F2F2F2" stroke="#666666" stroke-linejoin="round" d="M385.7,106h8.8c1.3,0,2.4,1.1,2.4,2.3V120
			c0,1.3-1.1,2.3-2.4,2.3h-8.8c-1.3,0-2.4-1.1-2.4-2.3v-11.7C383.3,107,384.4,106,385.7,106z"/>
		<path fill="#F2F2F2" stroke="#666666" stroke-linejoin="round" d="M401.1,106h0.3c1.3,0,2.4,1.1,2.4,2.3V120
			c0,1.3-1.1,2.3-2.4,2.3h-0.3c-1.3,0-2.4-1.1-2.4-2.3v-11.7C398.8,107,399.8,106,401.1,106z"/>
		<path fill="#F2F2F2" stroke="#666666" stroke-linejoin="round" d="M385.7,126.6h8.8c1.3,0,2.4,1.1,2.4,2.3v11.7
			c0,1.3-1.1,2.4-2.4,2.4h-8.8c-1.3,0-2.4-1.1-2.4-2.4V129C383.3,127.7,384.4,126.6,385.7,126.6z"/>
		<path fill="#F2F2F2" stroke="#666666" stroke-linejoin="round" d="M401.1,126.6h0.3c1.3,0,2.4,1.1,2.4,2.3v11.7
			c0,1.3-1.1,2.4-2.4,2.4h-0.3c-1.3,0-2.4-1.1-2.4-2.4V129C398.8,127.7,399.8,126.6,401.1,126.6z"/>
		<path fill="#F2F2F2" stroke="#666666" stroke-linejoin="round" d="M385.7,147.3h8.8c1.3,0,2.4,1.1,2.4,2.3v11.7
			c0,1.3-1.1,2.4-2.4,2.4h-8.8c-1.3,0-2.4-1.1-2.4-2.4v-11.7C383.3,148.3,384.4,147.3,385.7,147.3z"/>
		<path fill="#F2F2F2" stroke="#666666" stroke-linejoin="round" d="M401.1,147.3h0.3c1.3,0,2.4,1.1,2.4,2.3v11.7
			c0,1.3-1.1,2.4-2.4,2.4h-0.3c-1.3,0-2.4-1.1-2.4-2.4v-11.7C398.8,148.3,399.8,147.3,401.1,147.3z"/>
		<path fill="#F2F2F2" stroke="#666666" stroke-linejoin="round" d="M385.7,168h8.8c1.3,0,2.4,1.1,2.4,2.3V182
			c0,1.3-1.1,2.4-2.4,2.4h-8.8c-1.3,0-2.4-1.1-2.4-2.4v-11.7C383.3,169,384.4,168,385.7,168z"/>
		<path fill="#F2F2F2" stroke="#666666" stroke-linejoin="round" d="M401.1,168h0.3c1.3,0,2.4,1.1,2.4,2.3V182
			c0,1.3-1.1,2.4-2.4,2.4h-0.3c-1.3,0-2.4-1.1-2.4-2.4v-11.7C398.8,169,399.8,168,401.1,168z"/>
		<path fill="#F2F2F2" stroke="#666666" stroke-linejoin="round" d="M385.7,188.6h8.8c1.3,0,2.4,1.1,2.4,2.4v11.7
			c0,1.3-1.1,2.4-2.4,2.4h-8.8c-1.3,0-2.4-1.1-2.4-2.4V191C383.3,189.7,384.4,188.6,385.7,188.6z"/>
		<path fill="#F2F2F2" stroke="#666666" stroke-linejoin="round" d="M401.1,188.6h0.3c1.3,0,2.4,1.1,2.4,2.4v11.7
			c0,1.3-1.1,2.4-2.4,2.4h-0.3c-1.3,0-2.4-1.1-2.4-2.4V191C398.8,189.7,399.8,188.6,401.1,188.6z"/>
		<path fill="#F2F2F2" stroke="#666666" stroke-linejoin="round" d="M425.6,48h27c1.3,0,2.4,1.1,2.4,2.4v47.6c0,1.3-1.1,2.3-2.4,2.3
			h-27c-1.3,0-2.4-1.1-2.4-2.3V50.3C423.2,49,424.3,48,425.6,48z"/>
		<path fill="#F2F2F2" stroke="#666666" stroke-linejoin="round" d="M425.6,102.4h27c1.3,0,2.4,1.1,2.4,2.3v47.6
			c0,1.3-1.1,2.4-2.4,2.4h-27c-1.3,0-2.4-1.1-2.4-2.4v-47.6C423.2,103.4,424.3,102.4,425.6,102.4z"/>
		<path fill="#F2F2F2" stroke="#666666" stroke-linejoin="round" d="M425.6,156.8h27c1.3,0,2.4,1.1,2.4,2.4v47.6
			c0,1.3-1.1,2.4-2.4,2.4h-27c-1.3,0-2.4-1.1-2.4-2.4v-47.6C423.2,157.8,424.3,156.8,425.6,156.8z"/>
		<path fill="#F2F2F2" stroke="#666666" stroke-linejoin="round" d="M465.3,44h8.8c1.3,0,2.4,1.1,2.4,2.4V58c0,1.3-1.1,2.4-2.4,2.4
			h-8.8c-1.3,0-2.4-1.1-2.4-2.4V46.3C462.9,45,464,44,465.3,44z"/>
		<path fill="#F2F2F2" stroke="#666666" stroke-linejoin="round" d="M480.7,44h0.3c1.3,0,2.4,1.1,2.4,2.4V58c0,1.3-1.1,2.4-2.4,2.4
			h-0.3c-1.3,0-2.4-1.1-2.4-2.4V46.3C478.3,45,479.4,44,480.7,44z"/>
		<path fill="#F2F2F2" stroke="#666666" stroke-linejoin="round" d="M465.3,64.6h8.8c1.3,0,2.4,1.1,2.4,2.4v11.7
			c0,1.3-1.1,2.3-2.4,2.3h-8.8c-1.3,0-2.4-1.1-2.4-2.3V67C462.9,65.7,464,64.6,465.3,64.6z"/>
		<path fill="#F2F2F2" stroke="#666666" stroke-linejoin="round" d="M480.7,64.6h0.3c1.3,0,2.4,1.1,2.4,2.4v11.7
			c0,1.3-1.1,2.3-2.4,2.3h-0.3c-1.3,0-2.4-1.1-2.4-2.3V67C478.3,65.7,479.4,64.6,480.7,64.6z"/>
		<path fill="#F2F2F2" stroke="#666666" stroke-linejoin="round" d="M465.3,85.3h8.8c1.3,0,2.4,1.1,2.4,2.3v11.7
			c0,1.3-1.1,2.3-2.4,2.3h-8.8c-1.3,0-2.4-1.1-2.4-2.3V87.6C462.9,86.3,464,85.3,465.3,85.3z"/>
		<path fill="#F2F2F2" stroke="#666666" stroke-linejoin="round" d="M480.7,85.3h0.3c1.3,0,2.4,1.1,2.4,2.3v11.7
			c0,1.3-1.1,2.3-2.4,2.3h-0.3c-1.3,0-2.4-1.1-2.4-2.3V87.6C478.3,86.3,479.4,85.3,480.7,85.3z"/>
		<path fill="#F2F2F2" stroke="#666666" stroke-linejoin="round" d="M465.3,106h8.8c1.3,0,2.4,1.1,2.4,2.3V120
			c0,1.3-1.1,2.3-2.4,2.3h-8.8c-1.3,0-2.4-1.1-2.4-2.3v-11.7C462.9,107,464,106,465.3,106z"/>
		<path fill="#F2F2F2" stroke="#666666" stroke-linejoin="round" d="M480.7,106h0.3c1.3,0,2.4,1.1,2.4,2.3V120
			c0,1.3-1.1,2.3-2.4,2.3h-0.3c-1.3,0-2.4-1.1-2.4-2.3v-11.7C478.3,107,479.4,106,480.7,106z"/>
		<path fill="#F2F2F2" stroke="#666666" stroke-linejoin="round" d="M465.3,126.6h8.8c1.3,0,2.4,1.1,2.4,2.3v11.7
			c0,1.3-1.1,2.4-2.4,2.4h-8.8c-1.3,0-2.4-1.1-2.4-2.4V129C462.9,127.7,464,126.6,465.3,126.6z"/>
		<path fill="#F2F2F2" stroke="#666666" stroke-linejoin="round" d="M480.7,126.6h0.3c1.3,0,2.4,1.1,2.4,2.3v11.7
			c0,1.3-1.1,2.4-2.4,2.4h-0.3c-1.3,0-2.4-1.1-2.4-2.4V129C478.3,127.7,479.4,126.6,480.7,126.6z"/>
		<path fill="#F2F2F2" stroke="#666666" stroke-linejoin="round" d="M465.3,147.3h8.8c1.3,0,2.4,1.1,2.4,2.3v11.7
			c0,1.3-1.1,2.4-2.4,2.4h-8.8c-1.3,0-2.4-1.1-2.4-2.4v-11.7C462.9,148.3,464,147.3,465.3,147.3z"/>
		<path fill="#F2F2F2" stroke="#666666" stroke-linejoin="round" d="M480.7,147.3h0.3c1.3,0,2.4,1.1,2.4,2.3v11.7
			c0,1.3-1.1,2.4-2.4,2.4h-0.3c-1.3,0-2.4-1.1-2.4-2.4v-11.7C478.3,148.3,479.4,147.3,480.7,147.3z"/>
		<path fill="#F2F2F2" stroke="#666666" stroke-linejoin="round" d="M465.3,168h8.8c1.3,0,2.4,1.1,2.4,2.3V182
			c0,1.3-1.1,2.4-2.4,2.4h-8.8c-1.3,0-2.4-1.1-2.4-2.4v-11.7C462.9,169,464,168,465.3,168z"/>
		<path fill="#F2F2F2" stroke="#666666" stroke-linejoin="round" d="M480.7,168h0.3c1.3,0,2.4,1.1,2.4,2.3V182
			c0,1.3-1.1,2.4-2.4,2.4h-0.3c-1.3,0-2.4-1.1-2.4-2.4v-11.7C478.3,169,479.4,168,480.7,168z"/>
		<path fill="#F2F2F2" stroke="#666666" stroke-linejoin="round" d="M465.3,188.6h8.8c1.3,0,2.4,1.1,2.4,2.4v11.7
			c0,1.3-1.1,2.4-2.4,2.4h-8.8c-1.3,0-2.4-1.1-2.4-2.4V191C462.9,189.7,464,188.6,465.3,188.6z"/>
		<path fill="#F2F2F2" stroke="#666666" stroke-linejoin="round" d="M480.7,188.6h0.3c1.3,0,2.4,1.1,2.4,2.4v11.7
			c0,1.3-1.1,2.4-2.4,2.4h-0.3c-1.3,0-2.4-1.1-2.4-2.4V191C478.3,189.7,479.4,188.6,480.7,188.6z"/>
		<path fill="#F2F2F2" stroke="#666666" stroke-linejoin="round" d="M107.8,211.5h27c1.3,0,2.4,1.1,2.4,2.4v47.6
			c0,1.3-1.1,2.4-2.4,2.4h-27c-1.3,0-2.3-1.1-2.3-2.4v-47.6C105.5,212.6,106.5,211.5,107.8,211.5z"/>
		<path fill="#F2F2F2" stroke="#666666" stroke-linejoin="round" d="M147.5,209h8.8c1.3,0,2.4,1.1,2.4,2.3v11.7
			c0,1.3-1.1,2.4-2.4,2.4h-8.8c-1.3,0-2.4-1.1-2.4-2.4v-11.7C145.2,210.1,146.2,209,147.5,209z"/>
		<path fill="#F2F2F2" stroke="#666666" stroke-linejoin="round" d="M162.9,209h0.3c1.3,0,2.4,1.1,2.4,2.3v11.7
			c0,1.3-1.1,2.4-2.4,2.4h-0.3c-1.3,0-2.4-1.1-2.4-2.4v-11.7C160.6,210.1,161.6,209,162.9,209z"/>
		<path fill="#F2F2F2" stroke="#666666" stroke-linejoin="round" d="M147.5,229.7h8.8c1.3,0,2.4,1.1,2.4,2.3v11.7
			c0,1.3-1.1,2.4-2.4,2.4h-8.8c-1.3,0-2.4-1.1-2.4-2.4v-11.7C145.2,230.8,146.2,229.7,147.5,229.7z"/>
		<path fill="#F2F2F2" stroke="#666666" stroke-linejoin="round" d="M162.9,229.7h0.3c1.3,0,2.4,1.1,2.4,2.3v11.7
			c0,1.3-1.1,2.4-2.4,2.4h-0.3c-1.3,0-2.4-1.1-2.4-2.4v-11.7C160.6,230.8,161.6,229.7,162.9,229.7z"/>
		<path fill="#F2F2F2" stroke="#666666" stroke-linejoin="round" d="M147.5,250.4h8.8c1.3,0,2.4,1.1,2.4,2.4v11.7
			c0,1.3-1.1,2.4-2.4,2.4h-8.8c-1.3,0-2.4-1.1-2.4-2.4v-11.7C145.2,251.4,146.2,250.4,147.5,250.4z"/>
		<path fill="#F2F2F2" stroke="#666666" stroke-linejoin="round" d="M162.9,250.4h0.3c1.3,0,2.4,1.1,2.4,2.4v11.7
			c0,1.3-1.1,2.4-2.4,2.4h-0.3c-1.3,0-2.4-1.1-2.4-2.4v-11.7C160.6,251.4,161.6,250.4,162.9,250.4z"/>
		<path fill="#F2F2F2" stroke="#666666" stroke-linejoin="round" d="M186.8,211.5h27c1.3,0,2.4,1.1,2.4,2.4v47.6
			c0,1.3-1.1,2.4-2.4,2.4h-27c-1.3,0-2.4-1.1-2.4-2.4v-47.6C184.5,212.6,185.5,211.5,186.8,211.5z"/>
		<path fill="#F2F2F2" stroke="#666666" stroke-linejoin="round" d="M226.5,209h8.8c1.3,0,2.4,1.1,2.4,2.3v11.7
			c0,1.3-1.1,2.4-2.4,2.4h-8.8c-1.3,0-2.4-1.1-2.4-2.4v-11.7C224.2,210.1,225.2,209,226.5,209z"/>
		<path fill="#F2F2F2" stroke="#666666" stroke-linejoin="round" d="M241.9,213h0.3c1.3,0,2.4,1.1,2.4,2.3v11.7
			c0,1.3-1.1,2.4-2.4,2.4h-0.3c-1.3,0-2.4-1.1-2.4-2.4v-11.7C239.6,214.1,240.6,213,241.9,213z"/>
		<path fill="#F2F2F2" stroke="#666666" stroke-linejoin="round" d="M226.5,229.7h8.8c1.3,0,2.4,1.1,2.4,2.3v11.7
			c0,1.3-1.1,2.4-2.4,2.4h-8.8c-1.3,0-2.4-1.1-2.4-2.4v-11.7C224.2,230.8,225.2,229.7,226.5,229.7z"/>
		<path fill="#F2F2F2" stroke="#666666" stroke-linejoin="round" d="M241.9,233.7h0.3c1.3,0,2.4,1.1,2.4,2.3v11.7
			c0,1.3-1.1,2.4-2.4,2.4h-0.3c-1.3,0-2.4-1.1-2.4-2.4v-11.7C239.6,234.8,240.6,233.7,241.9,233.7z"/>
		<path fill="#F2F2F2" stroke="#666666" stroke-linejoin="round" d="M226.5,250.4h8.8c1.3,0,2.4,1.1,2.4,2.4v11.7
			c0,1.3-1.1,2.4-2.4,2.4h-8.8c-1.3,0-2.4-1.1-2.4-2.4v-11.7C224.2,251.4,225.2,250.4,226.5,250.4z"/>
		<path fill="#F2F2F2" stroke="#666666" stroke-linejoin="round" d="M241.9,254.4h0.3c1.3,0,2.4,1.1,2.4,2.3v11.7
			c0,1.3-1.1,2.4-2.4,2.4h-0.3c-1.3,0-2.4-1.1-2.4-2.4v-11.7C239.6,255.4,240.6,254.4,241.9,254.4z"/>
		<path fill="#F2F2F2" stroke="#666666" stroke-linejoin="round" d="M266.4,211.5h27c1.3,0,2.4,1.1,2.4,2.4v47.6
			c0,1.3-1.1,2.4-2.4,2.4h-27c-1.3,0-2.4-1.1-2.4-2.4v-47.6C264,212.6,265.1,211.5,266.4,211.5z"/>
		<path fill="#F2F2F2" stroke="#666666" stroke-linejoin="round" d="M306.1,209h8.8c1.3,0,2.4,1.1,2.4,2.3v11.7
			c0,1.3-1.1,2.4-2.4,2.4h-8.8c-1.3,0-2.4-1.1-2.4-2.4v-11.7C303.8,210.1,304.8,209,306.1,209z"/>
		<path fill="#F2F2F2" stroke="#666666" stroke-linejoin="round" d="M321.5,209h0.3c1.3,0,2.4,1.1,2.4,2.3v11.7
			c0,1.3-1.1,2.4-2.4,2.4h-0.3c-1.3,0-2.4-1.1-2.4-2.4v-11.7C319.2,210.1,320.2,209,321.5,209z"/>
		<path fill="#F2F2F2" stroke="#666666" stroke-linejoin="round" d="M306.1,229.7h8.8c1.3,0,2.4,1.1,2.4,2.3v11.7
			c0,1.3-1.1,2.4-2.4,2.4h-8.8c-1.3,0-2.4-1.1-2.4-2.4v-11.7C303.8,230.8,304.8,229.7,306.1,229.7z"/>
		<path fill="#F2F2F2" stroke="#666666" stroke-linejoin="round" d="M321.5,229.7h0.3c1.3,0,2.4,1.1,2.4,2.3v11.7
			c0,1.3-1.1,2.4-2.4,2.4h-0.3c-1.3,0-2.4-1.1-2.4-2.4v-11.7C319.2,230.8,320.2,229.7,321.5,229.7z"/>
		<path fill="#F2F2F2" stroke="#666666" stroke-linejoin="round" d="M306.1,250.4h8.8c1.3,0,2.4,1.1,2.4,2.4v11.7
			c0,1.3-1.1,2.4-2.4,2.4h-8.8c-1.3,0-2.4-1.1-2.4-2.4v-11.7C303.8,251.4,304.8,250.4,306.1,250.4z"/>
		<path fill="#F2F2F2" stroke="#666666" stroke-linejoin="round" d="M321.5,250.4h0.3c1.3,0,2.4,1.1,2.4,2.4v11.7
			c0,1.3-1.1,2.4-2.4,2.4h-0.3c-1.3,0-2.4-1.1-2.4-2.4v-11.7C319.2,251.4,320.2,250.4,321.5,250.4z"/>
		<path fill="#F2F2F2" stroke="#666666" stroke-linejoin="round" d="M346,211.5h27c1.3,0,2.4,1.1,2.4,2.4v47.6
			c0,1.3-1.1,2.4-2.4,2.4h-27c-1.3,0-2.4-1.1-2.4-2.4v-47.6C343.6,212.6,344.7,211.5,346,211.5z"/>
		<path fill="#F2F2F2" stroke="#666666" stroke-linejoin="round" d="M385.7,209h8.8c1.3,0,2.4,1.1,2.4,2.3v11.7
			c0,1.3-1.1,2.4-2.4,2.4h-8.8c-1.3,0-2.4-1.1-2.4-2.4v-11.7C383.3,210.1,384.4,209,385.7,209z"/>
		<path fill="#F2F2F2" stroke="#666666" stroke-linejoin="round" d="M401.1,209h0.3c1.3,0,2.4,1.1,2.4,2.3v11.7
			c0,1.3-1.1,2.4-2.4,2.4h-0.3c-1.3,0-2.4-1.1-2.4-2.4v-11.7C398.8,210.1,399.8,209,401.1,209z"/>
		<path fill="#F2F2F2" stroke="#666666" stroke-linejoin="round" d="M385.7,229.7h8.8c1.3,0,2.4,1.1,2.4,2.3v11.7
			c0,1.3-1.1,2.4-2.4,2.4h-8.8c-1.3,0-2.4-1.1-2.4-2.4v-11.7C383.3,230.8,384.4,229.7,385.7,229.7z"/>
		<path fill="#F2F2F2" stroke="#666666" stroke-linejoin="round" d="M401.1,229.7h0.3c1.3,0,2.4,1.1,2.4,2.3v11.7
			c0,1.3-1.1,2.4-2.4,2.4h-0.3c-1.3,0-2.4-1.1-2.4-2.4v-11.7C398.8,230.8,399.8,229.7,401.1,229.7z"/>
		<path fill="#F2F2F2" stroke="#666666" stroke-linejoin="round" d="M385.7,250.4h8.8c1.3,0,2.4,1.1,2.4,2.4v11.7
			c0,1.3-1.1,2.4-2.4,2.4h-8.8c-1.3,0-2.4-1.1-2.4-2.4v-11.7C383.3,251.4,384.4,250.4,385.7,250.4z"/>
		<path fill="#F2F2F2" stroke="#666666" stroke-linejoin="round" d="M401.1,250.4h0.3c1.3,0,2.4,1.1,2.4,2.4v11.7
			c0,1.3-1.1,2.4-2.4,2.4h-0.3c-1.3,0-2.4-1.1-2.4-2.4v-11.7C398.8,251.4,399.8,250.4,401.1,250.4z"/>
		<path fill="#F2F2F2" stroke="#666666" stroke-linejoin="round" d="M425.6,211.5h27c1.3,0,2.4,1.1,2.4,2.4v47.6
			c0,1.3-1.1,2.4-2.4,2.4h-27c-1.3,0-2.4-1.1-2.4-2.4v-47.6C423.2,212.6,424.3,211.5,425.6,211.5z"/>
		<path fill="#F2F2F2" stroke="#666666" stroke-linejoin="round" d="M465.3,209h8.8c1.3,0,2.4,1.1,2.4,2.3v11.7
			c0,1.3-1.1,2.4-2.4,2.4h-8.8c-1.3,0-2.4-1.1-2.4-2.4v-11.7C462.9,210.1,464,209,465.3,209z"/>
		<path fill="#F2F2F2" stroke="#666666" stroke-linejoin="round" d="M480.7,209h0.3c1.3,0,2.4,1.1,2.4,2.3v11.7
			c0,1.3-1.1,2.4-2.4,2.4h-0.3c-1.3,0-2.4-1.1-2.4-2.4v-11.7C478.3,210.1,479.4,209,480.7,209z"/>
		<path fill="#F2F2F2" stroke="#666666" stroke-linejoin="round" d="M465.3,229.7h8.8c1.3,0,2.4,1.1,2.4,2.3v11.7
			c0,1.3-1.1,2.4-2.4,2.4h-8.8c-1.3,0-2.4-1.1-2.4-2.4v-11.7C462.9,230.8,464,229.7,465.3,229.7z"/>
		<path fill="#F2F2F2" stroke="#666666" stroke-linejoin="round" d="M480.7,229.7h0.3c1.3,0,2.4,1.1,2.4,2.3v11.7
			c0,1.3-1.1,2.4-2.4,2.4h-0.3c-1.3,0-2.4-1.1-2.4-2.4v-11.7C478.3,230.8,479.4,229.7,480.7,229.7z"/>
		<path fill="#F2F2F2" stroke="#666666" stroke-linejoin="round" d="M465.3,250.4h8.8c1.3,0,2.4,1.1,2.4,2.4v11.7
			c0,1.3-1.1,2.4-2.4,2.4h-8.8c-1.3,0-2.4-1.1-2.4-2.4v-11.7C462.9,251.4,464,250.4,465.3,250.4z"/>
		<path fill="#F2F2F2" stroke="#666666" stroke-linejoin="round" d="M480.7,250.4h0.3c1.3,0,2.4,1.1,2.4,2.4v11.7
			c0,1.3-1.1,2.4-2.4,2.4h-0.3c-1.3,0-2.4-1.1-2.4-2.4v-11.7C478.3,251.4,479.4,250.4,480.7,250.4z"/>
		<path fill="#F2F2F2" stroke="#666666" stroke-linejoin="round" d="M31.8,201.1H23c-1.3,0-2.4-1.1-2.4-2.3V187
			c0-1.3,1.1-2.3,2.4-2.3h8.8c1.3,0,2.3,1.1,2.3,2.3v11.7C34.1,200.1,33.1,201.1,31.8,201.1z"/>
		<path fill="#F2F2F2" stroke="#666666" stroke-linejoin="round" d="M16.4,201.1h-0.3c-1.3,0-2.4-1.1-2.4-2.3V187
			c0-1.3,1.1-2.3,2.4-2.3h0.3c1.3,0,2.4,1.1,2.4,2.3v11.7C18.7,200.1,17.7,201.1,16.4,201.1z"/>
		<path fill="#F2F2F2" stroke="#666666" stroke-linejoin="round" d="M31.8,180.4H23c-1.3,0-2.4-1.1-2.4-2.4v-11.7
			c0-1.3,1.1-2.3,2.4-2.3h8.8c1.3,0,2.3,1.1,2.3,2.3v11.7C34.1,179.4,33.1,180.4,31.8,180.4z"/>
		<path fill="#F2F2F2" stroke="#666666" stroke-linejoin="round" d="M16.4,180.4h-0.3c-1.3,0-2.4-1.1-2.4-2.4v-11.7
			c0-1.3,1.1-2.3,2.4-2.3h0.3c1.3,0,2.4,1.1,2.4,2.3v11.7C18.7,179.4,17.7,180.4,16.4,180.4z"/>
		<path fill="#F2F2F2" stroke="#666666" stroke-linejoin="round" d="M31.8,159.8H23c-1.3,0-2.4-1.1-2.4-2.3v-11.7
			c0-1.3,1.1-2.4,2.4-2.4h8.8c1.3,0,2.3,1.1,2.3,2.4v11.7C34.1,158.7,33.1,159.8,31.8,159.8z"/>
		<path fill="#F2F2F2" stroke="#666666" stroke-linejoin="round" d="M16.4,159.8h-0.3c-1.3,0-2.4-1.1-2.4-2.3v-11.7
			c0-1.3,1.1-2.4,2.4-2.4h0.3c1.3,0,2.4,1.1,2.4,2.4v11.7C18.7,158.7,17.7,159.8,16.4,159.8z"/>
		<path fill="#F2F2F2" stroke="#666666" stroke-linejoin="round" d="M31.8,139.1H23c-1.3,0-2.4-1.1-2.4-2.4V125
			c0-1.3,1.1-2.3,2.4-2.3h8.8c1.3,0,2.3,1.1,2.3,2.3v11.7C34.1,138.1,33.1,139.1,31.8,139.1z"/>
		<path fill="#F2F2F2" stroke="#666666" stroke-linejoin="round" d="M16.4,139.1h-0.3c-1.3,0-2.4-1.1-2.4-2.4V125
			c0-1.3,1.1-2.3,2.4-2.3h0.3c1.3,0,2.4,1.1,2.4,2.3v11.7C18.7,138.1,17.7,139.1,16.4,139.1z"/>
		<path fill="#F2F2F2" stroke="#666666" stroke-linejoin="round" d="M31.8,118.4H23c-1.3,0-2.4-1.1-2.4-2.3v-11.7
			c0-1.3,1.1-2.3,2.4-2.3h8.8c1.3,0,2.3,1.1,2.3,2.3v11.7C34.1,117.4,33.1,118.4,31.8,118.4z"/>
		<path fill="#F2F2F2" stroke="#666666" stroke-linejoin="round" d="M16.4,118.4h-0.3c-1.3,0-2.4-1.1-2.4-2.3v-11.7
			c0-1.3,1.1-2.3,2.4-2.3h0.3c1.3,0,2.4,1.1,2.4,2.3v11.7C18.7,117.4,17.7,118.4,16.4,118.4z"/>
	</g>
</g>
</svg>
