<svg xmlns="http://www.w3.org/2000/svg" viewBox="0 0 223.77 332.88"><defs><style>.cls-1{fill:#f2f2f2;stroke:#666;stroke-linejoin:round;}</style></defs><title>Baytik U 38person (38)</title><g id="Слой_2" data-name="Слой 2"><g id="Baytik_U_38_38_" data-name="Baytik U 38 (38)"><rect class="cls-1" x="7.46" y="315.96" width="13.46" height="16.42" rx="2.35" ry="2.35" transform="translate(28.37 648.33) rotate(-180)"/><rect class="cls-1" x="0.5" y="315.96" width="5" height="16.42" rx="2.35" ry="2.35" transform="translate(6 648.33) rotate(-180)"/><rect class="cls-1" x="7.46" y="295.29" width="13.46" height="16.42" rx="2.35" ry="2.35" transform="translate(28.37 607) rotate(-180)"/><rect class="cls-1" x="0.5" y="295.29" width="5" height="16.42" rx="2.35" ry="2.35" transform="translate(6 607) rotate(-180)"/><rect class="cls-1" x="7.46" y="274.63" width="13.46" height="16.42" rx="2.35" ry="2.35" transform="translate(28.37 565.67) rotate(-180)"/><rect class="cls-1" x="0.5" y="274.63" width="5" height="16.42" rx="2.35" ry="2.35" transform="translate(6 565.67) rotate(-180)"/><rect class="cls-1" x="7.46" y="253.96" width="13.46" height="16.42" rx="2.35" ry="2.35" transform="translate(28.37 524.33) rotate(-180)"/><rect class="cls-1" x="0.5" y="253.96" width="5" height="16.42" rx="2.35" ry="2.35" transform="translate(6 524.33) rotate(-180)"/><rect class="cls-1" x="7.46" y="233.29" width="13.46" height="16.42" rx="2.35" ry="2.35" transform="translate(28.37 483) rotate(-180)"/><rect class="cls-1" x="0.5" y="233.29" width="5" height="16.42" rx="2.35" ry="2.35" transform="translate(6 483) rotate(-180)"/><rect class="cls-1" x="7.46" y="212.63" width="13.46" height="16.42" rx="2.35" ry="2.35" transform="translate(28.37 441.67) rotate(-180)"/><rect class="cls-1" x="0.5" y="212.63" width="5" height="16.42" rx="2.35" ry="2.35" transform="translate(6 441.67) rotate(-180)"/><rect class="cls-1" x="7.46" y="191.96" width="13.46" height="16.42" rx="2.35" ry="2.35" transform="translate(28.37 400.33) rotate(-180)"/><rect class="cls-1" x="0.5" y="191.96" width="5" height="16.42" rx="2.35" ry="2.35" transform="translate(6 400.33) rotate(-180)"/><rect class="cls-1" x="7.46" y="171.29" width="13.46" height="16.42" rx="2.35" ry="2.35" transform="translate(28.37 359) rotate(-180)"/><rect class="cls-1" x="0.5" y="171.29" width="5" height="16.42" rx="2.35" ry="2.35" transform="translate(6 359) rotate(-180)"/><rect class="cls-1" x="7.46" y="150.63" width="13.46" height="16.42" rx="2.35" ry="2.35" transform="translate(28.37 317.67) rotate(-180)"/><rect class="cls-1" x="0.5" y="150.63" width="5" height="16.42" rx="2.35" ry="2.35" transform="translate(6 317.67) rotate(-180)"/><rect class="cls-1" x="7.46" y="129.96" width="13.46" height="16.42" rx="2.35" ry="2.35" transform="translate(28.37 276.33) rotate(-180)"/><rect class="cls-1" x="0.5" y="129.96" width="5" height="16.42" rx="2.35" ry="2.35" transform="translate(6 276.33) rotate(-180)"/><rect class="cls-1" x="7.46" y="109.29" width="13.46" height="16.42" rx="2.35" ry="2.35" transform="translate(28.37 235) rotate(-180)"/><rect class="cls-1" x="0.5" y="109.29" width="5" height="16.42" rx="2.35" ry="2.35" transform="translate(6 235) rotate(-180)"/><rect class="cls-1" x="7.46" y="88.63" width="13.46" height="16.42" rx="2.35" ry="2.35" transform="translate(28.37 193.67) rotate(-180)"/><rect class="cls-1" x="0.5" y="88.63" width="5" height="16.42" rx="2.35" ry="2.35" transform="translate(6 193.67) rotate(-180)"/><rect class="cls-1" x="7.46" y="67.96" width="13.46" height="16.42" rx="2.35" ry="2.35" transform="translate(28.38 152.33) rotate(-180)"/><rect class="cls-1" x="0.5" y="67.96" width="5" height="16.42" rx="2.35" ry="2.35" transform="translate(6 152.33) rotate(-180)"/><rect class="cls-1" x="7.46" y="47.29" width="13.46" height="16.42" rx="2.35" ry="2.35" transform="translate(28.38 111) rotate(-180)"/><rect class="cls-1" x="0.5" y="47.29" width="5" height="16.42" rx="2.35" ry="2.35" transform="translate(6 111) rotate(-180)"/><rect class="cls-1" x="7.46" y="26.63" width="13.46" height="16.42" rx="2.35" ry="2.35" transform="translate(28.38 69.67) rotate(-180)"/><rect class="cls-1" x="0.5" y="26.63" width="5" height="16.42" rx="2.35" ry="2.35" transform="translate(6 69.67) rotate(-180)"/><rect class="cls-1" x="202.85" y="128.13" width="13.46" height="16.42" rx="2.35" ry="2.35"/><rect class="cls-1" x="218.26" y="128.13" width="5" height="16.42" rx="2.35" ry="2.35"/><rect class="cls-1" x="202.85" y="148.79" width="13.46" height="16.42" rx="2.35" ry="2.35"/><rect class="cls-1" x="218.26" y="148.79" width="5" height="16.42" rx="2.35" ry="2.35"/><rect class="cls-1" x="202.85" y="169.46" width="13.46" height="16.42" rx="2.35" ry="2.35"/><rect class="cls-1" x="218.26" y="169.46" width="5" height="16.42" rx="2.35" ry="2.35"/><rect class="cls-1" x="202.85" y="190.13" width="13.46" height="16.42" rx="2.35" ry="2.35"/><rect class="cls-1" x="218.26" y="190.13" width="5" height="16.42" rx="2.35" ry="2.35"/><rect class="cls-1" x="202.85" y="210.79" width="13.46" height="16.42" rx="2.35" ry="2.35"/><rect class="cls-1" x="218.26" y="210.79" width="5" height="16.42" rx="2.35" ry="2.35"/><rect class="cls-1" x="202.85" y="231.46" width="13.46" height="16.42" rx="2.35" ry="2.35"/><rect class="cls-1" x="218.26" y="231.46" width="5" height="16.42" rx="2.35" ry="2.35"/><rect class="cls-1" x="202.85" y="252.13" width="13.46" height="16.42" rx="2.35" ry="2.35"/><rect class="cls-1" x="218.26" y="252.13" width="5" height="16.42" rx="2.35" ry="2.35"/><rect class="cls-1" x="202.85" y="272.79" width="13.46" height="16.42" rx="2.35" ry="2.35"/><rect class="cls-1" x="218.26" y="272.79" width="5" height="16.42" rx="2.35" ry="2.35"/><rect class="cls-1" x="202.85" y="293.46" width="13.46" height="16.42" rx="2.35" ry="2.35"/><rect class="cls-1" x="218.27" y="293.46" width="5" height="16.42" rx="2.35" ry="2.35"/><rect class="cls-1" x="202.85" y="314.13" width="13.46" height="16.42" rx="2.35" ry="2.35"/><rect class="cls-1" x="218.27" y="314.13" width="5" height="16.42" rx="2.35" ry="2.35"/><rect class="cls-1" x="202.85" y="47.29" width="13.46" height="16.42" rx="2.35" ry="2.35"/><rect class="cls-1" x="218.26" y="47.29" width="5" height="16.42" rx="2.35" ry="2.35"/><rect class="cls-1" x="202.85" y="26.63" width="13.46" height="16.42" rx="2.35" ry="2.35"/><rect class="cls-1" x="218.26" y="26.63" width="5" height="16.42" rx="2.35" ry="2.35"/><rect class="cls-1" x="202.85" y="67.96" width="13.46" height="16.42" rx="2.35" ry="2.35"/><rect class="cls-1" x="218.26" y="67.96" width="5" height="16.42" rx="2.35" ry="2.35"/><rect class="cls-1" x="179.56" y="5.98" width="13.46" height="16.42" rx="2.35" ry="2.35" transform="matrix(0, -1, 1, 0, 172.1, 200.48)"/><rect class="cls-1" x="183.79" y="-5.21" width="5" height="16.42" rx="2.35" ry="2.35" transform="translate(183.29 189.29) rotate(-90)"/><rect class="cls-1" x="158.89" y="5.98" width="13.46" height="16.42" rx="2.35" ry="2.35" transform="matrix(0, -1, 1, 0, 151.44, 179.81)"/><rect class="cls-1" x="163.12" y="-5.21" width="5" height="16.42" rx="2.35" ry="2.35" transform="translate(162.62 168.62) rotate(-90)"/><rect class="cls-1" x="202.85" y="88.63" width="13.46" height="16.42" rx="2.35" ry="2.35"/><rect class="cls-1" x="218.26" y="88.63" width="5" height="16.42" rx="2.35" ry="2.35"/><rect class="cls-1" x="202.85" y="109.29" width="13.46" height="16.42" rx="2.35" ry="2.35"/><rect class="cls-1" x="218.26" y="109.29" width="5" height="16.42" rx="2.35" ry="2.35"/><rect class="cls-1" x="137.8" y="5.98" width="13.46" height="16.42" rx="2.35" ry="2.35" transform="translate(130.35 158.72) rotate(-90)"/><rect class="cls-1" x="142.03" y="-5.21" width="5" height="16.42" rx="2.35" ry="2.35" transform="translate(141.53 147.53) rotate(-90)"/><rect class="cls-1" x="54.97" y="5.98" width="13.46" height="16.42" rx="2.35" ry="2.35" transform="translate(47.51 75.89) rotate(-90)"/><rect class="cls-1" x="59.2" y="-5.21" width="5" height="16.42" rx="2.35" ry="2.35" transform="translate(58.7 64.7) rotate(-90)"/><rect class="cls-1" x="34.3" y="5.98" width="13.46" height="16.42" rx="2.35" ry="2.35" transform="translate(26.85 55.22) rotate(-90)"/><rect class="cls-1" x="38.53" y="-5.21" width="5" height="16.42" rx="2.35" ry="2.35" transform="translate(38.03 44.03) rotate(-90)"/><rect class="cls-1" x="75.64" y="5.98" width="13.46" height="16.42" rx="2.35" ry="2.35" transform="translate(68.18 96.55) rotate(-90)"/><rect class="cls-1" x="79.87" y="-5.21" width="5" height="16.42" rx="2.35" ry="2.35" transform="translate(79.37 85.37) rotate(-90)"/><rect class="cls-1" x="96.3" y="5.98" width="13.46" height="16.42" rx="2.35" ry="2.35" transform="translate(88.85 117.22) rotate(-90)"/><rect class="cls-1" x="100.53" y="-5.21" width="5" height="16.42" rx="2.35" ry="2.35" transform="translate(100.03 106.03) rotate(-90)"/><rect class="cls-1" x="116.97" y="5.98" width="13.46" height="16.42" rx="2.35" ry="2.35" transform="translate(109.51 137.89) rotate(-90)"/><rect class="cls-1" x="121.2" y="-5.21" width="5" height="16.42" rx="2.35" ry="2.35" transform="translate(120.7 126.7) rotate(-90)"/><rect class="cls-1" x="28.64" y="129.42" width="31.68" height="49.09" rx="2.35" ry="2.35"/><rect class="cls-1" x="28.64" y="180.53" width="31.68" height="49.09" rx="2.35" ry="2.35"/><rect class="cls-1" x="28.64" y="27.2" width="31.68" height="49.09" rx="2.35" ry="2.35"/><rect class="cls-1" x="28.64" y="78.31" width="31.68" height="49.09" rx="2.35" ry="2.35"/><rect class="cls-1" x="122.28" y="18.49" width="31.68" height="49.09" rx="2.35" ry="2.35" transform="translate(181.15 -95.08) rotate(90)"/><rect class="cls-1" x="71.17" y="18.49" width="31.68" height="49.09" rx="2.35" ry="2.35" transform="translate(130.05 -43.97) rotate(90)"/><rect class="cls-1" x="28.64" y="231.63" width="31.68" height="49.09" rx="2.35" ry="2.35"/><rect class="cls-1" x="28.64" y="282.74" width="31.68" height="49.09" rx="2.35" ry="2.35"/><rect class="cls-1" x="164.68" y="129.42" width="31.68" height="49.09" rx="2.35" ry="2.35"/><rect class="cls-1" x="164.68" y="180.53" width="31.68" height="49.09" rx="2.35" ry="2.35"/><rect class="cls-1" x="164.68" y="27.2" width="31.68" height="49.09" rx="2.35" ry="2.35"/><rect class="cls-1" x="164.68" y="78.31" width="31.68" height="49.09" rx="2.35" ry="2.35"/><rect class="cls-1" x="164.68" y="231.63" width="31.68" height="49.09" rx="2.35" ry="2.35"/><rect class="cls-1" x="164.68" y="282.74" width="31.68" height="49.09" rx="2.35" ry="2.35"/></g></g></svg>