<svg xmlns="http://www.w3.org/2000/svg" viewBox="0 0 455.88 162.08"><defs><style>.cls-1{fill:#f2f2f2;stroke:#666;stroke-linejoin:round;}</style></defs><title>Baytik 150person (104)</title><g id="Слой_2" data-name="Слой 2"><g id="Baytik_104_150_" data-name="Baytik 104 (150)"><rect class="cls-1" x="91.17" y="0.5" width="13.46" height="16.42" rx="2.35" ry="2.35"/><rect class="cls-1" x="30.95" y="0.5" width="31.68" height="52.26" rx="2.35" ry="2.35"/><rect class="cls-1" x="30.95" y="54.91" width="31.68" height="52.26" rx="2.35" ry="2.35"/><rect class="cls-1" x="30.95" y="109.32" width="31.68" height="52.26" rx="2.35" ry="2.35"/><rect class="cls-1" x="106.58" y="0.5" width="5" height="16.42" rx="2.35" ry="2.35"/><rect class="cls-1" x="91.17" y="21.17" width="13.46" height="16.42" rx="2.35" ry="2.35"/><rect class="cls-1" x="106.58" y="21.17" width="5" height="16.42" rx="2.35" ry="2.35"/><rect class="cls-1" x="91.17" y="41.83" width="13.46" height="16.42" rx="2.35" ry="2.35"/><rect class="cls-1" x="106.58" y="41.83" width="5" height="16.42" rx="2.35" ry="2.35"/><rect class="cls-1" x="91.17" y="62.5" width="13.46" height="16.42" rx="2.35" ry="2.35"/><rect class="cls-1" x="106.58" y="62.5" width="5" height="16.42" rx="2.35" ry="2.35"/><rect class="cls-1" x="91.17" y="83.17" width="13.46" height="16.42" rx="2.35" ry="2.35"/><rect class="cls-1" x="106.58" y="83.17" width="5" height="16.42" rx="2.35" ry="2.35"/><rect class="cls-1" x="91.17" y="103.83" width="13.46" height="16.42" rx="2.35" ry="2.35"/><rect class="cls-1" x="106.58" y="103.83" width="5" height="16.42" rx="2.35" ry="2.35"/><rect class="cls-1" x="91.17" y="124.5" width="13.46" height="16.42" rx="2.35" ry="2.35"/><rect class="cls-1" x="106.58" y="124.5" width="5" height="16.42" rx="2.35" ry="2.35"/><rect class="cls-1" x="91.17" y="145.17" width="13.46" height="16.42" rx="2.35" ry="2.35"/><rect class="cls-1" x="106.58" y="145.17" width="5" height="16.42" rx="2.35" ry="2.35"/><rect class="cls-1" x="7.46" y="133.92" width="13.46" height="16.42" rx="2.35" ry="2.35" transform="matrix(-1, 0, 0, -1, 28.38, 284.25)"/><rect class="cls-1" x="0.5" y="133.92" width="5" height="16.42" rx="2.35" ry="2.35" transform="matrix(-1, 0, 0, -1, 6, 284.25)"/><rect class="cls-1" x="7.46" y="113.25" width="13.46" height="16.42" rx="2.35" ry="2.35" transform="matrix(-1, 0, 0, -1, 28.38, 242.92)"/><rect class="cls-1" x="0.5" y="113.25" width="5" height="16.42" rx="2.35" ry="2.35" transform="translate(6 242.92) rotate(180)"/><rect class="cls-1" x="7.46" y="92.58" width="13.46" height="16.42" rx="2.35" ry="2.35" transform="matrix(-1, 0, 0, -1, 28.38, 201.58)"/><rect class="cls-1" x="0.5" y="92.58" width="5" height="16.42" rx="2.35" ry="2.35" transform="matrix(-1, 0, 0, -1, 6, 201.58)"/><rect class="cls-1" x="7.46" y="71.92" width="13.46" height="16.42" rx="2.35" ry="2.35" transform="matrix(-1, 0, 0, -1, 28.38, 160.25)"/><rect class="cls-1" x="0.5" y="71.92" width="5" height="16.42" rx="2.35" ry="2.35" transform="translate(6 160.25) rotate(180)"/><rect class="cls-1" x="7.46" y="51.25" width="13.46" height="16.42" rx="2.35" ry="2.35" transform="matrix(-1, 0, 0, -1, 28.38, 118.92)"/><rect class="cls-1" x="0.5" y="51.25" width="5" height="16.42" rx="2.35" ry="2.35" transform="translate(6 118.92) rotate(180)"/><rect class="cls-1" x="7.46" y="30.58" width="13.46" height="16.42" rx="2.35" ry="2.35" transform="matrix(-1, 0, 0, -1, 28.38, 77.58)"/><rect class="cls-1" x="0.5" y="30.58" width="5" height="16.42" rx="2.35" ry="2.35" transform="translate(6 77.58) rotate(180)"/><rect class="cls-1" x="7.46" y="9.92" width="13.46" height="16.42" rx="2.35" ry="2.35" transform="matrix(-1, 0, 0, -1, 28.38, 36.25)"/><rect class="cls-1" x="0.5" y="9.92" width="5" height="16.42" rx="2.35" ry="2.35" transform="matrix(-1, 0, 0, -1, 6, 36.25)"/><rect class="cls-1" x="120.96" y="0.5" width="13.46" height="16.42" rx="2.35" ry="2.35"/><rect class="cls-1" x="136.38" y="0.5" width="5" height="16.42" rx="2.35" ry="2.35"/><rect class="cls-1" x="120.96" y="21.17" width="13.46" height="16.42" rx="2.35" ry="2.35"/><rect class="cls-1" x="136.38" y="21.17" width="5" height="16.42" rx="2.35" ry="2.35"/><rect class="cls-1" x="120.96" y="41.83" width="13.46" height="16.42" rx="2.35" ry="2.35"/><rect class="cls-1" x="136.38" y="41.83" width="5" height="16.42" rx="2.35" ry="2.35"/><rect class="cls-1" x="120.96" y="62.5" width="13.46" height="16.42" rx="2.35" ry="2.35"/><rect class="cls-1" x="136.38" y="62.5" width="5" height="16.42" rx="2.35" ry="2.35"/><rect class="cls-1" x="120.96" y="83.17" width="13.46" height="16.42" rx="2.35" ry="2.35"/><rect class="cls-1" x="136.38" y="83.17" width="5" height="16.42" rx="2.35" ry="2.35"/><rect class="cls-1" x="120.96" y="103.83" width="13.46" height="16.42" rx="2.35" ry="2.35"/><rect class="cls-1" x="136.38" y="103.83" width="5" height="16.42" rx="2.35" ry="2.35"/><rect class="cls-1" x="120.96" y="124.5" width="13.46" height="16.42" rx="2.35" ry="2.35"/><rect class="cls-1" x="136.38" y="124.5" width="5" height="16.42" rx="2.35" ry="2.35"/><rect class="cls-1" x="120.96" y="145.17" width="13.46" height="16.42" rx="2.35" ry="2.35"/><rect class="cls-1" x="136.38" y="145.17" width="5" height="16.42" rx="2.35" ry="2.35"/><rect class="cls-1" x="149.46" y="0.5" width="13.46" height="16.42" rx="2.35" ry="2.35"/><rect class="cls-1" x="164.88" y="0.5" width="5" height="16.42" rx="2.35" ry="2.35"/><rect class="cls-1" x="149.46" y="21.17" width="13.46" height="16.42" rx="2.35" ry="2.35"/><rect class="cls-1" x="164.88" y="21.17" width="5" height="16.42" rx="2.35" ry="2.35"/><rect class="cls-1" x="149.46" y="41.83" width="13.46" height="16.42" rx="2.35" ry="2.35"/><rect class="cls-1" x="164.88" y="41.83" width="5" height="16.42" rx="2.35" ry="2.35"/><rect class="cls-1" x="149.46" y="62.5" width="13.46" height="16.42" rx="2.35" ry="2.35"/><rect class="cls-1" x="164.88" y="62.5" width="5" height="16.42" rx="2.35" ry="2.35"/><rect class="cls-1" x="149.46" y="83.17" width="13.46" height="16.42" rx="2.35" ry="2.35"/><rect class="cls-1" x="164.88" y="83.17" width="5" height="16.42" rx="2.35" ry="2.35"/><rect class="cls-1" x="149.46" y="103.83" width="13.46" height="16.42" rx="2.35" ry="2.35"/><rect class="cls-1" x="164.88" y="103.83" width="5" height="16.42" rx="2.35" ry="2.35"/><rect class="cls-1" x="149.46" y="124.5" width="13.46" height="16.42" rx="2.35" ry="2.35"/><rect class="cls-1" x="164.88" y="124.5" width="5" height="16.42" rx="2.35" ry="2.35"/><rect class="cls-1" x="149.46" y="145.17" width="13.46" height="16.42" rx="2.35" ry="2.35"/><rect class="cls-1" x="164.88" y="145.17" width="5" height="16.42" rx="2.35" ry="2.35"/><rect class="cls-1" x="177.96" y="0.5" width="13.46" height="16.42" rx="2.35" ry="2.35"/><rect class="cls-1" x="193.38" y="0.5" width="5" height="16.42" rx="2.35" ry="2.35"/><rect class="cls-1" x="177.96" y="21.17" width="13.46" height="16.42" rx="2.35" ry="2.35"/><rect class="cls-1" x="193.38" y="21.17" width="5" height="16.42" rx="2.35" ry="2.35"/><rect class="cls-1" x="177.96" y="41.83" width="13.46" height="16.42" rx="2.35" ry="2.35"/><rect class="cls-1" x="193.38" y="41.83" width="5" height="16.42" rx="2.35" ry="2.35"/><rect class="cls-1" x="177.96" y="62.5" width="13.46" height="16.42" rx="2.35" ry="2.35"/><rect class="cls-1" x="193.38" y="62.5" width="5" height="16.42" rx="2.35" ry="2.35"/><rect class="cls-1" x="177.96" y="83.17" width="13.46" height="16.42" rx="2.35" ry="2.35"/><rect class="cls-1" x="193.38" y="83.17" width="5" height="16.42" rx="2.35" ry="2.35"/><rect class="cls-1" x="177.96" y="103.83" width="13.46" height="16.42" rx="2.35" ry="2.35"/><rect class="cls-1" x="193.38" y="103.83" width="5" height="16.42" rx="2.35" ry="2.35"/><rect class="cls-1" x="177.96" y="124.5" width="13.46" height="16.42" rx="2.35" ry="2.35"/><rect class="cls-1" x="193.38" y="124.5" width="5" height="16.42" rx="2.35" ry="2.35"/><rect class="cls-1" x="177.96" y="145.17" width="13.46" height="16.42" rx="2.35" ry="2.35"/><rect class="cls-1" x="193.38" y="145.17" width="5" height="16.42" rx="2.35" ry="2.35"/><rect class="cls-1" x="206.46" y="0.5" width="13.46" height="16.42" rx="2.35" ry="2.35"/><rect class="cls-1" x="221.88" y="0.5" width="5" height="16.42" rx="2.35" ry="2.35"/><rect class="cls-1" x="206.46" y="21.17" width="13.46" height="16.42" rx="2.35" ry="2.35"/><rect class="cls-1" x="221.88" y="21.17" width="5" height="16.42" rx="2.35" ry="2.35"/><rect class="cls-1" x="206.46" y="41.83" width="13.46" height="16.42" rx="2.35" ry="2.35"/><rect class="cls-1" x="221.88" y="41.83" width="5" height="16.42" rx="2.35" ry="2.35"/><rect class="cls-1" x="206.46" y="62.5" width="13.46" height="16.42" rx="2.35" ry="2.35"/><rect class="cls-1" x="221.88" y="62.5" width="5" height="16.42" rx="2.35" ry="2.35"/><rect class="cls-1" x="206.46" y="83.17" width="13.46" height="16.42" rx="2.35" ry="2.35"/><rect class="cls-1" x="221.88" y="83.17" width="5" height="16.42" rx="2.35" ry="2.35"/><rect class="cls-1" x="206.46" y="103.83" width="13.46" height="16.42" rx="2.35" ry="2.35"/><rect class="cls-1" x="221.88" y="103.83" width="5" height="16.42" rx="2.35" ry="2.35"/><rect class="cls-1" x="206.46" y="124.5" width="13.46" height="16.42" rx="2.35" ry="2.35"/><rect class="cls-1" x="221.88" y="124.5" width="5" height="16.42" rx="2.35" ry="2.35"/><rect class="cls-1" x="206.46" y="145.17" width="13.46" height="16.42" rx="2.35" ry="2.35"/><rect class="cls-1" x="221.88" y="145.17" width="5" height="16.42" rx="2.35" ry="2.35"/><rect class="cls-1" x="234.96" y="0.5" width="13.46" height="16.42" rx="2.35" ry="2.35"/><rect class="cls-1" x="250.38" y="0.5" width="5" height="16.42" rx="2.35" ry="2.35"/><rect class="cls-1" x="234.96" y="21.17" width="13.46" height="16.42" rx="2.35" ry="2.35"/><rect class="cls-1" x="250.38" y="21.17" width="5" height="16.42" rx="2.35" ry="2.35"/><rect class="cls-1" x="234.96" y="41.83" width="13.46" height="16.42" rx="2.35" ry="2.35"/><rect class="cls-1" x="250.38" y="41.83" width="5" height="16.42" rx="2.35" ry="2.35"/><rect class="cls-1" x="234.96" y="62.5" width="13.46" height="16.42" rx="2.35" ry="2.35"/><rect class="cls-1" x="250.38" y="62.5" width="5" height="16.42" rx="2.35" ry="2.35"/><rect class="cls-1" x="234.96" y="83.17" width="13.46" height="16.42" rx="2.35" ry="2.35"/><rect class="cls-1" x="250.38" y="83.17" width="5" height="16.42" rx="2.35" ry="2.35"/><rect class="cls-1" x="234.96" y="103.83" width="13.46" height="16.42" rx="2.35" ry="2.35"/><rect class="cls-1" x="250.38" y="103.83" width="5" height="16.42" rx="2.35" ry="2.35"/><rect class="cls-1" x="234.96" y="124.5" width="13.46" height="16.42" rx="2.35" ry="2.35"/><rect class="cls-1" x="250.38" y="124.5" width="5" height="16.42" rx="2.35" ry="2.35"/><rect class="cls-1" x="234.96" y="145.17" width="13.46" height="16.42" rx="2.35" ry="2.35"/><rect class="cls-1" x="250.38" y="145.17" width="5" height="16.42" rx="2.35" ry="2.35"/><rect class="cls-1" x="263.46" y="0.5" width="13.46" height="16.42" rx="2.35" ry="2.35"/><rect class="cls-1" x="278.88" y="0.5" width="5" height="16.42" rx="2.35" ry="2.35"/><rect class="cls-1" x="263.46" y="21.17" width="13.46" height="16.42" rx="2.35" ry="2.35"/><rect class="cls-1" x="278.88" y="21.17" width="5" height="16.42" rx="2.35" ry="2.35"/><rect class="cls-1" x="263.46" y="41.83" width="13.46" height="16.42" rx="2.35" ry="2.35"/><rect class="cls-1" x="278.88" y="41.83" width="5" height="16.42" rx="2.35" ry="2.35"/><rect class="cls-1" x="263.46" y="62.5" width="13.46" height="16.42" rx="2.35" ry="2.35"/><rect class="cls-1" x="278.88" y="62.5" width="5" height="16.42" rx="2.35" ry="2.35"/><rect class="cls-1" x="263.46" y="83.17" width="13.46" height="16.42" rx="2.35" ry="2.35"/><rect class="cls-1" x="278.88" y="83.17" width="5" height="16.42" rx="2.35" ry="2.35"/><rect class="cls-1" x="263.46" y="103.83" width="13.46" height="16.42" rx="2.35" ry="2.35"/><rect class="cls-1" x="278.88" y="103.83" width="5" height="16.42" rx="2.35" ry="2.35"/><rect class="cls-1" x="263.46" y="124.5" width="13.46" height="16.42" rx="2.35" ry="2.35"/><rect class="cls-1" x="278.88" y="124.5" width="5" height="16.42" rx="2.35" ry="2.35"/><rect class="cls-1" x="263.46" y="145.17" width="13.46" height="16.42" rx="2.35" ry="2.35"/><rect class="cls-1" x="278.88" y="145.17" width="5" height="16.42" rx="2.35" ry="2.35"/><rect class="cls-1" x="291.96" y="0.5" width="13.46" height="16.42" rx="2.35" ry="2.35"/><rect class="cls-1" x="307.38" y="0.5" width="5" height="16.42" rx="2.35" ry="2.35"/><rect class="cls-1" x="291.96" y="21.17" width="13.46" height="16.42" rx="2.35" ry="2.35"/><rect class="cls-1" x="307.38" y="21.17" width="5" height="16.42" rx="2.35" ry="2.35"/><rect class="cls-1" x="291.96" y="41.83" width="13.46" height="16.42" rx="2.35" ry="2.35"/><rect class="cls-1" x="307.38" y="41.83" width="5" height="16.42" rx="2.35" ry="2.35"/><rect class="cls-1" x="291.96" y="62.5" width="13.46" height="16.42" rx="2.35" ry="2.35"/><rect class="cls-1" x="307.38" y="62.5" width="5" height="16.42" rx="2.35" ry="2.35"/><rect class="cls-1" x="291.96" y="83.17" width="13.46" height="16.42" rx="2.35" ry="2.35"/><rect class="cls-1" x="307.38" y="83.17" width="5" height="16.42" rx="2.35" ry="2.35"/><rect class="cls-1" x="291.96" y="103.83" width="13.46" height="16.42" rx="2.35" ry="2.35"/><rect class="cls-1" x="307.38" y="103.83" width="5" height="16.42" rx="2.35" ry="2.35"/><rect class="cls-1" x="291.96" y="124.5" width="13.46" height="16.42" rx="2.35" ry="2.35"/><rect class="cls-1" x="307.38" y="124.5" width="5" height="16.42" rx="2.35" ry="2.35"/><rect class="cls-1" x="291.96" y="145.17" width="13.46" height="16.42" rx="2.35" ry="2.35"/><rect class="cls-1" x="307.38" y="145.17" width="5" height="16.42" rx="2.35" ry="2.35"/><rect class="cls-1" x="320.46" y="0.5" width="13.46" height="16.42" rx="2.35" ry="2.35"/><rect class="cls-1" x="335.88" y="0.5" width="5" height="16.42" rx="2.35" ry="2.35"/><rect class="cls-1" x="320.46" y="21.17" width="13.46" height="16.42" rx="2.35" ry="2.35"/><rect class="cls-1" x="335.88" y="21.17" width="5" height="16.42" rx="2.35" ry="2.35"/><rect class="cls-1" x="320.46" y="41.83" width="13.46" height="16.42" rx="2.35" ry="2.35"/><rect class="cls-1" x="335.88" y="41.83" width="5" height="16.42" rx="2.35" ry="2.35"/><rect class="cls-1" x="320.46" y="62.5" width="13.46" height="16.42" rx="2.35" ry="2.35"/><rect class="cls-1" x="335.88" y="62.5" width="5" height="16.42" rx="2.35" ry="2.35"/><rect class="cls-1" x="320.46" y="83.17" width="13.46" height="16.42" rx="2.35" ry="2.35"/><rect class="cls-1" x="335.88" y="83.17" width="5" height="16.42" rx="2.35" ry="2.35"/><rect class="cls-1" x="320.46" y="103.83" width="13.46" height="16.42" rx="2.35" ry="2.35"/><rect class="cls-1" x="335.88" y="103.83" width="5" height="16.42" rx="2.35" ry="2.35"/><rect class="cls-1" x="320.46" y="124.5" width="13.46" height="16.42" rx="2.35" ry="2.35"/><rect class="cls-1" x="335.88" y="124.5" width="5" height="16.42" rx="2.35" ry="2.35"/><rect class="cls-1" x="320.46" y="145.17" width="13.46" height="16.42" rx="2.35" ry="2.35"/><rect class="cls-1" x="335.88" y="145.17" width="5" height="16.42" rx="2.35" ry="2.35"/><rect class="cls-1" x="348.96" y="0.5" width="13.46" height="16.42" rx="2.35" ry="2.35"/><rect class="cls-1" x="364.38" y="0.5" width="5" height="16.42" rx="2.35" ry="2.35"/><rect class="cls-1" x="348.96" y="21.17" width="13.46" height="16.42" rx="2.35" ry="2.35"/><rect class="cls-1" x="364.38" y="21.17" width="5" height="16.42" rx="2.35" ry="2.35"/><rect class="cls-1" x="348.96" y="41.83" width="13.46" height="16.42" rx="2.35" ry="2.35"/><rect class="cls-1" x="364.38" y="41.83" width="5" height="16.42" rx="2.35" ry="2.35"/><rect class="cls-1" x="348.96" y="62.5" width="13.46" height="16.42" rx="2.35" ry="2.35"/><rect class="cls-1" x="364.38" y="62.5" width="5" height="16.42" rx="2.35" ry="2.35"/><rect class="cls-1" x="348.96" y="83.17" width="13.46" height="16.42" rx="2.35" ry="2.35"/><rect class="cls-1" x="364.38" y="83.17" width="5" height="16.42" rx="2.35" ry="2.35"/><rect class="cls-1" x="348.96" y="103.83" width="13.46" height="16.42" rx="2.35" ry="2.35"/><rect class="cls-1" x="364.38" y="103.83" width="5" height="16.42" rx="2.35" ry="2.35"/><rect class="cls-1" x="348.96" y="124.5" width="13.46" height="16.42" rx="2.35" ry="2.35"/><rect class="cls-1" x="364.38" y="124.5" width="5" height="16.42" rx="2.35" ry="2.35"/><rect class="cls-1" x="348.96" y="145.17" width="13.46" height="16.42" rx="2.35" ry="2.35"/><rect class="cls-1" x="364.38" y="145.17" width="5" height="16.42" rx="2.35" ry="2.35"/><rect class="cls-1" x="377.96" y="0.5" width="13.46" height="16.42" rx="2.35" ry="2.35"/><rect class="cls-1" x="393.38" y="0.5" width="5" height="16.42" rx="2.35" ry="2.35"/><rect class="cls-1" x="377.96" y="21.17" width="13.46" height="16.42" rx="2.35" ry="2.35"/><rect class="cls-1" x="393.38" y="21.17" width="5" height="16.42" rx="2.35" ry="2.35"/><rect class="cls-1" x="377.96" y="41.83" width="13.46" height="16.42" rx="2.35" ry="2.35"/><rect class="cls-1" x="393.38" y="41.83" width="5" height="16.42" rx="2.35" ry="2.35"/><rect class="cls-1" x="377.96" y="62.5" width="13.46" height="16.42" rx="2.35" ry="2.35"/><rect class="cls-1" x="393.38" y="62.5" width="5" height="16.42" rx="2.35" ry="2.35"/><rect class="cls-1" x="377.96" y="83.17" width="13.46" height="16.42" rx="2.35" ry="2.35"/><rect class="cls-1" x="393.38" y="83.17" width="5" height="16.42" rx="2.35" ry="2.35"/><rect class="cls-1" x="377.96" y="103.83" width="13.46" height="16.42" rx="2.35" ry="2.35"/><rect class="cls-1" x="393.38" y="103.83" width="5" height="16.42" rx="2.35" ry="2.35"/><rect class="cls-1" x="377.96" y="124.5" width="13.46" height="16.42" rx="2.35" ry="2.35"/><rect class="cls-1" x="393.38" y="124.5" width="5" height="16.42" rx="2.35" ry="2.35"/><rect class="cls-1" x="377.96" y="145.17" width="13.46" height="16.42" rx="2.35" ry="2.35"/><rect class="cls-1" x="393.38" y="145.17" width="5" height="16.42" rx="2.35" ry="2.35"/><rect class="cls-1" x="406.46" y="0.5" width="13.46" height="16.42" rx="2.35" ry="2.35"/><rect class="cls-1" x="421.88" y="0.5" width="5" height="16.42" rx="2.35" ry="2.35"/><rect class="cls-1" x="406.46" y="21.17" width="13.46" height="16.42" rx="2.35" ry="2.35"/><rect class="cls-1" x="421.88" y="21.17" width="5" height="16.42" rx="2.35" ry="2.35"/><rect class="cls-1" x="406.46" y="41.83" width="13.46" height="16.42" rx="2.35" ry="2.35"/><rect class="cls-1" x="421.88" y="41.83" width="5" height="16.42" rx="2.35" ry="2.35"/><rect class="cls-1" x="406.46" y="62.5" width="13.46" height="16.42" rx="2.35" ry="2.35"/><rect class="cls-1" x="421.88" y="62.5" width="5" height="16.42" rx="2.35" ry="2.35"/><rect class="cls-1" x="406.46" y="83.17" width="13.46" height="16.42" rx="2.35" ry="2.35"/><rect class="cls-1" x="421.88" y="83.17" width="5" height="16.42" rx="2.35" ry="2.35"/><rect class="cls-1" x="406.46" y="103.83" width="13.46" height="16.42" rx="2.35" ry="2.35"/><rect class="cls-1" x="421.88" y="103.83" width="5" height="16.42" rx="2.35" ry="2.35"/><rect class="cls-1" x="406.46" y="124.5" width="13.46" height="16.42" rx="2.35" ry="2.35"/><rect class="cls-1" x="421.88" y="124.5" width="5" height="16.42" rx="2.35" ry="2.35"/><rect class="cls-1" x="406.46" y="145.17" width="13.46" height="16.42" rx="2.35" ry="2.35"/><rect class="cls-1" x="421.88" y="145.17" width="5" height="16.42" rx="2.35" ry="2.35"/><rect class="cls-1" x="434.96" y="0.5" width="13.46" height="16.42" rx="2.35" ry="2.35"/><rect class="cls-1" x="450.38" y="0.5" width="5" height="16.42" rx="2.35" ry="2.35"/><rect class="cls-1" x="434.96" y="21.17" width="13.46" height="16.42" rx="2.35" ry="2.35"/><rect class="cls-1" x="450.38" y="21.17" width="5" height="16.42" rx="2.35" ry="2.35"/><rect class="cls-1" x="434.96" y="41.83" width="13.46" height="16.42" rx="2.35" ry="2.35"/><rect class="cls-1" x="450.38" y="41.83" width="5" height="16.42" rx="2.35" ry="2.35"/><rect class="cls-1" x="434.96" y="62.5" width="13.46" height="16.42" rx="2.35" ry="2.35"/><rect class="cls-1" x="450.38" y="62.5" width="5" height="16.42" rx="2.35" ry="2.35"/><rect class="cls-1" x="434.96" y="83.17" width="13.46" height="16.42" rx="2.35" ry="2.35"/><rect class="cls-1" x="450.38" y="83.17" width="5" height="16.42" rx="2.35" ry="2.35"/><rect class="cls-1" x="434.96" y="103.83" width="13.46" height="16.42" rx="2.35" ry="2.35"/><rect class="cls-1" x="450.38" y="103.83" width="5" height="16.42" rx="2.35" ry="2.35"/><rect class="cls-1" x="434.96" y="124.5" width="13.46" height="16.42" rx="2.35" ry="2.35"/><rect class="cls-1" x="450.38" y="124.5" width="5" height="16.42" rx="2.35" ry="2.35"/><rect class="cls-1" x="434.96" y="145.17" width="13.46" height="16.42" rx="2.35" ry="2.35"/><rect class="cls-1" x="450.38" y="145.17" width="5" height="16.42" rx="2.35" ry="2.35"/></g></g></svg>