<?xml version="1.0" encoding="utf-8"?>
<!-- Generator: Adobe Illustrator 21.0.0, SVG Export Plug-In . SVG Version: 6.00 Build 0)  -->
<svg version="1.0" id="Слой_1" xmlns="http://www.w3.org/2000/svg" xmlns:xlink="http://www.w3.org/1999/xlink" x="0px" y="0px"
	 viewBox="0 0 497.1 317.7" enable-background="new 0 0 497.1 317.7" xml:space="preserve">
<title>Baytik banket 48person (48)</title>
<g id="Слой_2">
	<g id="Ala-Too_banket">
		<circle fill="#F2F2F2" stroke="#666666" stroke-linejoin="round" cx="231" cy="75.3" r="38.1"/>
		<path fill="#F2F2F2" stroke="#666666" stroke-linejoin="round" d="M224.2,30.3V23c0-1.1,0.9-2,2-2h9.8c1.1,0,2,0.9,2,2v7.3
			c0,1.1-0.9,2-2,2h-9.8C225,32.3,224.2,31.4,224.2,30.3z"/>
		<path fill="#F2F2F2" stroke="#666666" stroke-linejoin="round" d="M224.2,17.4v-0.3c0-1.1,0.9-2,2-2h9.8c1.1,0,2,0.9,2,2v0.3
			c0,1.1-0.9,2-2,2h-9.8C225,19.4,224.2,18.5,224.2,17.4z"/>
		<path fill="#F2F2F2" stroke="#666666" stroke-linejoin="round" d="M186.4,82.1H179c-1.1,0-2-0.9-2-2v-9.8c0-1.1,0.9-2,2-2h7.3
			c1.1,0,2,0.9,2,2v9.8C188.3,81.2,187.4,82.1,186.4,82.1z"/>
		<path fill="#F2F2F2" stroke="#666666" stroke-linejoin="round" d="M173.5,82.1h-0.3c-1.1,0-2-0.9-2-2v-9.8c0-1.1,0.9-2,2-2h0.3
			c1.1,0,2,0.9,2,2v9.8C175.4,81.2,174.5,82.1,173.5,82.1z"/>
		<path fill="#F2F2F2" stroke="#666666" stroke-linejoin="round" d="M237.9,120.2v7.3c0,1.1-0.9,2-2,2h-9.8c-1.1,0-2-0.9-2-2v-7.3
			c0-1.1,0.9-2,2-2h9.8C237,118.2,237.9,119.1,237.9,120.2z"/>
		<path fill="#F2F2F2" stroke="#666666" stroke-linejoin="round" d="M237.9,133.1v0.3c0,1.1-0.9,2-2,2h-9.8c-1.1,0-2-0.9-2-2v-0.3
			c0-1.1,0.9-2,2-2h9.8C237,131.1,237.9,132,237.9,133.1z"/>
		<path fill="#F2F2F2" stroke="#666666" stroke-linejoin="round" d="M275.7,68.4h7.3c1.1,0,2,0.9,2,2v9.8c0,1.1-0.9,2-2,2h-7.3
			c-1.1,0-2-0.9-2-2v-9.8C273.7,69.3,274.6,68.4,275.7,68.4z"/>
		<path fill="#F2F2F2" stroke="#666666" stroke-linejoin="round" d="M288.6,68.4h0.3c1.1,0,2,0.9,2,2v9.8c0,1.1-0.9,2-2,2h-0.3
			c-1.1,0-2-0.9-2-2v-9.8C286.6,69.3,287.5,68.4,288.6,68.4z"/>
		<path fill="#F2F2F2" stroke="#666666" stroke-linejoin="round" d="M242.1,31.2l2.8-6.8c0.4-1,1.6-1.5,2.6-1l9,3.8
			c1,0.4,1.5,1.6,1,2.6l-2.8,6.8c-0.4,1-1.6,1.5-2.6,1l-9-3.8C242.2,33.4,241.7,32.2,242.1,31.2z"/>
		<path fill="#F2F2F2" stroke="#666666" stroke-linejoin="round" d="M247.1,19.3l0.1-0.2c0.4-1,1.6-1.5,2.6-1l9,3.8
			c1,0.4,1.5,1.6,1,2.6l-0.1,0.2c-0.4,1-1.6,1.5-2.6,1l-9-3.8C247.2,21.5,246.7,20.3,247.1,19.3z"/>
		<path fill="#F2F2F2" stroke="#666666" stroke-linejoin="round" d="M187.2,64.2l-6.8-2.8c-1-0.4-1.5-1.6-1-2.6l3.8-9
			c0.4-1,1.6-1.5,2.6-1l6.8,2.8c1,0.4,1.5,1.6,1,2.6l-3.8,9C189.4,64.2,188.2,64.7,187.2,64.2z"/>
		<path fill="#F2F2F2" stroke="#666666" stroke-linejoin="round" d="M175.3,59.2l-0.2-0.1c-1-0.4-1.5-1.6-1-2.6l3.8-9
			c0.4-1,1.6-1.5,2.6-1l0.2,0.1c1,0.4,1.5,1.6,1,2.6l-3.8,9C177.5,59.2,176.3,59.7,175.3,59.2z"/>
		<path fill="#F2F2F2" stroke="#666666" stroke-linejoin="round" d="M219.9,119.3l-2.8,6.8c-0.4,1-1.6,1.5-2.6,1l-9-3.8
			c-1-0.4-1.5-1.6-1-2.6l2.8-6.8c0.4-1,1.6-1.5,2.6-1l9,3.8C219.9,117.2,220.3,118.3,219.9,119.3z"/>
		<path fill="#F2F2F2" stroke="#666666" stroke-linejoin="round" d="M214.9,131.2l-0.1,0.2c-0.4,1-1.6,1.5-2.6,1l-9-3.8
			c-1-0.4-1.5-1.6-1-2.6l0.1-0.2c0.4-1,1.6-1.5,2.6-1l9,3.8C214.9,129.1,215.3,130.2,214.9,131.2z"/>
		<path fill="#F2F2F2" stroke="#666666" stroke-linejoin="round" d="M274.8,86.3l6.8,2.8c1,0.4,1.5,1.6,1,2.6l-3.8,9
			c-0.4,1-1.6,1.5-2.6,1l-6.8-2.8c-1-0.4-1.5-1.6-1-2.6l3.8-9C272.7,86.3,273.8,85.8,274.8,86.3z"/>
		<path fill="#F2F2F2" stroke="#666666" stroke-linejoin="round" d="M286.7,91.3l0.2,0.1c1,0.4,1.5,1.6,1,2.6l-3.8,9
			c-0.4,1-1.6,1.5-2.6,1l-0.2-0.1c-1-0.4-1.5-1.6-1-2.6l3.8-9C284.6,91.3,285.7,90.8,286.7,91.3z"/>
		<path fill="#F2F2F2" stroke="#666666" stroke-linejoin="round" d="M258.8,39.3l5.3-5.1c0.8-0.7,2-0.7,2.8,0.1l6.8,7.1
			c0.7,0.8,0.7,2-0.1,2.8l-5.3,5.1c-0.8,0.7-2,0.7-2.8-0.1l-6.8-7.1C258,41.3,258,40,258.8,39.3z"/>
		<path fill="#F2F2F2" stroke="#666666" stroke-linejoin="round" d="M268.1,30.4l0.2-0.2c0.8-0.7,2-0.7,2.8,0.1l6.8,7.1
			c0.7,0.8,0.7,2-0.1,2.8l-0.2,0.2c-0.8,0.7-2,0.7-2.8-0.1l-6.8-7.1C267.3,32.4,267.3,31.1,268.1,30.4z"/>
		<path fill="#F2F2F2" stroke="#666666" stroke-linejoin="round" d="M195.2,47.7l-5.1-5.3c-0.7-0.8-0.7-2,0.1-2.8l7.1-6.8
			c0.8-0.7,2-0.7,2.8,0.1l5.1,5.3c0.7,0.8,0.7,2-0.1,2.8l-7.1,6.8C197.2,48.5,196,48.5,195.2,47.7z"/>
		<path fill="#F2F2F2" stroke="#666666" stroke-linejoin="round" d="M186.1,39.4l-0.2-0.2c-0.7-0.8-0.7-2,0.1-2.8l7.1-6.8
			c0.8-0.7,2-0.7,2.8,0.1l0.2,0.2c0.7,0.8,0.7,2-0.1,2.8l-7.1,6.8C188.1,40.2,186.9,40.1,186.1,39.4z"/>
		<path fill="#F2F2F2" stroke="#666666" stroke-linejoin="round" d="M203.3,111.2l-5.3,5.1c-0.8,0.7-2,0.7-2.8-0.1l-6.8-7.1
			c-0.7-0.8-0.7-2,0.1-2.8l5.3-5.1c0.8-0.7,2-0.7,2.8,0.1l6.8,7.1C204.1,109.2,204.1,110.5,203.3,111.2z"/>
		<path fill="#F2F2F2" stroke="#666666" stroke-linejoin="round" d="M193.9,120.1l-0.2,0.2c-0.8,0.7-2,0.7-2.8-0.1l-6.8-7.1
			c-0.7-0.8-0.7-2,0.1-2.8l0.2-0.2c0.8-0.7,2-0.7,2.8,0.1l6.8,7.1C194.8,118.1,194.7,119.4,193.9,120.1z"/>
		<path fill="#F2F2F2" stroke="#666666" stroke-linejoin="round" d="M266.8,102.8l5.1,5.3c0.7,0.8,0.7,2-0.1,2.8l-7.1,6.8
			c-0.8,0.7-2,0.7-2.8-0.1l-5.1-5.3c-0.7-0.8-0.7-2,0.1-2.8l7.1-6.8C264.8,102,266.1,102,266.8,102.8z"/>
		<path fill="#F2F2F2" stroke="#666666" stroke-linejoin="round" d="M275.7,112.1l0.2,0.2c0.7,0.8,0.7,2-0.1,2.8l-7.1,6.8
			c-0.8,0.7-2,0.7-2.8-0.1l-0.2-0.2c-0.7-0.8-0.7-2,0.1-2.8l7.1-6.8C273.7,111.3,275,111.4,275.7,112.1z"/>
		<path fill="#F2F2F2" stroke="#666666" stroke-linejoin="round" d="M270.2,52.2l6.8-2.7c1-0.4,2.2,0.1,2.6,1.1l3.6,9.1
			c0.4,1-0.1,2.2-1.1,2.6l-6.8,2.7c-1,0.4-2.2-0.1-2.6-1.1l-3.6-9.1C268.7,53.8,269.2,52.6,270.2,52.2z"/>
		<path fill="#F2F2F2" stroke="#666666" stroke-linejoin="round" d="M282.1,47.4l0.2-0.1c1-0.4,2.2,0.1,2.6,1.1l3.6,9.1
			c0.4,1-0.1,2.2-1.1,2.6l-0.2,0.1c-1,0.4-2.2-0.1-2.6-1.1l-3.6-9.1C280.7,49,281.1,47.8,282.1,47.4z"/>
		<path fill="#F2F2F2" stroke="#666666" stroke-linejoin="round" d="M208.1,36.3l-2.7-6.8c-0.4-1,0.1-2.2,1.1-2.6l9.1-3.6
			c1-0.4,2.2,0.1,2.6,1.1l2.7,6.8c0.4,1-0.1,2.2-1.1,2.6l-9.1,3.6C209.6,37.8,208.5,37.3,208.1,36.3z"/>
		<path fill="#F2F2F2" stroke="#666666" stroke-linejoin="round" d="M203.3,24.4l-0.1-0.2c-0.4-1,0.1-2.2,1.1-2.6l9.1-3.6
			c1-0.4,2.2,0.1,2.6,1.1l0.1,0.2c0.4,1-0.1,2.2-1.1,2.6l-9.1,3.6C204.8,25.9,203.7,25.4,203.3,24.4z"/>
		<path fill="#F2F2F2" stroke="#666666" stroke-linejoin="round" d="M191.9,98.3l-6.8,2.7c-1,0.4-2.2-0.1-2.6-1.1l-3.6-9.1
			c-0.4-1,0.1-2.2,1.1-2.6l6.8-2.7c1-0.4,2.2,0.1,2.6,1.1l3.6,9.1C193.4,96.8,192.9,97.9,191.9,98.3z"/>
		<path fill="#F2F2F2" stroke="#666666" stroke-linejoin="round" d="M179.9,103.1l-0.2,0.1c-1,0.4-2.2-0.1-2.6-1.1l-3.6-9.1
			c-0.4-1,0.1-2.2,1.1-2.6l0.2-0.1c1-0.4,2.2,0.1,2.6,1.1l3.6,9.1C181.4,101.5,180.9,102.7,179.9,103.1z"/>
		<path fill="#F2F2F2" stroke="#666666" stroke-linejoin="round" d="M254,114.2l2.7,6.8c0.4,1-0.1,2.2-1.1,2.6l-9.1,3.6
			c-1,0.4-2.2-0.1-2.6-1.1l-2.7-6.8c-0.4-1,0.1-2.2,1.1-2.6l9.1-3.6C252.4,112.7,253.6,113.2,254,114.2z"/>
		<path fill="#F2F2F2" stroke="#666666" stroke-linejoin="round" d="M258.8,126.2l0.1,0.2c0.4,1-0.1,2.2-1.1,2.6l-9.1,3.6
			c-1,0.4-2.2-0.1-2.6-1.1l-0.1-0.2c-0.4-1,0.1-2.2,1.1-2.6l9.1-3.6C257.2,124.7,258.4,125.1,258.8,126.2z"/>
		<circle fill="#F2F2F2" stroke="#666666" stroke-linejoin="round" cx="382.8" cy="75.3" r="38.1"/>
		<path fill="#F2F2F2" stroke="#666666" stroke-linejoin="round" d="M375.9,30.3V23c0-1.1,0.9-2,2-2h9.8c1.1,0,2,0.9,2,2v7.3
			c0,1.1-0.9,2-2,2h-9.8C376.8,32.3,375.9,31.4,375.9,30.3z"/>
		<path fill="#F2F2F2" stroke="#666666" stroke-linejoin="round" d="M375.9,17.4v-0.3c0-1.1,0.9-2,2-2h9.8c1.1,0,2,0.9,2,2v0.3
			c0,1.1-0.9,2-2,2h-9.8C376.8,19.4,375.9,18.5,375.9,17.4z"/>
		<path fill="#F2F2F2" stroke="#666666" stroke-linejoin="round" d="M338.1,82.1h-7.3c-1.1,0-2-0.9-2-2v-9.8c0-1.1,0.9-2,2-2h7.3
			c1.1,0,2,0.9,2,2v9.8C340.1,81.2,339.2,82.1,338.1,82.1z"/>
		<path fill="#F2F2F2" stroke="#666666" stroke-linejoin="round" d="M325.2,82.1H325c-1.1,0-2-0.9-2-2v-9.8c0-1.1,0.9-2,2-2h0.3
			c1.1,0,2,0.9,2,2v9.8C327.2,81.2,326.3,82.1,325.2,82.1z"/>
		<path fill="#F2F2F2" stroke="#666666" stroke-linejoin="round" d="M389.7,120.2v7.3c0,1.1-0.9,2-2,2h-9.8c-1.1,0-2-0.9-2-2v-7.3
			c0-1.1,0.9-2,2-2h9.8C388.8,118.2,389.7,119.1,389.7,120.2z"/>
		<path fill="#F2F2F2" stroke="#666666" stroke-linejoin="round" d="M389.7,133.1v0.3c0,1.1-0.9,2-2,2h-9.8c-1.1,0-2-0.9-2-2v-0.3
			c0-1.1,0.9-2,2-2h9.8C388.8,131.1,389.7,132,389.7,133.1z"/>
		<path fill="#F2F2F2" stroke="#666666" stroke-linejoin="round" d="M427.5,68.4h7.3c1.1,0,2,0.9,2,2v9.8c0,1.1-0.9,2-2,2h-7.3
			c-1.1,0-2-0.9-2-2v-9.8C425.5,69.3,426.4,68.4,427.5,68.4z"/>
		<path fill="#F2F2F2" stroke="#666666" stroke-linejoin="round" d="M440.4,68.4h0.3c1.1,0,2,0.9,2,2v9.8c0,1.1-0.9,2-2,2h-0.3
			c-1.1,0-2-0.9-2-2v-9.8C438.4,69.3,439.3,68.4,440.4,68.4z"/>
		<path fill="#F2F2F2" stroke="#666666" stroke-linejoin="round" d="M393.9,31.2l2.8-6.8c0.4-1,1.6-1.5,2.6-1l9,3.8
			c1,0.4,1.5,1.6,1,2.6l-2.8,6.8c-0.4,1-1.6,1.5-2.6,1l-9-3.8C393.9,33.4,393.5,32.2,393.9,31.2z"/>
		<path fill="#F2F2F2" stroke="#666666" stroke-linejoin="round" d="M398.9,19.3l0.1-0.2c0.4-1,1.6-1.5,2.6-1l9,3.8
			c1,0.4,1.5,1.6,1,2.6l-0.1,0.2c-0.4,1-1.6,1.5-2.6,1l-9-3.8C399,21.5,398.5,20.3,398.9,19.3z"/>
		<path fill="#F2F2F2" stroke="#666666" stroke-linejoin="round" d="M339,64.3l-6.8-2.8c-1-0.4-1.5-1.6-1-2.6l3.8-9
			c0.4-1,1.6-1.5,2.6-1l6.8,2.8c1,0.4,1.5,1.6,1,2.6l-3.8,9C341.1,64.2,340,64.7,339,64.3z"/>
		<path fill="#F2F2F2" stroke="#666666" stroke-linejoin="round" d="M327.1,59.3l-0.2-0.1c-1-0.4-1.5-1.6-1-2.6l3.8-9
			c0.4-1,1.6-1.5,2.6-1l0.2,0.1c1,0.4,1.5,1.6,1,2.6l-3.8,9C329.3,59.2,328.1,59.7,327.1,59.3z"/>
		<path fill="#F2F2F2" stroke="#666666" stroke-linejoin="round" d="M371.7,119.3l-2.8,6.8c-0.4,1-1.6,1.5-2.6,1l-9-3.8
			c-1-0.4-1.5-1.6-1-2.6l2.8-6.8c0.4-1,1.6-1.5,2.6-1l9,3.8C371.6,117.2,372.1,118.3,371.7,119.3z"/>
		<path fill="#F2F2F2" stroke="#666666" stroke-linejoin="round" d="M366.7,131.2l-0.1,0.2c-0.4,1-1.6,1.5-2.6,1l-9-3.8
			c-1-0.4-1.5-1.6-1-2.6l0.1-0.2c0.4-1,1.6-1.5,2.6-1l9,3.8C366.6,129,367.1,130.2,366.7,131.2z"/>
		<path fill="#F2F2F2" stroke="#666666" stroke-linejoin="round" d="M426.6,86.3l6.8,2.8c1,0.4,1.5,1.6,1,2.6l-3.8,9
			c-0.4,1-1.6,1.5-2.6,1l-6.8-2.8c-1-0.4-1.5-1.6-1-2.6l3.8-9C424.5,86.3,425.6,85.8,426.6,86.3z"/>
		<path fill="#F2F2F2" stroke="#666666" stroke-linejoin="round" d="M438.5,91.3l0.2,0.1c1,0.4,1.5,1.6,1,2.6l-3.8,9
			c-0.4,1-1.6,1.5-2.6,1l-0.2-0.1c-1-0.4-1.5-1.6-1-2.6l3.8-9C436.3,91.3,437.5,90.8,438.5,91.3z"/>
		<path fill="#F2F2F2" stroke="#666666" stroke-linejoin="round" d="M410.5,39.3l5.3-5.1c0.8-0.7,2-0.7,2.8,0.1l6.8,7.1
			c0.7,0.8,0.7,2-0.1,2.8l-5.3,5.1c-0.8,0.7-2,0.7-2.8-0.1l-6.8-7.1C409.7,41.3,409.8,40,410.5,39.3z"/>
		<path fill="#F2F2F2" stroke="#666666" stroke-linejoin="round" d="M419.9,30.4l0.2-0.2c0.8-0.7,2-0.7,2.8,0.1l6.8,7.1
			c0.7,0.8,0.7,2-0.1,2.8l-0.2,0.2c-0.8,0.7-2,0.7-2.8-0.1l-6.8-7.1C419.1,32.4,419.1,31.1,419.9,30.4z"/>
		<path fill="#F2F2F2" stroke="#666666" stroke-linejoin="round" d="M347,47.7l-5.1-5.3c-0.7-0.8-0.7-2,0.1-2.8l7.1-6.8
			c0.8-0.7,2-0.7,2.8,0.1l5.1,5.3c0.7,0.8,0.7,2-0.1,2.8l-7.1,6.8C349,48.5,347.8,48.5,347,47.7z"/>
		<path fill="#F2F2F2" stroke="#666666" stroke-linejoin="round" d="M337.4,39.4l-0.2-0.2c-0.7-0.8-0.7-2,0.1-2.8l7.1-6.8
			c0.8-0.7,2-0.7,2.8,0.1l0.2,0.2c0.7,0.8,0.7,2-0.1,2.8l-7.1,6.8C339.4,40.2,338.2,40.2,337.4,39.4z"/>
		<path fill="#F2F2F2" stroke="#666666" stroke-linejoin="round" d="M355.1,111.2l-5.3,5.1c-0.8,0.7-2,0.7-2.8-0.1l-6.8-7.1
			c-0.7-0.8-0.7-2,0.1-2.8l5.3-5.1c0.8-0.7,2-0.7,2.8,0.1l6.8,7.1C355.9,109.2,355.8,110.5,355.1,111.2z"/>
		<path fill="#F2F2F2" stroke="#666666" stroke-linejoin="round" d="M345.7,120.1l-0.2,0.2c-0.8,0.7-2,0.7-2.8-0.1l-6.8-7.1
			c-0.7-0.8-0.7-2,0.1-2.8l0.2-0.2c0.8-0.7,2-0.7,2.8,0.1l6.8,7.1C346.5,118.1,346.5,119.4,345.7,120.1z"/>
		<path fill="#F2F2F2" stroke="#666666" stroke-linejoin="round" d="M418.6,102.8l5.1,5.3c0.7,0.8,0.7,2-0.1,2.8l-7.1,6.8
			c-0.8,0.7-2,0.7-2.8-0.1l-5.1-5.3c-0.7-0.8-0.7-2,0.1-2.8l7.1-6.8C416.6,102,417.8,102,418.6,102.8z"/>
		<path fill="#F2F2F2" stroke="#666666" stroke-linejoin="round" d="M427.5,112.1l0.2,0.2c0.7,0.8,0.7,2-0.1,2.8l-7.1,6.8
			c-0.8,0.7-2,0.7-2.8-0.1l-0.2-0.2c-0.7-0.8-0.7-2,0.1-2.8l7.1-6.8C425.5,111.3,426.7,111.4,427.5,112.1z"/>
		<path fill="#F2F2F2" stroke="#666666" stroke-linejoin="round" d="M422,52.2l6.8-2.7c1-0.4,2.2,0.1,2.6,1.1l3.6,9.1
			c0.4,1-0.1,2.2-1.1,2.6L427,65c-1,0.4-2.2-0.1-2.6-1.1l-3.6-9.1C420.5,53.8,420.9,52.6,422,52.2z"/>
		<path fill="#F2F2F2" stroke="#666666" stroke-linejoin="round" d="M433.9,47.4l0.2-0.1c1-0.4,2.2,0.1,2.6,1.1l3.6,9.1
			c0.4,1-0.1,2.2-1.1,2.6l-0.2,0.1c-1,0.4-2.2-0.1-2.6-1.1l-3.6-9.1C432.4,49,432.9,47.8,433.9,47.4z"/>
		<path fill="#F2F2F2" stroke="#666666" stroke-linejoin="round" d="M359.9,36.3l-2.7-6.8c-0.4-1,0.1-2.2,1.1-2.6l9.1-3.6
			c1-0.4,2.2,0.1,2.6,1.1l2.7,6.8c0.4,1-0.1,2.2-1.1,2.6l-9.1,3.6C361.4,37.8,360.3,37.3,359.9,36.3z"/>
		<path fill="#F2F2F2" stroke="#666666" stroke-linejoin="round" d="M355.1,24.4l-0.1-0.2c-0.4-1,0.1-2.2,1.1-2.6l9.1-3.6
			c1-0.4,2.2,0.1,2.6,1.1l0.1,0.2c0.4,1-0.1,2.2-1.1,2.6l-9.1,3.6C356.6,25.9,355.5,25.4,355.1,24.4z"/>
		<path fill="#F2F2F2" stroke="#666666" stroke-linejoin="round" d="M343.6,98.3l-6.8,2.7c-1,0.4-2.2-0.1-2.6-1.1l-3.6-9.1
			c-0.4-1,0.1-2.2,1.1-2.6l6.8-2.7c1-0.4,2.2,0.1,2.6,1.1l3.6,9.1C345.1,96.7,344.7,97.9,343.6,98.3z"/>
		<path fill="#F2F2F2" stroke="#666666" stroke-linejoin="round" d="M331.7,103.1l-0.2,0.1c-1,0.4-2.2-0.1-2.6-1.1l-3.6-9.1
			c-0.4-1,0.1-2.2,1.1-2.6l0.2-0.1c1-0.4,2.2,0.1,2.6,1.1l3.6,9.1C333.2,101.5,332.7,102.7,331.7,103.1z"/>
		<path fill="#F2F2F2" stroke="#666666" stroke-linejoin="round" d="M405.7,114.2l2.7,6.8c0.4,1-0.1,2.2-1.1,2.6l-9.1,3.6
			c-1,0.4-2.2-0.1-2.6-1.1l-2.7-6.8c-0.4-1,0.1-2.2,1.1-2.6l9.1-3.6C404.2,112.7,405.3,113.2,405.7,114.2z"/>
		<path fill="#F2F2F2" stroke="#666666" stroke-linejoin="round" d="M410.5,126.1l0.1,0.2c0.4,1-0.1,2.2-1.1,2.6l-9.1,3.6
			c-1,0.4-2.2-0.1-2.6-1.1l-0.1-0.2c-0.4-1,0.1-2.2,1.1-2.6l9.1-3.6C409,124.6,410.1,125.1,410.5,126.1z"/>
		<circle fill="#F2F2F2" stroke="#666666" stroke-linejoin="round" cx="231" cy="231" r="38.1"/>
		<path fill="#F2F2F2" stroke="#666666" stroke-linejoin="round" d="M224.2,186.1v-7.3c0-1.1,0.9-2,2-2h9.8c1.1,0,2,0.9,2,2v7.3
			c0,1.1-0.9,2-2,2h-9.8C225,188.1,224.2,187.2,224.2,186.1z"/>
		<path fill="#F2F2F2" stroke="#666666" stroke-linejoin="round" d="M224.2,173.2V173c0-1.1,0.9-2,2-2h9.8c1.1,0,2,0.9,2,2v0.3
			c0,1.1-0.9,2-2,2h-9.8C225,175.2,224.2,174.3,224.2,173.2z"/>
		<path fill="#F2F2F2" stroke="#666666" stroke-linejoin="round" d="M186.4,237.9H179c-1.1,0-2-0.9-2-2v-9.8c0-1.1,0.9-2,2-2h7.3
			c1.1,0,2,0.9,2,2v9.8C188.3,237,187.4,237.9,186.4,237.9z"/>
		<path fill="#F2F2F2" stroke="#666666" stroke-linejoin="round" d="M173.5,237.9h-0.3c-1.1,0-2-0.9-2-2v-9.8c0-1.1,0.9-2,2-2h0.3
			c1.1,0,2,0.9,2,2v9.8C175.4,237,174.5,237.9,173.5,237.9z"/>
		<path fill="#F2F2F2" stroke="#666666" stroke-linejoin="round" d="M237.9,275.9v7.3c0,1.1-0.9,2-2,2h-9.8c-1.1,0-2-0.9-2-2v-7.3
			c0-1.1,0.9-2,2-2h9.8C237,274,237.9,274.9,237.9,275.9z"/>
		<path fill="#F2F2F2" stroke="#666666" stroke-linejoin="round" d="M237.9,288.8v0.3c0,1.1-0.9,2-2,2h-9.8c-1.1,0-2-0.9-2-2v-0.3
			c0-1.1,0.9-2,2-2h9.8C237,286.9,237.9,287.7,237.9,288.8z"/>
		<path fill="#F2F2F2" stroke="#666666" stroke-linejoin="round" d="M275.7,224.2h7.3c1.1,0,2,0.9,2,2v9.8c0,1.1-0.9,2-2,2h-7.3
			c-1.1,0-2-0.9-2-2v-9.8C273.7,225,274.6,224.2,275.7,224.2z"/>
		<path fill="#F2F2F2" stroke="#666666" stroke-linejoin="round" d="M288.6,224.2h0.3c1.1,0,2,0.9,2,2v9.8c0,1.1-0.9,2-2,2h-0.3
			c-1.1,0-2-0.9-2-2v-9.8C286.6,225,287.5,224.2,288.6,224.2z"/>
		<path fill="#F2F2F2" stroke="#666666" stroke-linejoin="round" d="M242.1,187l2.8-6.8c0.4-1,1.6-1.5,2.6-1l9,3.8
			c1,0.4,1.5,1.6,1,2.6l-2.8,6.8c-0.4,1-1.6,1.5-2.6,1l-9-3.8C242.2,189.1,241.7,188,242.1,187z"/>
		<path fill="#F2F2F2" stroke="#666666" stroke-linejoin="round" d="M247.1,175.1l0.1-0.2c0.4-1,1.6-1.5,2.6-1l9,3.8
			c1,0.4,1.5,1.6,1,2.6l-0.1,0.2c-0.4,1-1.6,1.5-2.6,1l-9-3.8C247.2,177.2,246.7,176.1,247.1,175.1z"/>
		<path fill="#F2F2F2" stroke="#666666" stroke-linejoin="round" d="M187.2,220l-6.8-2.8c-1-0.4-1.5-1.6-1-2.6l3.8-9
			c0.4-1,1.6-1.5,2.6-1l6.8,2.8c1,0.4,1.5,1.6,1,2.6l-3.8,9C189.4,220,188.2,220.4,187.2,220z"/>
		<path fill="#F2F2F2" stroke="#666666" stroke-linejoin="round" d="M175.3,215l-0.2-0.1c-1-0.4-1.5-1.6-1-2.6l3.8-9
			c0.4-1,1.6-1.5,2.6-1l0.2,0.1c1,0.4,1.5,1.6,1,2.6l-3.8,9C177.5,215,176.3,215.4,175.3,215z"/>
		<path fill="#F2F2F2" stroke="#666666" stroke-linejoin="round" d="M219.9,275.1l-2.8,6.8c-0.4,1-1.6,1.5-2.6,1l-9-3.8
			c-1-0.4-1.5-1.6-1-2.6l2.8-6.8c0.4-1,1.6-1.5,2.6-1l9,3.8C219.9,272.9,220.3,274.1,219.9,275.1z"/>
		<path fill="#F2F2F2" stroke="#666666" stroke-linejoin="round" d="M214.9,287l-0.1,0.2c-0.4,1-1.6,1.5-2.6,1l-9-3.8
			c-1-0.4-1.5-1.6-1-2.6l0.1-0.2c0.4-1,1.6-1.5,2.6-1l9,3.8C214.9,284.8,215.3,286,214.9,287z"/>
		<path fill="#F2F2F2" stroke="#666666" stroke-linejoin="round" d="M274.8,242l6.8,2.8c1,0.4,1.5,1.6,1,2.6l-3.8,9
			c-0.4,1-1.6,1.5-2.6,1l-6.8-2.8c-1-0.4-1.5-1.6-1-2.6l3.8-9C272.7,242.1,273.8,241.6,274.8,242z"/>
		<path fill="#F2F2F2" stroke="#666666" stroke-linejoin="round" d="M286.7,247l0.2,0.1c1,0.4,1.5,1.6,1,2.6l-3.8,9
			c-0.4,1-1.6,1.5-2.6,1l-0.2-0.1c-1-0.4-1.5-1.6-1-2.6l3.8-9C284.6,247.1,285.7,246.6,286.7,247z"/>
		<path fill="#F2F2F2" stroke="#666666" stroke-linejoin="round" d="M258.8,195.1l5.3-5.1c0.8-0.7,2-0.7,2.8,0.1l6.8,7.1
			c0.7,0.8,0.7,2-0.1,2.8l-5.3,5.1c-0.8,0.7-2,0.7-2.8-0.1l-6.8-7.1C258,197,258,195.8,258.8,195.1z"/>
		<path fill="#F2F2F2" stroke="#666666" stroke-linejoin="round" d="M268.1,186.1l0.2-0.2c0.8-0.7,2-0.7,2.8,0.1l6.8,7.1
			c0.7,0.8,0.7,2-0.1,2.8l-0.2,0.2c-0.8,0.7-2,0.7-2.8-0.1l-6.8-7.1C267.3,188.1,267.3,186.9,268.1,186.1z"/>
		<path fill="#F2F2F2" stroke="#666666" stroke-linejoin="round" d="M195.2,203.4l-5.1-5.3c-0.7-0.8-0.7-2,0.1-2.8l7.1-6.8
			c0.8-0.7,2-0.7,2.8,0.1l5.1,5.3c0.7,0.8,0.7,2-0.1,2.8l-7.1,6.8C197.2,204.3,196,204.2,195.2,203.4z"/>
		<path fill="#F2F2F2" stroke="#666666" stroke-linejoin="round" d="M186.1,195.1l-0.2-0.2c-0.7-0.8-0.7-2,0.1-2.8l7.1-6.8
			c0.8-0.7,2-0.7,2.8,0.1l0.2,0.2c0.7,0.8,0.7,2-0.1,2.8l-7.1,6.8C188.1,195.9,186.9,195.9,186.1,195.1z"/>
		<path fill="#F2F2F2" stroke="#666666" stroke-linejoin="round" d="M203.3,267l-5.3,5.1c-0.8,0.7-2,0.7-2.8-0.1l-6.8-7.1
			c-0.7-0.8-0.7-2,0.1-2.8l5.3-5.1c0.8-0.7,2-0.7,2.8,0.1l6.8,7.1C204.1,265,204.1,266.2,203.3,267z"/>
		<path fill="#F2F2F2" stroke="#666666" stroke-linejoin="round" d="M193.9,275.9l-0.2,0.2c-0.8,0.7-2,0.7-2.8-0.1l-6.8-7.1
			c-0.7-0.8-0.7-2,0.1-2.8l0.2-0.2c0.8-0.7,2-0.7,2.8,0.1l6.8,7.1C194.8,273.9,194.7,275.1,193.9,275.9z"/>
		<path fill="#F2F2F2" stroke="#666666" stroke-linejoin="round" d="M266.8,258.6l5.1,5.3c0.7,0.8,0.7,2-0.1,2.8l-7.1,6.8
			c-0.8,0.7-2,0.7-2.8-0.1l-5.1-5.3c-0.7-0.8-0.7-2,0.1-2.8l7.1-6.8C264.8,257.8,266.1,257.8,266.8,258.6z"/>
		<path fill="#F2F2F2" stroke="#666666" stroke-linejoin="round" d="M275.7,267.9l0.2,0.2c0.7,0.8,0.7,2-0.1,2.8l-7.1,6.8
			c-0.8,0.7-2,0.7-2.8-0.1l-0.2-0.2c-0.7-0.8-0.7-2,0.1-2.8l7.1-6.8C273.7,267.1,275,267.1,275.7,267.9z"/>
		<path fill="#F2F2F2" stroke="#666666" stroke-linejoin="round" d="M270.2,208l6.8-2.7c1-0.4,2.2,0.1,2.6,1.1l3.6,9.1
			c0.4,1-0.1,2.2-1.1,2.6l-6.8,2.7c-1,0.4-2.2-0.1-2.6-1.1l-3.6-9.1C268.7,209.5,269.2,208.4,270.2,208z"/>
		<path fill="#F2F2F2" stroke="#666666" stroke-linejoin="round" d="M282.1,203.2l0.2-0.1c1-0.4,2.2,0.1,2.6,1.1l3.6,9.1
			c0.4,1-0.1,2.2-1.1,2.6l-0.2,0.1c-1,0.4-2.2-0.1-2.6-1.1l-3.6-9.1C280.7,204.7,281.1,203.6,282.1,203.2z"/>
		<path fill="#F2F2F2" stroke="#666666" stroke-linejoin="round" d="M208.1,192.1l-2.7-6.8c-0.4-1,0.1-2.2,1.1-2.6l9.1-3.6
			c1-0.4,2.2,0.1,2.6,1.1l2.7,6.8c0.4,1-0.1,2.2-1.1,2.6l-9.1,3.6C209.6,193.6,208.5,193.1,208.1,192.1z"/>
		<path fill="#F2F2F2" stroke="#666666" stroke-linejoin="round" d="M203.3,180.1l-0.1-0.2c-0.4-1,0.1-2.2,1.1-2.6l9.1-3.6
			c1-0.4,2.2,0.1,2.6,1.1l0.1,0.2c0.4,1-0.1,2.2-1.1,2.6l-9.1,3.6C204.8,181.6,203.7,181.1,203.3,180.1z"/>
		<path fill="#F2F2F2" stroke="#666666" stroke-linejoin="round" d="M191.9,254.1l-6.8,2.7c-1,0.4-2.2-0.1-2.6-1.1l-3.6-9.1
			c-0.4-1,0.1-2.2,1.1-2.6l6.8-2.7c1-0.4,2.2,0.1,2.6,1.1l3.6,9.1C193.4,252.5,192.9,253.7,191.9,254.1z"/>
		<path fill="#F2F2F2" stroke="#666666" stroke-linejoin="round" d="M179.9,258.8l-0.2,0.1c-1,0.4-2.2-0.1-2.6-1.1l-3.6-9.1
			c-0.4-1,0.1-2.2,1.1-2.6l0.2-0.1c1-0.4,2.2,0.1,2.6,1.1l3.6,9.1C181.4,257.3,180.9,258.4,179.9,258.8z"/>
		<path fill="#F2F2F2" stroke="#666666" stroke-linejoin="round" d="M254,269.9l2.7,6.8c0.4,1-0.1,2.2-1.1,2.6l-9.1,3.6
			c-1,0.4-2.2-0.1-2.6-1.1l-2.7-6.8c-0.4-1,0.1-2.2,1.1-2.6l9.1-3.6C252.4,268.4,253.6,268.9,254,269.9z"/>
		<path fill="#F2F2F2" stroke="#666666" stroke-linejoin="round" d="M258.8,281.9l0.1,0.2c0.4,1-0.1,2.2-1.1,2.6l-9.1,3.6
			c-1,0.4-2.2-0.1-2.6-1.1L246,287c-0.4-1,0.1-2.2,1.1-2.6l9.1-3.6C257.2,280.4,258.4,280.9,258.8,281.9z"/>
		<circle fill="#F2F2F2" stroke="#666666" stroke-linejoin="round" cx="382.8" cy="231" r="38.1"/>
		<path fill="#F2F2F2" stroke="#666666" stroke-linejoin="round" d="M375.9,186.1v-7.3c0-1.1,0.9-2,2-2h9.8c1.1,0,2,0.9,2,2v7.3
			c0,1.1-0.9,2-2,2h-9.8C376.8,188.1,375.9,187.2,375.9,186.1z"/>
		<path fill="#F2F2F2" stroke="#666666" stroke-linejoin="round" d="M375.9,173.2V173c0-1.1,0.9-2,2-2h9.8c1.1,0,2,0.9,2,2v0.3
			c0,1.1-0.9,2-2,2h-9.8C376.8,175.2,375.9,174.3,375.9,173.2z"/>
		<path fill="#F2F2F2" stroke="#666666" stroke-linejoin="round" d="M338.1,237.9h-7.3c-1.1,0-2-0.9-2-2v-9.8c0-1.1,0.9-2,2-2h7.3
			c1.1,0,2,0.9,2,2v9.8C340.1,237,339.2,237.9,338.1,237.9z"/>
		<path fill="#F2F2F2" stroke="#666666" stroke-linejoin="round" d="M325.2,237.9H325c-1.1,0-2-0.9-2-2v-9.8c0-1.1,0.9-2,2-2h0.3
			c1.1,0,2,0.9,2,2v9.8C327.2,237,326.3,237.9,325.2,237.9z"/>
		<path fill="#F2F2F2" stroke="#666666" stroke-linejoin="round" d="M389.7,275.9v7.3c0,1.1-0.9,2-2,2h-9.8c-1.1,0-2-0.9-2-2v-7.3
			c0-1.1,0.9-2,2-2h9.8C388.8,274,389.7,274.9,389.7,275.9z"/>
		<path fill="#F2F2F2" stroke="#666666" stroke-linejoin="round" d="M389.7,288.8v0.3c0,1.1-0.9,2-2,2h-9.8c-1.1,0-2-0.9-2-2v-0.3
			c0-1.1,0.9-2,2-2h9.8C388.8,286.9,389.7,287.7,389.7,288.8z"/>
		<path fill="#F2F2F2" stroke="#666666" stroke-linejoin="round" d="M427.5,224.2h7.3c1.1,0,2,0.9,2,2v9.8c0,1.1-0.9,2-2,2h-7.3
			c-1.1,0-2-0.9-2-2v-9.8C425.5,225,426.4,224.2,427.5,224.2z"/>
		<path fill="#F2F2F2" stroke="#666666" stroke-linejoin="round" d="M440.4,224.2h0.3c1.1,0,2,0.9,2,2v9.8c0,1.1-0.9,2-2,2h-0.3
			c-1.1,0-2-0.9-2-2v-9.8C438.4,225,439.3,224.2,440.4,224.2z"/>
		<path fill="#F2F2F2" stroke="#666666" stroke-linejoin="round" d="M393.9,187l2.8-6.8c0.4-1,1.6-1.5,2.6-1l9,3.8
			c1,0.4,1.5,1.6,1,2.6l-2.8,6.8c-0.4,1-1.6,1.5-2.6,1l-9-3.8C393.9,189.1,393.5,188,393.9,187z"/>
		<path fill="#F2F2F2" stroke="#666666" stroke-linejoin="round" d="M398.9,175.1l0.1-0.2c0.4-1,1.6-1.5,2.6-1l9,3.8
			c1,0.4,1.5,1.6,1,2.6l-0.1,0.2c-0.4,1-1.6,1.5-2.6,1l-9-3.8C399,177.2,398.5,176.1,398.9,175.1z"/>
		<path fill="#F2F2F2" stroke="#666666" stroke-linejoin="round" d="M339,220l-6.8-2.8c-1-0.4-1.5-1.6-1-2.6l3.8-9
			c0.4-1,1.6-1.5,2.6-1l6.8,2.8c1,0.4,1.5,1.6,1,2.6l-3.8,9C341.1,220,340,220.4,339,220z"/>
		<path fill="#F2F2F2" stroke="#666666" stroke-linejoin="round" d="M327.1,215l-0.2-0.1c-1-0.4-1.5-1.6-1-2.6l3.8-9
			c0.4-1,1.6-1.5,2.6-1l0.2,0.1c1,0.4,1.5,1.6,1,2.6l-3.8,9C329.3,215,328.1,215.4,327.1,215z"/>
		<path fill="#F2F2F2" stroke="#666666" stroke-linejoin="round" d="M371.7,275.1l-2.8,6.8c-0.4,1-1.6,1.5-2.6,1l-9-3.8
			c-1-0.4-1.5-1.6-1-2.6l2.8-6.8c0.4-1,1.6-1.5,2.6-1l9,3.8C371.6,272.9,372.1,274.1,371.7,275.1z"/>
		<path fill="#F2F2F2" stroke="#666666" stroke-linejoin="round" d="M366.7,287l-0.1,0.2c-0.4,1-1.6,1.5-2.6,1l-9-3.8
			c-1-0.4-1.5-1.6-1-2.6l0.1-0.2c0.4-1,1.6-1.5,2.6-1l9,3.8C366.6,284.8,367.1,286,366.7,287z"/>
		<path fill="#F2F2F2" stroke="#666666" stroke-linejoin="round" d="M426.6,242l6.8,2.8c1,0.4,1.5,1.6,1,2.6l-3.8,9
			c-0.4,1-1.6,1.5-2.6,1l-6.8-2.8c-1-0.4-1.5-1.6-1-2.6l3.8-9C424.5,242.1,425.6,241.6,426.6,242z"/>
		<path fill="#F2F2F2" stroke="#666666" stroke-linejoin="round" d="M438.5,247l0.2,0.1c1,0.4,1.5,1.6,1,2.6l-3.8,9
			c-0.4,1-1.6,1.5-2.6,1l-0.2-0.1c-1-0.4-1.5-1.6-1-2.6l3.8-9C436.3,247.1,437.5,246.6,438.5,247z"/>
		<path fill="#F2F2F2" stroke="#666666" stroke-linejoin="round" d="M410.5,195.1l5.3-5.1c0.8-0.7,2-0.7,2.8,0.1l6.8,7.1
			c0.7,0.8,0.7,2-0.1,2.8L420,205c-0.8,0.7-2,0.7-2.8-0.1l-6.8-7.1C409.7,197.1,409.8,195.8,410.5,195.1z"/>
		<path fill="#F2F2F2" stroke="#666666" stroke-linejoin="round" d="M419.9,186.2l0.2-0.2c0.8-0.7,2-0.7,2.8,0.1l6.8,7.1
			c0.7,0.8,0.7,2-0.1,2.8l-0.2,0.2c-0.8,0.7-2,0.7-2.8-0.1l-6.8-7.1C419.1,188.1,419.1,186.9,419.9,186.2z"/>
		<path fill="#F2F2F2" stroke="#666666" stroke-linejoin="round" d="M347,203.5l-5.1-5.3c-0.7-0.8-0.7-2,0.1-2.8l7.1-6.8
			c0.8-0.7,2-0.7,2.8,0.1l5.1,5.3c0.7,0.8,0.7,2-0.1,2.8l-7.1,6.8C349,204.3,347.8,204.2,347,203.5z"/>
		<path fill="#F2F2F2" stroke="#666666" stroke-linejoin="round" d="M337.4,195.2l-0.2-0.2c-0.7-0.8-0.7-2,0.1-2.8l7.1-6.8
			c0.8-0.7,2-0.7,2.8,0.1l0.2,0.2c0.7,0.8,0.7,2-0.1,2.8l-7.1,6.8C339.4,196,338.2,196,337.4,195.2z"/>
		<path fill="#F2F2F2" stroke="#666666" stroke-linejoin="round" d="M355.1,267l-5.3,5.1c-0.8,0.7-2,0.7-2.8-0.1l-6.8-7.1
			c-0.7-0.8-0.7-2,0.1-2.8l5.3-5.1c0.8-0.7,2-0.7,2.8,0.1l6.8,7.1C355.9,265,355.8,266.2,355.1,267z"/>
		<path fill="#F2F2F2" stroke="#666666" stroke-linejoin="round" d="M345.7,275.9l-0.2,0.2c-0.8,0.7-2,0.7-2.8-0.1l-6.8-7.1
			c-0.7-0.8-0.7-2,0.1-2.8l0.2-0.2c0.8-0.7,2-0.7,2.8,0.1l6.8,7.1C346.5,273.9,346.5,275.1,345.7,275.9z"/>
		<path fill="#F2F2F2" stroke="#666666" stroke-linejoin="round" d="M418.6,258.6l5.1,5.3c0.7,0.8,0.7,2-0.1,2.8l-7.1,6.8
			c-0.8,0.7-2,0.7-2.8-0.1l-5.1-5.3c-0.7-0.8-0.7-2,0.1-2.8l7.1-6.8C416.6,257.8,417.8,257.8,418.6,258.6z"/>
		<path fill="#F2F2F2" stroke="#666666" stroke-linejoin="round" d="M427.5,267.9l0.2,0.2c0.7,0.8,0.7,2-0.1,2.8l-7.1,6.8
			c-0.8,0.7-2,0.7-2.8-0.1l-0.2-0.2c-0.7-0.8-0.7-2,0.1-2.8l7.1-6.8C425.5,267.1,426.7,267.1,427.5,267.9z"/>
		<path fill="#F2F2F2" stroke="#666666" stroke-linejoin="round" d="M422,208l6.8-2.7c1-0.4,2.2,0.1,2.6,1.1l3.6,9.1
			c0.4,1-0.1,2.2-1.1,2.6l-6.8,2.7c-1,0.4-2.2-0.1-2.6-1.1l-3.6-9.1C420.5,209.5,420.9,208.4,422,208z"/>
		<path fill="#F2F2F2" stroke="#666666" stroke-linejoin="round" d="M433.9,203.2l0.2-0.1c1-0.4,2.2,0.1,2.6,1.1l3.6,9.1
			c0.4,1-0.1,2.2-1.1,2.6l-0.2,0.1c-1,0.4-2.2-0.1-2.6-1.1l-3.6-9.1C432.4,204.7,432.9,203.6,433.9,203.2z"/>
		<path fill="#F2F2F2" stroke="#666666" stroke-linejoin="round" d="M359.9,192.1l-2.7-6.8c-0.4-1,0.1-2.2,1.1-2.6l9.1-3.6
			c1-0.4,2.2,0.1,2.6,1.1l2.7,6.8c0.4,1-0.1,2.2-1.1,2.6l-9.1,3.6C361.4,193.6,360.3,193.1,359.9,192.1z"/>
		<path fill="#F2F2F2" stroke="#666666" stroke-linejoin="round" d="M355.1,180.1l-0.1-0.2c-0.4-1,0.1-2.2,1.1-2.6l9.1-3.6
			c1-0.4,2.2,0.1,2.6,1.1l0.1,0.2c0.4,1-0.1,2.2-1.1,2.6l-9.1,3.6C356.6,181.6,355.5,181.1,355.1,180.1z"/>
		<path fill="#F2F2F2" stroke="#666666" stroke-linejoin="round" d="M343.6,254.1l-6.8,2.7c-1,0.4-2.2-0.1-2.6-1.1l-3.6-9.1
			c-0.4-1,0.1-2.2,1.1-2.6l6.8-2.7c1-0.4,2.2,0.1,2.6,1.1l3.6,9.1C345.1,252.5,344.7,253.7,343.6,254.1z"/>
		<path fill="#F2F2F2" stroke="#666666" stroke-linejoin="round" d="M331.7,258.8l-0.2,0.1c-1,0.4-2.2-0.1-2.6-1.1l-3.6-9.1
			c-0.4-1,0.1-2.2,1.1-2.6l0.2-0.1c1-0.4,2.2,0.1,2.6,1.1l3.6,9.1C333.2,257.3,332.7,258.4,331.7,258.8z"/>
		<path fill="#F2F2F2" stroke="#666666" stroke-linejoin="round" d="M405.7,269.9l2.7,6.8c0.4,1-0.1,2.2-1.1,2.6l-9.1,3.6
			c-1,0.4-2.2-0.1-2.6-1.1L393,275c-0.4-1,0.1-2.2,1.1-2.6l9.1-3.6C404.2,268.4,405.3,268.9,405.7,269.9z"/>
		<path fill="#F2F2F2" stroke="#666666" stroke-linejoin="round" d="M410.5,281.9l0.1,0.2c0.4,1-0.1,2.2-1.1,2.6l-9.1,3.6
			c-1,0.4-2.2-0.1-2.6-1.1l-0.1-0.2c-0.4-1,0.1-2.2,1.1-2.6l9.1-3.6C409,280.4,410.1,280.9,410.5,281.9z"/>
		<path fill="#F2F2F2" stroke="#666666" stroke-linejoin="round" d="M32.4,133.5h-8c-1.2,0-2.2-1-2.2-2.2v-10.8c0-1.2,1-2.2,2.2-2.2
			h8c1.2,0,2.2,1,2.2,2.2v10.8C34.6,132.5,33.6,133.5,32.4,133.5z"/>
		<path fill="#F2F2F2" stroke="#666666" stroke-linejoin="round" d="M18.3,133.5H18c-1.2,0-2.2-1-2.2-2.2v-10.8c0-1.2,1-2.2,2.2-2.2
			h0.3c1.2,0,2.2,1,2.2,2.2v10.8C20.4,132.5,19.5,133.5,18.3,133.5z"/>
		<path fill="#F2F2F2" stroke="#666666" stroke-linejoin="round" d="M32.4,114.5h-8c-1.2,0-2.2-1-2.2-2.2v-10.8c0-1.2,1-2.2,2.2-2.2
			h8c1.2,0,2.2,1,2.2,2.2v10.8C34.6,113.5,33.6,114.5,32.4,114.5z"/>
		<path fill="#F2F2F2" stroke="#666666" stroke-linejoin="round" d="M18.3,114.5H18c-1.2,0-2.2-1-2.2-2.2v-10.8c0-1.2,1-2.2,2.2-2.2
			h0.3c1.2,0,2.2,1,2.2,2.2v10.8C20.4,113.5,19.5,114.5,18.3,114.5z"/>
		<path fill="#F2F2F2" stroke="#666666" stroke-linejoin="round" d="M32.4,209.5h-8c-1.2,0-2.2-1-2.2-2.2v-10.8c0-1.2,1-2.2,2.2-2.2
			h8c1.2,0,2.2,1,2.2,2.2v10.8C34.6,208.5,33.6,209.5,32.4,209.5z"/>
		<path fill="#F2F2F2" stroke="#666666" stroke-linejoin="round" d="M18.3,209.5H18c-1.2,0-2.2-1-2.2-2.2v-10.8c0-1.2,1-2.2,2.2-2.2
			h0.3c1.2,0,2.2,1,2.2,2.2v10.8C20.4,208.5,19.5,209.5,18.3,209.5z"/>
		<path fill="#F2F2F2" stroke="#666666" stroke-linejoin="round" d="M32.4,228.4h-8c-1.2,0-2.2-1-2.2-2.2v-10.8c0-1.2,1-2.2,2.2-2.2
			h8c1.2,0,2.2,1,2.2,2.2v10.8C34.6,227.4,33.6,228.4,32.4,228.4z"/>
		<path fill="#F2F2F2" stroke="#666666" stroke-linejoin="round" d="M18.3,228.4H18c-1.2,0-2.2-1-2.2-2.2v-10.8c0-1.2,1-2.2,2.2-2.2
			h0.3c1.2,0,2.2,1,2.2,2.2v10.8C20.4,227.4,19.5,228.4,18.3,228.4z"/>
		<path fill="#F2F2F2" stroke="#666666" stroke-linejoin="round" d="M32.4,190.5h-8c-1.2,0-2.2-1-2.2-2.2v-10.8c0-1.2,1-2.2,2.2-2.2
			h8c1.2,0,2.2,1,2.2,2.2v10.8C34.6,189.5,33.6,190.5,32.4,190.5z"/>
		<path fill="#F2F2F2" stroke="#666666" stroke-linejoin="round" d="M18.3,190.5H18c-1.2,0-2.2-1-2.2-2.2v-10.8c0-1.2,1-2.2,2.2-2.2
			h0.3c1.2,0,2.2,1,2.2,2.2v10.8C20.4,189.5,19.5,190.5,18.3,190.5z"/>
		<path fill="#F2F2F2" stroke="#666666" stroke-linejoin="round" d="M32.4,171.5h-8c-1.2,0-2.2-1-2.2-2.2v-10.8c0-1.2,1-2.2,2.2-2.2
			h8c1.2,0,2.2,1,2.2,2.2v10.8C34.6,170.6,33.6,171.5,32.4,171.5z"/>
		<path fill="#F2F2F2" stroke="#666666" stroke-linejoin="round" d="M18.3,171.5H18c-1.2,0-2.2-1-2.2-2.2v-10.8c0-1.2,1-2.2,2.2-2.2
			h0.3c1.2,0,2.2,1,2.2,2.2v10.8C20.4,170.6,19.5,171.5,18.3,171.5z"/>
		<path fill="#F2F2F2" stroke="#666666" stroke-linejoin="round" d="M32.4,152.6h-8c-1.2,0-2.2-1-2.2-2.2v-10.8c0-1.2,1-2.2,2.2-2.2
			h8c1.2,0,2.2,1,2.2,2.2v10.8C34.6,151.6,33.6,152.6,32.4,152.6z"/>
		<path fill="#F2F2F2" stroke="#666666" stroke-linejoin="round" d="M18.3,152.6H18c-1.2,0-2.2-1-2.2-2.2v-10.8c0-1.2,1-2.2,2.2-2.2
			h0.3c1.2,0,2.2,1,2.2,2.2v10.8C20.4,151.6,19.5,152.6,18.3,152.6z"/>
		<path fill="#F2F2F2" stroke="#666666" stroke-linejoin="round" d="M41.4,94.5h24.8c1.2,0,2.2,1,2.2,2.2v40.7c0,1.2-1,2.2-2.2,2.2
			H41.4c-1.2,0-2.2-1-2.2-2.2V96.6C39.2,95.4,40.2,94.5,41.4,94.5z"/>
		<path fill="#F2F2F2" stroke="#666666" stroke-linejoin="round" d="M41.3,141.3h24.8c1.2,0,2.2,1,2.2,2.2v40.7c0,1.2-1,2.2-2.2,2.2
			H41.3c-1.2,0-2.2-1-2.2-2.2v-40.7C39.2,142.3,40.2,141.3,41.3,141.3z"/>
		<path fill="#F2F2F2" stroke="#666666" stroke-linejoin="round" d="M41.3,188.2h24.8c1.2,0,2.2,1,2.2,2.2v40.7c0,1.2-1,2.2-2.2,2.2
			H41.3c-1.2,0-2.2-1-2.2-2.2v-40.7C39.2,189.2,40.2,188.2,41.3,188.2z"/>
	</g>
</g>
</svg>
