<?xml version="1.0" encoding="utf-8"?>
<!-- Generator: Adobe Illustrator 21.0.0, SVG Export Plug-In . SVG Version: 6.00 Build 0)  -->
<svg version="1.0" id="Слой_1" xmlns="http://www.w3.org/2000/svg" xmlns:xlink="http://www.w3.org/1999/xlink" x="0px" y="0px"
	 viewBox="0 0 497.1 317.7" enable-background="new 0 0 497.1 317.7" xml:space="preserve">
<title>Baytik banket 48person (48)</title>
<g id="Слой_2">
	<g id="Baytik_T_33_38_">
		<path fill="#F2F2F2" stroke="#666666" stroke-linejoin="round" d="M170.1,174.3v-32.7c0-1.6,1.3-2.8,2.8-2.8h53.7
			c1.6,0,2.8,1.3,2.8,2.8v32.7c0,1.6-1.3,2.8-2.8,2.8h-53.7C171.3,177.1,170.1,175.9,170.1,174.3z"/>
		<path fill="#F2F2F2" stroke="#666666" stroke-linejoin="round" d="M231.9,174.3v-32.7c0-1.6,1.3-2.8,2.8-2.8h53.7
			c1.6,0,2.8,1.3,2.8,2.8v32.7c0,1.6-1.3,2.8-2.8,2.8h-53.7C233.2,177.1,231.9,175.9,231.9,174.3z"/>
		<path fill="#F2F2F2" stroke="#666666" stroke-linejoin="round" d="M108.2,174.3v-32.7c0-1.6,1.3-2.8,2.8-2.8h53.7
			c1.6,0,2.8,1.3,2.8,2.8v32.7c0,1.6-1.3,2.8-2.8,2.8H111C109.5,177.1,108.2,175.9,108.2,174.3z"/>
		<path fill="#F2F2F2" stroke="#666666" stroke-linejoin="round" d="M293.8,174.3v-32.7c0-1.6,1.3-2.8,2.8-2.8h53.7
			c1.6,0,2.8,1.3,2.8,2.8v32.7c0,1.6-1.3,2.8-2.8,2.8h-53.7C295.1,177.1,293.8,175.9,293.8,174.3z"/>
		<path fill="#F2F2F2" stroke="#666666" stroke-linejoin="round" d="M355.7,174.3v-32.7c0-1.6,1.3-2.8,2.8-2.8h53.7
			c1.6,0,2.8,1.3,2.8,2.8v32.7c0,1.6-1.3,2.8-2.8,2.8h-53.7C356.9,177.1,355.7,175.9,355.7,174.3z"/>
		<path fill="#F2F2F2" stroke="#666666" stroke-linejoin="round" d="M408.6,189.1v10.6c0,1.6-1.3,2.8-2.8,2.8h-14.2
			c-1.6,0-2.8-1.3-2.8-2.8v-10.6c0-1.6,1.3-2.8,2.8-2.8h14.2C407.3,186.2,408.6,187.5,408.6,189.1z"/>
		<path fill="#F2F2F2" stroke="#666666" stroke-linejoin="round" d="M408.6,207.7v0.4c0,1.6-1.3,2.8-2.8,2.8h-14.2
			c-1.6,0-2.8-1.3-2.8-2.8v-0.4c0-1.6,1.3-2.8,2.8-2.8h14.2C407.3,204.9,408.6,206.1,408.6,207.7z"/>
		<path fill="#F2F2F2" stroke="#666666" stroke-linejoin="round" d="M383.5,189.1v10.6c0,1.6-1.3,2.8-2.8,2.8h-14.2
			c-1.6,0-2.8-1.3-2.8-2.8v-10.6c0-1.6,1.3-2.8,2.8-2.8h14.2C382.3,186.2,383.5,187.5,383.5,189.1z"/>
		<path fill="#F2F2F2" stroke="#666666" stroke-linejoin="round" d="M383.5,207.7v0.4c0,1.6-1.3,2.8-2.8,2.8h-14.2
			c-1.6,0-2.8-1.3-2.8-2.8v-0.4c0-1.6,1.3-2.8,2.8-2.8h14.2C382.3,204.9,383.5,206.1,383.5,207.7z"/>
		<path fill="#F2F2F2" stroke="#666666" stroke-linejoin="round" d="M358.5,189.1v10.6c0,1.6-1.3,2.8-2.8,2.8h-14.2
			c-1.6,0-2.8-1.3-2.8-2.8v-10.6c0-1.6,1.3-2.8,2.8-2.8h14.2C357.2,186.2,358.5,187.5,358.5,189.1z"/>
		<path fill="#F2F2F2" stroke="#666666" stroke-linejoin="round" d="M358.5,207.7v0.4c0,1.6-1.3,2.8-2.8,2.8h-14.2
			c-1.6,0-2.8-1.3-2.8-2.8v-0.4c0-1.6,1.3-2.8,2.8-2.8h14.2C357.2,204.9,358.5,206.1,358.5,207.7z"/>
		<path fill="#F2F2F2" stroke="#666666" stroke-linejoin="round" d="M333.5,189.1v10.6c0,1.6-1.3,2.8-2.8,2.8h-14.2
			c-1.6,0-2.8-1.3-2.8-2.8v-10.6c0-1.6,1.3-2.8,2.8-2.8h14.2C332.2,186.2,333.5,187.5,333.5,189.1z"/>
		<path fill="#F2F2F2" stroke="#666666" stroke-linejoin="round" d="M333.5,207.7v0.4c0,1.6-1.3,2.8-2.8,2.8h-14.2
			c-1.6,0-2.8-1.3-2.8-2.8v-0.4c0-1.6,1.3-2.8,2.8-2.8h14.2C332.2,204.9,333.5,206.1,333.5,207.7z"/>
		<path fill="#F2F2F2" stroke="#666666" stroke-linejoin="round" d="M308.5,189.1v10.6c0,1.6-1.3,2.8-2.8,2.8h-14.2
			c-1.6,0-2.8-1.3-2.8-2.8v-10.6c0-1.6,1.3-2.8,2.8-2.8h14.2C307.2,186.2,308.5,187.5,308.5,189.1z"/>
		<path fill="#F2F2F2" stroke="#666666" stroke-linejoin="round" d="M308.5,207.7v0.4c0,1.6-1.3,2.8-2.8,2.8h-14.2
			c-1.6,0-2.8-1.3-2.8-2.8v-0.4c0-1.6,1.3-2.8,2.8-2.8h14.2C307.2,204.9,308.5,206.1,308.5,207.7z"/>
		<path fill="#F2F2F2" stroke="#666666" stroke-linejoin="round" d="M283.5,189.1v10.6c0,1.6-1.3,2.8-2.8,2.8h-14.2
			c-1.6,0-2.8-1.3-2.8-2.8v-10.6c0-1.6,1.3-2.8,2.8-2.8h14.2C282.2,186.2,283.5,187.5,283.5,189.1z"/>
		<path fill="#F2F2F2" stroke="#666666" stroke-linejoin="round" d="M283.5,207.7v0.4c0,1.6-1.3,2.8-2.8,2.8h-14.2
			c-1.6,0-2.8-1.3-2.8-2.8v-0.4c0-1.6,1.3-2.8,2.8-2.8h14.2C282.2,204.9,283.5,206.1,283.5,207.7z"/>
		<path fill="#F2F2F2" stroke="#666666" stroke-linejoin="round" d="M258.5,189.1v10.6c0,1.6-1.3,2.8-2.8,2.8h-14.2
			c-1.6,0-2.8-1.3-2.8-2.8v-10.6c0-1.6,1.3-2.8,2.8-2.8h14.2C257.2,186.2,258.5,187.5,258.5,189.1z"/>
		<path fill="#F2F2F2" stroke="#666666" stroke-linejoin="round" d="M258.5,207.7v0.4c0,1.6-1.3,2.8-2.8,2.8h-14.2
			c-1.6,0-2.8-1.3-2.8-2.8v-0.4c0-1.6,1.3-2.8,2.8-2.8h14.2C257.2,204.9,258.5,206.1,258.5,207.7z"/>
		<path fill="#F2F2F2" stroke="#666666" stroke-linejoin="round" d="M233.4,189.1v10.6c0,1.6-1.3,2.8-2.8,2.8h-14.2
			c-1.6,0-2.8-1.3-2.8-2.8v-10.6c0-1.6,1.3-2.8,2.8-2.8h14.2C232.2,186.2,233.4,187.5,233.4,189.1z"/>
		<path fill="#F2F2F2" stroke="#666666" stroke-linejoin="round" d="M233.4,207.7v0.4c0,1.6-1.3,2.8-2.8,2.8h-14.2
			c-1.6,0-2.8-1.3-2.8-2.8v-0.4c0-1.6,1.3-2.8,2.8-2.8h14.2C232.2,204.9,233.4,206.1,233.4,207.7z"/>
		<path fill="#F2F2F2" stroke="#666666" stroke-linejoin="round" d="M208.4,189.1v10.6c0,1.6-1.3,2.8-2.8,2.8h-14.2
			c-1.6,0-2.8-1.3-2.8-2.8v-10.6c0-1.6,1.3-2.8,2.8-2.8h14.2C207.1,186.2,208.4,187.5,208.4,189.1z"/>
		<path fill="#F2F2F2" stroke="#666666" stroke-linejoin="round" d="M208.4,207.7v0.4c0,1.6-1.3,2.8-2.8,2.8h-14.2
			c-1.6,0-2.8-1.3-2.8-2.8v-0.4c0-1.6,1.3-2.8,2.8-2.8h14.2C207.1,204.9,208.4,206.1,208.4,207.7z"/>
		<path fill="#F2F2F2" stroke="#666666" stroke-linejoin="round" d="M183.4,189.1v10.6c0,1.6-1.3,2.8-2.8,2.8h-14.2
			c-1.6,0-2.8-1.3-2.8-2.8v-10.6c0-1.6,1.3-2.8,2.8-2.8h14.2C182.1,186.2,183.4,187.5,183.4,189.1z"/>
		<path fill="#F2F2F2" stroke="#666666" stroke-linejoin="round" d="M183.4,207.7v0.4c0,1.6-1.3,2.8-2.8,2.8h-14.2
			c-1.6,0-2.8-1.3-2.8-2.8v-0.4c0-1.6,1.3-2.8,2.8-2.8h14.2C182.1,204.9,183.4,206.1,183.4,207.7z"/>
		<path fill="#F2F2F2" stroke="#666666" stroke-linejoin="round" d="M158.4,189.1v10.6c0,1.6-1.3,2.8-2.8,2.8h-14.2
			c-1.6,0-2.8-1.3-2.8-2.8v-10.6c0-1.6,1.3-2.8,2.8-2.8h14.2C157.1,186.2,158.4,187.5,158.4,189.1z"/>
		<path fill="#F2F2F2" stroke="#666666" stroke-linejoin="round" d="M158.4,207.7v0.4c0,1.6-1.3,2.8-2.8,2.8h-14.2
			c-1.6,0-2.8-1.3-2.8-2.8v-0.4c0-1.6,1.3-2.8,2.8-2.8h14.2C157.1,204.9,158.4,206.1,158.4,207.7z"/>
		<path fill="#F2F2F2" stroke="#666666" stroke-linejoin="round" d="M133.4,189.1v10.6c0,1.6-1.3,2.8-2.8,2.8h-14.2
			c-1.6,0-2.8-1.3-2.8-2.8v-10.6c0-1.6,1.3-2.8,2.8-2.8h14.2C132.1,186.2,133.4,187.5,133.4,189.1z"/>
		<path fill="#F2F2F2" stroke="#666666" stroke-linejoin="round" d="M133.4,207.7v0.4c0,1.6-1.3,2.8-2.8,2.8h-14.2
			c-1.6,0-2.8-1.3-2.8-2.8v-0.4c0-1.6,1.3-2.8,2.8-2.8h14.2C132.1,204.9,133.4,206.1,133.4,207.7z"/>
		<path fill="#F2F2F2" stroke="#666666" stroke-linejoin="round" d="M161.3,126.8v-10.6c0-1.6,1.3-2.8,2.8-2.8h14.2
			c1.6,0,2.8,1.3,2.8,2.8v10.6c0,1.6-1.3,2.8-2.8,2.8h-14.2C162.6,129.7,161.3,128.4,161.3,126.8z"/>
		<path fill="#F2F2F2" stroke="#666666" stroke-linejoin="round" d="M161.3,108.2v-0.4c0-1.6,1.3-2.8,2.8-2.8h14.2
			c1.6,0,2.8,1.3,2.8,2.8v0.4c0,1.6-1.3,2.8-2.8,2.8h-14.2C162.6,111,161.3,109.8,161.3,108.2z"/>
		<path fill="#F2F2F2" stroke="#666666" stroke-linejoin="round" d="M186.3,126.8v-10.6c0-1.6,1.3-2.8,2.8-2.8h14.2
			c1.6,0,2.8,1.3,2.8,2.8v10.6c0,1.6-1.3,2.8-2.8,2.8h-14.2C187.6,129.7,186.3,128.4,186.3,126.8z"/>
		<path fill="#F2F2F2" stroke="#666666" stroke-linejoin="round" d="M186.3,108.2v-0.4c0-1.6,1.3-2.8,2.8-2.8h14.2
			c1.6,0,2.8,1.3,2.8,2.8v0.4c0,1.6-1.3,2.8-2.8,2.8h-14.2C187.6,111,186.3,109.8,186.3,108.2z"/>
		<path fill="#F2F2F2" stroke="#666666" stroke-linejoin="round" d="M211.4,126.8v-10.6c0-1.6,1.3-2.8,2.8-2.8h14.2
			c1.6,0,2.8,1.3,2.8,2.8v10.6c0,1.6-1.3,2.8-2.8,2.8h-14.2C212.6,129.7,211.4,128.4,211.4,126.8z"/>
		<path fill="#F2F2F2" stroke="#666666" stroke-linejoin="round" d="M211.4,108.2v-0.4c0-1.6,1.3-2.8,2.8-2.8h14.2
			c1.6,0,2.8,1.3,2.8,2.8v0.4c0,1.6-1.3,2.8-2.8,2.8h-14.2C212.6,111,211.4,109.8,211.4,108.2z"/>
		<path fill="#F2F2F2" stroke="#666666" stroke-linejoin="round" d="M236.4,126.8v-10.6c0-1.6,1.3-2.8,2.8-2.8h14.2
			c1.6,0,2.8,1.3,2.8,2.8v10.6c0,1.6-1.3,2.8-2.8,2.8h-14.2C237.6,129.7,236.4,128.4,236.4,126.8z"/>
		<path fill="#F2F2F2" stroke="#666666" stroke-linejoin="round" d="M236.4,108.2v-0.4c0-1.6,1.3-2.8,2.8-2.8h14.2
			c1.6,0,2.8,1.3,2.8,2.8v0.4c0,1.6-1.3,2.8-2.8,2.8h-14.2C237.6,111,236.4,109.8,236.4,108.2z"/>
		<path fill="#F2F2F2" stroke="#666666" stroke-linejoin="round" d="M261.4,126.8v-10.6c0-1.6,1.3-2.8,2.8-2.8h14.2
			c1.6,0,2.8,1.3,2.8,2.8v10.6c0,1.6-1.3,2.8-2.8,2.8h-14.2C262.7,129.7,261.4,128.4,261.4,126.8z"/>
		<path fill="#F2F2F2" stroke="#666666" stroke-linejoin="round" d="M261.4,108.2v-0.4c0-1.6,1.3-2.8,2.8-2.8h14.2
			c1.6,0,2.8,1.3,2.8,2.8v0.4c0,1.6-1.3,2.8-2.8,2.8h-14.2C262.7,111,261.4,109.8,261.4,108.2z"/>
		<path fill="#F2F2F2" stroke="#666666" stroke-linejoin="round" d="M286.4,126.8v-10.6c0-1.6,1.3-2.8,2.8-2.8h14.2
			c1.6,0,2.8,1.3,2.8,2.8v10.6c0,1.6-1.3,2.8-2.8,2.8h-14.2C287.7,129.7,286.4,128.4,286.4,126.8z"/>
		<path fill="#F2F2F2" stroke="#666666" stroke-linejoin="round" d="M286.4,108.2v-0.4c0-1.6,1.3-2.8,2.8-2.8h14.2
			c1.6,0,2.8,1.3,2.8,2.8v0.4c0,1.6-1.3,2.8-2.8,2.8h-14.2C287.7,111,286.4,109.8,286.4,108.2z"/>
		<path fill="#F2F2F2" stroke="#666666" stroke-linejoin="round" d="M311.4,126.8v-10.6c0-1.6,1.3-2.8,2.8-2.8h14.2
			c1.6,0,2.8,1.3,2.8,2.8v10.6c0,1.6-1.3,2.8-2.8,2.8h-14.2C312.7,129.7,311.4,128.4,311.4,126.8z"/>
		<path fill="#F2F2F2" stroke="#666666" stroke-linejoin="round" d="M311.4,108.2v-0.4c0-1.6,1.3-2.8,2.8-2.8h14.2
			c1.6,0,2.8,1.3,2.8,2.8v0.4c0,1.6-1.3,2.8-2.8,2.8h-14.2C312.7,111,311.4,109.8,311.4,108.2z"/>
		<path fill="#F2F2F2" stroke="#666666" stroke-linejoin="round" d="M336.4,126.8v-10.6c0-1.6,1.3-2.8,2.8-2.8h14.2
			c1.6,0,2.8,1.3,2.8,2.8v10.6c0,1.6-1.3,2.8-2.8,2.8h-14.2C337.7,129.7,336.4,128.4,336.4,126.8z"/>
		<path fill="#F2F2F2" stroke="#666666" stroke-linejoin="round" d="M336.4,108.2v-0.4c0-1.6,1.3-2.8,2.8-2.8h14.2
			c1.6,0,2.8,1.3,2.8,2.8v0.4c0,1.6-1.3,2.8-2.8,2.8h-14.2C337.7,111,336.4,109.8,336.4,108.2z"/>
		<path fill="#F2F2F2" stroke="#666666" stroke-linejoin="round" d="M361.5,126.8v-10.6c0-1.6,1.3-2.8,2.8-2.8h14.2
			c1.6,0,2.8,1.3,2.8,2.8v10.6c0,1.6-1.3,2.8-2.8,2.8h-14.2C362.7,129.7,361.5,128.4,361.5,126.8z"/>
		<path fill="#F2F2F2" stroke="#666666" stroke-linejoin="round" d="M361.5,108.2v-0.4c0-1.6,1.3-2.8,2.8-2.8h14.2
			c1.6,0,2.8,1.3,2.8,2.8v0.4c0,1.6-1.3,2.8-2.8,2.8h-14.2C362.7,111,361.5,109.8,361.5,108.2z"/>
		<path fill="#F2F2F2" stroke="#666666" stroke-linejoin="round" d="M386.5,126.8v-10.6c0-1.6,1.3-2.8,2.8-2.8h14.2
			c1.6,0,2.8,1.3,2.8,2.8v10.6c0,1.6-1.3,2.8-2.8,2.8h-14.2C387.7,129.7,386.5,128.4,386.5,126.8z"/>
		<path fill="#F2F2F2" stroke="#666666" stroke-linejoin="round" d="M386.5,108.2v-0.4c0-1.6,1.3-2.8,2.8-2.8h14.2
			c1.6,0,2.8,1.3,2.8,2.8v0.4c0,1.6-1.3,2.8-2.8,2.8h-14.2C387.7,111,386.5,109.8,386.5,108.2z"/>
		<path fill="#F2F2F2" stroke="#666666" stroke-linejoin="round" d="M113.5,126.8v-10.6c0-1.6,1.3-2.8,2.8-2.8h14.2
			c1.6,0,2.8,1.3,2.8,2.8v10.6c0,1.6-1.3,2.8-2.8,2.8h-14.2C114.8,129.7,113.5,128.4,113.5,126.8z"/>
		<path fill="#F2F2F2" stroke="#666666" stroke-linejoin="round" d="M113.5,108.2v-0.4c0-1.6,1.3-2.8,2.8-2.8h14.2
			c1.6,0,2.8,1.3,2.8,2.8v0.4c0,1.6-1.3,2.8-2.8,2.8h-14.2C114.8,111,113.5,109.8,113.5,108.2z"/>
		<path fill="#F2F2F2" stroke="#666666" stroke-linejoin="round" d="M138.5,126.8v-10.6c0-1.6,1.3-2.8,2.8-2.8h14.2
			c1.6,0,2.8,1.3,2.8,2.8v10.6c0,1.6-1.3,2.8-2.8,2.8h-14.2C139.8,129.7,138.5,128.4,138.5,126.8z"/>
		<path fill="#F2F2F2" stroke="#666666" stroke-linejoin="round" d="M138.5,108.2v-0.4c0-1.6,1.3-2.8,2.8-2.8h14.2
			c1.6,0,2.8,1.3,2.8,2.8v0.4c0,1.6-1.3,2.8-2.8,2.8h-14.2C139.8,111,138.5,109.8,138.5,108.2z"/>
		<path fill="#F2F2F2" stroke="#666666" stroke-linejoin="round" d="M58.7,142.8H48.1c-1.6,0-2.8-1.3-2.8-2.8v-14.2
			c0-1.6,1.3-2.8,2.8-2.8h10.6c1.6,0,2.8,1.3,2.8,2.8v14.2C61.6,141.5,60.3,142.8,58.7,142.8z"/>
		<path fill="#F2F2F2" stroke="#666666" stroke-linejoin="round" d="M40.1,142.8h-0.4c-1.6,0-2.8-1.3-2.8-2.8v-14.2
			c0-1.6,1.3-2.8,2.8-2.8h0.4c1.6,0,2.8,1.3,2.8,2.8v14.2C42.9,141.5,41.6,142.8,40.1,142.8z"/>
		<path fill="#F2F2F2" stroke="#666666" stroke-linejoin="round" d="M58.7,117.7H48.1c-1.6,0-2.8-1.3-2.8-2.8v-14.2
			c0-1.6,1.3-2.8,2.8-2.8h10.6c1.6,0,2.8,1.3,2.8,2.8v14.2C61.6,116.5,60.3,117.7,58.7,117.7z"/>
		<path fill="#F2F2F2" stroke="#666666" stroke-linejoin="round" d="M40.1,117.7h-0.4c-1.6,0-2.8-1.3-2.8-2.8v-14.2
			c0-1.6,1.3-2.8,2.8-2.8h0.4c1.6,0,2.8,1.3,2.8,2.8v14.2C42.9,116.5,41.6,117.7,40.1,117.7z"/>
		<path fill="#F2F2F2" stroke="#666666" stroke-linejoin="round" d="M58.7,92.7H48.1c-1.6,0-2.8-1.3-2.8-2.8V75.7
			c0-1.6,1.3-2.8,2.8-2.8h10.6c1.6,0,2.8,1.3,2.8,2.8v14.2C61.6,91.4,60.3,92.7,58.7,92.7z"/>
		<path fill="#F2F2F2" stroke="#666666" stroke-linejoin="round" d="M40.1,92.7h-0.4c-1.6,0-2.8-1.3-2.8-2.8V75.7
			c0-1.6,1.3-2.8,2.8-2.8h0.4c1.6,0,2.8,1.3,2.8,2.8v14.2C42.9,91.4,41.6,92.7,40.1,92.7z"/>
		<path fill="#F2F2F2" stroke="#666666" stroke-linejoin="round" d="M58.7,67.7H48.1c-1.6,0-2.8-1.3-2.8-2.8V50.7
			c0-1.6,1.3-2.8,2.8-2.8h10.6c1.6,0,2.8,1.3,2.8,2.8v14.2C61.6,66.4,60.3,67.7,58.7,67.7z"/>
		<path fill="#F2F2F2" stroke="#666666" stroke-linejoin="round" d="M40.1,67.7h-0.4c-1.6,0-2.8-1.3-2.8-2.8V50.7
			c0-1.6,1.3-2.8,2.8-2.8h0.4c1.6,0,2.8,1.3,2.8,2.8v14.2C42.9,66.4,41.6,67.7,40.1,67.7z"/>
		<path fill="#F2F2F2" stroke="#666666" stroke-linejoin="round" d="M58.7,243H48.1c-1.6,0-2.8-1.3-2.8-2.8V226
			c0-1.6,1.3-2.8,2.8-2.8h10.6c1.6,0,2.8,1.3,2.8,2.8v14.2C61.6,241.7,60.3,243,58.7,243z"/>
		<path fill="#F2F2F2" stroke="#666666" stroke-linejoin="round" d="M40.1,243h-0.4c-1.6,0-2.8-1.3-2.8-2.8V226
			c0-1.6,1.3-2.8,2.8-2.8h0.4c1.6,0,2.8,1.3,2.8,2.8v14.2C42.9,241.7,41.6,243,40.1,243z"/>
		<path fill="#F2F2F2" stroke="#666666" stroke-linejoin="round" d="M58.7,268H48.1c-1.6,0-2.8-1.3-2.8-2.8V251
			c0-1.6,1.3-2.8,2.8-2.8h10.6c1.6,0,2.8,1.3,2.8,2.8v14.2C61.6,266.8,60.3,268,58.7,268z"/>
		<path fill="#F2F2F2" stroke="#666666" stroke-linejoin="round" d="M40.1,268h-0.4c-1.6,0-2.8-1.3-2.8-2.8V251
			c0-1.6,1.3-2.8,2.8-2.8h0.4c1.6,0,2.8,1.3,2.8,2.8v14.2C42.9,266.8,41.6,268,40.1,268z"/>
		<path fill="#F2F2F2" stroke="#666666" stroke-linejoin="round" d="M58.7,218H48.1c-1.6,0-2.8-1.3-2.8-2.8V201
			c0-1.6,1.3-2.8,2.8-2.8h10.6c1.6,0,2.8,1.3,2.8,2.8v14.2C61.6,216.7,60.3,218,58.7,218z"/>
		<path fill="#F2F2F2" stroke="#666666" stroke-linejoin="round" d="M40.1,218h-0.4c-1.6,0-2.8-1.3-2.8-2.8V201
			c0-1.6,1.3-2.8,2.8-2.8h0.4c1.6,0,2.8,1.3,2.8,2.8v14.2C42.9,216.7,41.6,218,40.1,218z"/>
		<path fill="#F2F2F2" stroke="#666666" stroke-linejoin="round" d="M58.7,193H48.1c-1.6,0-2.8-1.3-2.8-2.8V176
			c0-1.6,1.3-2.8,2.8-2.8h10.6c1.6,0,2.8,1.3,2.8,2.8v14.2C61.6,191.7,60.3,193,58.7,193z"/>
		<path fill="#F2F2F2" stroke="#666666" stroke-linejoin="round" d="M40.1,193h-0.4c-1.6,0-2.8-1.3-2.8-2.8V176
			c0-1.6,1.3-2.8,2.8-2.8h0.4c1.6,0,2.8,1.3,2.8,2.8v14.2C42.9,191.7,41.6,193,40.1,193z"/>
		<path fill="#F2F2F2" stroke="#666666" stroke-linejoin="round" d="M58.7,168H48.1c-1.6,0-2.8-1.3-2.8-2.8v-14.2
			c0-1.6,1.3-2.8,2.8-2.8h10.6c1.6,0,2.8,1.3,2.8,2.8v14.2C61.6,166.7,60.3,168,58.7,168z"/>
		<path fill="#F2F2F2" stroke="#666666" stroke-linejoin="round" d="M40.1,168h-0.4c-1.6,0-2.8-1.3-2.8-2.8v-14.2
			c0-1.6,1.3-2.8,2.8-2.8h0.4c1.6,0,2.8,1.3,2.8,2.8v14.2C42.9,166.7,41.6,168,40.1,168z"/>
		<path fill="#F2F2F2" stroke="#666666" stroke-linejoin="round" d="M70.5,35.4h32.7c1.6,0,2.8,1.3,2.8,2.8V92
			c0,1.6-1.3,2.8-2.8,2.8H70.5c-1.6,0-2.8-1.3-2.8-2.8V38.3C67.7,36.7,68.9,35.4,70.5,35.4z"/>
		<path fill="#F2F2F2" stroke="#666666" stroke-linejoin="round" d="M70.5,97.3h32.7c1.6,0,2.8,1.3,2.8,2.8v53.7
			c0,1.6-1.3,2.8-2.8,2.8H70.5c-1.6,0-2.8-1.3-2.8-2.8v-53.7C67.7,98.6,68.9,97.3,70.5,97.3z"/>
		<path fill="#F2F2F2" stroke="#666666" stroke-linejoin="round" d="M70.5,159.2h32.7c1.6,0,2.8,1.3,2.8,2.8v53.7
			c0,1.6-1.3,2.8-2.8,2.8H70.5c-1.6,0-2.8-1.3-2.8-2.8V162C67.7,160.5,68.9,159.2,70.5,159.2z"/>
		<path fill="#F2F2F2" stroke="#666666" stroke-linejoin="round" d="M70.5,221h32.7c1.6,0,2.8,1.3,2.8,2.8v53.7
			c0,1.6-1.3,2.8-2.8,2.8H70.5c-1.6,0-2.8-1.3-2.8-2.8v-53.7C67.7,222.3,68.9,221,70.5,221z"/>
	</g>
</g>
</svg>
